G04 EAGLE Gerber RS-274X export*
G75*
%MOMM*%
%FSLAX34Y34*%
%LPD*%
%INSilkscreen Bottom*%
%IPPOS*%
%AMOC8*
5,1,8,0,0,1.08239X$1,22.5*%
G01*
%ADD10C,0.203200*%
%ADD11C,0.152400*%

G36*
X65893Y183660D02*
X65893Y183660D01*
X65902Y183656D01*
X66502Y183956D01*
X66512Y183976D01*
X66524Y183978D01*
X69524Y189978D01*
X69522Y189986D01*
X69528Y189991D01*
X69529Y189992D01*
X69629Y190592D01*
X69619Y190611D01*
X69624Y190622D01*
X66624Y196722D01*
X66324Y197322D01*
X66287Y197341D01*
X66280Y197349D01*
X62980Y197349D01*
X62951Y197327D01*
X62938Y197326D01*
X62925Y197305D01*
X62918Y197315D01*
X62916Y197333D01*
X62905Y197332D01*
X62893Y197347D01*
X62886Y197342D01*
X62880Y197349D01*
X20280Y197349D01*
X20242Y197320D01*
X20234Y197318D01*
X20034Y196818D01*
X20035Y196816D01*
X20033Y196814D01*
X20037Y196808D01*
X20038Y196805D01*
X20031Y196800D01*
X20031Y183900D01*
X20060Y183862D01*
X20062Y183854D01*
X20562Y183654D01*
X20575Y183658D01*
X20580Y183651D01*
X65880Y183651D01*
X65893Y183660D01*
G37*
G36*
X62421Y82059D02*
X62421Y82059D01*
X62428Y82054D01*
X62928Y82254D01*
X62943Y82278D01*
X62950Y82284D01*
X62948Y82287D01*
X62953Y82295D01*
X62959Y82300D01*
X62959Y95200D01*
X62955Y95206D01*
X62958Y95210D01*
X62858Y95710D01*
X62814Y95749D01*
X62812Y95747D01*
X62810Y95749D01*
X59610Y95749D01*
X59578Y95725D01*
X59566Y95723D01*
X59552Y95694D01*
X59551Y95695D01*
X59542Y95737D01*
X59522Y95733D01*
X59510Y95749D01*
X21010Y95749D01*
X20985Y95730D01*
X20972Y95731D01*
X20572Y95231D01*
X20571Y95223D01*
X20566Y95222D01*
X17566Y89122D01*
X17568Y89110D01*
X17564Y89107D01*
X17569Y89100D01*
X17561Y89092D01*
X17661Y88492D01*
X17669Y88485D01*
X17666Y88478D01*
X20666Y82478D01*
X20679Y82471D01*
X20679Y82462D01*
X21179Y82062D01*
X21202Y82061D01*
X21210Y82051D01*
X62410Y82051D01*
X62421Y82059D01*
G37*
G36*
X113801Y221767D02*
X113801Y221767D01*
X113815Y221765D01*
X114215Y222165D01*
X114216Y222177D01*
X114221Y222181D01*
X114218Y222186D01*
X114219Y222192D01*
X114229Y222200D01*
X114229Y235000D01*
X114213Y235021D01*
X114215Y235035D01*
X113815Y235435D01*
X113790Y235438D01*
X113787Y235442D01*
X113785Y235442D01*
X113780Y235449D01*
X76880Y235449D01*
X76876Y235446D01*
X76873Y235449D01*
X76173Y235349D01*
X76172Y235348D01*
X76172Y235349D01*
X75572Y235249D01*
X75569Y235245D01*
X75566Y235247D01*
X74866Y235047D01*
X74862Y235042D01*
X74858Y235044D01*
X73658Y234444D01*
X73655Y234437D01*
X73649Y234438D01*
X73151Y234040D01*
X72553Y233641D01*
X72549Y233631D01*
X72542Y233631D01*
X72143Y233133D01*
X71645Y232635D01*
X71644Y232623D01*
X71636Y232622D01*
X70736Y230822D01*
X70737Y230815D01*
X70733Y230814D01*
X70694Y230678D01*
X70652Y230531D01*
X70638Y230481D01*
X70596Y230334D01*
X70553Y230186D01*
X70539Y230137D01*
X70533Y230114D01*
X70535Y230109D01*
X70531Y230107D01*
X70431Y229407D01*
X70434Y229402D01*
X70431Y229400D01*
X70431Y228100D01*
X70434Y228096D01*
X70431Y228093D01*
X70531Y227393D01*
X70532Y227392D01*
X70531Y227392D01*
X70631Y226792D01*
X70635Y226789D01*
X70633Y226786D01*
X70833Y226086D01*
X70838Y226082D01*
X70836Y226078D01*
X71136Y225478D01*
X71140Y225476D01*
X71139Y225473D01*
X71538Y224874D01*
X71838Y224375D01*
X71846Y224371D01*
X71845Y224365D01*
X72845Y223365D01*
X72849Y223365D01*
X72849Y223362D01*
X73349Y222962D01*
X73353Y222961D01*
X73353Y222959D01*
X73953Y222559D01*
X73962Y222560D01*
X73964Y222553D01*
X74562Y222354D01*
X75261Y222055D01*
X75269Y222057D01*
X75272Y222051D01*
X75872Y221951D01*
X75873Y221952D01*
X75873Y221951D01*
X77273Y221751D01*
X77278Y221754D01*
X77280Y221751D01*
X113780Y221751D01*
X113801Y221767D01*
G37*
G36*
X177904Y243184D02*
X177904Y243184D01*
X177907Y243181D01*
X178607Y243281D01*
X178608Y243282D01*
X178608Y243281D01*
X179208Y243381D01*
X179907Y243481D01*
X179915Y243489D01*
X179922Y243486D01*
X181122Y244086D01*
X181124Y244090D01*
X181127Y244089D01*
X181727Y244489D01*
X181728Y244492D01*
X181731Y244492D01*
X182731Y245292D01*
X182732Y245296D01*
X182735Y245295D01*
X183235Y245795D01*
X183236Y245807D01*
X183244Y245808D01*
X183543Y246405D01*
X183941Y247003D01*
X183941Y247008D01*
X183942Y247009D01*
X183940Y247011D01*
X183940Y247012D01*
X183947Y247014D01*
X184147Y247614D01*
X184146Y247616D01*
X184147Y247616D01*
X184157Y247649D01*
X184171Y247698D01*
X184213Y247846D01*
X184255Y247994D01*
X184269Y248043D01*
X184311Y248191D01*
X184312Y248191D01*
X184311Y248191D01*
X184347Y248315D01*
X184547Y248914D01*
X184545Y248921D01*
X184549Y248923D01*
X184649Y249623D01*
X184646Y249628D01*
X184649Y249630D01*
X184649Y283830D01*
X184636Y283848D01*
X184639Y283860D01*
X184339Y284260D01*
X184308Y284269D01*
X184300Y284279D01*
X171400Y284279D01*
X171382Y284266D01*
X171370Y284269D01*
X170970Y283969D01*
X170962Y283938D01*
X170951Y283930D01*
X170951Y250130D01*
X170954Y250126D01*
X170951Y250123D01*
X171051Y249427D01*
X171051Y248730D01*
X171058Y248721D01*
X171053Y248714D01*
X171253Y248115D01*
X171453Y247416D01*
X171458Y247412D01*
X171456Y247408D01*
X171756Y246808D01*
X171760Y246806D01*
X171759Y246803D01*
X172159Y246203D01*
X172162Y246202D01*
X172162Y246199D01*
X172962Y245199D01*
X172966Y245198D01*
X172965Y245195D01*
X173465Y244695D01*
X173472Y244694D01*
X173473Y244689D01*
X174073Y244289D01*
X174075Y244289D01*
X174075Y244288D01*
X174575Y243988D01*
X174580Y243988D01*
X174581Y243985D01*
X175281Y243685D01*
X175284Y243686D01*
X175284Y243683D01*
X176484Y243283D01*
X176491Y243285D01*
X176493Y243281D01*
X177193Y243181D01*
X177198Y243184D01*
X177200Y243181D01*
X177900Y243181D01*
X177904Y243184D01*
G37*
G36*
X60817Y56687D02*
X60817Y56687D01*
X60808Y56699D01*
X60818Y56710D01*
X60718Y57210D01*
X60711Y57216D01*
X60714Y57222D01*
X57719Y63311D01*
X57719Y63888D01*
X60814Y69978D01*
X60813Y69982D01*
X60816Y69984D01*
X60812Y69990D01*
X60807Y70016D01*
X60811Y70027D01*
X60611Y70327D01*
X60578Y70339D01*
X60570Y70349D01*
X54170Y70349D01*
X54137Y70325D01*
X54126Y70323D01*
X54118Y70307D01*
X54106Y70319D01*
X54103Y70336D01*
X54091Y70334D01*
X54076Y70349D01*
X54073Y70345D01*
X54070Y70349D01*
X21570Y70349D01*
X21561Y70342D01*
X21552Y70336D01*
X21540Y70339D01*
X21140Y70039D01*
X21135Y70020D01*
X21123Y70011D01*
X21127Y70005D01*
X21121Y70000D01*
X21121Y57100D01*
X21134Y57082D01*
X21131Y57070D01*
X21431Y56670D01*
X21462Y56662D01*
X21470Y56651D01*
X60770Y56651D01*
X60817Y56687D01*
G37*
G36*
X57675Y234454D02*
X57675Y234454D01*
X57678Y234451D01*
X58278Y234551D01*
X58319Y234595D01*
X58316Y234598D01*
X58319Y234600D01*
X58319Y248100D01*
X58283Y248147D01*
X58276Y248142D01*
X58270Y248149D01*
X54970Y248149D01*
X54944Y248129D01*
X54930Y248129D01*
X54909Y248100D01*
X54908Y248131D01*
X54884Y248130D01*
X54870Y248149D01*
X21070Y248149D01*
X21065Y248146D01*
X21062Y248149D01*
X20462Y248049D01*
X20425Y248010D01*
X20423Y248008D01*
X20423Y248007D01*
X20421Y248005D01*
X20424Y248003D01*
X20421Y248000D01*
X20421Y234500D01*
X20457Y234453D01*
X20464Y234458D01*
X20470Y234451D01*
X57670Y234451D01*
X57675Y234454D01*
G37*
G36*
X235447Y246517D02*
X235447Y246517D01*
X235442Y246524D01*
X235449Y246530D01*
X235449Y249830D01*
X235429Y249857D01*
X235429Y249870D01*
X235400Y249891D01*
X235431Y249892D01*
X235430Y249916D01*
X235449Y249930D01*
X235449Y283730D01*
X235446Y283735D01*
X235449Y283738D01*
X235349Y284338D01*
X235305Y284379D01*
X235303Y284376D01*
X235300Y284379D01*
X221800Y284379D01*
X221753Y284343D01*
X221758Y284336D01*
X221751Y284330D01*
X221751Y247130D01*
X221754Y247125D01*
X221751Y247122D01*
X221851Y246522D01*
X221895Y246481D01*
X221898Y246484D01*
X221900Y246481D01*
X235400Y246481D01*
X235447Y246517D01*
G37*
G36*
X298947Y25537D02*
X298947Y25537D01*
X298942Y25544D01*
X298949Y25550D01*
X298949Y28850D01*
X298929Y28877D01*
X298929Y28890D01*
X298900Y28911D01*
X298931Y28912D01*
X298930Y28936D01*
X298949Y28950D01*
X298949Y62750D01*
X298946Y62755D01*
X298949Y62758D01*
X298849Y63358D01*
X298805Y63399D01*
X298803Y63396D01*
X298800Y63399D01*
X285300Y63399D01*
X285253Y63363D01*
X285258Y63356D01*
X285251Y63350D01*
X285251Y26150D01*
X285254Y26145D01*
X285251Y26142D01*
X285351Y25542D01*
X285395Y25501D01*
X285398Y25504D01*
X285400Y25501D01*
X298900Y25501D01*
X298947Y25537D01*
G37*
G36*
X57481Y209059D02*
X57481Y209059D01*
X57488Y209054D01*
X57988Y209254D01*
X58003Y209278D01*
X58010Y209284D01*
X58008Y209287D01*
X58013Y209295D01*
X58019Y209300D01*
X58019Y222200D01*
X58011Y222211D01*
X58016Y222218D01*
X57816Y222718D01*
X57775Y222743D01*
X57770Y222749D01*
X21370Y222749D01*
X21365Y222746D01*
X21362Y222749D01*
X20762Y222649D01*
X20725Y222610D01*
X20723Y222608D01*
X20723Y222607D01*
X20721Y222605D01*
X20724Y222603D01*
X20721Y222600D01*
X20721Y209700D01*
X20724Y209695D01*
X20721Y209692D01*
X20821Y209092D01*
X20865Y209051D01*
X20868Y209054D01*
X20870Y209051D01*
X57470Y209051D01*
X57481Y209059D01*
G37*
G36*
X247611Y25809D02*
X247611Y25809D01*
X247618Y25804D01*
X248118Y26004D01*
X248133Y26028D01*
X248140Y26034D01*
X248138Y26037D01*
X248143Y26045D01*
X248149Y26050D01*
X248149Y62450D01*
X248146Y62455D01*
X248149Y62458D01*
X248049Y63058D01*
X248005Y63099D01*
X248003Y63096D01*
X248000Y63099D01*
X235100Y63099D01*
X235095Y63096D01*
X235092Y63099D01*
X234492Y62999D01*
X234451Y62955D01*
X234454Y62953D01*
X234451Y62950D01*
X234451Y26350D01*
X234459Y26339D01*
X234454Y26332D01*
X234654Y25832D01*
X234695Y25807D01*
X234700Y25801D01*
X247600Y25801D01*
X247611Y25809D01*
G37*
G36*
X209511Y248059D02*
X209511Y248059D01*
X209518Y248054D01*
X210018Y248254D01*
X210033Y248278D01*
X210040Y248284D01*
X210038Y248287D01*
X210043Y248295D01*
X210049Y248300D01*
X210049Y284700D01*
X210046Y284705D01*
X210049Y284708D01*
X209949Y285308D01*
X209905Y285349D01*
X209903Y285346D01*
X209900Y285349D01*
X197000Y285349D01*
X196995Y285346D01*
X196992Y285349D01*
X196392Y285249D01*
X196351Y285205D01*
X196354Y285203D01*
X196351Y285200D01*
X196351Y248600D01*
X196359Y248589D01*
X196354Y248582D01*
X196554Y248082D01*
X196595Y248057D01*
X196600Y248051D01*
X209500Y248051D01*
X209511Y248059D01*
G37*
G36*
X152303Y245857D02*
X152303Y245857D01*
X152308Y245851D01*
X152904Y245951D01*
X153600Y245951D01*
X153608Y245957D01*
X153614Y245953D01*
X154314Y246153D01*
X154315Y246154D01*
X154316Y246153D01*
X154916Y246353D01*
X154919Y246358D01*
X154922Y246356D01*
X156122Y246956D01*
X156124Y246960D01*
X156127Y246959D01*
X156727Y247359D01*
X156730Y247366D01*
X156735Y247365D01*
X157235Y247865D01*
X157235Y247869D01*
X157238Y247869D01*
X158038Y248869D01*
X158039Y248873D01*
X158041Y248873D01*
X158441Y249473D01*
X158441Y249477D01*
X158444Y249478D01*
X158744Y250078D01*
X158743Y250085D01*
X158747Y250086D01*
X158786Y250221D01*
X158800Y250270D01*
X158842Y250418D01*
X158884Y250565D01*
X158898Y250615D01*
X158940Y250762D01*
X158941Y250762D01*
X158940Y250762D01*
X158947Y250785D01*
X159147Y251384D01*
X159143Y251395D01*
X159149Y251400D01*
X159149Y252096D01*
X159249Y252692D01*
X159246Y252697D01*
X159249Y252700D01*
X159249Y283900D01*
X159220Y283938D01*
X159218Y283946D01*
X158718Y284146D01*
X158705Y284142D01*
X158700Y284149D01*
X145800Y284149D01*
X145762Y284120D01*
X145754Y284118D01*
X145554Y283618D01*
X145558Y283605D01*
X145551Y283600D01*
X145551Y252400D01*
X145554Y252396D01*
X145551Y252393D01*
X145751Y250993D01*
X145756Y250988D01*
X145753Y250984D01*
X145953Y250384D01*
X145958Y250381D01*
X145956Y250378D01*
X146556Y249178D01*
X146560Y249176D01*
X146559Y249173D01*
X146959Y248573D01*
X146962Y248572D01*
X146962Y248569D01*
X147362Y248069D01*
X147366Y248068D01*
X147365Y248065D01*
X147865Y247565D01*
X147872Y247564D01*
X147873Y247559D01*
X148471Y247160D01*
X148969Y246762D01*
X148977Y246761D01*
X148978Y246756D01*
X149578Y246456D01*
X149585Y246457D01*
X149586Y246453D01*
X150285Y246253D01*
X150884Y246053D01*
X150891Y246055D01*
X150893Y246051D01*
X152293Y245851D01*
X152303Y245857D01*
G37*
G36*
X114708Y247164D02*
X114708Y247164D01*
X114720Y247161D01*
X115120Y247461D01*
X115124Y247477D01*
X115131Y247482D01*
X115127Y247488D01*
X115129Y247492D01*
X115139Y247500D01*
X115139Y260400D01*
X115126Y260418D01*
X115129Y260430D01*
X114829Y260830D01*
X114798Y260839D01*
X114790Y260849D01*
X83890Y260849D01*
X83885Y260846D01*
X83882Y260849D01*
X83282Y260749D01*
X82583Y260649D01*
X81883Y260549D01*
X81878Y260544D01*
X81874Y260547D01*
X81274Y260347D01*
X81271Y260342D01*
X81268Y260344D01*
X80668Y260044D01*
X80666Y260040D01*
X80663Y260041D01*
X80063Y259641D01*
X80062Y259638D01*
X80059Y259638D01*
X79559Y259238D01*
X79558Y259234D01*
X79555Y259235D01*
X78555Y258235D01*
X78555Y258231D01*
X78552Y258231D01*
X78152Y257731D01*
X78151Y257723D01*
X78146Y257722D01*
X77546Y256522D01*
X77547Y256517D01*
X77543Y256516D01*
X77343Y255916D01*
X77344Y255914D01*
X77343Y255914D01*
X77305Y255783D01*
X77291Y255734D01*
X77249Y255586D01*
X77207Y255438D01*
X77193Y255389D01*
X77151Y255241D01*
X77143Y255214D01*
X77146Y255204D01*
X77141Y255200D01*
X77141Y254504D01*
X77041Y253908D01*
X77047Y253898D01*
X77041Y253893D01*
X77241Y252493D01*
X77246Y252488D01*
X77243Y252484D01*
X77443Y251885D01*
X77643Y251186D01*
X77648Y251182D01*
X77646Y251178D01*
X77946Y250578D01*
X77953Y250575D01*
X77952Y250569D01*
X78350Y250071D01*
X78749Y249473D01*
X78756Y249470D01*
X78755Y249465D01*
X79255Y248965D01*
X79259Y248965D01*
X79259Y248962D01*
X79759Y248562D01*
X79763Y248561D01*
X79763Y248559D01*
X80363Y248159D01*
X80367Y248159D01*
X80368Y248156D01*
X81568Y247556D01*
X81573Y247557D01*
X81574Y247553D01*
X82174Y247353D01*
X82181Y247355D01*
X82183Y247351D01*
X83583Y247151D01*
X83588Y247154D01*
X83590Y247151D01*
X114690Y247151D01*
X114708Y247164D01*
G37*
G36*
X55018Y107464D02*
X55018Y107464D01*
X55030Y107461D01*
X55430Y107761D01*
X55434Y107777D01*
X55441Y107782D01*
X55437Y107788D01*
X55439Y107792D01*
X55449Y107800D01*
X55449Y120700D01*
X55436Y120718D01*
X55439Y120730D01*
X55139Y121130D01*
X55108Y121139D01*
X55100Y121149D01*
X17500Y121149D01*
X17499Y121148D01*
X17498Y121149D01*
X17495Y121146D01*
X17453Y121113D01*
X17457Y121108D01*
X17455Y121106D01*
X17462Y121097D01*
X17453Y121084D01*
X17653Y120484D01*
X17658Y120481D01*
X17656Y120478D01*
X20649Y114492D01*
X20553Y113915D01*
X17556Y107822D01*
X17558Y107811D01*
X17556Y107809D01*
X17559Y107804D01*
X17563Y107784D01*
X17559Y107773D01*
X17759Y107473D01*
X17792Y107461D01*
X17800Y107451D01*
X55000Y107451D01*
X55018Y107464D01*
G37*
G36*
X163804Y45224D02*
X163804Y45224D01*
X163807Y45221D01*
X164507Y45321D01*
X164511Y45325D01*
X164514Y45323D01*
X165214Y45523D01*
X165215Y45524D01*
X165216Y45523D01*
X165816Y45723D01*
X165819Y45728D01*
X165822Y45726D01*
X167022Y46326D01*
X167024Y46330D01*
X167027Y46329D01*
X167627Y46729D01*
X167628Y46732D01*
X167631Y46732D01*
X168131Y47132D01*
X168133Y47139D01*
X168138Y47139D01*
X168938Y48139D01*
X168939Y48143D01*
X168941Y48143D01*
X169341Y48743D01*
X169341Y48747D01*
X169344Y48748D01*
X169644Y49348D01*
X169643Y49355D01*
X169647Y49356D01*
X169658Y49394D01*
X169700Y49541D01*
X169714Y49591D01*
X169756Y49738D01*
X169757Y49738D01*
X169756Y49738D01*
X169799Y49886D01*
X169813Y49935D01*
X169847Y50055D01*
X170047Y50654D01*
X170045Y50661D01*
X170049Y50663D01*
X170149Y51363D01*
X170146Y51368D01*
X170149Y51370D01*
X170149Y52670D01*
X170146Y52674D01*
X170149Y52677D01*
X169949Y54077D01*
X169941Y54085D01*
X169944Y54092D01*
X169044Y55892D01*
X169037Y55895D01*
X169038Y55901D01*
X168638Y56401D01*
X168634Y56402D01*
X168635Y56405D01*
X167635Y57405D01*
X167631Y57405D01*
X167631Y57408D01*
X167131Y57808D01*
X167123Y57809D01*
X167122Y57814D01*
X165922Y58414D01*
X165915Y58413D01*
X165914Y58417D01*
X165215Y58617D01*
X164616Y58817D01*
X164609Y58815D01*
X164607Y58819D01*
X163907Y58919D01*
X163902Y58916D01*
X163900Y58919D01*
X141000Y58919D01*
X140995Y58916D01*
X140992Y58919D01*
X140392Y58819D01*
X139693Y58719D01*
X139685Y58711D01*
X139678Y58714D01*
X139082Y58416D01*
X138386Y58217D01*
X138381Y58210D01*
X138375Y58212D01*
X137875Y57912D01*
X137874Y57911D01*
X137873Y57911D01*
X137273Y57511D01*
X137270Y57504D01*
X137265Y57505D01*
X136265Y56505D01*
X136265Y56501D01*
X136262Y56501D01*
X135862Y56001D01*
X135861Y55997D01*
X135859Y55997D01*
X135459Y55397D01*
X135459Y55393D01*
X135456Y55392D01*
X135156Y54792D01*
X135156Y54789D01*
X135155Y54789D01*
X135157Y54787D01*
X135153Y54786D01*
X134753Y53586D01*
X134755Y53579D01*
X134751Y53577D01*
X134651Y52877D01*
X134654Y52872D01*
X134651Y52870D01*
X134651Y51470D01*
X134654Y51465D01*
X134651Y51462D01*
X134751Y50862D01*
X134851Y50163D01*
X134856Y50158D01*
X134853Y50154D01*
X135053Y49554D01*
X135058Y49551D01*
X135056Y49548D01*
X135356Y48948D01*
X135360Y48946D01*
X135359Y48943D01*
X136159Y47743D01*
X136162Y47742D01*
X136162Y47739D01*
X136562Y47239D01*
X136569Y47237D01*
X136569Y47232D01*
X137069Y46832D01*
X137073Y46831D01*
X137073Y46829D01*
X137671Y46430D01*
X138169Y46032D01*
X138179Y46031D01*
X138181Y46025D01*
X138881Y45725D01*
X138884Y45726D01*
X138884Y45723D01*
X139484Y45523D01*
X139486Y45524D01*
X139486Y45523D01*
X140186Y45323D01*
X140196Y45326D01*
X140200Y45321D01*
X140797Y45321D01*
X141493Y45221D01*
X141498Y45224D01*
X141500Y45221D01*
X163800Y45221D01*
X163804Y45224D01*
G37*
G36*
X53407Y158287D02*
X53407Y158287D01*
X53398Y158299D01*
X53408Y158310D01*
X53308Y158810D01*
X53301Y158816D01*
X53304Y158822D01*
X50311Y164908D01*
X50407Y165485D01*
X53404Y171478D01*
X53403Y171483D01*
X53407Y171486D01*
X53401Y171493D01*
X53398Y171510D01*
X53404Y171522D01*
X53204Y171922D01*
X53167Y171941D01*
X53160Y171949D01*
X21060Y171949D01*
X21013Y171913D01*
X21016Y171909D01*
X21011Y171907D01*
X20911Y171207D01*
X20914Y171202D01*
X20911Y171200D01*
X20911Y158400D01*
X20947Y158353D01*
X20951Y158356D01*
X20953Y158351D01*
X21653Y158251D01*
X21658Y158254D01*
X21660Y158251D01*
X53360Y158251D01*
X53407Y158287D01*
G37*
G36*
X196918Y26004D02*
X196918Y26004D01*
X196930Y26001D01*
X197330Y26301D01*
X197334Y26317D01*
X197341Y26322D01*
X197337Y26328D01*
X197339Y26332D01*
X197349Y26340D01*
X197349Y58540D01*
X197348Y58541D01*
X197349Y58542D01*
X197346Y58545D01*
X197313Y58587D01*
X197299Y58577D01*
X197284Y58587D01*
X196684Y58387D01*
X196681Y58382D01*
X196677Y58384D01*
X190696Y55293D01*
X190119Y55486D01*
X184022Y58484D01*
X183984Y58477D01*
X183973Y58481D01*
X183673Y58281D01*
X183661Y58248D01*
X183651Y58240D01*
X183651Y26440D01*
X183664Y26422D01*
X183661Y26410D01*
X183961Y26010D01*
X183992Y26002D01*
X184000Y25991D01*
X196900Y25991D01*
X196918Y26004D01*
G37*
G36*
X222211Y25629D02*
X222211Y25629D01*
X222218Y25624D01*
X222718Y25824D01*
X222733Y25848D01*
X222740Y25854D01*
X222738Y25857D01*
X222743Y25865D01*
X222749Y25870D01*
X222749Y28970D01*
X222728Y28998D01*
X222728Y29011D01*
X222701Y29029D01*
X222708Y29031D01*
X222732Y29033D01*
X222732Y29039D01*
X222741Y29042D01*
X222741Y29043D01*
X222735Y29059D01*
X222749Y29070D01*
X222749Y52670D01*
X222740Y52683D01*
X222744Y52692D01*
X222444Y53292D01*
X222424Y53302D01*
X222422Y53314D01*
X216422Y56314D01*
X216417Y56313D01*
X216416Y56317D01*
X215816Y56517D01*
X215790Y56508D01*
X215778Y56514D01*
X209078Y53214D01*
X209059Y53177D01*
X209051Y53170D01*
X209051Y26070D01*
X209064Y26052D01*
X209061Y26040D01*
X209361Y25640D01*
X209392Y25632D01*
X209400Y25621D01*
X222200Y25621D01*
X222211Y25629D01*
G37*
G36*
X47915Y132870D02*
X47915Y132870D01*
X47928Y132869D01*
X48328Y133369D01*
X48329Y133377D01*
X48334Y133378D01*
X51334Y139378D01*
X51333Y139384D01*
X51337Y139388D01*
X51332Y139395D01*
X51339Y139400D01*
X51339Y140000D01*
X51329Y140013D01*
X51334Y140022D01*
X48234Y146122D01*
X48224Y146127D01*
X48225Y146135D01*
X47825Y146535D01*
X47800Y146538D01*
X47797Y146542D01*
X47795Y146542D01*
X47790Y146549D01*
X44690Y146549D01*
X44662Y146528D01*
X44649Y146528D01*
X44631Y146501D01*
X44629Y146508D01*
X44627Y146532D01*
X44621Y146532D01*
X44618Y146541D01*
X44617Y146541D01*
X44601Y146535D01*
X44590Y146549D01*
X20990Y146549D01*
X20981Y146542D01*
X20972Y146536D01*
X20960Y146539D01*
X20560Y146239D01*
X20555Y146220D01*
X20543Y146211D01*
X20547Y146205D01*
X20541Y146200D01*
X20541Y133400D01*
X20549Y133389D01*
X20544Y133382D01*
X20744Y132882D01*
X20785Y132857D01*
X20790Y132851D01*
X47890Y132851D01*
X47915Y132870D01*
G37*
G36*
X71186Y7488D02*
X71186Y7488D01*
X71252Y7493D01*
X71270Y7504D01*
X71291Y7509D01*
X71376Y7569D01*
X71400Y7583D01*
X71403Y7588D01*
X71408Y7592D01*
X73608Y9892D01*
X73616Y9905D01*
X73629Y9915D01*
X73660Y9979D01*
X73696Y10041D01*
X73697Y10057D01*
X73704Y10071D01*
X73703Y10142D01*
X73709Y10213D01*
X73703Y10228D01*
X73702Y10244D01*
X73645Y10369D01*
X73643Y10373D01*
X73643Y10374D01*
X71775Y12989D01*
X71777Y13000D01*
X71786Y13013D01*
X71797Y13071D01*
X71806Y13092D01*
X71806Y13114D01*
X71812Y13147D01*
X71813Y13152D01*
X71813Y13153D01*
X71813Y13154D01*
X71813Y13164D01*
X71846Y13229D01*
X71902Y13286D01*
X71913Y13304D01*
X71925Y13313D01*
X71933Y13332D01*
X71973Y13384D01*
X72046Y13529D01*
X72102Y13586D01*
X72142Y13650D01*
X72186Y13713D01*
X72188Y13725D01*
X72193Y13733D01*
X72197Y13768D01*
X72213Y13854D01*
X72213Y13903D01*
X72242Y13950D01*
X72286Y14013D01*
X72288Y14025D01*
X72293Y14033D01*
X72297Y14068D01*
X72313Y14154D01*
X72313Y14264D01*
X72346Y14329D01*
X72402Y14386D01*
X72442Y14450D01*
X72486Y14513D01*
X72488Y14525D01*
X72493Y14533D01*
X72497Y14568D01*
X72503Y14601D01*
X72506Y14609D01*
X72506Y14617D01*
X72513Y14654D01*
X72513Y14703D01*
X72542Y14750D01*
X72586Y14813D01*
X72588Y14825D01*
X72593Y14833D01*
X72597Y14868D01*
X72613Y14954D01*
X72613Y15064D01*
X72642Y15122D01*
X75898Y15680D01*
X75916Y15687D01*
X75935Y15688D01*
X75995Y15721D01*
X76057Y15747D01*
X76070Y15762D01*
X76087Y15771D01*
X76126Y15827D01*
X76170Y15878D01*
X76175Y15897D01*
X76186Y15913D01*
X76208Y16024D01*
X76213Y16046D01*
X76212Y16050D01*
X76213Y16054D01*
X76213Y19254D01*
X76209Y19273D01*
X76211Y19292D01*
X76200Y19326D01*
X76199Y19333D01*
X76194Y19343D01*
X76189Y19356D01*
X76174Y19422D01*
X76161Y19437D01*
X76155Y19455D01*
X76107Y19503D01*
X76064Y19556D01*
X76046Y19563D01*
X76032Y19577D01*
X75926Y19617D01*
X75906Y19626D01*
X75902Y19626D01*
X75898Y19628D01*
X72686Y20178D01*
X72675Y20217D01*
X72674Y20222D01*
X72673Y20223D01*
X72613Y20343D01*
X72613Y20354D01*
X72610Y20369D01*
X72612Y20385D01*
X72592Y20455D01*
X72592Y20470D01*
X72584Y20484D01*
X72575Y20517D01*
X72574Y20522D01*
X72573Y20523D01*
X72513Y20643D01*
X72513Y20654D01*
X72510Y20669D01*
X72512Y20685D01*
X72475Y20817D01*
X72474Y20822D01*
X72473Y20823D01*
X72313Y21143D01*
X72313Y21154D01*
X72310Y21169D01*
X72312Y21185D01*
X72275Y21317D01*
X72274Y21322D01*
X72273Y21323D01*
X72173Y21523D01*
X72150Y21551D01*
X72113Y21605D01*
X72113Y21654D01*
X72096Y21728D01*
X72082Y21803D01*
X72076Y21813D01*
X72074Y21822D01*
X72051Y21850D01*
X72002Y21922D01*
X71946Y21978D01*
X71873Y22123D01*
X71850Y22151D01*
X71813Y22205D01*
X71813Y22254D01*
X71796Y22328D01*
X71792Y22350D01*
X73646Y25038D01*
X73652Y25054D01*
X73664Y25067D01*
X73684Y25134D01*
X73709Y25199D01*
X73708Y25217D01*
X73713Y25233D01*
X73700Y25302D01*
X73694Y25372D01*
X73685Y25386D01*
X73682Y25403D01*
X73611Y25509D01*
X73604Y25520D01*
X73603Y25520D01*
X73602Y25522D01*
X71402Y27722D01*
X71388Y27731D01*
X71377Y27745D01*
X71315Y27776D01*
X71255Y27813D01*
X71238Y27815D01*
X71223Y27822D01*
X71153Y27823D01*
X71083Y27829D01*
X71067Y27823D01*
X71050Y27823D01*
X70932Y27772D01*
X70921Y27768D01*
X70920Y27767D01*
X70919Y27766D01*
X68220Y25904D01*
X68202Y25922D01*
X68137Y25962D01*
X68075Y26006D01*
X68063Y26008D01*
X68055Y26013D01*
X68020Y26016D01*
X67934Y26033D01*
X67884Y26033D01*
X67872Y26041D01*
X67804Y26093D01*
X67659Y26165D01*
X67602Y26222D01*
X67537Y26262D01*
X67475Y26306D01*
X67463Y26308D01*
X67455Y26313D01*
X67420Y26316D01*
X67334Y26333D01*
X67284Y26333D01*
X67272Y26341D01*
X67204Y26393D01*
X67004Y26493D01*
X66988Y26497D01*
X66975Y26506D01*
X66841Y26532D01*
X66835Y26533D01*
X66834Y26533D01*
X66824Y26533D01*
X66704Y26593D01*
X66688Y26597D01*
X66675Y26606D01*
X66541Y26632D01*
X66535Y26633D01*
X66534Y26633D01*
X66484Y26633D01*
X66437Y26662D01*
X66375Y26706D01*
X66363Y26708D01*
X66355Y26713D01*
X66320Y26716D01*
X66234Y26733D01*
X66124Y26733D01*
X66066Y26762D01*
X65508Y30018D01*
X65500Y30036D01*
X65499Y30055D01*
X65467Y30114D01*
X65440Y30177D01*
X65426Y30190D01*
X65416Y30207D01*
X65361Y30246D01*
X65309Y30290D01*
X65290Y30295D01*
X65275Y30306D01*
X65164Y30327D01*
X65142Y30333D01*
X65138Y30332D01*
X65134Y30333D01*
X61934Y30333D01*
X61915Y30329D01*
X61896Y30331D01*
X61832Y30309D01*
X61766Y30293D01*
X61751Y30281D01*
X61732Y30275D01*
X61685Y30227D01*
X61632Y30183D01*
X61624Y30166D01*
X61611Y30152D01*
X61571Y30046D01*
X61562Y30025D01*
X61562Y30022D01*
X61560Y30018D01*
X61010Y26806D01*
X60971Y26795D01*
X60966Y26793D01*
X60965Y26793D01*
X60964Y26793D01*
X60844Y26733D01*
X60834Y26733D01*
X60818Y26729D01*
X60802Y26732D01*
X60671Y26695D01*
X60666Y26693D01*
X60665Y26693D01*
X60664Y26693D01*
X60544Y26633D01*
X60534Y26633D01*
X60518Y26629D01*
X60502Y26632D01*
X60371Y26595D01*
X60366Y26593D01*
X60365Y26593D01*
X60364Y26593D01*
X60244Y26533D01*
X60134Y26533D01*
X60060Y26516D01*
X59984Y26502D01*
X59975Y26496D01*
X59966Y26493D01*
X59938Y26471D01*
X59866Y26422D01*
X59809Y26365D01*
X59744Y26333D01*
X59734Y26333D01*
X59718Y26329D01*
X59702Y26332D01*
X59571Y26295D01*
X59566Y26293D01*
X59565Y26293D01*
X59564Y26293D01*
X59364Y26193D01*
X59337Y26170D01*
X59266Y26122D01*
X59209Y26065D01*
X59144Y26033D01*
X59134Y26033D01*
X59118Y26029D01*
X59102Y26032D01*
X58971Y25995D01*
X58966Y25993D01*
X58965Y25993D01*
X58964Y25993D01*
X58823Y25922D01*
X56149Y27766D01*
X56137Y27771D01*
X56128Y27780D01*
X56057Y27802D01*
X55988Y27829D01*
X55975Y27828D01*
X55963Y27832D01*
X55890Y27820D01*
X55816Y27814D01*
X55805Y27807D01*
X55792Y27805D01*
X55672Y27728D01*
X53372Y25528D01*
X53358Y25506D01*
X53338Y25490D01*
X53311Y25434D01*
X53277Y25383D01*
X53274Y25357D01*
X53263Y25334D01*
X53264Y25272D01*
X53257Y25211D01*
X53266Y25187D01*
X53266Y25161D01*
X53304Y25081D01*
X53315Y25048D01*
X53322Y25042D01*
X53327Y25031D01*
X55262Y22358D01*
X55222Y22278D01*
X55166Y22222D01*
X55126Y22157D01*
X55082Y22094D01*
X55080Y22083D01*
X55075Y22075D01*
X55071Y22040D01*
X55055Y21954D01*
X55055Y21904D01*
X55047Y21891D01*
X54995Y21823D01*
X54922Y21678D01*
X54866Y21622D01*
X54826Y21557D01*
X54782Y21494D01*
X54780Y21483D01*
X54775Y21475D01*
X54771Y21440D01*
X54755Y21354D01*
X54755Y21304D01*
X54726Y21257D01*
X54682Y21194D01*
X54680Y21183D01*
X54675Y21175D01*
X54671Y21140D01*
X54655Y21054D01*
X54655Y20943D01*
X54622Y20878D01*
X54566Y20822D01*
X54526Y20757D01*
X54482Y20694D01*
X54480Y20683D01*
X54475Y20675D01*
X54471Y20640D01*
X54455Y20554D01*
X54455Y20504D01*
X54426Y20457D01*
X54382Y20394D01*
X54380Y20383D01*
X54375Y20375D01*
X54371Y20340D01*
X54355Y20254D01*
X54355Y20175D01*
X51072Y19628D01*
X51053Y19620D01*
X51033Y19619D01*
X50974Y19587D01*
X50912Y19561D01*
X50899Y19546D01*
X50881Y19536D01*
X50843Y19481D01*
X50799Y19431D01*
X50793Y19411D01*
X50782Y19394D01*
X50766Y19313D01*
X50762Y19303D01*
X50762Y19292D01*
X50761Y19288D01*
X50755Y19263D01*
X50756Y19259D01*
X50755Y19254D01*
X50755Y16054D01*
X50759Y16035D01*
X50757Y16016D01*
X50779Y15951D01*
X50794Y15885D01*
X50807Y15870D01*
X50813Y15852D01*
X50861Y15804D01*
X50904Y15752D01*
X50922Y15744D01*
X50936Y15730D01*
X51042Y15690D01*
X51062Y15681D01*
X51066Y15681D01*
X51070Y15680D01*
X54358Y15116D01*
X54393Y14991D01*
X54394Y14985D01*
X54395Y14985D01*
X54395Y14984D01*
X54455Y14864D01*
X54455Y14854D01*
X54458Y14838D01*
X54456Y14822D01*
X54493Y14691D01*
X54494Y14685D01*
X54495Y14685D01*
X54495Y14684D01*
X54555Y14564D01*
X54555Y14554D01*
X54558Y14538D01*
X54556Y14522D01*
X54593Y14391D01*
X54594Y14385D01*
X54595Y14385D01*
X54595Y14384D01*
X54755Y14064D01*
X54755Y14054D01*
X54758Y14038D01*
X54756Y14022D01*
X54793Y13891D01*
X54794Y13885D01*
X54795Y13885D01*
X54795Y13884D01*
X54895Y13684D01*
X54918Y13656D01*
X54966Y13586D01*
X55022Y13529D01*
X55055Y13464D01*
X55055Y13454D01*
X55058Y13438D01*
X55056Y13422D01*
X55093Y13291D01*
X55094Y13285D01*
X55095Y13285D01*
X55095Y13284D01*
X55195Y13084D01*
X55218Y13056D01*
X55266Y12986D01*
X55276Y12975D01*
X53331Y10381D01*
X53321Y10359D01*
X53304Y10340D01*
X53286Y10280D01*
X53261Y10223D01*
X53262Y10198D01*
X53255Y10174D01*
X53266Y10113D01*
X53269Y10050D01*
X53281Y10028D01*
X53286Y10004D01*
X53337Y9929D01*
X53353Y9899D01*
X53360Y9894D01*
X53366Y9886D01*
X55666Y7586D01*
X55680Y7577D01*
X55691Y7563D01*
X55753Y7531D01*
X55813Y7494D01*
X55830Y7493D01*
X55845Y7485D01*
X55916Y7485D01*
X55985Y7478D01*
X56001Y7484D01*
X56018Y7484D01*
X56136Y7536D01*
X56147Y7540D01*
X56148Y7541D01*
X56149Y7541D01*
X58848Y9403D01*
X58866Y9386D01*
X58931Y9345D01*
X58993Y9301D01*
X59005Y9299D01*
X59013Y9294D01*
X59048Y9291D01*
X59063Y9288D01*
X59066Y9286D01*
X59131Y9245D01*
X59193Y9201D01*
X59205Y9199D01*
X59213Y9194D01*
X59248Y9191D01*
X59334Y9174D01*
X59384Y9174D01*
X59431Y9145D01*
X59493Y9101D01*
X59505Y9099D01*
X59513Y9094D01*
X59548Y9091D01*
X59563Y9088D01*
X59566Y9086D01*
X59631Y9045D01*
X59693Y9001D01*
X59705Y8999D01*
X59713Y8994D01*
X59748Y8991D01*
X59763Y8988D01*
X59766Y8986D01*
X59831Y8945D01*
X59893Y8901D01*
X59905Y8899D01*
X59913Y8894D01*
X59948Y8891D01*
X59977Y8885D01*
X60004Y8852D01*
X60023Y8844D01*
X60038Y8829D01*
X60101Y8809D01*
X60162Y8781D01*
X60183Y8782D01*
X60202Y8776D01*
X60268Y8786D01*
X60335Y8788D01*
X60353Y8798D01*
X60373Y8801D01*
X60428Y8839D01*
X60487Y8871D01*
X60499Y8888D01*
X60515Y8900D01*
X60572Y8992D01*
X60586Y9013D01*
X60587Y9018D01*
X60590Y9022D01*
X62590Y14422D01*
X62594Y14453D01*
X62606Y14481D01*
X62604Y14537D01*
X62611Y14594D01*
X62601Y14623D01*
X62600Y14654D01*
X62573Y14704D01*
X62554Y14757D01*
X62532Y14779D01*
X62517Y14806D01*
X62457Y14852D01*
X62430Y14878D01*
X62417Y14882D01*
X62404Y14893D01*
X61859Y15165D01*
X61702Y15322D01*
X61672Y15341D01*
X61604Y15393D01*
X61459Y15465D01*
X61146Y15778D01*
X61073Y15923D01*
X61050Y15951D01*
X61002Y16022D01*
X60846Y16178D01*
X60785Y16299D01*
X60694Y16574D01*
X60682Y16593D01*
X60673Y16623D01*
X60613Y16743D01*
X60613Y16854D01*
X60605Y16889D01*
X60594Y16974D01*
X60513Y17215D01*
X60513Y17992D01*
X60594Y18234D01*
X60597Y18270D01*
X60613Y18354D01*
X60613Y18539D01*
X60750Y18743D01*
X60763Y18778D01*
X60794Y18834D01*
X60878Y19086D01*
X61229Y19612D01*
X61576Y19959D01*
X62102Y20310D01*
X62354Y20394D01*
X62372Y20405D01*
X62386Y20408D01*
X62399Y20419D01*
X62444Y20438D01*
X62649Y20574D01*
X62834Y20574D01*
X62869Y20583D01*
X62954Y20594D01*
X63196Y20674D01*
X63787Y20674D01*
X64142Y20586D01*
X64178Y20585D01*
X64234Y20574D01*
X64419Y20574D01*
X64624Y20438D01*
X64659Y20425D01*
X64708Y20397D01*
X64710Y20396D01*
X64711Y20396D01*
X64714Y20394D01*
X64966Y20310D01*
X65193Y20159D01*
X65366Y19986D01*
X65392Y19969D01*
X65424Y19938D01*
X65693Y19759D01*
X65839Y19612D01*
X66190Y19086D01*
X66555Y17992D01*
X66555Y17515D01*
X66474Y17274D01*
X66471Y17238D01*
X66455Y17154D01*
X66455Y16943D01*
X66295Y16623D01*
X66289Y16601D01*
X66274Y16574D01*
X66183Y16299D01*
X66022Y15978D01*
X65866Y15822D01*
X65847Y15791D01*
X65795Y15723D01*
X65722Y15578D01*
X65609Y15465D01*
X65464Y15393D01*
X65437Y15370D01*
X65366Y15322D01*
X65209Y15165D01*
X64888Y15005D01*
X64614Y14913D01*
X64565Y14883D01*
X64512Y14861D01*
X64492Y14839D01*
X64467Y14823D01*
X64436Y14774D01*
X64399Y14731D01*
X64391Y14702D01*
X64375Y14676D01*
X64369Y14619D01*
X64355Y14563D01*
X64361Y14529D01*
X64358Y14504D01*
X64370Y14472D01*
X64378Y14422D01*
X66378Y9022D01*
X66404Y8984D01*
X66420Y8941D01*
X66451Y8913D01*
X66474Y8878D01*
X66514Y8855D01*
X66547Y8824D01*
X66587Y8812D01*
X66624Y8791D01*
X66669Y8788D01*
X66713Y8775D01*
X66754Y8782D01*
X66796Y8780D01*
X66839Y8797D01*
X66884Y8805D01*
X66925Y8833D01*
X66956Y8846D01*
X66973Y8866D01*
X66986Y8874D01*
X67034Y8874D01*
X67108Y8892D01*
X67184Y8905D01*
X67193Y8912D01*
X67202Y8914D01*
X67230Y8937D01*
X67302Y8986D01*
X67309Y8992D01*
X67384Y9005D01*
X67393Y9012D01*
X67402Y9014D01*
X67430Y9037D01*
X67502Y9086D01*
X67509Y9092D01*
X67584Y9105D01*
X67593Y9112D01*
X67602Y9114D01*
X67630Y9137D01*
X67702Y9186D01*
X67709Y9192D01*
X67784Y9205D01*
X67793Y9212D01*
X67802Y9214D01*
X67830Y9237D01*
X67902Y9286D01*
X67909Y9292D01*
X67984Y9305D01*
X67993Y9312D01*
X68002Y9314D01*
X68030Y9337D01*
X68102Y9386D01*
X68109Y9392D01*
X68184Y9405D01*
X68193Y9412D01*
X68202Y9414D01*
X68203Y9414D01*
X70919Y7541D01*
X70939Y7534D01*
X70955Y7520D01*
X71018Y7502D01*
X71080Y7478D01*
X71101Y7480D01*
X71122Y7475D01*
X71186Y7488D01*
G37*
G36*
X181640Y214091D02*
X181640Y214091D01*
X181691Y214093D01*
X181723Y214111D01*
X181759Y214119D01*
X181798Y214152D01*
X181843Y214176D01*
X181864Y214206D01*
X181892Y214229D01*
X181913Y214276D01*
X181943Y214318D01*
X181951Y214360D01*
X181963Y214388D01*
X181962Y214418D01*
X181970Y214460D01*
X181970Y227260D01*
X181966Y227278D01*
X181968Y227302D01*
X181768Y229102D01*
X181757Y229133D01*
X181751Y229180D01*
X181551Y229780D01*
X181538Y229800D01*
X181530Y229830D01*
X181230Y230430D01*
X181222Y230440D01*
X181216Y230456D01*
X180916Y230956D01*
X180902Y230970D01*
X180893Y230989D01*
X180816Y231059D01*
X180795Y231080D01*
X180790Y231082D01*
X180786Y231086D01*
X180302Y231376D01*
X179918Y231664D01*
X179883Y231679D01*
X179831Y231713D01*
X178831Y232113D01*
X178798Y232118D01*
X178753Y232135D01*
X178153Y232235D01*
X178126Y232233D01*
X178090Y232240D01*
X177290Y232240D01*
X177254Y232232D01*
X177198Y232229D01*
X176843Y232140D01*
X176690Y232140D01*
X176675Y232137D01*
X176660Y232139D01*
X176528Y232102D01*
X176521Y232101D01*
X176521Y232100D01*
X176520Y232100D01*
X176320Y232000D01*
X176301Y231984D01*
X176277Y231975D01*
X176235Y231929D01*
X176187Y231889D01*
X176177Y231867D01*
X176160Y231848D01*
X176142Y231788D01*
X176116Y231731D01*
X176118Y231706D01*
X176110Y231682D01*
X176121Y231620D01*
X176124Y231558D01*
X176136Y231536D01*
X176140Y231511D01*
X176189Y231438D01*
X176207Y231406D01*
X176215Y231401D01*
X176221Y231391D01*
X176321Y231291D01*
X176353Y231271D01*
X176420Y231220D01*
X176820Y231020D01*
X176843Y231014D01*
X176870Y230999D01*
X177085Y230928D01*
X177395Y230618D01*
X177545Y230392D01*
X177610Y230198D01*
X177610Y230022D01*
X177538Y229806D01*
X177378Y229485D01*
X177148Y229256D01*
X176912Y229098D01*
X176481Y228926D01*
X176052Y228840D01*
X175337Y228840D01*
X174646Y229013D01*
X174150Y229344D01*
X173829Y229745D01*
X173670Y230222D01*
X173670Y230782D01*
X173916Y231355D01*
X174576Y232109D01*
X175374Y233007D01*
X175375Y233009D01*
X175376Y233010D01*
X176076Y233810D01*
X176092Y233839D01*
X176122Y233875D01*
X176622Y234775D01*
X176633Y234813D01*
X176661Y234878D01*
X176861Y235778D01*
X176861Y235811D01*
X176870Y235860D01*
X176870Y236660D01*
X176862Y236697D01*
X176851Y236780D01*
X176551Y237680D01*
X176530Y237714D01*
X176499Y237781D01*
X175999Y238481D01*
X175973Y238504D01*
X175943Y238544D01*
X175043Y239344D01*
X175012Y239361D01*
X174972Y239394D01*
X173872Y239994D01*
X173836Y240004D01*
X173758Y240034D01*
X172658Y240234D01*
X172629Y240233D01*
X172590Y240240D01*
X171590Y240240D01*
X171553Y240232D01*
X171470Y240221D01*
X170570Y239921D01*
X170564Y239917D01*
X170557Y239916D01*
X169757Y239616D01*
X169742Y239606D01*
X169720Y239600D01*
X169554Y239517D01*
X169120Y239300D01*
X169098Y239282D01*
X169062Y239264D01*
X168662Y238964D01*
X168647Y238946D01*
X168621Y238929D01*
X168521Y238829D01*
X168508Y238807D01*
X168488Y238791D01*
X168462Y238734D01*
X168430Y238682D01*
X168427Y238656D01*
X168417Y238632D01*
X168419Y238571D01*
X168413Y238509D01*
X168422Y238485D01*
X168423Y238459D01*
X168453Y238405D01*
X168475Y238347D01*
X168494Y238330D01*
X168506Y238307D01*
X168557Y238272D01*
X168602Y238230D01*
X168627Y238222D01*
X168648Y238207D01*
X168732Y238191D01*
X168768Y238180D01*
X168778Y238182D01*
X168790Y238180D01*
X169090Y238180D01*
X169127Y238188D01*
X169210Y238199D01*
X169452Y238280D01*
X169643Y238280D01*
X169998Y238191D01*
X170006Y238191D01*
X170015Y238187D01*
X170466Y238097D01*
X170789Y237935D01*
X171110Y237695D01*
X171245Y237492D01*
X171329Y237240D01*
X171342Y237220D01*
X171350Y237190D01*
X171438Y237014D01*
X171489Y236860D01*
X171429Y236680D01*
X171428Y236667D01*
X171421Y236652D01*
X171337Y236316D01*
X171174Y236071D01*
X171166Y236051D01*
X171150Y236030D01*
X170978Y235685D01*
X170748Y235456D01*
X170479Y235276D01*
X170472Y235269D01*
X170462Y235264D01*
X170070Y234971D01*
X169799Y234790D01*
X169367Y234574D01*
X169100Y234440D01*
X168552Y234440D01*
X168359Y234505D01*
X168210Y234604D01*
X168070Y235022D01*
X168070Y235760D01*
X168058Y235810D01*
X168058Y235831D01*
X168057Y235855D01*
X168056Y235862D01*
X168039Y235894D01*
X168031Y235929D01*
X167998Y235969D01*
X167973Y236014D01*
X167943Y236035D01*
X167921Y236062D01*
X167873Y236084D01*
X167831Y236113D01*
X167795Y236119D01*
X167762Y236133D01*
X167711Y236131D01*
X167660Y236139D01*
X167619Y236128D01*
X167589Y236127D01*
X167562Y236112D01*
X167520Y236100D01*
X167509Y236095D01*
X166749Y235715D01*
X166720Y235700D01*
X166716Y235697D01*
X166606Y235613D01*
X165806Y234713D01*
X165791Y234685D01*
X165762Y234652D01*
X165062Y233452D01*
X165053Y233423D01*
X165032Y233388D01*
X164532Y231988D01*
X164529Y231962D01*
X164516Y231930D01*
X164216Y230330D01*
X164218Y230294D01*
X164210Y230239D01*
X164310Y228439D01*
X164320Y228407D01*
X164324Y228358D01*
X164824Y226558D01*
X164841Y226527D01*
X164858Y226475D01*
X165858Y224675D01*
X165875Y224657D01*
X165890Y224627D01*
X166590Y223727D01*
X166597Y223721D01*
X166601Y223713D01*
X166611Y223707D01*
X166621Y223691D01*
X167421Y222891D01*
X167431Y222885D01*
X167440Y222874D01*
X168240Y222174D01*
X168265Y222160D01*
X168294Y222134D01*
X169294Y221534D01*
X169319Y221526D01*
X169349Y221507D01*
X170349Y221107D01*
X170368Y221104D01*
X170390Y221093D01*
X171490Y220793D01*
X171507Y220793D01*
X171528Y220785D01*
X172728Y220585D01*
X172754Y220587D01*
X172790Y220580D01*
X174659Y220580D01*
X175156Y220497D01*
X175572Y220247D01*
X176522Y219487D01*
X176998Y218917D01*
X177010Y218907D01*
X177021Y218891D01*
X178299Y217614D01*
X178781Y216939D01*
X178801Y216921D01*
X178821Y216891D01*
X179409Y216303D01*
X179898Y215717D01*
X179910Y215707D01*
X179921Y215691D01*
X180402Y215210D01*
X180686Y214832D01*
X180704Y214817D01*
X180721Y214791D01*
X180995Y214518D01*
X181174Y214249D01*
X181193Y214231D01*
X181206Y214207D01*
X181256Y214172D01*
X181300Y214131D01*
X181326Y214123D01*
X181348Y214107D01*
X181429Y214092D01*
X181466Y214081D01*
X181477Y214082D01*
X181490Y214080D01*
X181590Y214080D01*
X181640Y214091D01*
G37*
G36*
X227329Y188591D02*
X227329Y188591D01*
X227391Y188593D01*
X227413Y188606D01*
X227439Y188610D01*
X227510Y188658D01*
X227543Y188676D01*
X227549Y188684D01*
X227559Y188691D01*
X228444Y189576D01*
X229928Y190763D01*
X229939Y190778D01*
X229959Y190791D01*
X230844Y191676D01*
X231328Y192063D01*
X231334Y192071D01*
X231343Y192076D01*
X231387Y192139D01*
X231435Y192199D01*
X231437Y192209D01*
X231443Y192218D01*
X231458Y192299D01*
X231463Y192310D01*
X231463Y192322D01*
X231470Y192360D01*
X231470Y210860D01*
X231469Y210864D01*
X231470Y210869D01*
X231450Y210949D01*
X231431Y211029D01*
X231428Y211032D01*
X231427Y211037D01*
X231373Y211099D01*
X231321Y211162D01*
X231316Y211164D01*
X231314Y211168D01*
X231182Y211229D01*
X230782Y211329D01*
X230774Y211329D01*
X230765Y211333D01*
X230265Y211433D01*
X230233Y211432D01*
X230190Y211440D01*
X229737Y211440D01*
X229382Y211529D01*
X229374Y211529D01*
X229365Y211533D01*
X228873Y211631D01*
X228482Y211729D01*
X228474Y211729D01*
X228465Y211733D01*
X227465Y211933D01*
X227463Y211933D01*
X227462Y211933D01*
X227378Y211930D01*
X227291Y211927D01*
X227290Y211927D01*
X227289Y211927D01*
X227215Y211886D01*
X227139Y211845D01*
X227138Y211844D01*
X227137Y211844D01*
X227089Y211775D01*
X227038Y211704D01*
X227038Y211703D01*
X227037Y211702D01*
X227010Y211560D01*
X227010Y210778D01*
X226859Y210929D01*
X226843Y210939D01*
X226828Y210957D01*
X226328Y211357D01*
X226307Y211367D01*
X226286Y211386D01*
X225286Y211986D01*
X225273Y211990D01*
X225153Y212035D01*
X223953Y212235D01*
X223926Y212233D01*
X223890Y212240D01*
X223190Y212240D01*
X223179Y212238D01*
X223165Y212239D01*
X221665Y212139D01*
X221628Y212128D01*
X221562Y212118D01*
X220162Y211618D01*
X220133Y211599D01*
X220086Y211581D01*
X218986Y210881D01*
X218959Y210853D01*
X218907Y210814D01*
X218007Y209814D01*
X217994Y209791D01*
X217969Y209764D01*
X217269Y208664D01*
X217257Y208628D01*
X217227Y208572D01*
X216827Y207272D01*
X216826Y207257D01*
X216818Y207240D01*
X216518Y205840D01*
X216519Y205816D01*
X216511Y205785D01*
X216411Y204285D01*
X216414Y204263D01*
X216411Y204233D01*
X216511Y202833D01*
X216518Y202809D01*
X216520Y202775D01*
X216820Y201475D01*
X216832Y201450D01*
X216839Y201414D01*
X217339Y200214D01*
X217349Y200199D01*
X217356Y200178D01*
X217956Y199078D01*
X217982Y199049D01*
X218021Y198991D01*
X218921Y198091D01*
X218943Y198078D01*
X218966Y198052D01*
X220066Y197252D01*
X220102Y197237D01*
X220170Y197199D01*
X221370Y196799D01*
X221400Y196796D01*
X221440Y196783D01*
X222940Y196583D01*
X222979Y196587D01*
X223053Y196585D01*
X224853Y196885D01*
X224889Y196900D01*
X224960Y196920D01*
X225090Y196985D01*
X225560Y197220D01*
X225570Y197228D01*
X225586Y197234D01*
X226586Y197834D01*
X226606Y197854D01*
X226687Y197922D01*
X226910Y198201D01*
X226910Y188960D01*
X226916Y188935D01*
X226913Y188909D01*
X226935Y188852D01*
X226949Y188791D01*
X226966Y188771D01*
X226975Y188747D01*
X227020Y188705D01*
X227059Y188658D01*
X227083Y188647D01*
X227102Y188630D01*
X227161Y188612D01*
X227218Y188587D01*
X227243Y188588D01*
X227268Y188580D01*
X227329Y188591D01*
G37*
G36*
X211320Y196587D02*
X211320Y196587D01*
X211365Y196587D01*
X211828Y196680D01*
X212290Y196680D01*
X212326Y196688D01*
X212382Y196691D01*
X212782Y196791D01*
X212802Y196801D01*
X212831Y196807D01*
X213331Y197007D01*
X213343Y197015D01*
X213360Y197020D01*
X213760Y197220D01*
X213776Y197233D01*
X213801Y197244D01*
X214081Y197431D01*
X214460Y197620D01*
X214489Y197644D01*
X214559Y197691D01*
X214859Y197991D01*
X214875Y198018D01*
X214906Y198049D01*
X215101Y198340D01*
X215394Y198732D01*
X215398Y198741D01*
X215406Y198749D01*
X215606Y199049D01*
X215607Y199050D01*
X215608Y199051D01*
X215663Y199185D01*
X215753Y199636D01*
X215930Y199990D01*
X215934Y200005D01*
X215943Y200018D01*
X215969Y200152D01*
X215970Y200159D01*
X215970Y200160D01*
X215970Y200622D01*
X216063Y201085D01*
X216063Y201095D01*
X216064Y201228D01*
X215864Y202328D01*
X215855Y202350D01*
X215851Y202380D01*
X215551Y203280D01*
X215534Y203307D01*
X215520Y203349D01*
X215120Y204049D01*
X215097Y204073D01*
X215037Y204149D01*
X214337Y204749D01*
X214311Y204763D01*
X214279Y204790D01*
X213579Y205190D01*
X213553Y205198D01*
X213524Y205216D01*
X212724Y205516D01*
X212705Y205519D01*
X212682Y205529D01*
X211882Y205729D01*
X211860Y205729D01*
X211832Y205738D01*
X210932Y205838D01*
X209138Y206037D01*
X208469Y206133D01*
X207803Y206323D01*
X207250Y206508D01*
X206850Y206748D01*
X206670Y206987D01*
X206670Y207870D01*
X206903Y208335D01*
X206959Y208391D01*
X206979Y208423D01*
X207030Y208490D01*
X207073Y208577D01*
X207480Y208780D01*
X207590Y208780D01*
X207605Y208783D01*
X207620Y208781D01*
X207752Y208818D01*
X207759Y208819D01*
X207759Y208820D01*
X207760Y208820D01*
X207880Y208880D01*
X209500Y208880D01*
X210365Y208448D01*
X210678Y208135D01*
X210738Y208014D01*
X210829Y207740D01*
X210842Y207720D01*
X210850Y207690D01*
X210910Y207570D01*
X210910Y207160D01*
X210921Y207110D01*
X210923Y207059D01*
X210941Y207027D01*
X210949Y206991D01*
X210982Y206952D01*
X211006Y206907D01*
X211036Y206886D01*
X211059Y206858D01*
X211106Y206837D01*
X211148Y206807D01*
X211190Y206799D01*
X211218Y206787D01*
X211248Y206788D01*
X211290Y206780D01*
X215190Y206780D01*
X215270Y206798D01*
X215350Y206815D01*
X215354Y206818D01*
X215359Y206819D01*
X215422Y206872D01*
X215486Y206922D01*
X215488Y206926D01*
X215492Y206929D01*
X215526Y207004D01*
X215561Y207078D01*
X215561Y207083D01*
X215563Y207088D01*
X215562Y207115D01*
X215565Y207223D01*
X215365Y208423D01*
X215355Y208446D01*
X215355Y208448D01*
X215354Y208468D01*
X215352Y208473D01*
X215351Y208480D01*
X215151Y209080D01*
X215131Y209112D01*
X215094Y209188D01*
X214806Y209572D01*
X214516Y210056D01*
X214504Y210068D01*
X214494Y210088D01*
X214194Y210488D01*
X214169Y210509D01*
X214162Y210522D01*
X214147Y210533D01*
X214118Y210564D01*
X213718Y210864D01*
X213702Y210871D01*
X213686Y210886D01*
X212686Y211486D01*
X212661Y211494D01*
X212631Y211513D01*
X212131Y211713D01*
X212102Y211717D01*
X212065Y211733D01*
X211588Y211828D01*
X211010Y212021D01*
X210985Y212023D01*
X210953Y212035D01*
X210359Y212134D01*
X209865Y212233D01*
X209833Y212232D01*
X209790Y212240D01*
X207490Y212240D01*
X207460Y212233D01*
X207415Y212233D01*
X206952Y212140D01*
X206390Y212140D01*
X206360Y212133D01*
X206315Y212133D01*
X205815Y212033D01*
X205789Y212021D01*
X205749Y212013D01*
X205281Y211826D01*
X204815Y211733D01*
X204789Y211721D01*
X204749Y211713D01*
X204249Y211513D01*
X204218Y211491D01*
X204162Y211464D01*
X202962Y210564D01*
X202937Y210534D01*
X202886Y210488D01*
X202586Y210088D01*
X202574Y210062D01*
X202550Y210030D01*
X202350Y209630D01*
X202347Y209616D01*
X202337Y209601D01*
X202137Y209101D01*
X202133Y209072D01*
X202117Y209035D01*
X202017Y208535D01*
X202018Y208503D01*
X202010Y208460D01*
X202010Y199850D01*
X201950Y199730D01*
X201946Y199715D01*
X201937Y199702D01*
X201911Y199568D01*
X201910Y199562D01*
X201910Y199561D01*
X201910Y199560D01*
X201910Y198750D01*
X201850Y198630D01*
X201846Y198615D01*
X201837Y198602D01*
X201828Y198556D01*
X201827Y198553D01*
X201827Y198551D01*
X201811Y198468D01*
X201810Y198462D01*
X201810Y198461D01*
X201810Y198460D01*
X201810Y198350D01*
X201750Y198230D01*
X201746Y198215D01*
X201737Y198202D01*
X201711Y198068D01*
X201710Y198062D01*
X201710Y198061D01*
X201710Y198060D01*
X201710Y197850D01*
X201678Y197785D01*
X201621Y197729D01*
X201581Y197664D01*
X201537Y197602D01*
X201535Y197590D01*
X201530Y197582D01*
X201526Y197545D01*
X201510Y197460D01*
X201510Y197360D01*
X201521Y197310D01*
X201523Y197259D01*
X201541Y197227D01*
X201549Y197191D01*
X201582Y197152D01*
X201606Y197107D01*
X201636Y197086D01*
X201659Y197058D01*
X201706Y197037D01*
X201748Y197007D01*
X201790Y196999D01*
X201818Y196987D01*
X201848Y196988D01*
X201890Y196980D01*
X205790Y196980D01*
X205840Y196991D01*
X205891Y196993D01*
X205923Y197011D01*
X205959Y197019D01*
X205998Y197052D01*
X206043Y197076D01*
X206064Y197106D01*
X206092Y197129D01*
X206113Y197176D01*
X206143Y197218D01*
X206151Y197260D01*
X206163Y197288D01*
X206163Y197298D01*
X206199Y197356D01*
X206243Y197418D01*
X206245Y197430D01*
X206250Y197438D01*
X206254Y197475D01*
X206256Y197489D01*
X206259Y197491D01*
X206299Y197556D01*
X206343Y197618D01*
X206345Y197630D01*
X206350Y197638D01*
X206354Y197675D01*
X206370Y197760D01*
X206370Y197909D01*
X206383Y197930D01*
X206521Y197791D01*
X206548Y197775D01*
X206579Y197744D01*
X206879Y197544D01*
X206915Y197530D01*
X206970Y197499D01*
X207222Y197415D01*
X207479Y197244D01*
X207515Y197230D01*
X207570Y197199D01*
X208770Y196799D01*
X208807Y196796D01*
X208890Y196780D01*
X209128Y196780D01*
X209370Y196699D01*
X209407Y196696D01*
X209490Y196680D01*
X209828Y196680D01*
X210070Y196599D01*
X210107Y196596D01*
X210190Y196580D01*
X211290Y196580D01*
X211320Y196587D01*
G37*
G36*
X180322Y196987D02*
X180322Y196987D01*
X180356Y196985D01*
X180406Y197007D01*
X180459Y197019D01*
X180484Y197040D01*
X180515Y197053D01*
X180562Y197105D01*
X180592Y197129D01*
X180599Y197145D01*
X180613Y197160D01*
X184269Y203066D01*
X185310Y202095D01*
X185310Y197360D01*
X185321Y197310D01*
X185323Y197259D01*
X185341Y197227D01*
X185349Y197191D01*
X185382Y197152D01*
X185406Y197107D01*
X185436Y197086D01*
X185459Y197058D01*
X185506Y197037D01*
X185548Y197007D01*
X185590Y196999D01*
X185618Y196987D01*
X185648Y196988D01*
X185690Y196980D01*
X189590Y196980D01*
X189640Y196991D01*
X189691Y196993D01*
X189723Y197011D01*
X189759Y197019D01*
X189798Y197052D01*
X189843Y197076D01*
X189864Y197106D01*
X189892Y197129D01*
X189913Y197176D01*
X189943Y197218D01*
X189951Y197260D01*
X189963Y197288D01*
X189962Y197318D01*
X189970Y197360D01*
X189970Y214760D01*
X189960Y214803D01*
X189960Y214848D01*
X189941Y214887D01*
X189931Y214929D01*
X189902Y214963D01*
X189882Y215003D01*
X189843Y215036D01*
X189821Y215062D01*
X189797Y215073D01*
X189770Y215095D01*
X185870Y217195D01*
X185815Y217210D01*
X185762Y217233D01*
X185732Y217232D01*
X185703Y217240D01*
X185647Y217229D01*
X185589Y217227D01*
X185563Y217212D01*
X185533Y217206D01*
X185488Y217171D01*
X185437Y217144D01*
X185420Y217119D01*
X185396Y217101D01*
X185370Y217049D01*
X185337Y217002D01*
X185331Y216968D01*
X185319Y216945D01*
X185320Y216910D01*
X185310Y216860D01*
X185310Y207405D01*
X181064Y211823D01*
X180997Y211867D01*
X180932Y211913D01*
X180924Y211914D01*
X180919Y211918D01*
X180886Y211922D01*
X180790Y211940D01*
X176190Y211940D01*
X176163Y211934D01*
X176136Y211936D01*
X176080Y211914D01*
X176021Y211901D01*
X176000Y211883D01*
X175974Y211873D01*
X175934Y211829D01*
X175888Y211791D01*
X175876Y211765D01*
X175858Y211745D01*
X175841Y211687D01*
X175817Y211632D01*
X175818Y211605D01*
X175810Y211578D01*
X175821Y211519D01*
X175823Y211459D01*
X175837Y211435D01*
X175842Y211408D01*
X175888Y211341D01*
X175906Y211307D01*
X175916Y211300D01*
X175924Y211289D01*
X181001Y206307D01*
X175272Y197568D01*
X175247Y197499D01*
X175217Y197432D01*
X175217Y197419D01*
X175213Y197406D01*
X175221Y197333D01*
X175223Y197259D01*
X175230Y197247D01*
X175231Y197234D01*
X175271Y197172D01*
X175306Y197107D01*
X175317Y197099D01*
X175325Y197088D01*
X175388Y197050D01*
X175448Y197007D01*
X175463Y197004D01*
X175473Y196998D01*
X175512Y196995D01*
X175590Y196980D01*
X180290Y196980D01*
X180322Y196987D01*
G37*
G36*
X140840Y196991D02*
X140840Y196991D01*
X140891Y196993D01*
X140923Y197011D01*
X140959Y197019D01*
X140998Y197052D01*
X141043Y197076D01*
X141064Y197106D01*
X141092Y197129D01*
X141113Y197176D01*
X141143Y197218D01*
X141151Y197260D01*
X141163Y197288D01*
X141162Y197318D01*
X141170Y197360D01*
X141170Y205336D01*
X141267Y206109D01*
X141366Y206803D01*
X141453Y207326D01*
X141706Y207748D01*
X141950Y208072D01*
X142329Y208300D01*
X142759Y208386D01*
X143298Y208476D01*
X144035Y208384D01*
X144556Y208297D01*
X144936Y208069D01*
X145277Y207642D01*
X145551Y207187D01*
X145818Y206562D01*
X145910Y205739D01*
X145910Y197360D01*
X145921Y197310D01*
X145923Y197259D01*
X145941Y197227D01*
X145949Y197191D01*
X145982Y197152D01*
X146006Y197107D01*
X146036Y197086D01*
X146059Y197058D01*
X146106Y197037D01*
X146148Y197007D01*
X146190Y196999D01*
X146218Y196987D01*
X146248Y196988D01*
X146290Y196980D01*
X150190Y196980D01*
X150240Y196991D01*
X150291Y196993D01*
X150323Y197011D01*
X150359Y197019D01*
X150398Y197052D01*
X150443Y197076D01*
X150464Y197106D01*
X150492Y197129D01*
X150513Y197176D01*
X150543Y197218D01*
X150551Y197260D01*
X150563Y197288D01*
X150562Y197318D01*
X150570Y197360D01*
X150570Y211560D01*
X150559Y211610D01*
X150557Y211661D01*
X150539Y211693D01*
X150531Y211729D01*
X150498Y211768D01*
X150474Y211813D01*
X150444Y211834D01*
X150421Y211862D01*
X150374Y211883D01*
X150332Y211913D01*
X150290Y211921D01*
X150262Y211933D01*
X150232Y211932D01*
X150190Y211940D01*
X146490Y211940D01*
X146440Y211929D01*
X146389Y211927D01*
X146357Y211909D01*
X146321Y211901D01*
X146282Y211868D01*
X146237Y211844D01*
X146216Y211814D01*
X146188Y211791D01*
X146167Y211744D01*
X146137Y211702D01*
X146129Y211660D01*
X146117Y211632D01*
X146118Y211602D01*
X146110Y211560D01*
X146110Y210578D01*
X145859Y210829D01*
X145843Y210839D01*
X145828Y210857D01*
X145328Y211257D01*
X145314Y211263D01*
X145301Y211276D01*
X144701Y211676D01*
X144665Y211690D01*
X144610Y211721D01*
X143410Y212121D01*
X143385Y212123D01*
X143353Y212135D01*
X142753Y212235D01*
X142726Y212233D01*
X142690Y212240D01*
X142090Y212240D01*
X142078Y212237D01*
X142063Y212239D01*
X140663Y212139D01*
X140633Y212130D01*
X140590Y212127D01*
X139490Y211827D01*
X139458Y211810D01*
X139405Y211792D01*
X138505Y211292D01*
X138477Y211266D01*
X138421Y211229D01*
X137721Y210529D01*
X137703Y210499D01*
X137668Y210462D01*
X137168Y209662D01*
X137155Y209625D01*
X137126Y209569D01*
X136826Y208569D01*
X136825Y208550D01*
X136816Y208528D01*
X136616Y207428D01*
X136617Y207411D01*
X136611Y207389D01*
X136511Y206089D01*
X136513Y206076D01*
X136510Y206060D01*
X136510Y197360D01*
X136521Y197310D01*
X136523Y197259D01*
X136541Y197227D01*
X136549Y197191D01*
X136582Y197152D01*
X136606Y197107D01*
X136636Y197086D01*
X136659Y197058D01*
X136706Y197037D01*
X136748Y197007D01*
X136790Y196999D01*
X136818Y196987D01*
X136848Y196988D01*
X136890Y196980D01*
X140790Y196980D01*
X140840Y196991D01*
G37*
G36*
X161817Y196681D02*
X161817Y196681D01*
X161854Y196692D01*
X161920Y196703D01*
X163020Y197103D01*
X163042Y197117D01*
X163075Y197128D01*
X163975Y197628D01*
X163998Y197649D01*
X164037Y197671D01*
X164737Y198271D01*
X164754Y198294D01*
X164822Y198375D01*
X165322Y199275D01*
X165332Y199308D01*
X165354Y199351D01*
X165654Y200351D01*
X165655Y200370D01*
X165664Y200392D01*
X165864Y201492D01*
X165863Y201521D01*
X165870Y201560D01*
X165870Y211560D01*
X165859Y211610D01*
X165857Y211661D01*
X165839Y211693D01*
X165831Y211729D01*
X165798Y211768D01*
X165774Y211813D01*
X165744Y211834D01*
X165721Y211862D01*
X165674Y211883D01*
X165632Y211913D01*
X165590Y211921D01*
X165562Y211933D01*
X165532Y211932D01*
X165490Y211940D01*
X161690Y211940D01*
X161640Y211929D01*
X161589Y211927D01*
X161557Y211909D01*
X161521Y211901D01*
X161482Y211868D01*
X161437Y211844D01*
X161416Y211814D01*
X161388Y211791D01*
X161367Y211744D01*
X161337Y211702D01*
X161329Y211660D01*
X161317Y211632D01*
X161318Y211602D01*
X161310Y211560D01*
X161310Y203584D01*
X161114Y202015D01*
X161030Y201514D01*
X160531Y200848D01*
X160151Y200620D01*
X159721Y200534D01*
X159182Y200444D01*
X158445Y200536D01*
X157924Y200623D01*
X157526Y200862D01*
X157203Y201185D01*
X156935Y201720D01*
X156661Y202360D01*
X156570Y203084D01*
X156570Y211560D01*
X156559Y211610D01*
X156557Y211661D01*
X156539Y211693D01*
X156531Y211729D01*
X156498Y211768D01*
X156474Y211813D01*
X156444Y211834D01*
X156421Y211862D01*
X156374Y211883D01*
X156332Y211913D01*
X156290Y211921D01*
X156262Y211933D01*
X156232Y211932D01*
X156190Y211940D01*
X152290Y211940D01*
X152240Y211929D01*
X152189Y211927D01*
X152157Y211909D01*
X152121Y211901D01*
X152082Y211868D01*
X152037Y211844D01*
X152016Y211814D01*
X151988Y211791D01*
X151967Y211744D01*
X151937Y211702D01*
X151929Y211660D01*
X151917Y211632D01*
X151918Y211602D01*
X151910Y211560D01*
X151910Y197360D01*
X151921Y197310D01*
X151923Y197259D01*
X151941Y197227D01*
X151949Y197191D01*
X151982Y197152D01*
X152006Y197107D01*
X152036Y197086D01*
X152059Y197058D01*
X152106Y197037D01*
X152148Y197007D01*
X152190Y196999D01*
X152218Y196987D01*
X152248Y196988D01*
X152290Y196980D01*
X155990Y196980D01*
X156040Y196991D01*
X156091Y196993D01*
X156123Y197011D01*
X156159Y197019D01*
X156198Y197052D01*
X156243Y197076D01*
X156264Y197106D01*
X156292Y197129D01*
X156313Y197176D01*
X156343Y197218D01*
X156351Y197260D01*
X156363Y197288D01*
X156362Y197318D01*
X156370Y197360D01*
X156370Y198301D01*
X156593Y198022D01*
X156620Y198001D01*
X156652Y197963D01*
X157152Y197563D01*
X157182Y197549D01*
X157220Y197520D01*
X157820Y197220D01*
X157834Y197217D01*
X157849Y197207D01*
X158349Y197007D01*
X158359Y197005D01*
X158370Y196999D01*
X158970Y196799D01*
X158999Y196797D01*
X159036Y196784D01*
X159733Y196684D01*
X160328Y196585D01*
X160363Y196587D01*
X160417Y196581D01*
X161817Y196681D01*
G37*
G36*
X240422Y196681D02*
X240422Y196681D01*
X240435Y196685D01*
X240453Y196685D01*
X241653Y196885D01*
X241668Y196892D01*
X241690Y196893D01*
X242790Y197193D01*
X242818Y197208D01*
X242860Y197220D01*
X243180Y197380D01*
X243860Y197720D01*
X243889Y197744D01*
X243940Y197774D01*
X244740Y198474D01*
X244758Y198499D01*
X244790Y198527D01*
X245490Y199427D01*
X245506Y199462D01*
X245543Y199519D01*
X245943Y200519D01*
X245948Y200553D01*
X245966Y200602D01*
X246166Y201902D01*
X246160Y201982D01*
X246157Y202061D01*
X246153Y202067D01*
X246152Y202075D01*
X246112Y202143D01*
X246074Y202213D01*
X246068Y202217D01*
X246064Y202224D01*
X245997Y202267D01*
X245932Y202313D01*
X245924Y202314D01*
X245918Y202318D01*
X245885Y202322D01*
X245790Y202340D01*
X242090Y202340D01*
X242040Y202329D01*
X241989Y202327D01*
X241957Y202309D01*
X241921Y202301D01*
X241882Y202268D01*
X241837Y202244D01*
X241816Y202214D01*
X241788Y202191D01*
X241767Y202144D01*
X241737Y202102D01*
X241729Y202060D01*
X241717Y202032D01*
X241718Y202002D01*
X241710Y201960D01*
X241710Y201433D01*
X241556Y201048D01*
X241318Y200732D01*
X240636Y200220D01*
X240128Y200135D01*
X240122Y200133D01*
X240115Y200133D01*
X239621Y200034D01*
X239106Y199948D01*
X238782Y200029D01*
X238746Y200029D01*
X238690Y200040D01*
X238337Y200040D01*
X238023Y200119D01*
X237691Y200285D01*
X237340Y200548D01*
X237133Y200754D01*
X236982Y201360D01*
X237049Y201627D01*
X237190Y201910D01*
X237502Y202144D01*
X237950Y202412D01*
X238496Y202595D01*
X240073Y202989D01*
X241065Y203187D01*
X241068Y203189D01*
X241073Y203189D01*
X241973Y203389D01*
X241993Y203399D01*
X242024Y203404D01*
X242824Y203704D01*
X242830Y203708D01*
X242840Y203711D01*
X243540Y204011D01*
X243555Y204022D01*
X243579Y204030D01*
X244279Y204430D01*
X244287Y204438D01*
X244301Y204444D01*
X244901Y204844D01*
X244902Y204845D01*
X244905Y204846D01*
X245006Y204949D01*
X245406Y205549D01*
X245417Y205577D01*
X245440Y205610D01*
X245740Y206310D01*
X245746Y206349D01*
X245752Y206368D01*
X245764Y206394D01*
X245764Y206404D01*
X245768Y206418D01*
X245868Y207318D01*
X245864Y207349D01*
X245869Y207392D01*
X245769Y208592D01*
X245757Y208629D01*
X245743Y208701D01*
X245343Y209701D01*
X245323Y209730D01*
X245276Y209810D01*
X244576Y210610D01*
X244557Y210624D01*
X244537Y210649D01*
X243837Y211249D01*
X243805Y211266D01*
X243760Y211300D01*
X242760Y211800D01*
X242723Y211809D01*
X242665Y211833D01*
X241665Y212033D01*
X241662Y212033D01*
X241658Y212034D01*
X240558Y212234D01*
X240529Y212233D01*
X240490Y212240D01*
X238190Y212240D01*
X238162Y212234D01*
X238122Y212234D01*
X237022Y212034D01*
X237005Y212027D01*
X236981Y212024D01*
X235981Y211724D01*
X235962Y211714D01*
X235936Y211707D01*
X235036Y211307D01*
X235008Y211287D01*
X234962Y211264D01*
X234162Y210664D01*
X234137Y210634D01*
X234086Y210588D01*
X233486Y209788D01*
X233474Y209762D01*
X233450Y209730D01*
X232950Y208730D01*
X232941Y208692D01*
X232915Y208623D01*
X232715Y207423D01*
X232720Y207341D01*
X232723Y207259D01*
X232726Y207255D01*
X232726Y207250D01*
X232767Y207179D01*
X232806Y207107D01*
X232810Y207104D01*
X232813Y207100D01*
X232881Y207054D01*
X232948Y207007D01*
X232953Y207006D01*
X232957Y207004D01*
X232985Y207000D01*
X233090Y206980D01*
X236790Y206980D01*
X236803Y206983D01*
X236817Y206981D01*
X236887Y207002D01*
X236959Y207019D01*
X236969Y207028D01*
X236982Y207032D01*
X237036Y207083D01*
X237092Y207129D01*
X237098Y207142D01*
X237108Y207151D01*
X237163Y207285D01*
X237256Y207751D01*
X237428Y208182D01*
X237564Y208386D01*
X237781Y208531D01*
X238146Y208713D01*
X238563Y208880D01*
X240128Y208880D01*
X240370Y208799D01*
X240383Y208798D01*
X240398Y208791D01*
X240784Y208695D01*
X240946Y208641D01*
X241210Y208245D01*
X241210Y208007D01*
X241140Y207727D01*
X240918Y207432D01*
X240589Y207185D01*
X240044Y206912D01*
X239505Y206733D01*
X238743Y206637D01*
X238724Y206630D01*
X238698Y206629D01*
X236302Y206030D01*
X235408Y205831D01*
X235372Y205814D01*
X235301Y205790D01*
X233901Y204990D01*
X233881Y204971D01*
X233847Y204952D01*
X233247Y204452D01*
X233223Y204421D01*
X233218Y204416D01*
X233217Y204415D01*
X233174Y204371D01*
X232774Y203771D01*
X232763Y203743D01*
X232741Y203710D01*
X232441Y203010D01*
X232434Y202971D01*
X232412Y202902D01*
X232312Y202002D01*
X232317Y201964D01*
X232314Y201902D01*
X232514Y200602D01*
X232526Y200573D01*
X232533Y200530D01*
X232933Y199430D01*
X232954Y199397D01*
X232986Y199332D01*
X233586Y198532D01*
X233611Y198511D01*
X233640Y198474D01*
X234440Y197774D01*
X234473Y197756D01*
X234520Y197720D01*
X235520Y197220D01*
X235550Y197213D01*
X235590Y197193D01*
X236690Y196893D01*
X236707Y196893D01*
X236728Y196885D01*
X237928Y196685D01*
X237942Y196686D01*
X237958Y196681D01*
X239158Y196581D01*
X239185Y196585D01*
X239222Y196581D01*
X240422Y196681D01*
G37*
G36*
X187609Y119858D02*
X187609Y119858D01*
X187616Y119853D01*
X188516Y120153D01*
X188531Y120175D01*
X188544Y120178D01*
X188944Y120978D01*
X188942Y120991D01*
X188949Y120996D01*
X189049Y122096D01*
X189047Y122098D01*
X189049Y122100D01*
X189049Y128045D01*
X191360Y124772D01*
X191360Y124771D01*
X191860Y124071D01*
X191875Y124067D01*
X191876Y124057D01*
X192776Y123557D01*
X192797Y123560D01*
X192805Y123551D01*
X193805Y123651D01*
X193819Y123664D01*
X193830Y123661D01*
X194630Y124261D01*
X194632Y124270D01*
X194639Y124270D01*
X197332Y127861D01*
X197451Y127920D01*
X197451Y120900D01*
X197462Y120886D01*
X197457Y120876D01*
X197857Y120176D01*
X197881Y120165D01*
X197886Y120153D01*
X198886Y119853D01*
X198898Y119857D01*
X198904Y119851D01*
X200204Y119951D01*
X200222Y119967D01*
X200235Y119965D01*
X200835Y120565D01*
X200836Y120576D01*
X200837Y120576D01*
X200836Y120577D01*
X200838Y120588D01*
X200849Y120595D01*
X200949Y121595D01*
X200947Y121598D01*
X200949Y121600D01*
X200949Y132800D01*
X200943Y132808D01*
X200947Y132814D01*
X200647Y133814D01*
X200626Y133830D01*
X200624Y133843D01*
X199924Y134243D01*
X199907Y134240D01*
X199900Y134249D01*
X198700Y134249D01*
X198689Y134241D01*
X198682Y134246D01*
X197682Y133846D01*
X197672Y133830D01*
X197661Y133830D01*
X197061Y133030D01*
X197061Y133029D01*
X197060Y133029D01*
X193485Y128163D01*
X192732Y128539D01*
X190439Y131530D01*
X189440Y132929D01*
X189438Y132929D01*
X189438Y132931D01*
X188638Y133931D01*
X188618Y133936D01*
X188614Y133947D01*
X187614Y134247D01*
X187602Y134243D01*
X187596Y134249D01*
X186396Y134149D01*
X186382Y134137D01*
X186371Y134140D01*
X185671Y133640D01*
X185664Y133616D01*
X185652Y133611D01*
X185452Y132711D01*
X185455Y132703D01*
X185451Y132700D01*
X185451Y121400D01*
X185457Y121392D01*
X185453Y121386D01*
X185753Y120386D01*
X185771Y120373D01*
X185771Y120360D01*
X186471Y119860D01*
X186493Y119861D01*
X186500Y119851D01*
X187600Y119851D01*
X187609Y119858D01*
G37*
G36*
X235809Y145258D02*
X235809Y145258D01*
X235816Y145253D01*
X236716Y145553D01*
X236731Y145575D01*
X236744Y145578D01*
X237144Y146378D01*
X237141Y146394D01*
X237149Y146400D01*
X237149Y153450D01*
X239560Y150171D01*
X240060Y149471D01*
X240075Y149467D01*
X240076Y149457D01*
X240976Y148957D01*
X240997Y148960D01*
X241005Y148951D01*
X242005Y149051D01*
X242019Y149064D01*
X242030Y149061D01*
X242830Y149661D01*
X242833Y149671D01*
X242840Y149671D01*
X245431Y153258D01*
X245651Y153332D01*
X245651Y146300D01*
X245662Y146286D01*
X245657Y146276D01*
X246057Y145576D01*
X246081Y145565D01*
X246086Y145553D01*
X247086Y145253D01*
X247098Y145257D01*
X247104Y145251D01*
X248304Y145351D01*
X248320Y145365D01*
X248332Y145363D01*
X249032Y145963D01*
X249035Y145976D01*
X249038Y145992D01*
X249049Y146000D01*
X249049Y158200D01*
X249045Y158206D01*
X249048Y158210D01*
X248848Y159210D01*
X248825Y159231D01*
X248822Y159244D01*
X248022Y159644D01*
X248006Y159641D01*
X248000Y159649D01*
X246800Y159649D01*
X246788Y159640D01*
X246780Y159645D01*
X245880Y159245D01*
X245872Y159230D01*
X245861Y159230D01*
X245261Y158430D01*
X241587Y153564D01*
X240933Y153938D01*
X238639Y156930D01*
X237539Y158330D01*
X237538Y158331D01*
X236738Y159331D01*
X236719Y159336D01*
X236716Y159347D01*
X235816Y159647D01*
X235802Y159642D01*
X235796Y159649D01*
X234496Y159549D01*
X234480Y159535D01*
X234468Y159538D01*
X233868Y159038D01*
X233863Y159016D01*
X233852Y159011D01*
X233652Y158111D01*
X233655Y158103D01*
X233651Y158100D01*
X233651Y146800D01*
X233657Y146792D01*
X233653Y146786D01*
X233953Y145786D01*
X233971Y145773D01*
X233971Y145760D01*
X234671Y145260D01*
X234693Y145261D01*
X234700Y145251D01*
X235800Y145251D01*
X235809Y145258D01*
G37*
G36*
X172709Y145258D02*
X172709Y145258D01*
X172716Y145253D01*
X173616Y145553D01*
X173631Y145575D01*
X173644Y145578D01*
X174044Y146378D01*
X174041Y146394D01*
X174049Y146400D01*
X174049Y153450D01*
X176460Y150171D01*
X176960Y149471D01*
X176975Y149467D01*
X176976Y149457D01*
X177876Y148957D01*
X177897Y148960D01*
X177905Y148951D01*
X178905Y149051D01*
X178919Y149064D01*
X178930Y149061D01*
X179730Y149661D01*
X179733Y149671D01*
X179740Y149671D01*
X182331Y153258D01*
X182551Y153332D01*
X182551Y146300D01*
X182562Y146286D01*
X182557Y146276D01*
X182957Y145576D01*
X182981Y145565D01*
X182986Y145553D01*
X183986Y145253D01*
X183998Y145257D01*
X184004Y145251D01*
X185204Y145351D01*
X185220Y145365D01*
X185232Y145363D01*
X185932Y145963D01*
X185935Y145976D01*
X185938Y145992D01*
X185949Y146000D01*
X185949Y158200D01*
X185945Y158206D01*
X185948Y158210D01*
X185748Y159210D01*
X185725Y159231D01*
X185722Y159244D01*
X184922Y159644D01*
X184906Y159641D01*
X184900Y159649D01*
X183700Y159649D01*
X183688Y159640D01*
X183680Y159645D01*
X182780Y159245D01*
X182772Y159230D01*
X182761Y159230D01*
X182161Y158430D01*
X178487Y153564D01*
X177833Y153938D01*
X175539Y156930D01*
X174439Y158330D01*
X174438Y158331D01*
X173638Y159331D01*
X173619Y159336D01*
X173616Y159347D01*
X172716Y159647D01*
X172702Y159642D01*
X172696Y159649D01*
X171396Y159549D01*
X171380Y159535D01*
X171368Y159538D01*
X170768Y159038D01*
X170763Y159016D01*
X170752Y159011D01*
X170552Y158111D01*
X170555Y158103D01*
X170551Y158100D01*
X170551Y146800D01*
X170557Y146792D01*
X170553Y146786D01*
X170853Y145786D01*
X170871Y145773D01*
X170871Y145760D01*
X171571Y145260D01*
X171593Y145261D01*
X171600Y145251D01*
X172700Y145251D01*
X172709Y145258D01*
G37*
G36*
X152703Y145253D02*
X152703Y145253D01*
X152704Y145251D01*
X153804Y145351D01*
X153811Y145357D01*
X153816Y145353D01*
X154716Y145653D01*
X154719Y145659D01*
X154724Y145657D01*
X155624Y146157D01*
X155627Y146164D01*
X155632Y146163D01*
X156432Y146863D01*
X156435Y146873D01*
X156442Y146874D01*
X156942Y147674D01*
X156941Y147679D01*
X156945Y147680D01*
X157345Y148580D01*
X157344Y148584D01*
X157347Y148584D01*
X157647Y149484D01*
X157645Y149489D01*
X157648Y149490D01*
X157848Y150490D01*
X157847Y150494D01*
X157849Y150495D01*
X157949Y151495D01*
X157949Y151496D01*
X158049Y152596D01*
X158047Y152598D01*
X158049Y152600D01*
X158049Y153800D01*
X158045Y153806D01*
X158048Y153810D01*
X157848Y154810D01*
X157848Y154811D01*
X157648Y155711D01*
X157647Y155712D01*
X157648Y155713D01*
X157348Y156813D01*
X157343Y156816D01*
X157345Y156820D01*
X156945Y157720D01*
X156939Y157724D01*
X156940Y157729D01*
X156441Y158428D01*
X156041Y159027D01*
X156025Y159033D01*
X156024Y159043D01*
X155124Y159543D01*
X155121Y159543D01*
X155120Y159545D01*
X154220Y159945D01*
X154212Y159943D01*
X154210Y159948D01*
X153210Y160148D01*
X153203Y160145D01*
X153200Y160149D01*
X152100Y160149D01*
X152095Y160145D01*
X152091Y160148D01*
X150991Y159948D01*
X150984Y159941D01*
X150978Y159944D01*
X150178Y159544D01*
X150176Y159540D01*
X150173Y159541D01*
X149273Y158941D01*
X149270Y158934D01*
X149265Y158935D01*
X148565Y158235D01*
X148564Y158227D01*
X148558Y158226D01*
X148058Y157426D01*
X148059Y157420D01*
X148054Y157418D01*
X147654Y156418D01*
X147655Y156415D01*
X147653Y156414D01*
X147353Y155414D01*
X147354Y155411D01*
X147352Y155410D01*
X147152Y154410D01*
X147153Y154406D01*
X147151Y154405D01*
X147051Y153405D01*
X147053Y153402D01*
X147051Y153400D01*
X147051Y152300D01*
X147053Y152297D01*
X147051Y152296D01*
X147151Y151196D01*
X147153Y151193D01*
X147152Y151191D01*
X147352Y150091D01*
X147352Y150090D01*
X147552Y149090D01*
X147558Y149085D01*
X147555Y149080D01*
X147955Y148180D01*
X147957Y148179D01*
X147956Y148178D01*
X148356Y147378D01*
X148364Y147374D01*
X148363Y147368D01*
X148963Y146668D01*
X148970Y146666D01*
X148970Y146661D01*
X149770Y146061D01*
X149776Y146061D01*
X149776Y146057D01*
X150676Y145557D01*
X150683Y145558D01*
X150684Y145553D01*
X151584Y145253D01*
X151595Y145257D01*
X151600Y145251D01*
X152700Y145251D01*
X152703Y145253D01*
G37*
G36*
X173240Y196991D02*
X173240Y196991D01*
X173291Y196993D01*
X173323Y197011D01*
X173359Y197019D01*
X173398Y197052D01*
X173443Y197076D01*
X173464Y197106D01*
X173492Y197129D01*
X173513Y197176D01*
X173543Y197218D01*
X173551Y197260D01*
X173563Y197288D01*
X173562Y197318D01*
X173570Y197360D01*
X173570Y208580D01*
X177090Y208580D01*
X177141Y208592D01*
X177194Y208594D01*
X177224Y208611D01*
X177259Y208619D01*
X177299Y208653D01*
X177345Y208678D01*
X177365Y208707D01*
X177392Y208729D01*
X177414Y208777D01*
X177444Y208821D01*
X177449Y208855D01*
X177463Y208888D01*
X177461Y208940D01*
X177469Y208992D01*
X177458Y209025D01*
X177457Y209061D01*
X177432Y209107D01*
X177415Y209157D01*
X177388Y209187D01*
X177374Y209213D01*
X177348Y209231D01*
X177318Y209264D01*
X176940Y209548D01*
X175359Y211129D01*
X175339Y211141D01*
X175318Y211164D01*
X174962Y211432D01*
X174694Y211788D01*
X174682Y211799D01*
X174674Y211813D01*
X174616Y211854D01*
X174561Y211899D01*
X174546Y211903D01*
X174532Y211913D01*
X174405Y211937D01*
X174393Y211940D01*
X174392Y211940D01*
X174390Y211940D01*
X173570Y211940D01*
X173570Y213560D01*
X173564Y213586D01*
X173546Y213694D01*
X173246Y214494D01*
X173242Y214500D01*
X173240Y214510D01*
X172940Y215210D01*
X172916Y215241D01*
X172882Y215303D01*
X172382Y215903D01*
X172352Y215926D01*
X172311Y215969D01*
X171611Y216469D01*
X171587Y216479D01*
X171560Y216500D01*
X170760Y216900D01*
X170733Y216907D01*
X170699Y216924D01*
X169699Y217224D01*
X169660Y217227D01*
X169590Y217240D01*
X166690Y217240D01*
X166675Y217237D01*
X166660Y217239D01*
X166528Y217202D01*
X166521Y217201D01*
X166521Y217200D01*
X166520Y217200D01*
X166320Y217100D01*
X166281Y217068D01*
X166237Y217044D01*
X166216Y217013D01*
X166187Y216989D01*
X166166Y216943D01*
X166137Y216902D01*
X166129Y216859D01*
X166116Y216831D01*
X166117Y216815D01*
X166118Y216801D01*
X166110Y216760D01*
X166110Y213960D01*
X166121Y213910D01*
X166123Y213859D01*
X166141Y213827D01*
X166149Y213791D01*
X166182Y213752D01*
X166206Y213707D01*
X166236Y213686D01*
X166259Y213658D01*
X166306Y213637D01*
X166348Y213607D01*
X166390Y213599D01*
X166418Y213587D01*
X166448Y213588D01*
X166490Y213580D01*
X168143Y213580D01*
X168457Y213501D01*
X168730Y213365D01*
X168861Y213169D01*
X168910Y213070D01*
X168910Y212760D01*
X168918Y212724D01*
X168921Y212668D01*
X169010Y212313D01*
X169010Y211940D01*
X166690Y211940D01*
X166640Y211929D01*
X166589Y211927D01*
X166557Y211909D01*
X166521Y211901D01*
X166482Y211868D01*
X166437Y211844D01*
X166416Y211814D01*
X166388Y211791D01*
X166367Y211744D01*
X166337Y211702D01*
X166329Y211660D01*
X166317Y211632D01*
X166318Y211602D01*
X166310Y211560D01*
X166310Y208960D01*
X166321Y208910D01*
X166323Y208859D01*
X166341Y208827D01*
X166349Y208791D01*
X166382Y208752D01*
X166406Y208707D01*
X166436Y208686D01*
X166459Y208658D01*
X166506Y208637D01*
X166548Y208607D01*
X166590Y208599D01*
X166618Y208587D01*
X166648Y208588D01*
X166690Y208580D01*
X169010Y208580D01*
X169010Y197360D01*
X169021Y197310D01*
X169023Y197259D01*
X169041Y197227D01*
X169049Y197191D01*
X169082Y197152D01*
X169106Y197107D01*
X169136Y197086D01*
X169159Y197058D01*
X169206Y197037D01*
X169248Y197007D01*
X169290Y196999D01*
X169318Y196987D01*
X169348Y196988D01*
X169390Y196980D01*
X173190Y196980D01*
X173240Y196991D01*
G37*
G36*
X212517Y145554D02*
X212517Y145554D01*
X212524Y145565D01*
X212533Y145563D01*
X213433Y146363D01*
X213435Y146376D01*
X213444Y146378D01*
X213844Y147178D01*
X213838Y147210D01*
X213844Y147222D01*
X213444Y148022D01*
X213436Y148026D01*
X213437Y148033D01*
X212637Y148933D01*
X209265Y152701D01*
X209837Y153368D01*
X213237Y157268D01*
X213238Y157274D01*
X213242Y157274D01*
X213742Y158074D01*
X213741Y158087D01*
X213746Y158092D01*
X213739Y158101D01*
X213748Y158112D01*
X213548Y158912D01*
X213532Y158925D01*
X213533Y158937D01*
X212633Y159737D01*
X212623Y159738D01*
X212622Y159744D01*
X211822Y160144D01*
X211794Y160139D01*
X211783Y160146D01*
X210983Y159846D01*
X210975Y159834D01*
X210965Y159835D01*
X210165Y159035D01*
X210165Y159032D01*
X210163Y159032D01*
X206897Y155272D01*
X206236Y155934D01*
X203537Y158933D01*
X203535Y158933D01*
X203535Y158935D01*
X202735Y159735D01*
X202723Y159736D01*
X202722Y159744D01*
X201922Y160144D01*
X201894Y160139D01*
X201883Y160146D01*
X201083Y159846D01*
X201075Y159834D01*
X201065Y159835D01*
X200165Y158935D01*
X200163Y158917D01*
X200153Y158914D01*
X200137Y158857D01*
X200094Y158709D01*
X200080Y158660D01*
X200038Y158512D01*
X199996Y158365D01*
X199982Y158315D01*
X199953Y158214D01*
X199961Y158191D01*
X199955Y158180D01*
X200355Y157280D01*
X200365Y157275D01*
X200363Y157267D01*
X204434Y152700D01*
X201064Y149034D01*
X200265Y148235D01*
X200264Y148223D01*
X200258Y148219D01*
X200259Y148218D01*
X200253Y148216D01*
X199953Y147316D01*
X199960Y147297D01*
X199952Y147288D01*
X200152Y146488D01*
X200167Y146476D01*
X200165Y146465D01*
X201065Y145565D01*
X201080Y145563D01*
X201083Y145554D01*
X201883Y145254D01*
X201910Y145262D01*
X201922Y145256D01*
X202722Y145656D01*
X202728Y145668D01*
X202737Y145667D01*
X206802Y150228D01*
X207464Y149567D01*
X210063Y146568D01*
X210063Y146567D01*
X210863Y145667D01*
X210876Y145665D01*
X210878Y145656D01*
X211678Y145256D01*
X211706Y145261D01*
X211717Y145254D01*
X212517Y145554D01*
G37*
G36*
X171117Y119864D02*
X171117Y119864D01*
X171130Y119861D01*
X171930Y120461D01*
X171934Y120477D01*
X171945Y120479D01*
X172842Y122373D01*
X173423Y123051D01*
X178470Y123051D01*
X179356Y121278D01*
X179357Y121277D01*
X179357Y121276D01*
X179857Y120376D01*
X179873Y120369D01*
X179874Y120358D01*
X180674Y119858D01*
X180704Y119861D01*
X180716Y119853D01*
X181616Y120153D01*
X181619Y120159D01*
X181624Y120157D01*
X182724Y120757D01*
X182734Y120779D01*
X182746Y120783D01*
X183046Y121583D01*
X183040Y121604D01*
X183047Y121614D01*
X182747Y122614D01*
X182742Y122618D01*
X182744Y122622D01*
X177745Y132721D01*
X177345Y133620D01*
X177332Y133627D01*
X177332Y133637D01*
X176532Y134337D01*
X176511Y134339D01*
X176505Y134349D01*
X175505Y134449D01*
X175490Y134440D01*
X175480Y134445D01*
X174580Y134045D01*
X174571Y134028D01*
X174559Y134027D01*
X174159Y133427D01*
X174159Y133422D01*
X174156Y133422D01*
X169256Y123322D01*
X169256Y123319D01*
X169254Y123318D01*
X168854Y122318D01*
X168856Y122313D01*
X168852Y122311D01*
X168652Y121411D01*
X168662Y121390D01*
X168656Y121378D01*
X169056Y120578D01*
X169075Y120569D01*
X169076Y120557D01*
X170176Y119957D01*
X170190Y119959D01*
X170195Y119951D01*
X171095Y119851D01*
X171117Y119864D01*
G37*
G36*
X219319Y145266D02*
X219319Y145266D01*
X219332Y145263D01*
X220032Y145863D01*
X220035Y145876D01*
X220036Y145877D01*
X220045Y145879D01*
X220942Y147773D01*
X221523Y148451D01*
X226570Y148451D01*
X227456Y146678D01*
X227457Y146677D01*
X227457Y146676D01*
X227957Y145776D01*
X227974Y145768D01*
X227976Y145757D01*
X228876Y145257D01*
X228904Y145261D01*
X228916Y145253D01*
X229816Y145553D01*
X229820Y145560D01*
X229825Y145558D01*
X230825Y146158D01*
X230834Y146179D01*
X230846Y146183D01*
X231146Y146983D01*
X231140Y147004D01*
X231147Y147014D01*
X230847Y148014D01*
X230842Y148018D01*
X230844Y148022D01*
X225944Y158122D01*
X225942Y158122D01*
X225943Y158124D01*
X225443Y159024D01*
X225432Y159029D01*
X225432Y159037D01*
X224632Y159737D01*
X224611Y159739D01*
X224605Y159749D01*
X223605Y159849D01*
X223588Y159839D01*
X223578Y159844D01*
X222778Y159444D01*
X222770Y159428D01*
X222759Y159427D01*
X222359Y158827D01*
X222359Y158822D01*
X222356Y158822D01*
X217456Y148722D01*
X216956Y147722D01*
X216958Y147713D01*
X216952Y147711D01*
X216752Y146811D01*
X216763Y146786D01*
X216758Y146774D01*
X217258Y145974D01*
X217275Y145968D01*
X217276Y145957D01*
X218376Y145357D01*
X218390Y145359D01*
X218395Y145351D01*
X219295Y145251D01*
X219319Y145266D01*
G37*
G36*
X201212Y170661D02*
X201212Y170661D01*
X201222Y170656D01*
X202022Y171056D01*
X202034Y171079D01*
X202035Y171081D01*
X202035Y171082D01*
X202036Y171084D01*
X202048Y171089D01*
X202248Y171989D01*
X202245Y171997D01*
X202249Y172000D01*
X202249Y184400D01*
X202244Y184406D01*
X202248Y184411D01*
X202048Y185311D01*
X202025Y185331D01*
X202022Y185344D01*
X201222Y185744D01*
X201206Y185741D01*
X201200Y185749D01*
X199900Y185749D01*
X199887Y185740D01*
X199878Y185744D01*
X199078Y185344D01*
X199064Y185316D01*
X199052Y185311D01*
X198852Y184411D01*
X198854Y184406D01*
X198853Y184405D01*
X198854Y184403D01*
X198851Y184400D01*
X198851Y180280D01*
X198322Y180544D01*
X198319Y180543D01*
X198318Y180546D01*
X197318Y180946D01*
X197312Y180944D01*
X197304Y180944D01*
X197300Y180949D01*
X196600Y180949D01*
X196597Y180947D01*
X196595Y180949D01*
X195695Y180849D01*
X195691Y180846D01*
X195689Y180846D01*
X195688Y180845D01*
X195684Y180847D01*
X194784Y180547D01*
X194779Y180539D01*
X194773Y180541D01*
X193873Y179941D01*
X193870Y179934D01*
X193865Y179935D01*
X193065Y179135D01*
X193064Y179125D01*
X193057Y179124D01*
X192557Y178224D01*
X192557Y178221D01*
X192555Y178220D01*
X192155Y177320D01*
X192156Y177316D01*
X192152Y177313D01*
X192154Y177311D01*
X192152Y177310D01*
X191952Y176310D01*
X191955Y176303D01*
X191951Y176300D01*
X191951Y175300D01*
X191955Y175294D01*
X191952Y175290D01*
X192152Y174290D01*
X192158Y174285D01*
X192155Y174280D01*
X192555Y173380D01*
X192561Y173377D01*
X192559Y173373D01*
X193159Y172473D01*
X193166Y172470D01*
X193165Y172465D01*
X193965Y171665D01*
X193972Y171664D01*
X193973Y171659D01*
X194873Y171059D01*
X194882Y171060D01*
X194884Y171053D01*
X195784Y170753D01*
X195792Y170756D01*
X195795Y170751D01*
X196795Y170651D01*
X196804Y170657D01*
X196810Y170652D01*
X197810Y170852D01*
X197818Y170861D01*
X197826Y170858D01*
X198626Y171358D01*
X198646Y171410D01*
X198653Y171386D01*
X198675Y171369D01*
X198678Y171356D01*
X199878Y170756D01*
X199891Y170758D01*
X199896Y170751D01*
X201196Y170651D01*
X201212Y170661D01*
G37*
G36*
X209703Y119853D02*
X209703Y119853D01*
X209705Y119851D01*
X210705Y119951D01*
X210710Y119956D01*
X210714Y119953D01*
X211714Y120253D01*
X211719Y120259D01*
X211724Y120257D01*
X212624Y120757D01*
X212626Y120762D01*
X212630Y120761D01*
X213530Y121461D01*
X213531Y121466D01*
X213535Y121465D01*
X214135Y122065D01*
X214136Y122075D01*
X214143Y122076D01*
X214643Y122976D01*
X214642Y122986D01*
X214647Y122989D01*
X214640Y122998D01*
X214639Y123002D01*
X214648Y123012D01*
X214448Y123812D01*
X214435Y123822D01*
X214437Y123833D01*
X213637Y124733D01*
X213619Y124736D01*
X213616Y124747D01*
X212716Y125047D01*
X212690Y125038D01*
X212678Y125044D01*
X211878Y124644D01*
X211875Y124638D01*
X211870Y124639D01*
X210971Y123940D01*
X210083Y123348D01*
X209105Y123250D01*
X208135Y123541D01*
X207752Y124306D01*
X207943Y125168D01*
X208815Y125652D01*
X209805Y125751D01*
X209810Y125756D01*
X209814Y125753D01*
X210814Y126053D01*
X210816Y126056D01*
X210818Y126054D01*
X211818Y126454D01*
X211819Y126456D01*
X211820Y126455D01*
X212720Y126855D01*
X212725Y126864D01*
X212732Y126863D01*
X213432Y127463D01*
X213434Y127472D01*
X213441Y127473D01*
X214041Y128373D01*
X214040Y128382D01*
X214047Y128384D01*
X214347Y129284D01*
X214345Y129291D01*
X214348Y129293D01*
X214347Y129294D01*
X214349Y129296D01*
X214449Y130396D01*
X214445Y130402D01*
X214449Y130405D01*
X214349Y131405D01*
X214341Y131413D01*
X214345Y131420D01*
X213945Y132320D01*
X213938Y132324D01*
X213939Y132330D01*
X213339Y133130D01*
X213334Y133131D01*
X213335Y133135D01*
X212635Y133835D01*
X212622Y133837D01*
X212620Y133845D01*
X211720Y134245D01*
X211716Y134244D01*
X211716Y134247D01*
X210816Y134547D01*
X210808Y134544D01*
X210804Y134549D01*
X209704Y134649D01*
X209702Y134647D01*
X209700Y134649D01*
X208600Y134649D01*
X208594Y134645D01*
X208590Y134648D01*
X207590Y134448D01*
X207586Y134443D01*
X207582Y134446D01*
X206582Y134046D01*
X206577Y134038D01*
X206571Y134040D01*
X205871Y133540D01*
X205870Y133534D01*
X205865Y133535D01*
X205065Y132735D01*
X205064Y132723D01*
X205058Y132718D01*
X205062Y132712D01*
X205062Y132708D01*
X205051Y132700D01*
X205051Y131900D01*
X205063Y131883D01*
X205060Y131872D01*
X205760Y130872D01*
X205773Y130867D01*
X205774Y130858D01*
X206574Y130358D01*
X206597Y130360D01*
X206605Y130351D01*
X207505Y130451D01*
X207517Y130462D01*
X207527Y130459D01*
X208424Y131057D01*
X209306Y131449D01*
X210274Y131255D01*
X210847Y130586D01*
X210657Y129635D01*
X209783Y129246D01*
X207786Y128647D01*
X206786Y128347D01*
X206785Y128346D01*
X206784Y128347D01*
X205884Y128047D01*
X205877Y128036D01*
X205868Y128037D01*
X205168Y127437D01*
X205166Y127428D01*
X205159Y127427D01*
X204559Y126527D01*
X204560Y126518D01*
X204558Y126517D01*
X204553Y126516D01*
X204253Y125616D01*
X204256Y125608D01*
X204251Y125604D01*
X204151Y124504D01*
X204155Y124499D01*
X204151Y124495D01*
X204251Y123495D01*
X204256Y123490D01*
X204253Y123486D01*
X204553Y122486D01*
X204563Y122478D01*
X204561Y122470D01*
X205161Y121670D01*
X205166Y121669D01*
X205165Y121665D01*
X205865Y120965D01*
X205875Y120964D01*
X205876Y120957D01*
X206776Y120457D01*
X206779Y120457D01*
X206780Y120455D01*
X207680Y120055D01*
X207688Y120057D01*
X207690Y120052D01*
X208690Y119852D01*
X208697Y119855D01*
X208700Y119851D01*
X209700Y119851D01*
X209703Y119853D01*
G37*
G36*
X139203Y145253D02*
X139203Y145253D01*
X139205Y145251D01*
X140205Y145351D01*
X140210Y145356D01*
X140214Y145353D01*
X141214Y145653D01*
X141219Y145659D01*
X141224Y145657D01*
X142124Y146157D01*
X142126Y146162D01*
X142130Y146161D01*
X143030Y146861D01*
X143031Y146866D01*
X143035Y146865D01*
X143635Y147465D01*
X143636Y147475D01*
X143643Y147476D01*
X144143Y148376D01*
X144142Y148386D01*
X144147Y148389D01*
X144140Y148398D01*
X144139Y148402D01*
X144148Y148412D01*
X143948Y149212D01*
X143935Y149222D01*
X143937Y149233D01*
X143137Y150133D01*
X143119Y150136D01*
X143116Y150147D01*
X142216Y150447D01*
X142190Y150438D01*
X142178Y150444D01*
X141378Y150044D01*
X141375Y150038D01*
X141370Y150039D01*
X140471Y149340D01*
X139583Y148748D01*
X138605Y148650D01*
X137635Y148941D01*
X137252Y149706D01*
X137443Y150568D01*
X138315Y151052D01*
X139305Y151151D01*
X139310Y151156D01*
X139314Y151153D01*
X140314Y151453D01*
X140317Y151457D01*
X140320Y151455D01*
X142120Y152255D01*
X142124Y152262D01*
X142130Y152261D01*
X142930Y152861D01*
X142933Y152872D01*
X142941Y152873D01*
X143541Y153773D01*
X143540Y153782D01*
X143547Y153784D01*
X143847Y154684D01*
X143845Y154691D01*
X143848Y154693D01*
X143847Y154694D01*
X143849Y154696D01*
X143949Y155796D01*
X143944Y155804D01*
X143948Y155810D01*
X143748Y156810D01*
X143745Y156813D01*
X143747Y156816D01*
X143447Y157716D01*
X143437Y157722D01*
X143439Y157730D01*
X142839Y158530D01*
X142834Y158531D01*
X142835Y158535D01*
X142135Y159235D01*
X142122Y159237D01*
X142120Y159245D01*
X141220Y159645D01*
X141216Y159644D01*
X141216Y159647D01*
X140316Y159947D01*
X140308Y159944D01*
X140304Y159949D01*
X139204Y160049D01*
X139202Y160047D01*
X139200Y160049D01*
X138100Y160049D01*
X138094Y160045D01*
X138090Y160048D01*
X137090Y159848D01*
X137086Y159843D01*
X137082Y159846D01*
X136082Y159446D01*
X136077Y159438D01*
X136071Y159440D01*
X135371Y158940D01*
X135370Y158934D01*
X135365Y158935D01*
X134565Y158135D01*
X134564Y158123D01*
X134558Y158118D01*
X134562Y158112D01*
X134562Y158108D01*
X134551Y158100D01*
X134551Y157300D01*
X134563Y157283D01*
X134560Y157272D01*
X135260Y156272D01*
X135273Y156267D01*
X135274Y156258D01*
X136074Y155758D01*
X136097Y155760D01*
X136105Y155751D01*
X137005Y155851D01*
X137019Y155864D01*
X137030Y155861D01*
X137824Y156457D01*
X138805Y156849D01*
X139774Y156655D01*
X140347Y155986D01*
X140157Y155035D01*
X139283Y154646D01*
X137286Y154047D01*
X136286Y153747D01*
X136285Y153746D01*
X136284Y153747D01*
X135384Y153447D01*
X135377Y153436D01*
X135368Y153437D01*
X134668Y152837D01*
X134666Y152828D01*
X134659Y152827D01*
X134059Y151927D01*
X134060Y151918D01*
X134058Y151917D01*
X134053Y151916D01*
X133753Y151016D01*
X133756Y151008D01*
X133751Y151004D01*
X133651Y149904D01*
X133655Y149899D01*
X133651Y149895D01*
X133751Y148895D01*
X133756Y148890D01*
X133753Y148886D01*
X134053Y147886D01*
X134063Y147878D01*
X134061Y147870D01*
X134661Y147070D01*
X134666Y147069D01*
X134665Y147065D01*
X135365Y146365D01*
X135375Y146364D01*
X135376Y146357D01*
X136276Y145857D01*
X136279Y145857D01*
X136280Y145855D01*
X137180Y145455D01*
X137188Y145457D01*
X137190Y145452D01*
X138190Y145252D01*
X138197Y145255D01*
X138200Y145251D01*
X139200Y145251D01*
X139203Y145253D01*
G37*
G36*
X175906Y170655D02*
X175906Y170655D01*
X175910Y170652D01*
X176910Y170852D01*
X176914Y170857D01*
X176918Y170854D01*
X177918Y171254D01*
X177922Y171260D01*
X177926Y171258D01*
X178726Y171758D01*
X178728Y171764D01*
X178732Y171763D01*
X179532Y172463D01*
X179534Y172470D01*
X179539Y172470D01*
X180139Y173270D01*
X180139Y173276D01*
X180143Y173276D01*
X180643Y174176D01*
X180642Y174181D01*
X180646Y174183D01*
X180643Y174188D01*
X180648Y174190D01*
X180848Y175190D01*
X180847Y175194D01*
X180849Y175195D01*
X180949Y176195D01*
X180947Y176198D01*
X180949Y176200D01*
X180949Y178400D01*
X180932Y178422D01*
X180934Y178436D01*
X179434Y179836D01*
X179430Y179836D01*
X179430Y179839D01*
X178630Y180439D01*
X178624Y180439D01*
X178624Y180443D01*
X177724Y180943D01*
X177716Y180942D01*
X177714Y180947D01*
X176714Y181247D01*
X176711Y181246D01*
X176710Y181248D01*
X175710Y181448D01*
X175700Y181444D01*
X175695Y181449D01*
X174695Y181349D01*
X174692Y181346D01*
X174690Y181348D01*
X173690Y181148D01*
X173683Y181140D01*
X173676Y181143D01*
X172776Y180643D01*
X172774Y180638D01*
X172770Y180639D01*
X171970Y180039D01*
X171969Y180034D01*
X171965Y180035D01*
X171265Y179335D01*
X171264Y179330D01*
X171261Y179330D01*
X170661Y178530D01*
X170661Y178517D01*
X170653Y178514D01*
X170353Y177514D01*
X170354Y177511D01*
X170352Y177510D01*
X170152Y176510D01*
X170156Y176500D01*
X170151Y176496D01*
X170251Y175396D01*
X170254Y175393D01*
X170252Y175390D01*
X170452Y174390D01*
X170458Y174385D01*
X170455Y174380D01*
X170855Y173480D01*
X170858Y173478D01*
X170857Y173476D01*
X171357Y172576D01*
X171368Y172571D01*
X171368Y172563D01*
X172168Y171863D01*
X172170Y171863D01*
X172170Y171861D01*
X172970Y171261D01*
X172980Y171261D01*
X172982Y171254D01*
X173982Y170854D01*
X173988Y170856D01*
X173989Y170852D01*
X174889Y170652D01*
X174897Y170655D01*
X174900Y170651D01*
X175900Y170651D01*
X175906Y170655D01*
G37*
G36*
X200240Y196991D02*
X200240Y196991D01*
X200291Y196993D01*
X200323Y197011D01*
X200359Y197019D01*
X200398Y197052D01*
X200443Y197076D01*
X200464Y197106D01*
X200492Y197129D01*
X200513Y197176D01*
X200543Y197218D01*
X200551Y197260D01*
X200563Y197288D01*
X200562Y197318D01*
X200570Y197360D01*
X200570Y210860D01*
X200567Y210873D01*
X200569Y210887D01*
X200548Y210957D01*
X200531Y211029D01*
X200522Y211039D01*
X200518Y211052D01*
X200467Y211106D01*
X200421Y211162D01*
X200408Y211168D01*
X200399Y211178D01*
X200265Y211233D01*
X199773Y211331D01*
X199382Y211429D01*
X199346Y211429D01*
X199290Y211440D01*
X198828Y211440D01*
X198373Y211531D01*
X197982Y211629D01*
X197974Y211629D01*
X197965Y211633D01*
X196973Y211831D01*
X196582Y211929D01*
X196572Y211929D01*
X196562Y211933D01*
X196486Y211930D01*
X196409Y211932D01*
X196400Y211927D01*
X196389Y211927D01*
X196322Y211890D01*
X196253Y211857D01*
X196246Y211849D01*
X196237Y211844D01*
X196193Y211781D01*
X196145Y211721D01*
X196143Y211711D01*
X196137Y211702D01*
X196110Y211560D01*
X196110Y210144D01*
X195987Y210298D01*
X195984Y210300D01*
X195982Y210303D01*
X195482Y210903D01*
X195467Y210915D01*
X195463Y210922D01*
X195449Y210931D01*
X195428Y210957D01*
X194928Y211357D01*
X194904Y211368D01*
X194879Y211390D01*
X194179Y211790D01*
X194149Y211799D01*
X194110Y211821D01*
X193510Y212021D01*
X193503Y212021D01*
X193494Y212026D01*
X192794Y212226D01*
X192756Y212228D01*
X192690Y212240D01*
X191290Y212240D01*
X191216Y212223D01*
X191141Y212210D01*
X191131Y212203D01*
X191121Y212201D01*
X191092Y212177D01*
X191021Y212129D01*
X191020Y212128D01*
X190989Y212127D01*
X190957Y212109D01*
X190921Y212101D01*
X190882Y212068D01*
X190837Y212044D01*
X190816Y212014D01*
X190788Y211991D01*
X190767Y211944D01*
X190737Y211902D01*
X190729Y211860D01*
X190717Y211832D01*
X190718Y211802D01*
X190710Y211760D01*
X190710Y208160D01*
X190721Y208110D01*
X190723Y208059D01*
X190741Y208027D01*
X190749Y207991D01*
X190782Y207952D01*
X190806Y207907D01*
X190836Y207886D01*
X190859Y207858D01*
X190906Y207837D01*
X190948Y207807D01*
X190990Y207799D01*
X191018Y207787D01*
X191048Y207788D01*
X191090Y207780D01*
X191190Y207780D01*
X191205Y207783D01*
X191220Y207781D01*
X191352Y207818D01*
X191359Y207819D01*
X191359Y207820D01*
X191360Y207820D01*
X191480Y207880D01*
X192471Y207880D01*
X193425Y207784D01*
X194147Y207604D01*
X194742Y207264D01*
X195176Y206742D01*
X195537Y206111D01*
X195721Y205466D01*
X195910Y204618D01*
X195910Y197360D01*
X195921Y197310D01*
X195923Y197259D01*
X195941Y197227D01*
X195949Y197191D01*
X195982Y197152D01*
X196006Y197107D01*
X196036Y197086D01*
X196059Y197058D01*
X196106Y197037D01*
X196148Y197007D01*
X196190Y196999D01*
X196218Y196987D01*
X196248Y196988D01*
X196290Y196980D01*
X200190Y196980D01*
X200240Y196991D01*
G37*
G36*
X217704Y170656D02*
X217704Y170656D01*
X217710Y170652D01*
X218710Y170852D01*
X218727Y170871D01*
X218740Y170871D01*
X219221Y171544D01*
X219580Y171454D01*
X220473Y170859D01*
X220486Y170860D01*
X220489Y170852D01*
X221389Y170652D01*
X221399Y170657D01*
X221404Y170651D01*
X222504Y170751D01*
X222511Y170757D01*
X222516Y170753D01*
X223416Y171053D01*
X223422Y171063D01*
X223430Y171061D01*
X224230Y171661D01*
X224232Y171668D01*
X224237Y171668D01*
X224937Y172468D01*
X224937Y172474D01*
X224942Y172474D01*
X225442Y173274D01*
X225441Y173279D01*
X225445Y173280D01*
X225845Y174180D01*
X225844Y174182D01*
X225846Y174183D01*
X225843Y174187D01*
X225843Y174188D01*
X225848Y174190D01*
X226048Y175190D01*
X226045Y175197D01*
X226049Y175200D01*
X226049Y179400D01*
X226047Y179403D01*
X226049Y179405D01*
X225949Y180305D01*
X225931Y180324D01*
X225932Y180338D01*
X225332Y180838D01*
X225310Y180839D01*
X225304Y180849D01*
X224004Y180949D01*
X223996Y180944D01*
X223990Y180944D01*
X223986Y180947D01*
X222986Y180647D01*
X222971Y180627D01*
X222964Y180622D01*
X222955Y180619D01*
X222655Y179919D01*
X222658Y179906D01*
X222651Y179900D01*
X222651Y175709D01*
X222260Y174733D01*
X221486Y174249D01*
X220414Y174249D01*
X219638Y174734D01*
X219249Y175512D01*
X219249Y179700D01*
X219242Y179709D01*
X219247Y179716D01*
X218947Y180616D01*
X218921Y180633D01*
X218917Y180646D01*
X218117Y180946D01*
X218110Y180944D01*
X218104Y180944D01*
X218100Y180949D01*
X216800Y180949D01*
X216793Y180944D01*
X216790Y180944D01*
X216785Y180941D01*
X216778Y180944D01*
X215978Y180544D01*
X215969Y180525D01*
X215954Y180514D01*
X215955Y180512D01*
X215952Y180511D01*
X215752Y179611D01*
X215755Y179604D01*
X215751Y179601D01*
X215651Y172401D01*
X215655Y172394D01*
X215652Y172390D01*
X215852Y171390D01*
X215867Y171377D01*
X215865Y171365D01*
X216465Y170765D01*
X216489Y170762D01*
X216496Y170751D01*
X217696Y170651D01*
X217704Y170656D01*
G37*
G36*
X165612Y170662D02*
X165612Y170662D01*
X165624Y170657D01*
X166524Y171157D01*
X166529Y171168D01*
X166537Y171167D01*
X167337Y172067D01*
X167339Y172092D01*
X167349Y172100D01*
X167349Y172900D01*
X167336Y172918D01*
X167339Y172930D01*
X166639Y173830D01*
X166636Y173831D01*
X166636Y173834D01*
X165237Y175332D01*
X164667Y175997D01*
X166835Y178165D01*
X166836Y178172D01*
X166841Y178173D01*
X167441Y179073D01*
X167439Y179101D01*
X167448Y179112D01*
X167248Y179912D01*
X167235Y179922D01*
X167237Y179933D01*
X166437Y180833D01*
X166425Y180835D01*
X166424Y180843D01*
X165524Y181343D01*
X165488Y181338D01*
X165487Y181338D01*
X165476Y181343D01*
X164776Y180943D01*
X164773Y180936D01*
X164767Y180937D01*
X163867Y180137D01*
X163867Y180135D01*
X163865Y180135D01*
X162480Y178749D01*
X161721Y178749D01*
X160336Y180234D01*
X160335Y180234D01*
X160335Y180235D01*
X159535Y181035D01*
X159516Y181037D01*
X159512Y181048D01*
X158712Y181248D01*
X158693Y181240D01*
X158687Y181240D01*
X158678Y181244D01*
X157878Y180844D01*
X157871Y180831D01*
X157862Y180831D01*
X157062Y179831D01*
X157061Y179812D01*
X157051Y179807D01*
X156951Y179107D01*
X156963Y179085D01*
X156959Y179073D01*
X157559Y178173D01*
X157566Y178170D01*
X157565Y178165D01*
X159731Y175999D01*
X157564Y173734D01*
X157564Y173728D01*
X157559Y173727D01*
X156959Y172827D01*
X156960Y172807D01*
X156951Y172800D01*
X156951Y172100D01*
X156966Y172080D01*
X156963Y172067D01*
X157763Y171167D01*
X157775Y171165D01*
X157776Y171157D01*
X158676Y170657D01*
X158706Y170661D01*
X158717Y170654D01*
X159517Y170954D01*
X159525Y170967D01*
X159535Y170965D01*
X160334Y171764D01*
X161816Y173148D01*
X162478Y173053D01*
X163966Y171664D01*
X163967Y171664D01*
X163967Y171663D01*
X164867Y170863D01*
X164883Y170862D01*
X164886Y170853D01*
X165586Y170653D01*
X165612Y170662D01*
G37*
G36*
X317595Y3164D02*
X317595Y3164D01*
X317598Y3161D01*
X318198Y3261D01*
X318219Y3283D01*
X318232Y3285D01*
X318532Y3785D01*
X318532Y3788D01*
X318530Y3803D01*
X318539Y3810D01*
X318539Y8110D01*
X318532Y8119D01*
X318537Y8126D01*
X318337Y8726D01*
X318332Y8729D01*
X318334Y8732D01*
X318034Y9332D01*
X318024Y9337D01*
X318025Y9345D01*
X317525Y9845D01*
X317518Y9846D01*
X317517Y9851D01*
X316917Y10251D01*
X316908Y10250D01*
X316906Y10257D01*
X316306Y10457D01*
X316295Y10453D01*
X316290Y10459D01*
X315590Y10459D01*
X315586Y10456D01*
X315583Y10459D01*
X314883Y10359D01*
X314878Y10354D01*
X314874Y10357D01*
X314274Y10157D01*
X314000Y10065D01*
X313521Y10448D01*
X313508Y10449D01*
X313506Y10457D01*
X312906Y10657D01*
X312899Y10655D01*
X312897Y10659D01*
X312197Y10759D01*
X312192Y10756D01*
X312190Y10759D01*
X311490Y10759D01*
X311482Y10753D01*
X311476Y10757D01*
X310776Y10557D01*
X310772Y10552D01*
X310768Y10554D01*
X310168Y10254D01*
X310163Y10244D01*
X310155Y10245D01*
X309655Y9745D01*
X309655Y9741D01*
X309652Y9741D01*
X309252Y9241D01*
X309251Y9233D01*
X309249Y9232D01*
X309251Y9229D01*
X309251Y9227D01*
X309243Y9224D01*
X309203Y9084D01*
X309189Y9035D01*
X309147Y8887D01*
X309104Y8739D01*
X309090Y8690D01*
X309048Y8542D01*
X309043Y8524D01*
X309044Y8520D01*
X309041Y8518D01*
X308941Y7918D01*
X308944Y7913D01*
X308941Y7910D01*
X308941Y4510D01*
X308944Y4506D01*
X308941Y4504D01*
X309041Y3704D01*
X309054Y3691D01*
X309051Y3680D01*
X309351Y3280D01*
X309377Y3273D01*
X309383Y3261D01*
X310083Y3161D01*
X310088Y3164D01*
X310090Y3161D01*
X317590Y3161D01*
X317595Y3164D01*
G37*
%LPC*%
G36*
X91900Y223949D02*
X91900Y223949D01*
X91421Y224429D01*
X91125Y225019D01*
X88927Y231416D01*
X88922Y231419D01*
X88924Y231422D01*
X88624Y232022D01*
X88584Y232042D01*
X88583Y232044D01*
X88580Y232044D01*
X88572Y232048D01*
X88590Y232052D01*
X88629Y232097D01*
X88627Y232099D01*
X88629Y232100D01*
X88629Y232586D01*
X88914Y233060D01*
X89882Y233448D01*
X90445Y233260D01*
X90734Y232681D01*
X90933Y232084D01*
X90934Y232084D01*
X90933Y232084D01*
X92033Y228884D01*
X92038Y228881D01*
X92036Y228878D01*
X92336Y228278D01*
X92348Y228272D01*
X92352Y228259D01*
X92365Y228264D01*
X92374Y228259D01*
X92380Y228252D01*
X92384Y228254D01*
X92389Y228252D01*
X92395Y228263D01*
X92421Y228282D01*
X92427Y228284D01*
X93924Y232776D01*
X94306Y233254D01*
X94972Y233349D01*
X95548Y233061D01*
X95936Y232576D01*
X97233Y228684D01*
X97241Y228679D01*
X97239Y228673D01*
X97439Y228373D01*
X97449Y228369D01*
X97453Y228359D01*
X97466Y228363D01*
X97495Y228353D01*
X97503Y228377D01*
X97527Y228385D01*
X99023Y232974D01*
X99400Y233351D01*
X99971Y233351D01*
X100747Y233060D01*
X101031Y232586D01*
X101031Y232012D01*
X100736Y231422D01*
X100737Y231419D01*
X100734Y231417D01*
X100738Y231413D01*
X100747Y231364D01*
X100759Y231366D01*
X100762Y231354D01*
X100788Y231344D01*
X100740Y231328D01*
X100743Y231319D01*
X100734Y231316D01*
X98534Y225016D01*
X98533Y225016D01*
X98338Y224429D01*
X97762Y223949D01*
X97094Y223949D01*
X96616Y224236D01*
X96325Y224721D01*
X95127Y228415D01*
X95110Y228427D01*
X95110Y228439D01*
X94710Y228739D01*
X94707Y228739D01*
X94707Y228741D01*
X94701Y228739D01*
X94690Y228739D01*
X94687Y228744D01*
X94678Y228744D01*
X94672Y228739D01*
X94650Y228739D01*
X94650Y228723D01*
X94645Y228719D01*
X94633Y228714D01*
X94601Y228610D01*
X94404Y227970D01*
X94207Y227329D01*
X94010Y226689D01*
X93813Y226049D01*
X93616Y225409D01*
X93436Y224824D01*
X93045Y224335D01*
X92563Y223949D01*
X91900Y223949D01*
G37*
%LPD*%
G36*
X163003Y145257D02*
X163003Y145257D01*
X163009Y145252D01*
X164109Y145452D01*
X164127Y145471D01*
X164140Y145471D01*
X164640Y146171D01*
X164640Y146189D01*
X164649Y146195D01*
X164749Y147195D01*
X164747Y147198D01*
X164749Y147200D01*
X164749Y153191D01*
X164926Y153632D01*
X165878Y153156D01*
X165894Y153159D01*
X165900Y153151D01*
X166700Y153151D01*
X166720Y153166D01*
X166732Y153163D01*
X167532Y153863D01*
X167535Y153875D01*
X167543Y153876D01*
X168043Y154776D01*
X168041Y154788D01*
X168046Y154792D01*
X168040Y154801D01*
X168039Y154802D01*
X168048Y154812D01*
X167848Y155612D01*
X167835Y155622D01*
X167837Y155632D01*
X167137Y156432D01*
X167133Y156433D01*
X167133Y156436D01*
X164833Y158536D01*
X164832Y158537D01*
X164132Y159137D01*
X164125Y159138D01*
X164124Y159143D01*
X163224Y159643D01*
X163203Y159640D01*
X163195Y159649D01*
X162195Y159549D01*
X162187Y159541D01*
X162180Y159545D01*
X161280Y159145D01*
X161262Y159112D01*
X161251Y159105D01*
X161151Y158205D01*
X161153Y158202D01*
X161151Y158200D01*
X161151Y147000D01*
X161153Y146997D01*
X161151Y146995D01*
X161251Y146095D01*
X161265Y146080D01*
X161262Y146068D01*
X161762Y145468D01*
X161786Y145463D01*
X161792Y145451D01*
X162992Y145251D01*
X163003Y145257D01*
G37*
G36*
X148995Y13542D02*
X148995Y13542D01*
X149005Y13538D01*
X149505Y13838D01*
X149513Y13857D01*
X149520Y13862D01*
X149519Y13863D01*
X149527Y13866D01*
X149554Y13961D01*
X149568Y14010D01*
X149611Y14158D01*
X149653Y14305D01*
X149667Y14355D01*
X149709Y14502D01*
X149727Y14566D01*
X149724Y14576D01*
X149729Y14580D01*
X149729Y17380D01*
X149726Y17385D01*
X149729Y17388D01*
X149529Y18588D01*
X149522Y18594D01*
X149525Y18599D01*
X149225Y19299D01*
X149217Y19304D01*
X149218Y19311D01*
X148818Y19811D01*
X148761Y19825D01*
X148758Y19815D01*
X148747Y19817D01*
X148230Y19361D01*
X148715Y19845D01*
X148718Y19866D01*
X148723Y19871D01*
X148719Y19876D01*
X148723Y19904D01*
X148714Y19905D01*
X148715Y19915D01*
X148315Y20315D01*
X148308Y20316D01*
X148307Y20321D01*
X147707Y20721D01*
X147698Y20720D01*
X147696Y20727D01*
X147096Y20927D01*
X147089Y20925D01*
X147087Y20929D01*
X146387Y21029D01*
X146382Y21026D01*
X146380Y21029D01*
X145680Y21029D01*
X145672Y21023D01*
X145666Y21027D01*
X144966Y20827D01*
X144962Y20822D01*
X144958Y20824D01*
X144358Y20524D01*
X144355Y20517D01*
X144349Y20518D01*
X143867Y20133D01*
X143394Y20227D01*
X142103Y20724D01*
X141807Y20921D01*
X141796Y20920D01*
X141794Y20927D01*
X141094Y21127D01*
X141073Y21119D01*
X141062Y21126D01*
X140562Y20926D01*
X140549Y20904D01*
X140536Y20902D01*
X140136Y20102D01*
X140137Y20097D01*
X140133Y20094D01*
X140136Y20090D01*
X140131Y20088D01*
X140031Y19488D01*
X140043Y19467D01*
X140038Y19455D01*
X140338Y18955D01*
X140357Y18947D01*
X140360Y18935D01*
X141957Y18236D01*
X142731Y17753D01*
X142731Y16389D01*
X142547Y15929D01*
X141180Y15929D01*
X141175Y15926D01*
X141172Y15929D01*
X140572Y15829D01*
X140557Y15813D01*
X140545Y15815D01*
X140145Y15415D01*
X140142Y15392D01*
X140131Y15386D01*
X140031Y14586D01*
X140038Y14574D01*
X140033Y14566D01*
X140233Y13866D01*
X140258Y13847D01*
X140262Y13834D01*
X140762Y13634D01*
X140770Y13637D01*
X140773Y13631D01*
X141473Y13531D01*
X141478Y13534D01*
X141480Y13531D01*
X148980Y13531D01*
X148995Y13542D01*
G37*
G36*
X148484Y23034D02*
X148484Y23034D01*
X148487Y23031D01*
X149187Y23131D01*
X149205Y23150D01*
X149218Y23149D01*
X149618Y23649D01*
X149619Y23657D01*
X149620Y23658D01*
X149619Y23660D01*
X149619Y23672D01*
X149629Y23680D01*
X149629Y24380D01*
X149623Y24388D01*
X149627Y24394D01*
X149427Y25094D01*
X149413Y25104D01*
X149415Y25115D01*
X148915Y25615D01*
X148909Y25616D01*
X148909Y25620D01*
X146209Y27620D01*
X144234Y29031D01*
X148080Y29031D01*
X148084Y29034D01*
X148087Y29031D01*
X148787Y29131D01*
X148788Y29132D01*
X148788Y29131D01*
X149388Y29231D01*
X149418Y29263D01*
X149427Y29266D01*
X149429Y29272D01*
X149471Y29420D01*
X149485Y29469D01*
X149527Y29617D01*
X149528Y29617D01*
X149527Y29617D01*
X149570Y29765D01*
X149584Y29814D01*
X149626Y29962D01*
X149627Y29966D01*
X149624Y29976D01*
X149629Y29980D01*
X149629Y30680D01*
X149620Y30693D01*
X149624Y30702D01*
X149324Y31302D01*
X149294Y31317D01*
X149288Y31329D01*
X148688Y31429D01*
X148683Y31426D01*
X148680Y31429D01*
X140580Y31429D01*
X140559Y31413D01*
X140545Y31415D01*
X140145Y31015D01*
X140142Y30992D01*
X140131Y30986D01*
X140031Y30186D01*
X140033Y30182D01*
X140031Y30180D01*
X140031Y29480D01*
X140049Y29456D01*
X140048Y29442D01*
X140648Y28942D01*
X140650Y28942D01*
X140650Y28941D01*
X145332Y25429D01*
X140780Y25429D01*
X140765Y25418D01*
X140755Y25422D01*
X140255Y25122D01*
X140246Y25100D01*
X140233Y25096D01*
X140033Y24496D01*
X140037Y24485D01*
X140031Y24480D01*
X140031Y23580D01*
X140047Y23559D01*
X140045Y23545D01*
X140445Y23145D01*
X140466Y23142D01*
X140472Y23131D01*
X141072Y23031D01*
X141077Y23034D01*
X141080Y23031D01*
X148480Y23031D01*
X148484Y23034D01*
G37*
G36*
X185704Y170654D02*
X185704Y170654D01*
X185707Y170651D01*
X187107Y170851D01*
X187114Y170858D01*
X187120Y170855D01*
X188020Y171255D01*
X188029Y171271D01*
X188040Y171271D01*
X188540Y171971D01*
X188540Y171984D01*
X188547Y171986D01*
X188570Y172066D01*
X188612Y172213D01*
X188626Y172263D01*
X188668Y172410D01*
X188669Y172410D01*
X188668Y172410D01*
X188711Y172558D01*
X188725Y172607D01*
X188747Y172686D01*
X188746Y172690D01*
X188748Y172691D01*
X188948Y173791D01*
X188945Y173797D01*
X188949Y173800D01*
X188949Y185100D01*
X188933Y185121D01*
X188935Y185135D01*
X188335Y185735D01*
X188314Y185738D01*
X188308Y185749D01*
X187108Y185949D01*
X187095Y185942D01*
X187087Y185948D01*
X185987Y185648D01*
X185969Y185625D01*
X185956Y185622D01*
X185556Y184822D01*
X185559Y184806D01*
X185551Y184800D01*
X185551Y174618D01*
X185073Y174045D01*
X184090Y173848D01*
X184071Y173826D01*
X184057Y173824D01*
X183657Y173124D01*
X183660Y173107D01*
X183651Y173100D01*
X183651Y171800D01*
X183658Y171790D01*
X183654Y171783D01*
X183954Y170983D01*
X183976Y170969D01*
X183978Y170956D01*
X184578Y170656D01*
X184594Y170659D01*
X184600Y170651D01*
X185700Y170651D01*
X185704Y170654D01*
G37*
G36*
X145084Y2934D02*
X145084Y2934D01*
X145087Y2931D01*
X145787Y3031D01*
X145788Y3032D01*
X145788Y3031D01*
X146388Y3131D01*
X146391Y3135D01*
X146394Y3133D01*
X147094Y3333D01*
X147099Y3340D01*
X147105Y3338D01*
X147605Y3638D01*
X147606Y3639D01*
X147607Y3639D01*
X148207Y4039D01*
X148210Y4046D01*
X148215Y4045D01*
X148715Y4545D01*
X148716Y4552D01*
X148721Y4553D01*
X149121Y5153D01*
X149121Y5157D01*
X149124Y5158D01*
X149724Y6358D01*
X149723Y6362D01*
X149727Y6365D01*
X149723Y6369D01*
X149729Y6372D01*
X149829Y6972D01*
X149828Y6973D01*
X149829Y6973D01*
X149929Y7673D01*
X149926Y7678D01*
X149929Y7680D01*
X149929Y8380D01*
X149922Y8389D01*
X149927Y8396D01*
X149727Y8995D01*
X149527Y9694D01*
X149522Y9698D01*
X149524Y9702D01*
X149224Y10302D01*
X149220Y10304D01*
X149221Y10307D01*
X148821Y10907D01*
X148800Y10915D01*
X148796Y10927D01*
X148196Y11127D01*
X148175Y11120D01*
X148164Y11127D01*
X147564Y10927D01*
X147555Y10913D01*
X147545Y10915D01*
X146945Y10315D01*
X146942Y10295D01*
X146932Y10290D01*
X146832Y9790D01*
X146842Y9769D01*
X146836Y9758D01*
X147432Y8565D01*
X147530Y7880D01*
X147432Y7191D01*
X147235Y6602D01*
X146843Y6014D01*
X146357Y5625D01*
X145670Y5428D01*
X144980Y5330D01*
X144291Y5428D01*
X143704Y5624D01*
X143215Y6015D01*
X142722Y6607D01*
X142429Y7192D01*
X142429Y8468D01*
X142710Y9031D01*
X143934Y9031D01*
X144031Y7677D01*
X144047Y7658D01*
X144045Y7645D01*
X144445Y7245D01*
X144472Y7242D01*
X144480Y7231D01*
X145180Y7231D01*
X145189Y7238D01*
X145196Y7233D01*
X145796Y7433D01*
X145814Y7460D01*
X145827Y7464D01*
X146027Y8064D01*
X146023Y8075D01*
X146029Y8080D01*
X146029Y10180D01*
X146023Y10188D01*
X146027Y10194D01*
X145827Y10894D01*
X145817Y10901D01*
X145819Y10910D01*
X145519Y11310D01*
X145494Y11317D01*
X145487Y11329D01*
X144787Y11429D01*
X144782Y11426D01*
X144780Y11429D01*
X141980Y11429D01*
X141971Y11422D01*
X141964Y11427D01*
X141364Y11227D01*
X141357Y11216D01*
X141349Y11218D01*
X140849Y10818D01*
X140846Y10806D01*
X140838Y10805D01*
X140538Y10305D01*
X140538Y10302D01*
X140536Y10302D01*
X140236Y9702D01*
X140237Y9695D01*
X140232Y9691D01*
X140234Y9689D01*
X140231Y9687D01*
X140031Y8287D01*
X140034Y8282D01*
X140031Y8280D01*
X140031Y6880D01*
X140037Y6872D01*
X140033Y6866D01*
X140233Y6166D01*
X140238Y6162D01*
X140236Y6158D01*
X140536Y5558D01*
X140543Y5555D01*
X140542Y5549D01*
X140940Y5051D01*
X141339Y4453D01*
X141349Y4449D01*
X141349Y4442D01*
X141849Y4042D01*
X141853Y4041D01*
X141853Y4039D01*
X142453Y3639D01*
X142457Y3639D01*
X142458Y3636D01*
X143058Y3336D01*
X143063Y3337D01*
X143064Y3333D01*
X143664Y3133D01*
X143666Y3134D01*
X143666Y3133D01*
X144366Y2933D01*
X144376Y2936D01*
X144380Y2931D01*
X145080Y2931D01*
X145084Y2934D01*
G37*
%LPC*%
G36*
X224904Y260879D02*
X224904Y260879D01*
X224324Y260976D01*
X223949Y261350D01*
X223949Y262222D01*
X224141Y262797D01*
X224614Y263081D01*
X229300Y263081D01*
X229313Y263091D01*
X229330Y263091D01*
X229330Y263103D01*
X229347Y263117D01*
X229330Y263140D01*
X229330Y263169D01*
X224532Y266767D01*
X223949Y267350D01*
X223949Y267927D01*
X224047Y268707D01*
X224424Y269084D01*
X225008Y269181D01*
X225041Y269216D01*
X225047Y269221D01*
X225047Y269222D01*
X225049Y269225D01*
X225046Y269228D01*
X225049Y269230D01*
X225049Y269259D01*
X225051Y269228D01*
X225089Y269182D01*
X225095Y269187D01*
X225100Y269181D01*
X231797Y269181D01*
X232588Y269082D01*
X233066Y268890D01*
X233351Y268416D01*
X233351Y267650D01*
X232680Y266979D01*
X227900Y266979D01*
X227889Y266971D01*
X227876Y266973D01*
X227874Y266960D01*
X227853Y266943D01*
X227869Y266922D01*
X227865Y266895D01*
X228065Y266695D01*
X228070Y266694D01*
X228070Y266691D01*
X228870Y266091D01*
X232569Y263291D01*
X233158Y262801D01*
X233351Y262222D01*
X233351Y261545D01*
X232971Y260975D01*
X232396Y260879D01*
X224904Y260879D01*
G37*
%LPD*%
%LPC*%
G36*
X288404Y39899D02*
X288404Y39899D01*
X287824Y39996D01*
X287449Y40370D01*
X287449Y41242D01*
X287641Y41817D01*
X288114Y42101D01*
X292800Y42101D01*
X292813Y42111D01*
X292830Y42111D01*
X292830Y42123D01*
X292847Y42137D01*
X292830Y42160D01*
X292830Y42189D01*
X288032Y45787D01*
X287449Y46370D01*
X287449Y46947D01*
X287547Y47727D01*
X287924Y48104D01*
X288508Y48201D01*
X288541Y48236D01*
X288547Y48241D01*
X288547Y48242D01*
X288549Y48245D01*
X288546Y48248D01*
X288549Y48250D01*
X288549Y48279D01*
X288551Y48248D01*
X288589Y48202D01*
X288595Y48207D01*
X288600Y48201D01*
X295297Y48201D01*
X296088Y48102D01*
X296566Y47910D01*
X296851Y47436D01*
X296851Y46670D01*
X296180Y45999D01*
X291400Y45999D01*
X291389Y45991D01*
X291376Y45993D01*
X291374Y45980D01*
X291353Y45963D01*
X291369Y45942D01*
X291365Y45915D01*
X291565Y45715D01*
X291570Y45714D01*
X291570Y45711D01*
X292370Y45111D01*
X296069Y42311D01*
X296658Y41821D01*
X296851Y41242D01*
X296851Y40565D01*
X296471Y39995D01*
X295896Y39899D01*
X288404Y39899D01*
G37*
%LPD*%
%LPC*%
G36*
X36873Y236649D02*
X36873Y236649D01*
X36093Y236747D01*
X35716Y237124D01*
X35619Y237708D01*
X35575Y237749D01*
X35573Y237746D01*
X35570Y237749D01*
X35541Y237749D01*
X35572Y237751D01*
X35618Y237789D01*
X35613Y237795D01*
X35619Y237800D01*
X35619Y244497D01*
X35718Y245288D01*
X35910Y245766D01*
X36384Y246051D01*
X37150Y246051D01*
X37821Y245380D01*
X37821Y240600D01*
X37829Y240589D01*
X37827Y240576D01*
X37840Y240574D01*
X37857Y240553D01*
X37868Y240561D01*
X37870Y240558D01*
X37877Y240558D01*
X37890Y240567D01*
X37905Y240565D01*
X38105Y240765D01*
X38106Y240770D01*
X38109Y240770D01*
X38709Y241570D01*
X41509Y245269D01*
X41999Y245858D01*
X42578Y246051D01*
X43255Y246051D01*
X43825Y245671D01*
X43921Y245096D01*
X43921Y237604D01*
X43824Y237024D01*
X43450Y236649D01*
X42578Y236649D01*
X42003Y236841D01*
X41719Y237314D01*
X41719Y242000D01*
X41709Y242013D01*
X41709Y242030D01*
X41697Y242030D01*
X41683Y242047D01*
X41667Y242035D01*
X41659Y242035D01*
X41652Y242030D01*
X41631Y242030D01*
X38033Y237232D01*
X37450Y236649D01*
X36873Y236649D01*
G37*
%LPD*%
%LPC*%
G36*
X37818Y84249D02*
X37818Y84249D01*
X37243Y84441D01*
X36959Y84914D01*
X36959Y92986D01*
X37242Y93458D01*
X37913Y93650D01*
X38595Y93552D01*
X38966Y93367D01*
X39061Y92795D01*
X39161Y88699D01*
X39161Y88200D01*
X39171Y88187D01*
X39171Y88170D01*
X39183Y88170D01*
X39197Y88153D01*
X39208Y88161D01*
X39210Y88158D01*
X39215Y88158D01*
X39232Y88170D01*
X39249Y88170D01*
X40449Y89770D01*
X40449Y89771D01*
X40450Y89771D01*
X42948Y93168D01*
X43333Y93554D01*
X44010Y93650D01*
X44687Y93554D01*
X45064Y93177D01*
X45161Y92497D01*
X45161Y85008D01*
X44971Y84437D01*
X44501Y84249D01*
X43624Y84249D01*
X43150Y84534D01*
X42959Y85009D01*
X42959Y89500D01*
X42949Y89513D01*
X42949Y89530D01*
X42937Y89530D01*
X42923Y89547D01*
X42909Y89537D01*
X42901Y89537D01*
X42891Y89530D01*
X42871Y89530D01*
X39076Y84537D01*
X38596Y84249D01*
X37818Y84249D01*
G37*
%LPD*%
%LPC*%
G36*
X29673Y236649D02*
X29673Y236649D01*
X28981Y236748D01*
X28389Y236946D01*
X27795Y237243D01*
X27199Y237640D01*
X26705Y238035D01*
X26210Y238629D01*
X25913Y239123D01*
X25616Y239718D01*
X25419Y240407D01*
X25419Y242393D01*
X25426Y242416D01*
X25440Y242465D01*
X25482Y242613D01*
X25524Y242761D01*
X25538Y242810D01*
X25581Y242958D01*
X25616Y243082D01*
X25912Y243673D01*
X26308Y244169D01*
X26705Y244665D01*
X27299Y245160D01*
X27793Y245457D01*
X28388Y245754D01*
X29081Y245952D01*
X29674Y246051D01*
X32956Y246051D01*
X33425Y245770D01*
X33521Y245196D01*
X33521Y244074D01*
X31281Y243553D01*
X30900Y243839D01*
X30878Y243839D01*
X30870Y243849D01*
X29470Y243849D01*
X29457Y243840D01*
X29448Y243844D01*
X28848Y243544D01*
X28845Y243537D01*
X28839Y243538D01*
X28339Y243138D01*
X28337Y243131D01*
X28332Y243131D01*
X27932Y242631D01*
X27931Y242623D01*
X27926Y242622D01*
X27626Y242022D01*
X27628Y242011D01*
X27621Y242007D01*
X27521Y241307D01*
X27526Y241298D01*
X27521Y241293D01*
X27621Y240593D01*
X27629Y240585D01*
X27626Y240578D01*
X27926Y239978D01*
X27936Y239973D01*
X27935Y239965D01*
X28935Y238965D01*
X28947Y238964D01*
X28948Y238956D01*
X29148Y238856D01*
X29164Y238859D01*
X29170Y238851D01*
X31170Y238851D01*
X31217Y238887D01*
X31215Y238890D01*
X31219Y238892D01*
X31319Y239492D01*
X31316Y239497D01*
X31319Y239500D01*
X31319Y243461D01*
X33521Y243973D01*
X33521Y237703D01*
X33424Y237027D01*
X33051Y236747D01*
X32367Y236649D01*
X29673Y236649D01*
G37*
%LPD*%
%LPC*%
G36*
X288503Y50299D02*
X288503Y50299D01*
X287827Y50396D01*
X287547Y50770D01*
X287449Y51453D01*
X287449Y54147D01*
X287548Y54839D01*
X287746Y55431D01*
X288043Y56025D01*
X288440Y56621D01*
X288835Y57115D01*
X289429Y57610D01*
X289923Y57907D01*
X290518Y58204D01*
X291207Y58401D01*
X293193Y58401D01*
X293882Y58204D01*
X294473Y57908D01*
X294969Y57512D01*
X295465Y57115D01*
X295960Y56521D01*
X296257Y56027D01*
X296554Y55432D01*
X296752Y54739D01*
X296851Y54146D01*
X296851Y50864D01*
X296570Y50395D01*
X295996Y50299D01*
X294874Y50299D01*
X294353Y52539D01*
X294639Y52920D01*
X294639Y52942D01*
X294649Y52950D01*
X294649Y54350D01*
X294640Y54363D01*
X294644Y54372D01*
X294344Y54972D01*
X294337Y54975D01*
X294338Y54981D01*
X293938Y55481D01*
X293931Y55483D01*
X293931Y55488D01*
X293431Y55888D01*
X293423Y55889D01*
X293422Y55894D01*
X292822Y56194D01*
X292811Y56192D01*
X292807Y56199D01*
X292107Y56299D01*
X292098Y56294D01*
X292093Y56299D01*
X291393Y56199D01*
X291385Y56191D01*
X291378Y56194D01*
X290778Y55894D01*
X290773Y55884D01*
X290765Y55885D01*
X289765Y54885D01*
X289764Y54873D01*
X289756Y54872D01*
X289656Y54672D01*
X289656Y54670D01*
X289656Y54669D01*
X289659Y54656D01*
X289651Y54650D01*
X289651Y52650D01*
X289687Y52603D01*
X289690Y52605D01*
X289692Y52601D01*
X290292Y52501D01*
X290297Y52504D01*
X290300Y52501D01*
X294261Y52501D01*
X294773Y50299D01*
X288503Y50299D01*
G37*
%LPD*%
%LPC*%
G36*
X225003Y271279D02*
X225003Y271279D01*
X224327Y271376D01*
X224047Y271750D01*
X223949Y272433D01*
X223949Y275127D01*
X224048Y275819D01*
X224246Y276411D01*
X224543Y277005D01*
X224940Y277601D01*
X225335Y278095D01*
X225929Y278590D01*
X226423Y278887D01*
X227018Y279184D01*
X227707Y279381D01*
X229693Y279381D01*
X230382Y279184D01*
X230973Y278888D01*
X231469Y278492D01*
X231965Y278095D01*
X232460Y277501D01*
X232757Y277007D01*
X233054Y276412D01*
X233252Y275719D01*
X233351Y275126D01*
X233351Y271844D01*
X233070Y271375D01*
X232496Y271279D01*
X231374Y271279D01*
X230853Y273519D01*
X231139Y273900D01*
X231139Y273922D01*
X231149Y273930D01*
X231149Y275330D01*
X231140Y275343D01*
X231144Y275352D01*
X230844Y275952D01*
X230837Y275955D01*
X230838Y275961D01*
X230438Y276461D01*
X230431Y276463D01*
X230431Y276468D01*
X229931Y276868D01*
X229923Y276869D01*
X229922Y276874D01*
X229322Y277174D01*
X229311Y277172D01*
X229307Y277179D01*
X228607Y277279D01*
X228598Y277274D01*
X228593Y277279D01*
X227893Y277179D01*
X227885Y277171D01*
X227878Y277174D01*
X227278Y276874D01*
X227273Y276864D01*
X227265Y276865D01*
X226265Y275865D01*
X226264Y275853D01*
X226256Y275852D01*
X226156Y275652D01*
X226156Y275650D01*
X226156Y275649D01*
X226159Y275636D01*
X226151Y275630D01*
X226151Y273630D01*
X226187Y273583D01*
X226190Y273585D01*
X226192Y273581D01*
X226792Y273481D01*
X226797Y273484D01*
X226800Y273481D01*
X230761Y273481D01*
X231273Y271279D01*
X225003Y271279D01*
G37*
%LPD*%
%LPC*%
G36*
X25884Y184449D02*
X25884Y184449D01*
X25311Y184545D01*
X25029Y185014D01*
X25029Y185892D01*
X25220Y186463D01*
X25689Y186651D01*
X29780Y186651D01*
X29810Y186673D01*
X29822Y186675D01*
X30122Y187175D01*
X30122Y187181D01*
X30125Y187183D01*
X30121Y187190D01*
X30120Y187193D01*
X30129Y187200D01*
X30129Y187800D01*
X30100Y187838D01*
X30098Y187846D01*
X29598Y188046D01*
X29585Y188042D01*
X29580Y188049D01*
X27484Y188049D01*
X26904Y188146D01*
X26527Y188523D01*
X26430Y189296D01*
X26460Y189400D01*
X26474Y189449D01*
X26516Y189597D01*
X26558Y189744D01*
X26572Y189794D01*
X26614Y189941D01*
X26615Y189941D01*
X26614Y189941D01*
X26623Y189971D01*
X26996Y190251D01*
X29780Y190251D01*
X29801Y190267D01*
X29815Y190265D01*
X30115Y190565D01*
X30116Y190577D01*
X30122Y190582D01*
X30118Y190588D01*
X30119Y190592D01*
X30129Y190600D01*
X30129Y191300D01*
X30116Y191318D01*
X30119Y191330D01*
X29819Y191730D01*
X29788Y191739D01*
X29780Y191749D01*
X25689Y191749D01*
X25220Y191937D01*
X25029Y192508D01*
X25029Y193384D01*
X25310Y193757D01*
X25987Y193951D01*
X30677Y193951D01*
X31473Y193851D01*
X32050Y193755D01*
X32331Y193286D01*
X32331Y185016D01*
X32051Y184643D01*
X31373Y184449D01*
X25884Y184449D01*
G37*
%LPD*%
%LPC*%
G36*
X52224Y84249D02*
X52224Y84249D01*
X51755Y84530D01*
X51659Y85203D01*
X51659Y85980D01*
X52033Y86354D01*
X52713Y86451D01*
X56110Y86451D01*
X56115Y86454D01*
X56118Y86451D01*
X56718Y86551D01*
X56759Y86595D01*
X56756Y86598D01*
X56759Y86600D01*
X56759Y87300D01*
X56750Y87313D01*
X56754Y87322D01*
X56554Y87722D01*
X56517Y87741D01*
X56510Y87749D01*
X54413Y87749D01*
X53727Y87847D01*
X53251Y88133D01*
X53060Y88705D01*
X53157Y89481D01*
X53440Y89858D01*
X54018Y90051D01*
X56710Y90051D01*
X56757Y90087D01*
X56752Y90094D01*
X56759Y90100D01*
X56759Y90800D01*
X56756Y90805D01*
X56759Y90808D01*
X56659Y91408D01*
X56615Y91449D01*
X56613Y91446D01*
X56610Y91449D01*
X52613Y91449D01*
X51940Y91545D01*
X51659Y92014D01*
X51659Y92793D01*
X51696Y92922D01*
X51738Y93069D01*
X51752Y93119D01*
X51794Y93266D01*
X51795Y93266D01*
X51794Y93266D01*
X51837Y93414D01*
X51851Y93463D01*
X52319Y93651D01*
X57707Y93651D01*
X58491Y93553D01*
X58864Y93273D01*
X58961Y92597D01*
X58961Y85104D01*
X58865Y84531D01*
X58396Y84249D01*
X52224Y84249D01*
G37*
%LPD*%
%LPC*%
G36*
X42313Y135147D02*
X42313Y135147D01*
X41936Y135523D01*
X41839Y136203D01*
X41839Y137500D01*
X41810Y137538D01*
X41808Y137546D01*
X41308Y137746D01*
X41295Y137742D01*
X41290Y137749D01*
X39890Y137749D01*
X39857Y137724D01*
X39846Y137722D01*
X39446Y136922D01*
X39446Y136920D01*
X39445Y136920D01*
X38752Y135336D01*
X38182Y135051D01*
X37607Y135147D01*
X36929Y135534D01*
X36742Y136003D01*
X36752Y136039D01*
X36794Y136186D01*
X36795Y136186D01*
X36794Y136186D01*
X36837Y136334D01*
X36851Y136383D01*
X36893Y136531D01*
X36935Y136679D01*
X36937Y136684D01*
X37135Y137181D01*
X37635Y138381D01*
X37631Y138400D01*
X37634Y138403D01*
X37633Y138404D01*
X37638Y138410D01*
X37538Y138910D01*
X37528Y138919D01*
X37531Y138927D01*
X37135Y139522D01*
X36938Y140112D01*
X36839Y140704D01*
X36839Y141397D01*
X36938Y142089D01*
X37135Y142678D01*
X37527Y143266D01*
X38019Y143660D01*
X38615Y144057D01*
X39208Y144354D01*
X39897Y144551D01*
X43262Y144551D01*
X41766Y142254D01*
X41198Y142349D01*
X41193Y142346D01*
X41190Y142349D01*
X40490Y142349D01*
X40485Y142346D01*
X40482Y142349D01*
X39882Y142249D01*
X39872Y142238D01*
X39863Y142241D01*
X39263Y141841D01*
X39257Y141824D01*
X39246Y141822D01*
X38946Y141222D01*
X38951Y141197D01*
X38943Y141186D01*
X39143Y140486D01*
X39160Y140474D01*
X39159Y140462D01*
X39659Y140062D01*
X39677Y140061D01*
X39682Y140051D01*
X40282Y139951D01*
X40287Y139954D01*
X40290Y139951D01*
X41590Y139951D01*
X41611Y139967D01*
X41625Y139965D01*
X41825Y140165D01*
X41826Y140176D01*
X41829Y140192D01*
X41839Y140200D01*
X41839Y142185D01*
X43407Y144509D01*
X43857Y144359D01*
X43843Y144315D01*
X43851Y144293D01*
X43844Y144282D01*
X44041Y143791D01*
X44041Y135616D01*
X43761Y135243D01*
X43086Y135050D01*
X42313Y135147D01*
G37*
%LPD*%
%LPC*%
G36*
X211816Y29619D02*
X211816Y29619D01*
X211443Y29900D01*
X211250Y30574D01*
X211347Y31347D01*
X211723Y31724D01*
X212403Y31821D01*
X213700Y31821D01*
X213738Y31850D01*
X213746Y31852D01*
X213946Y32352D01*
X213945Y32354D01*
X213947Y32355D01*
X213944Y32358D01*
X213942Y32365D01*
X213949Y32370D01*
X213949Y33770D01*
X213924Y33803D01*
X213922Y33814D01*
X213122Y34214D01*
X213120Y34214D01*
X213120Y34215D01*
X211536Y34908D01*
X211251Y35478D01*
X211347Y36053D01*
X211734Y36731D01*
X212203Y36918D01*
X212884Y36723D01*
X213381Y36525D01*
X214581Y36025D01*
X214601Y36030D01*
X214610Y36022D01*
X215110Y36122D01*
X215119Y36132D01*
X215127Y36129D01*
X215722Y36525D01*
X216312Y36722D01*
X216904Y36821D01*
X217597Y36821D01*
X218289Y36722D01*
X218878Y36525D01*
X219466Y36133D01*
X219860Y35641D01*
X220257Y35045D01*
X220554Y34452D01*
X220751Y33763D01*
X220751Y30398D01*
X218454Y31894D01*
X218549Y32462D01*
X218546Y32467D01*
X218549Y32470D01*
X218549Y33170D01*
X218546Y33175D01*
X218549Y33178D01*
X218449Y33778D01*
X218438Y33788D01*
X218441Y33797D01*
X218041Y34397D01*
X218024Y34403D01*
X218022Y34414D01*
X217422Y34714D01*
X217397Y34709D01*
X217386Y34717D01*
X216686Y34517D01*
X216674Y34500D01*
X216662Y34501D01*
X216262Y34001D01*
X216261Y33983D01*
X216251Y33978D01*
X216151Y33378D01*
X216154Y33373D01*
X216151Y33370D01*
X216151Y32070D01*
X216167Y32049D01*
X216165Y32035D01*
X216365Y31835D01*
X216390Y31832D01*
X216395Y31826D01*
X216396Y31826D01*
X216400Y31821D01*
X218385Y31821D01*
X220709Y30253D01*
X220559Y29803D01*
X220515Y29817D01*
X220493Y29809D01*
X220482Y29816D01*
X219991Y29619D01*
X211816Y29619D01*
G37*
%LPD*%
%LPC*%
G36*
X23892Y195249D02*
X23892Y195249D01*
X23529Y195430D01*
X23529Y196091D01*
X23713Y196551D01*
X62359Y196551D01*
X61555Y195249D01*
X23892Y195249D01*
G37*
%LPD*%
%LPC*%
G36*
X228204Y250279D02*
X228204Y250279D01*
X227611Y250378D01*
X226918Y250576D01*
X226327Y250872D01*
X225833Y251267D01*
X224838Y252261D01*
X224443Y252855D01*
X224147Y253445D01*
X224049Y254038D01*
X223949Y254733D01*
X223949Y255427D01*
X224049Y256223D01*
X224147Y256815D01*
X224443Y257407D01*
X224739Y257900D01*
X225227Y258387D01*
X225808Y258581D01*
X228497Y258581D01*
X229181Y258483D01*
X229557Y258201D01*
X229751Y257523D01*
X229751Y255338D01*
X229561Y254769D01*
X228992Y254579D01*
X228320Y254579D01*
X227948Y254952D01*
X227849Y256334D01*
X227810Y256378D01*
X227804Y256373D01*
X227800Y256379D01*
X226500Y256379D01*
X226467Y256354D01*
X226456Y256352D01*
X226156Y255752D01*
X226159Y255736D01*
X226151Y255730D01*
X226151Y255030D01*
X226154Y255025D01*
X226151Y255022D01*
X226251Y254422D01*
X226256Y254418D01*
X226253Y254414D01*
X226453Y253814D01*
X226464Y253807D01*
X226462Y253798D01*
X226962Y253198D01*
X226969Y253197D01*
X226969Y253192D01*
X227469Y252792D01*
X227482Y252791D01*
X227484Y252783D01*
X228084Y252583D01*
X228091Y252585D01*
X228093Y252581D01*
X228793Y252481D01*
X228802Y252486D01*
X228807Y252481D01*
X229507Y252581D01*
X229511Y252585D01*
X229514Y252583D01*
X230214Y252783D01*
X230222Y252794D01*
X230231Y252792D01*
X230731Y253192D01*
X230733Y253199D01*
X230738Y253199D01*
X231138Y253699D01*
X231139Y253706D01*
X231140Y253707D01*
X231139Y253709D01*
X231139Y253713D01*
X231147Y253716D01*
X231159Y253756D01*
X231201Y253904D01*
X231243Y254052D01*
X231257Y254101D01*
X231299Y254249D01*
X231300Y254249D01*
X231299Y254249D01*
X231342Y254397D01*
X231347Y254416D01*
X231346Y254421D01*
X231349Y254423D01*
X231449Y255123D01*
X231443Y255133D01*
X231449Y255138D01*
X231349Y255738D01*
X231342Y255745D01*
X231345Y255751D01*
X230751Y257036D01*
X230845Y257503D01*
X231427Y257989D01*
X232004Y258277D01*
X232568Y258089D01*
X232957Y257505D01*
X233254Y256911D01*
X233452Y256319D01*
X233551Y255623D01*
X233650Y254931D01*
X233551Y254338D01*
X233552Y254337D01*
X233551Y254337D01*
X233452Y253645D01*
X233156Y253052D01*
X232858Y252457D01*
X232463Y251963D01*
X231967Y251467D01*
X231471Y251070D01*
X230878Y250675D01*
X230289Y250478D01*
X228897Y250279D01*
X228204Y250279D01*
G37*
%LPD*%
%LPC*%
G36*
X291704Y29299D02*
X291704Y29299D01*
X291111Y29398D01*
X290418Y29596D01*
X289827Y29892D01*
X289333Y30287D01*
X288338Y31281D01*
X287943Y31875D01*
X287647Y32465D01*
X287549Y33058D01*
X287449Y33753D01*
X287449Y34447D01*
X287549Y35243D01*
X287647Y35835D01*
X287943Y36427D01*
X288239Y36920D01*
X288727Y37407D01*
X289308Y37601D01*
X291997Y37601D01*
X292681Y37503D01*
X293057Y37221D01*
X293251Y36543D01*
X293251Y34358D01*
X293061Y33789D01*
X292492Y33599D01*
X291820Y33599D01*
X291448Y33972D01*
X291349Y35354D01*
X291310Y35398D01*
X291304Y35393D01*
X291300Y35399D01*
X290000Y35399D01*
X289967Y35374D01*
X289956Y35372D01*
X289656Y34772D01*
X289659Y34756D01*
X289651Y34750D01*
X289651Y34050D01*
X289654Y34045D01*
X289651Y34042D01*
X289751Y33442D01*
X289756Y33438D01*
X289753Y33434D01*
X289953Y32834D01*
X289964Y32827D01*
X289962Y32818D01*
X290462Y32218D01*
X290469Y32217D01*
X290469Y32212D01*
X290969Y31812D01*
X290982Y31811D01*
X290984Y31803D01*
X291584Y31603D01*
X291591Y31605D01*
X291593Y31601D01*
X292293Y31501D01*
X292302Y31506D01*
X292307Y31501D01*
X293007Y31601D01*
X293011Y31605D01*
X293014Y31603D01*
X293714Y31803D01*
X293722Y31814D01*
X293731Y31812D01*
X294231Y32212D01*
X294233Y32219D01*
X294238Y32219D01*
X294638Y32719D01*
X294639Y32726D01*
X294640Y32727D01*
X294639Y32729D01*
X294639Y32733D01*
X294647Y32736D01*
X294659Y32776D01*
X294701Y32924D01*
X294743Y33072D01*
X294757Y33121D01*
X294799Y33269D01*
X294800Y33269D01*
X294799Y33269D01*
X294842Y33417D01*
X294847Y33436D01*
X294846Y33441D01*
X294849Y33443D01*
X294949Y34143D01*
X294943Y34153D01*
X294949Y34158D01*
X294849Y34758D01*
X294842Y34765D01*
X294845Y34771D01*
X294251Y36056D01*
X294345Y36523D01*
X294927Y37009D01*
X295504Y37297D01*
X296068Y37109D01*
X296457Y36525D01*
X296754Y35931D01*
X296952Y35339D01*
X297051Y34643D01*
X297150Y33951D01*
X297051Y33358D01*
X297052Y33357D01*
X297051Y33357D01*
X296952Y32665D01*
X296656Y32072D01*
X296358Y31477D01*
X295963Y30983D01*
X295467Y30487D01*
X294971Y30090D01*
X294378Y29695D01*
X293789Y29498D01*
X292397Y29299D01*
X291704Y29299D01*
G37*
%LPD*%
%LPC*%
G36*
X49373Y236649D02*
X49373Y236649D01*
X48577Y236749D01*
X47985Y236847D01*
X47393Y237143D01*
X46901Y237439D01*
X46413Y237927D01*
X46219Y238508D01*
X46219Y241197D01*
X46317Y241881D01*
X46600Y242257D01*
X47277Y242451D01*
X49462Y242451D01*
X50031Y242261D01*
X50221Y241692D01*
X50221Y241020D01*
X49848Y240648D01*
X48467Y240549D01*
X48422Y240510D01*
X48427Y240504D01*
X48421Y240500D01*
X48421Y239200D01*
X48446Y239167D01*
X48448Y239156D01*
X49048Y238856D01*
X49064Y238859D01*
X49070Y238851D01*
X49770Y238851D01*
X49775Y238854D01*
X49778Y238851D01*
X50378Y238951D01*
X50382Y238956D01*
X50386Y238953D01*
X50986Y239153D01*
X50993Y239164D01*
X51002Y239162D01*
X51602Y239662D01*
X51603Y239669D01*
X51608Y239669D01*
X52008Y240169D01*
X52009Y240182D01*
X52017Y240184D01*
X52217Y240784D01*
X52215Y240789D01*
X52218Y240791D01*
X52217Y240792D01*
X52219Y240793D01*
X52319Y241493D01*
X52314Y241502D01*
X52319Y241507D01*
X52219Y242207D01*
X52215Y242211D01*
X52217Y242214D01*
X52017Y242914D01*
X52006Y242922D01*
X52008Y242931D01*
X51608Y243431D01*
X51601Y243433D01*
X51601Y243438D01*
X51101Y243838D01*
X51087Y243839D01*
X51084Y243847D01*
X50384Y244047D01*
X50379Y244046D01*
X50377Y244049D01*
X49677Y244149D01*
X49667Y244143D01*
X49662Y244149D01*
X49062Y244049D01*
X49055Y244042D01*
X49049Y244045D01*
X47764Y243451D01*
X47297Y243545D01*
X46812Y244127D01*
X46523Y244704D01*
X46711Y245268D01*
X47295Y245657D01*
X47889Y245954D01*
X48481Y246152D01*
X49177Y246251D01*
X49869Y246350D01*
X50462Y246251D01*
X50463Y246252D01*
X50463Y246251D01*
X51155Y246152D01*
X51748Y245856D01*
X52343Y245558D01*
X52837Y245163D01*
X53333Y244667D01*
X53730Y244171D01*
X54125Y243578D01*
X54322Y242989D01*
X54521Y241597D01*
X54521Y240904D01*
X54422Y240311D01*
X54412Y240276D01*
X54370Y240128D01*
X54327Y239980D01*
X54313Y239931D01*
X54271Y239783D01*
X54229Y239635D01*
X54224Y239618D01*
X53928Y239027D01*
X53533Y238533D01*
X52539Y237538D01*
X51945Y237143D01*
X51355Y236847D01*
X50762Y236749D01*
X50067Y236649D01*
X49373Y236649D01*
G37*
%LPD*%
G36*
X317905Y21472D02*
X317905Y21472D01*
X317915Y21468D01*
X318415Y21768D01*
X318423Y21787D01*
X318430Y21792D01*
X318437Y21794D01*
X318637Y22394D01*
X318633Y22405D01*
X318639Y22410D01*
X318639Y23310D01*
X318626Y23328D01*
X318629Y23340D01*
X318329Y23740D01*
X318304Y23747D01*
X318297Y23759D01*
X317597Y23859D01*
X317592Y23856D01*
X317590Y23859D01*
X315594Y23859D01*
X315100Y23942D01*
X316722Y25373D01*
X318122Y26573D01*
X318123Y26575D01*
X318125Y26575D01*
X318625Y27075D01*
X318627Y27089D01*
X318636Y27092D01*
X318836Y27592D01*
X318833Y27603D01*
X318834Y27604D01*
X318832Y27607D01*
X318828Y27620D01*
X318834Y27632D01*
X318534Y28232D01*
X318524Y28237D01*
X318525Y28245D01*
X317925Y28845D01*
X317901Y28848D01*
X317900Y28848D01*
X317898Y28849D01*
X317890Y28859D01*
X317390Y28859D01*
X317377Y28850D01*
X317368Y28854D01*
X316768Y28554D01*
X316763Y28544D01*
X316755Y28545D01*
X316356Y28146D01*
X315457Y27347D01*
X315457Y27345D01*
X315455Y27345D01*
X314255Y26145D01*
X314255Y26141D01*
X314252Y26141D01*
X313886Y25684D01*
X312225Y27345D01*
X312223Y27345D01*
X312223Y27346D01*
X311023Y28446D01*
X311018Y28447D01*
X311017Y28451D01*
X310417Y28851D01*
X310397Y28850D01*
X310390Y28859D01*
X309890Y28859D01*
X309869Y28843D01*
X309855Y28845D01*
X309255Y28245D01*
X309254Y28233D01*
X309246Y28232D01*
X308946Y27632D01*
X308946Y27630D01*
X308950Y27610D01*
X308942Y27600D01*
X309042Y27100D01*
X309057Y27087D01*
X309055Y27075D01*
X309555Y26575D01*
X309558Y26575D01*
X309558Y26573D01*
X312582Y23939D01*
X312185Y23859D01*
X310090Y23859D01*
X310085Y23856D01*
X310082Y23859D01*
X309482Y23759D01*
X309464Y23740D01*
X309451Y23740D01*
X309151Y23340D01*
X309151Y23322D01*
X309141Y23316D01*
X309041Y22516D01*
X309048Y22504D01*
X309043Y22496D01*
X309243Y21796D01*
X309265Y21779D01*
X309268Y21766D01*
X309668Y21566D01*
X309680Y21568D01*
X309684Y21561D01*
X310484Y21461D01*
X310488Y21463D01*
X310490Y21461D01*
X317890Y21461D01*
X317905Y21472D01*
G37*
%LPC*%
G36*
X186531Y41079D02*
X186531Y41079D01*
X185945Y41664D01*
X185851Y42137D01*
X186042Y42711D01*
X186631Y43202D01*
X188731Y44902D01*
X188733Y44909D01*
X188738Y44909D01*
X189138Y45409D01*
X189139Y45429D01*
X189142Y45431D01*
X189139Y45435D01*
X189140Y45469D01*
X189132Y45469D01*
X189132Y45477D01*
X186041Y48169D01*
X185852Y48642D01*
X186043Y49213D01*
X186624Y49795D01*
X187097Y49889D01*
X187673Y49697D01*
X188165Y49205D01*
X188167Y49205D01*
X188167Y49204D01*
X190667Y46904D01*
X190726Y46898D01*
X190727Y46905D01*
X190733Y46903D01*
X193825Y49697D01*
X194403Y49889D01*
X194871Y49796D01*
X195357Y49116D01*
X195547Y48640D01*
X195358Y48168D01*
X194767Y47576D01*
X192768Y45878D01*
X192767Y45871D01*
X192762Y45871D01*
X192362Y45371D01*
X192361Y45362D01*
X192357Y45359D01*
X192361Y45354D01*
X192360Y45311D01*
X192368Y45311D01*
X192367Y45303D01*
X194867Y43103D01*
X194869Y43103D01*
X194868Y43102D01*
X195454Y42614D01*
X195549Y42045D01*
X195358Y41568D01*
X194776Y40985D01*
X194307Y40892D01*
X193728Y41181D01*
X191233Y43476D01*
X191226Y43477D01*
X191225Y43482D01*
X190725Y43782D01*
X190671Y43776D01*
X190667Y43777D01*
X188168Y41578D01*
X187573Y41082D01*
X187002Y40796D01*
X186531Y41079D01*
G37*
%LPD*%
%LPC*%
G36*
X33489Y160642D02*
X33489Y160642D01*
X32998Y161231D01*
X31298Y163331D01*
X31291Y163333D01*
X31291Y163338D01*
X30791Y163738D01*
X30731Y163740D01*
X30731Y163732D01*
X30723Y163732D01*
X28031Y160641D01*
X27558Y160452D01*
X26987Y160643D01*
X26405Y161224D01*
X26311Y161697D01*
X26503Y162273D01*
X26995Y162765D01*
X26995Y162767D01*
X26996Y162767D01*
X29296Y165267D01*
X29297Y165277D01*
X29301Y165280D01*
X29298Y165285D01*
X29302Y165326D01*
X29295Y165327D01*
X29297Y165333D01*
X26503Y168425D01*
X26311Y169003D01*
X26404Y169471D01*
X27084Y169957D01*
X27560Y170147D01*
X28032Y169958D01*
X28624Y169367D01*
X30322Y167368D01*
X30329Y167367D01*
X30329Y167362D01*
X30829Y166962D01*
X30889Y166960D01*
X30889Y166968D01*
X30897Y166967D01*
X33097Y169467D01*
X33097Y169469D01*
X33098Y169468D01*
X33586Y170054D01*
X34155Y170149D01*
X34632Y169958D01*
X35215Y169376D01*
X35308Y168907D01*
X35019Y168328D01*
X32724Y165833D01*
X32723Y165826D01*
X32718Y165825D01*
X32418Y165325D01*
X32420Y165308D01*
X32418Y165307D01*
X32420Y165305D01*
X32424Y165271D01*
X32423Y165267D01*
X34622Y162768D01*
X35119Y162173D01*
X35404Y161602D01*
X35121Y161131D01*
X34536Y160545D01*
X34063Y160451D01*
X33489Y160642D01*
G37*
%LPD*%
%LPC*%
G36*
X26519Y135242D02*
X26519Y135242D01*
X26033Y135826D01*
X25842Y136302D01*
X26033Y136873D01*
X26525Y137365D01*
X26525Y137367D01*
X26526Y137367D01*
X28826Y139867D01*
X28827Y139877D01*
X28831Y139880D01*
X28828Y139885D01*
X28832Y139926D01*
X28827Y139926D01*
X28828Y139931D01*
X28428Y140431D01*
X28426Y140431D01*
X28426Y140433D01*
X26131Y142928D01*
X25841Y143508D01*
X25935Y144072D01*
X26614Y144557D01*
X27090Y144747D01*
X27562Y144558D01*
X28154Y143967D01*
X29852Y141968D01*
X29856Y141967D01*
X29855Y141965D01*
X30355Y141465D01*
X30414Y141457D01*
X30416Y141469D01*
X30428Y141468D01*
X32626Y144067D01*
X33117Y144557D01*
X33688Y144748D01*
X34162Y144558D01*
X34748Y143972D01*
X34935Y143506D01*
X34551Y142931D01*
X32254Y140433D01*
X32253Y140426D01*
X32248Y140425D01*
X31948Y139925D01*
X31950Y139908D01*
X31948Y139907D01*
X31950Y139905D01*
X31954Y139871D01*
X31953Y139867D01*
X34152Y137368D01*
X34649Y136773D01*
X34936Y136198D01*
X34750Y135732D01*
X34066Y135244D01*
X33590Y135053D01*
X33120Y135241D01*
X32628Y135832D01*
X32627Y135832D01*
X30827Y137932D01*
X30821Y137934D01*
X30821Y137938D01*
X30321Y138338D01*
X30261Y138340D01*
X30261Y138332D01*
X30253Y138332D01*
X27561Y135241D01*
X27088Y135052D01*
X26519Y135242D01*
G37*
%LPD*%
%LPC*%
G36*
X211932Y38910D02*
X211932Y38910D01*
X211444Y39594D01*
X211253Y40070D01*
X211441Y40540D01*
X212032Y41032D01*
X212032Y41033D01*
X214132Y42833D01*
X214134Y42839D01*
X214138Y42839D01*
X214538Y43339D01*
X214540Y43399D01*
X214532Y43399D01*
X214532Y43407D01*
X211441Y46099D01*
X211252Y46572D01*
X211442Y47141D01*
X212026Y47627D01*
X212502Y47818D01*
X213073Y47627D01*
X213565Y47135D01*
X213567Y47135D01*
X213567Y47134D01*
X216067Y44834D01*
X216089Y44832D01*
X216092Y44828D01*
X216109Y44828D01*
X216111Y44830D01*
X216126Y44828D01*
X216126Y44833D01*
X216131Y44832D01*
X216631Y45232D01*
X216631Y45234D01*
X216633Y45234D01*
X219128Y47529D01*
X219708Y47819D01*
X220272Y47725D01*
X220757Y47046D01*
X220947Y46570D01*
X220758Y46098D01*
X220167Y45506D01*
X218168Y43808D01*
X218167Y43805D01*
X218165Y43805D01*
X217665Y43305D01*
X217657Y43246D01*
X217669Y43244D01*
X217668Y43232D01*
X220267Y41034D01*
X220757Y40543D01*
X220948Y39972D01*
X220758Y39498D01*
X220172Y38912D01*
X219706Y38725D01*
X219131Y39109D01*
X216633Y41406D01*
X216626Y41407D01*
X216625Y41412D01*
X216125Y41712D01*
X216071Y41706D01*
X216067Y41707D01*
X213568Y39508D01*
X212973Y39012D01*
X212398Y38724D01*
X211932Y38910D01*
G37*
%LPD*%
%LPC*%
G36*
X28778Y211249D02*
X28778Y211249D01*
X28186Y211447D01*
X27592Y211645D01*
X27001Y212038D01*
X26509Y212531D01*
X26216Y213020D01*
X26018Y213710D01*
X25920Y214399D01*
X26017Y214982D01*
X26408Y215569D01*
X26905Y216065D01*
X26906Y216077D01*
X26911Y216080D01*
X26908Y216085D01*
X26909Y216092D01*
X26919Y216100D01*
X26919Y216500D01*
X26900Y216525D01*
X26901Y216538D01*
X26412Y216929D01*
X26218Y217511D01*
X26120Y218197D01*
X26135Y218247D01*
X26149Y218296D01*
X26191Y218444D01*
X26233Y218592D01*
X26247Y218641D01*
X26289Y218789D01*
X26290Y218789D01*
X26289Y218789D01*
X26316Y218882D01*
X26612Y219473D01*
X27007Y219967D01*
X27990Y220951D01*
X29866Y220951D01*
X30456Y220852D01*
X31148Y220556D01*
X31640Y220261D01*
X32132Y219769D01*
X32525Y219178D01*
X32718Y218600D01*
X32529Y218033D01*
X31853Y217647D01*
X31280Y217552D01*
X30803Y217838D01*
X30408Y218331D01*
X30398Y218333D01*
X30397Y218341D01*
X29797Y218741D01*
X29777Y218740D01*
X29770Y218749D01*
X29070Y218749D01*
X29055Y218738D01*
X29045Y218742D01*
X28545Y218442D01*
X28536Y218422D01*
X28534Y218414D01*
X28521Y218408D01*
X28421Y217808D01*
X28444Y217765D01*
X28445Y217758D01*
X28945Y217458D01*
X28959Y217459D01*
X28964Y217451D01*
X29762Y217351D01*
X30237Y217256D01*
X30519Y216691D01*
X30422Y215816D01*
X30139Y215344D01*
X29662Y215249D01*
X28864Y215149D01*
X28850Y215136D01*
X28839Y215138D01*
X28339Y214738D01*
X28334Y214719D01*
X28323Y214716D01*
X28123Y214116D01*
X28137Y214076D01*
X28135Y214065D01*
X28635Y213565D01*
X28651Y213563D01*
X28654Y213553D01*
X29254Y213353D01*
X29265Y213357D01*
X29270Y213351D01*
X29970Y213351D01*
X29986Y213363D01*
X29997Y213359D01*
X30597Y213759D01*
X30603Y213776D01*
X30614Y213778D01*
X30911Y214371D01*
X31293Y214753D01*
X32066Y214850D01*
X32744Y214656D01*
X33117Y214283D01*
X33022Y213711D01*
X32989Y213595D01*
X32975Y213546D01*
X32933Y213398D01*
X32890Y213250D01*
X32876Y213201D01*
X32834Y213053D01*
X32825Y213021D01*
X32432Y212431D01*
X32039Y212038D01*
X31448Y211645D01*
X30854Y211447D01*
X30262Y211249D01*
X28778Y211249D01*
G37*
%LPD*%
%LPC*%
G36*
X201011Y273048D02*
X201011Y273048D01*
X200321Y273245D01*
X199731Y273638D01*
X199338Y274031D01*
X198945Y274622D01*
X198747Y275216D01*
X198549Y275808D01*
X198549Y277292D01*
X198747Y277884D01*
X198945Y278478D01*
X199338Y279069D01*
X199831Y279561D01*
X200320Y279854D01*
X201010Y280052D01*
X201699Y280150D01*
X202282Y280053D01*
X202869Y279662D01*
X203365Y279165D01*
X203392Y279162D01*
X203400Y279151D01*
X203800Y279151D01*
X203825Y279170D01*
X203838Y279169D01*
X204229Y279658D01*
X204811Y279852D01*
X205497Y279950D01*
X206182Y279754D01*
X206773Y279458D01*
X207267Y279063D01*
X208251Y278080D01*
X208251Y276204D01*
X208152Y275614D01*
X207856Y274922D01*
X207561Y274431D01*
X207069Y273938D01*
X206478Y273545D01*
X205900Y273352D01*
X205333Y273541D01*
X204947Y274217D01*
X204852Y274790D01*
X205138Y275267D01*
X205631Y275662D01*
X205633Y275672D01*
X205641Y275673D01*
X206041Y276273D01*
X206040Y276293D01*
X206049Y276300D01*
X206049Y277000D01*
X206038Y277015D01*
X206042Y277025D01*
X205742Y277525D01*
X205714Y277537D01*
X205708Y277549D01*
X205108Y277649D01*
X205065Y277626D01*
X205058Y277625D01*
X204758Y277125D01*
X204758Y277122D01*
X204758Y277120D01*
X204759Y277111D01*
X204751Y277106D01*
X204651Y276308D01*
X204556Y275833D01*
X203991Y275551D01*
X203116Y275648D01*
X202644Y275931D01*
X202549Y276408D01*
X202449Y277206D01*
X202436Y277220D01*
X202438Y277231D01*
X202038Y277731D01*
X202019Y277736D01*
X202016Y277747D01*
X201416Y277947D01*
X201411Y277945D01*
X201396Y277945D01*
X201384Y277936D01*
X201376Y277933D01*
X201365Y277935D01*
X200865Y277435D01*
X200864Y277422D01*
X200856Y277417D01*
X200857Y277417D01*
X200853Y277416D01*
X200653Y276816D01*
X200657Y276805D01*
X200651Y276800D01*
X200651Y276100D01*
X200663Y276084D01*
X200659Y276073D01*
X201059Y275473D01*
X201076Y275467D01*
X201078Y275456D01*
X201671Y275159D01*
X202053Y274777D01*
X202150Y274004D01*
X202140Y273970D01*
X202098Y273822D01*
X202084Y273773D01*
X202042Y273625D01*
X201999Y273477D01*
X201985Y273428D01*
X201956Y273326D01*
X201583Y272953D01*
X201011Y273048D01*
G37*
%LPD*%
%LPC*%
G36*
X239111Y50798D02*
X239111Y50798D01*
X238421Y50995D01*
X237831Y51388D01*
X237438Y51781D01*
X237045Y52372D01*
X236847Y52966D01*
X236649Y53558D01*
X236649Y55042D01*
X236847Y55634D01*
X237045Y56228D01*
X237438Y56819D01*
X237931Y57311D01*
X238420Y57604D01*
X239110Y57802D01*
X239799Y57900D01*
X240382Y57803D01*
X240969Y57412D01*
X241465Y56915D01*
X241492Y56912D01*
X241500Y56901D01*
X241900Y56901D01*
X241925Y56920D01*
X241938Y56919D01*
X242329Y57408D01*
X242911Y57602D01*
X243597Y57700D01*
X244282Y57504D01*
X244873Y57208D01*
X245367Y56813D01*
X246351Y55830D01*
X246351Y53954D01*
X246252Y53364D01*
X245956Y52672D01*
X245661Y52181D01*
X245169Y51688D01*
X244578Y51295D01*
X244000Y51102D01*
X243433Y51291D01*
X243047Y51967D01*
X242952Y52540D01*
X243238Y53017D01*
X243731Y53412D01*
X243733Y53422D01*
X243741Y53423D01*
X244141Y54023D01*
X244140Y54043D01*
X244149Y54050D01*
X244149Y54750D01*
X244138Y54765D01*
X244142Y54775D01*
X243842Y55275D01*
X243814Y55287D01*
X243808Y55299D01*
X243208Y55399D01*
X243165Y55376D01*
X243158Y55375D01*
X242858Y54875D01*
X242858Y54872D01*
X242858Y54871D01*
X242859Y54861D01*
X242851Y54856D01*
X242751Y54058D01*
X242656Y53583D01*
X242091Y53301D01*
X241216Y53398D01*
X240744Y53681D01*
X240649Y54158D01*
X240549Y54956D01*
X240536Y54970D01*
X240538Y54981D01*
X240138Y55481D01*
X240119Y55486D01*
X240116Y55497D01*
X239516Y55697D01*
X239511Y55695D01*
X239511Y55696D01*
X239496Y55696D01*
X239484Y55686D01*
X239476Y55683D01*
X239465Y55685D01*
X238965Y55185D01*
X238964Y55172D01*
X238956Y55167D01*
X238957Y55167D01*
X238953Y55166D01*
X238753Y54566D01*
X238757Y54555D01*
X238751Y54550D01*
X238751Y53850D01*
X238763Y53834D01*
X238759Y53823D01*
X239159Y53223D01*
X239176Y53217D01*
X239178Y53206D01*
X239771Y52909D01*
X240153Y52527D01*
X240250Y51754D01*
X240226Y51670D01*
X240184Y51523D01*
X240170Y51473D01*
X240128Y51326D01*
X240085Y51178D01*
X240071Y51129D01*
X240056Y51076D01*
X239683Y50703D01*
X239111Y50798D01*
G37*
%LPD*%
%LPC*%
G36*
X50273Y211249D02*
X50273Y211249D01*
X49580Y211348D01*
X48890Y211546D01*
X48398Y211840D01*
X47903Y212237D01*
X47411Y212729D01*
X47118Y213315D01*
X47019Y214003D01*
X47019Y214692D01*
X47214Y215276D01*
X47605Y215765D01*
X48202Y216262D01*
X48205Y216276D01*
X48206Y216277D01*
X48205Y216278D01*
X48215Y216320D01*
X48200Y216324D01*
X48201Y216338D01*
X47705Y216735D01*
X47317Y217220D01*
X47219Y217903D01*
X47219Y218492D01*
X47415Y219078D01*
X47808Y219669D01*
X48802Y220663D01*
X49186Y220951D01*
X50467Y220951D01*
X51163Y220851D01*
X51855Y220752D01*
X52443Y220458D01*
X52935Y220065D01*
X53429Y219473D01*
X53721Y218888D01*
X53721Y218317D01*
X53339Y217840D01*
X52660Y217549D01*
X52096Y217549D01*
X51711Y218127D01*
X51704Y218130D01*
X51705Y218135D01*
X51205Y218635D01*
X51184Y218638D01*
X51178Y218649D01*
X50578Y218749D01*
X50568Y218743D01*
X50563Y218749D01*
X49863Y218649D01*
X49845Y218630D01*
X49832Y218631D01*
X49432Y218131D01*
X49431Y218092D01*
X49424Y218082D01*
X49624Y217582D01*
X49658Y217561D01*
X49664Y217551D01*
X50464Y217451D01*
X51147Y217354D01*
X51425Y217075D01*
X51619Y216202D01*
X51606Y216156D01*
X51564Y216008D01*
X51522Y215861D01*
X51508Y215811D01*
X51466Y215664D01*
X51428Y215532D01*
X50956Y215249D01*
X50370Y215249D01*
X50362Y215243D01*
X50356Y215247D01*
X49656Y215047D01*
X49642Y215028D01*
X49629Y215027D01*
X49229Y214427D01*
X49231Y214396D01*
X49223Y214384D01*
X49423Y213784D01*
X49443Y213771D01*
X49445Y213758D01*
X49945Y213458D01*
X49959Y213459D01*
X49963Y213451D01*
X50663Y213351D01*
X50676Y213358D01*
X50684Y213353D01*
X51384Y213553D01*
X51394Y213567D01*
X51405Y213565D01*
X51805Y213965D01*
X51806Y213972D01*
X51811Y213973D01*
X52205Y214563D01*
X52681Y214849D01*
X53459Y214752D01*
X54026Y214563D01*
X54120Y214000D01*
X54022Y213414D01*
X53727Y212726D01*
X53335Y212235D01*
X52843Y211842D01*
X52251Y211546D01*
X51659Y211348D01*
X50967Y211249D01*
X50273Y211249D01*
G37*
%LPD*%
%LPC*%
G36*
X238814Y29798D02*
X238814Y29798D01*
X238126Y30093D01*
X237635Y30485D01*
X237242Y30977D01*
X236946Y31569D01*
X236748Y32161D01*
X236649Y32853D01*
X236649Y33547D01*
X236748Y34240D01*
X236768Y34308D01*
X236782Y34357D01*
X236824Y34505D01*
X236866Y34652D01*
X236880Y34702D01*
X236922Y34849D01*
X236923Y34849D01*
X236922Y34849D01*
X236946Y34930D01*
X237240Y35422D01*
X237637Y35917D01*
X238129Y36409D01*
X238715Y36702D01*
X239403Y36801D01*
X240092Y36801D01*
X240676Y36606D01*
X241165Y36215D01*
X241662Y35618D01*
X241692Y35612D01*
X241699Y35602D01*
X241701Y35602D01*
X241709Y35608D01*
X241720Y35605D01*
X241723Y35619D01*
X241724Y35620D01*
X241738Y35619D01*
X242135Y36115D01*
X242620Y36503D01*
X243303Y36601D01*
X243892Y36601D01*
X244478Y36405D01*
X245069Y36012D01*
X246063Y35018D01*
X246351Y34634D01*
X246351Y33353D01*
X246251Y32657D01*
X246152Y31965D01*
X245858Y31377D01*
X245465Y30885D01*
X244873Y30392D01*
X244288Y30099D01*
X243717Y30099D01*
X243240Y30481D01*
X242949Y31160D01*
X242949Y31724D01*
X243527Y32109D01*
X243530Y32116D01*
X243535Y32115D01*
X244035Y32615D01*
X244037Y32628D01*
X244044Y32633D01*
X244041Y32638D01*
X244049Y32642D01*
X244149Y33242D01*
X244143Y33252D01*
X244149Y33257D01*
X244049Y33957D01*
X244030Y33975D01*
X244031Y33988D01*
X243531Y34388D01*
X243492Y34389D01*
X243482Y34396D01*
X242982Y34196D01*
X242961Y34162D01*
X242951Y34156D01*
X242851Y33356D01*
X242754Y32673D01*
X242475Y32395D01*
X241602Y32201D01*
X240932Y32392D01*
X240649Y32864D01*
X240649Y33450D01*
X240643Y33458D01*
X240647Y33464D01*
X240447Y34164D01*
X240428Y34178D01*
X240427Y34191D01*
X239827Y34591D01*
X239796Y34589D01*
X239784Y34597D01*
X239184Y34397D01*
X239171Y34377D01*
X239158Y34375D01*
X238858Y33875D01*
X238859Y33861D01*
X238851Y33857D01*
X238751Y33157D01*
X238758Y33144D01*
X238753Y33136D01*
X238953Y32436D01*
X238967Y32426D01*
X238965Y32415D01*
X239365Y32015D01*
X239372Y32014D01*
X239373Y32009D01*
X239963Y31615D01*
X240249Y31139D01*
X240152Y30361D01*
X239963Y29794D01*
X239400Y29700D01*
X238814Y29798D01*
G37*
%LPD*%
%LPC*%
G36*
X200714Y252048D02*
X200714Y252048D01*
X200026Y252343D01*
X199535Y252735D01*
X199142Y253227D01*
X198846Y253819D01*
X198648Y254411D01*
X198549Y255103D01*
X198549Y255797D01*
X198648Y256490D01*
X198682Y256607D01*
X198696Y256656D01*
X198738Y256804D01*
X198780Y256952D01*
X198794Y257001D01*
X198837Y257149D01*
X198846Y257180D01*
X199140Y257672D01*
X199537Y258167D01*
X200029Y258659D01*
X200615Y258952D01*
X201303Y259051D01*
X201992Y259051D01*
X202576Y258856D01*
X203065Y258465D01*
X203562Y257868D01*
X203592Y257862D01*
X203599Y257851D01*
X203601Y257851D01*
X203609Y257858D01*
X203620Y257855D01*
X203623Y257869D01*
X203625Y257870D01*
X203638Y257869D01*
X204035Y258365D01*
X204520Y258753D01*
X205203Y258851D01*
X205792Y258851D01*
X206378Y258655D01*
X206969Y258262D01*
X207963Y257268D01*
X208251Y256884D01*
X208251Y255603D01*
X208151Y254907D01*
X208052Y254215D01*
X207758Y253627D01*
X207365Y253135D01*
X206773Y252642D01*
X206188Y252349D01*
X205617Y252349D01*
X205140Y252731D01*
X204849Y253410D01*
X204849Y253974D01*
X205427Y254359D01*
X205430Y254366D01*
X205435Y254365D01*
X205935Y254865D01*
X205937Y254878D01*
X205944Y254883D01*
X205940Y254888D01*
X205949Y254892D01*
X206049Y255492D01*
X206043Y255502D01*
X206049Y255507D01*
X205949Y256207D01*
X205930Y256225D01*
X205931Y256238D01*
X205431Y256638D01*
X205392Y256639D01*
X205382Y256646D01*
X204882Y256446D01*
X204861Y256412D01*
X204851Y256406D01*
X204751Y255606D01*
X204654Y254923D01*
X204375Y254645D01*
X203502Y254451D01*
X202832Y254642D01*
X202549Y255114D01*
X202549Y255700D01*
X202543Y255708D01*
X202547Y255714D01*
X202347Y256414D01*
X202328Y256428D01*
X202327Y256441D01*
X201727Y256841D01*
X201696Y256839D01*
X201684Y256847D01*
X201084Y256647D01*
X201071Y256627D01*
X201058Y256625D01*
X200758Y256125D01*
X200759Y256111D01*
X200751Y256107D01*
X200651Y255407D01*
X200658Y255394D01*
X200653Y255386D01*
X200853Y254686D01*
X200867Y254676D01*
X200865Y254665D01*
X201265Y254265D01*
X201272Y254264D01*
X201273Y254259D01*
X201863Y253865D01*
X202149Y253389D01*
X202052Y252611D01*
X201863Y252044D01*
X201300Y251950D01*
X200714Y252048D01*
G37*
%LPD*%
%LPC*%
G36*
X46891Y57645D02*
X46891Y57645D01*
X46314Y58030D01*
X46221Y58496D01*
X46716Y59782D01*
X47215Y60981D01*
X47208Y61010D01*
X47214Y61022D01*
X47014Y61422D01*
X47010Y61424D01*
X47011Y61427D01*
X46615Y62022D01*
X46418Y62611D01*
X46319Y63303D01*
X46319Y63996D01*
X46418Y64586D01*
X46713Y65274D01*
X47107Y65767D01*
X47599Y66259D01*
X48150Y66535D01*
X49205Y64616D01*
X48643Y64241D01*
X48635Y64220D01*
X48623Y64216D01*
X48423Y63616D01*
X48425Y63609D01*
X48424Y63608D01*
X48427Y63604D01*
X48430Y63596D01*
X48423Y63586D01*
X48623Y62886D01*
X48640Y62874D01*
X48639Y62862D01*
X49139Y62462D01*
X49158Y62461D01*
X49163Y62451D01*
X49863Y62351D01*
X49868Y62354D01*
X49870Y62351D01*
X51170Y62351D01*
X51213Y62383D01*
X51217Y62384D01*
X51317Y62684D01*
X51314Y62693D01*
X51317Y62695D01*
X51316Y62697D01*
X51319Y62700D01*
X51319Y64688D01*
X52491Y66951D01*
X52956Y66951D01*
X53425Y66670D01*
X53521Y66096D01*
X53521Y58020D01*
X53147Y57647D01*
X52370Y57550D01*
X51700Y57645D01*
X51417Y58117D01*
X51319Y58704D01*
X51319Y60100D01*
X51283Y60147D01*
X51276Y60142D01*
X51270Y60149D01*
X49270Y60149D01*
X49232Y60121D01*
X49224Y60119D01*
X48328Y57928D01*
X48141Y57741D01*
X47565Y57453D01*
X46891Y57645D01*
G37*
%LPD*%
%LPC*%
G36*
X149516Y253149D02*
X149516Y253149D01*
X149132Y253437D01*
X148737Y253833D01*
X148242Y254427D01*
X147946Y255018D01*
X147749Y255707D01*
X147749Y257096D01*
X147847Y257685D01*
X148441Y258871D01*
X148929Y259359D01*
X149519Y259654D01*
X150111Y259852D01*
X150900Y259950D01*
X151589Y259852D01*
X152173Y259657D01*
X152663Y259167D01*
X153056Y258676D01*
X153253Y258086D01*
X153853Y256086D01*
X153864Y256078D01*
X153862Y256069D01*
X154262Y255569D01*
X154292Y255562D01*
X154298Y255553D01*
X154300Y255551D01*
X154900Y255551D01*
X154921Y255567D01*
X154935Y255565D01*
X155335Y255965D01*
X155337Y255978D01*
X155344Y255983D01*
X155339Y255988D01*
X155349Y255994D01*
X155449Y256794D01*
X155437Y256814D01*
X155442Y256826D01*
X154749Y257914D01*
X154749Y258480D01*
X155231Y258962D01*
X155810Y259348D01*
X156273Y259255D01*
X156760Y258671D01*
X157056Y258178D01*
X157352Y257487D01*
X157451Y256797D01*
X157451Y256103D01*
X157352Y255411D01*
X157155Y254822D01*
X156763Y254234D01*
X156269Y253838D01*
X155777Y253445D01*
X155093Y253249D01*
X154404Y253249D01*
X153814Y253348D01*
X153126Y253643D01*
X152635Y254035D01*
X152244Y254524D01*
X152047Y255116D01*
X152044Y255117D01*
X152045Y255119D01*
X151748Y255814D01*
X151649Y256507D01*
X151644Y256512D01*
X151647Y256516D01*
X151447Y257116D01*
X151436Y257123D01*
X151438Y257131D01*
X151038Y257631D01*
X151008Y257638D01*
X151000Y257649D01*
X150400Y257649D01*
X150379Y257633D01*
X150365Y257635D01*
X149965Y257235D01*
X149963Y257216D01*
X149952Y257212D01*
X149752Y256412D01*
X149762Y256390D01*
X149756Y256378D01*
X150056Y255778D01*
X150062Y255775D01*
X150061Y255770D01*
X150951Y254584D01*
X150951Y254115D01*
X150563Y253534D01*
X150083Y253149D01*
X149516Y253149D01*
G37*
%LPD*%
%LPC*%
G36*
X40277Y57449D02*
X40277Y57449D01*
X39588Y57646D01*
X38992Y57944D01*
X38402Y58239D01*
X38012Y58727D01*
X37716Y59318D01*
X37518Y60010D01*
X37420Y60700D01*
X37518Y61385D01*
X37812Y61973D01*
X38205Y62465D01*
X38693Y62855D01*
X39384Y63053D01*
X40084Y63253D01*
X40085Y63254D01*
X40086Y63253D01*
X41286Y63653D01*
X41293Y63664D01*
X41301Y63662D01*
X41801Y64062D01*
X41808Y64092D01*
X41819Y64100D01*
X41819Y64700D01*
X41800Y64725D01*
X41801Y64738D01*
X41301Y65138D01*
X41278Y65139D01*
X41270Y65149D01*
X40570Y65149D01*
X40554Y65137D01*
X40543Y65141D01*
X39945Y64743D01*
X39362Y64451D01*
X38794Y64546D01*
X38311Y65029D01*
X38024Y65602D01*
X38212Y66072D01*
X38701Y66561D01*
X39190Y66854D01*
X39880Y67052D01*
X40573Y67151D01*
X41367Y67151D01*
X42059Y67052D01*
X42646Y66856D01*
X43137Y66463D01*
X43631Y65970D01*
X43924Y65480D01*
X44121Y64793D01*
X44121Y64103D01*
X44022Y63415D01*
X43728Y62827D01*
X43338Y62339D01*
X42748Y62044D01*
X42152Y61746D01*
X41456Y61547D01*
X41455Y61546D01*
X41454Y61547D01*
X40855Y61347D01*
X40156Y61147D01*
X40146Y61133D01*
X40135Y61135D01*
X39735Y60735D01*
X39732Y60709D01*
X39723Y60703D01*
X39723Y60702D01*
X39721Y60700D01*
X39721Y60100D01*
X39740Y60075D01*
X39739Y60062D01*
X40239Y59662D01*
X40258Y59661D01*
X40263Y59651D01*
X40963Y59551D01*
X40972Y59556D01*
X40978Y59556D01*
X40984Y59553D01*
X41684Y59753D01*
X41694Y59767D01*
X41705Y59765D01*
X42201Y60262D01*
X42788Y60653D01*
X43356Y60748D01*
X43932Y60267D01*
X44218Y59790D01*
X44123Y59220D01*
X43833Y58832D01*
X43437Y58437D01*
X42843Y57942D01*
X42255Y57648D01*
X41563Y57549D01*
X41562Y57548D01*
X41562Y57549D01*
X40966Y57449D01*
X40277Y57449D01*
G37*
%LPD*%
%LPC*%
G36*
X174823Y250574D02*
X174823Y250574D01*
X174432Y250867D01*
X173938Y251361D01*
X173543Y251955D01*
X173248Y252545D01*
X173149Y253233D01*
X173149Y254523D01*
X173155Y254544D01*
X173197Y254692D01*
X173198Y254692D01*
X173197Y254692D01*
X173240Y254840D01*
X173254Y254889D01*
X173296Y255037D01*
X173338Y255184D01*
X173346Y255212D01*
X173642Y255803D01*
X174037Y256297D01*
X174529Y256789D01*
X175115Y257083D01*
X175708Y257181D01*
X175749Y257225D01*
X175745Y257228D01*
X175749Y257231D01*
X175700Y259481D01*
X175702Y259481D01*
X175751Y257229D01*
X175788Y257182D01*
X175795Y257188D01*
X175800Y257181D01*
X176497Y257181D01*
X177183Y257083D01*
X177674Y256788D01*
X178262Y256396D01*
X178554Y255811D01*
X178753Y255215D01*
X178952Y254519D01*
X179051Y253922D01*
X179058Y253916D01*
X179055Y253911D01*
X179355Y253211D01*
X179366Y253204D01*
X179365Y253195D01*
X179765Y252795D01*
X179791Y252792D01*
X179796Y252785D01*
X179804Y252785D01*
X179807Y252781D01*
X180507Y252881D01*
X180531Y252906D01*
X180544Y252908D01*
X180844Y253508D01*
X180844Y253510D01*
X180844Y253511D01*
X180840Y253528D01*
X180849Y253537D01*
X180749Y254237D01*
X180736Y254250D01*
X180738Y254261D01*
X180343Y254756D01*
X180053Y255431D01*
X180241Y255900D01*
X180827Y256389D01*
X181398Y256674D01*
X181867Y256392D01*
X182258Y255903D01*
X182554Y255312D01*
X182752Y254620D01*
X182851Y253927D01*
X182851Y253237D01*
X182824Y253143D01*
X182810Y253093D01*
X182768Y252946D01*
X182725Y252798D01*
X182711Y252749D01*
X182669Y252601D01*
X182653Y252545D01*
X182456Y251954D01*
X182063Y251463D01*
X181571Y250971D01*
X180985Y250677D01*
X180396Y250579D01*
X179703Y250579D01*
X179015Y250678D01*
X178429Y250971D01*
X177939Y251461D01*
X177644Y251952D01*
X177346Y252647D01*
X177148Y253341D01*
X177049Y253938D01*
X177044Y253942D01*
X177047Y253946D01*
X176847Y254546D01*
X176830Y254557D01*
X176831Y254568D01*
X176331Y254968D01*
X176303Y254969D01*
X176293Y254979D01*
X175593Y254879D01*
X175571Y254857D01*
X175558Y254855D01*
X175258Y254355D01*
X175259Y254341D01*
X175251Y254337D01*
X175151Y253637D01*
X175162Y253617D01*
X175157Y253606D01*
X175557Y252906D01*
X175563Y252903D01*
X175562Y252899D01*
X175960Y252401D01*
X176351Y251815D01*
X176351Y251248D01*
X175867Y250668D01*
X175394Y250384D01*
X174823Y250574D01*
G37*
%LPD*%
%LPC*%
G36*
X175798Y259579D02*
X175798Y259579D01*
X175750Y261781D01*
X180300Y261781D01*
X180347Y261817D01*
X180342Y261824D01*
X180349Y261830D01*
X180349Y263230D01*
X180346Y263234D01*
X180349Y263237D01*
X180249Y263937D01*
X180236Y263950D01*
X180238Y263961D01*
X179438Y264961D01*
X179428Y264963D01*
X179427Y264971D01*
X178827Y265371D01*
X178812Y265370D01*
X178807Y265379D01*
X178107Y265479D01*
X178102Y265476D01*
X178100Y265479D01*
X177400Y265479D01*
X177391Y265472D01*
X177384Y265477D01*
X176784Y265277D01*
X176779Y265269D01*
X176773Y265271D01*
X176173Y264871D01*
X176170Y264864D01*
X176165Y264865D01*
X175765Y264465D01*
X175763Y264452D01*
X175755Y264450D01*
X175370Y263584D01*
X173166Y263871D01*
X173347Y264414D01*
X173545Y265008D01*
X173941Y265603D01*
X174337Y266196D01*
X174831Y266592D01*
X175327Y266988D01*
X175921Y267285D01*
X176614Y267582D01*
X177204Y267681D01*
X178597Y267681D01*
X179285Y267582D01*
X179878Y267286D01*
X180473Y266988D01*
X180967Y266593D01*
X181462Y266099D01*
X181857Y265505D01*
X182154Y264911D01*
X182551Y263722D01*
X182551Y260537D01*
X182549Y260530D01*
X182535Y260481D01*
X182493Y260333D01*
X182450Y260185D01*
X182436Y260136D01*
X182394Y259988D01*
X182357Y259860D01*
X181984Y259579D01*
X175798Y259579D01*
G37*
%LPD*%
%LPC*%
G36*
X88694Y249349D02*
X88694Y249349D01*
X88101Y249448D01*
X87408Y249646D01*
X86819Y249941D01*
X86327Y250433D01*
X85934Y250924D01*
X85738Y251511D01*
X85639Y252203D01*
X85639Y252893D01*
X85655Y252949D01*
X85669Y252998D01*
X85711Y253146D01*
X85712Y253146D01*
X85711Y253146D01*
X85754Y253294D01*
X85768Y253343D01*
X85810Y253491D01*
X85835Y253579D01*
X86227Y254166D01*
X86718Y254560D01*
X87210Y254854D01*
X87902Y255052D01*
X89201Y255352D01*
X89207Y255359D01*
X89212Y255356D01*
X89812Y255656D01*
X89822Y255676D01*
X89834Y255678D01*
X90134Y256278D01*
X90126Y256321D01*
X90128Y256331D01*
X89728Y256831D01*
X89709Y256836D01*
X89706Y256847D01*
X89106Y257047D01*
X89086Y257040D01*
X89076Y257047D01*
X88376Y256847D01*
X88370Y256839D01*
X88363Y256841D01*
X87767Y256444D01*
X87296Y256255D01*
X86726Y256636D01*
X86336Y257219D01*
X86243Y257687D01*
X86724Y258264D01*
X87115Y258557D01*
X87804Y258852D01*
X88497Y258951D01*
X89190Y259050D01*
X89880Y258952D01*
X90574Y258753D01*
X91062Y258558D01*
X91553Y258067D01*
X91948Y257573D01*
X92242Y256985D01*
X92340Y256300D01*
X92242Y255611D01*
X92044Y255019D01*
X91751Y254432D01*
X91263Y254042D01*
X90669Y253745D01*
X89973Y253446D01*
X89279Y253248D01*
X88682Y253149D01*
X88675Y253141D01*
X88668Y253144D01*
X88068Y252844D01*
X88056Y252820D01*
X88043Y252816D01*
X87843Y252216D01*
X87853Y252187D01*
X87848Y252175D01*
X88148Y251675D01*
X88166Y251667D01*
X88168Y251656D01*
X88768Y251356D01*
X88788Y251360D01*
X88797Y251351D01*
X89497Y251451D01*
X89508Y251462D01*
X89517Y251459D01*
X90117Y251859D01*
X90119Y251863D01*
X90122Y251862D01*
X90716Y252357D01*
X91196Y252549D01*
X91864Y252454D01*
X92344Y251878D01*
X92439Y251405D01*
X92148Y250728D01*
X91857Y250437D01*
X91263Y249942D01*
X90671Y249646D01*
X90079Y249448D01*
X89387Y249349D01*
X88694Y249349D01*
G37*
%LPD*%
%LPC*%
G36*
X58588Y184449D02*
X58588Y184449D01*
X57996Y184647D01*
X57402Y184845D01*
X56809Y185240D01*
X56319Y185632D01*
X56026Y186218D01*
X55828Y186910D01*
X55730Y187600D01*
X55828Y188289D01*
X56025Y188878D01*
X56415Y189463D01*
X56903Y189757D01*
X57498Y190054D01*
X58190Y190252D01*
X58887Y190351D01*
X58892Y190356D01*
X58896Y190353D01*
X59496Y190553D01*
X59501Y190561D01*
X59507Y190559D01*
X60107Y190959D01*
X60119Y190992D01*
X60129Y191000D01*
X60129Y191600D01*
X60113Y191621D01*
X60115Y191635D01*
X59615Y192135D01*
X59588Y192139D01*
X59580Y192149D01*
X58880Y192149D01*
X58865Y192138D01*
X58855Y192142D01*
X58355Y191843D01*
X57667Y191449D01*
X57200Y191449D01*
X56718Y191931D01*
X56332Y192511D01*
X56426Y193076D01*
X56911Y193561D01*
X57400Y193854D01*
X58090Y194052D01*
X58783Y194151D01*
X59477Y194151D01*
X60169Y194052D01*
X60764Y193853D01*
X60821Y193872D01*
X60820Y193874D01*
X60822Y193874D01*
X60840Y193904D01*
X60844Y193867D01*
X60854Y193868D01*
X60855Y193858D01*
X61350Y193561D01*
X61839Y193071D01*
X62134Y192481D01*
X62332Y191889D01*
X62430Y191200D01*
X62332Y190515D01*
X62038Y189927D01*
X61645Y189435D01*
X61154Y189043D01*
X60462Y188746D01*
X59867Y188548D01*
X58569Y188248D01*
X58559Y188236D01*
X58549Y188238D01*
X58049Y187838D01*
X58042Y187808D01*
X58031Y187800D01*
X58031Y187100D01*
X58047Y187079D01*
X58045Y187065D01*
X58445Y186665D01*
X58467Y186662D01*
X58473Y186651D01*
X59173Y186551D01*
X59183Y186557D01*
X59191Y186557D01*
X59196Y186553D01*
X59796Y186753D01*
X59802Y186763D01*
X59810Y186761D01*
X61001Y187654D01*
X61472Y187748D01*
X62145Y187363D01*
X62528Y186790D01*
X62434Y186321D01*
X62141Y185930D01*
X61746Y185437D01*
X61154Y185042D01*
X60660Y184746D01*
X59970Y184548D01*
X59277Y184449D01*
X58588Y184449D01*
G37*
%LPD*%
%LPC*%
G36*
X29004Y109649D02*
X29004Y109649D01*
X28411Y109748D01*
X27718Y109946D01*
X27129Y110241D01*
X26637Y110733D01*
X26244Y111224D01*
X26048Y111811D01*
X25949Y112503D01*
X25949Y113292D01*
X26145Y113878D01*
X26537Y114466D01*
X27027Y114858D01*
X27619Y115154D01*
X28213Y115352D01*
X29610Y115652D01*
X29618Y115661D01*
X29625Y115658D01*
X30125Y115958D01*
X30133Y115976D01*
X30144Y115978D01*
X30444Y116578D01*
X30436Y116621D01*
X30438Y116631D01*
X30038Y117131D01*
X30019Y117136D01*
X30016Y117147D01*
X29416Y117347D01*
X29396Y117340D01*
X29386Y117347D01*
X28686Y117147D01*
X28680Y117139D01*
X28673Y117141D01*
X28077Y116744D01*
X27606Y116555D01*
X27036Y116936D01*
X26646Y117519D01*
X26553Y117987D01*
X27034Y118564D01*
X27425Y118857D01*
X28114Y119152D01*
X28807Y119251D01*
X29500Y119350D01*
X30190Y119252D01*
X30884Y119053D01*
X31372Y118858D01*
X31863Y118367D01*
X32258Y117873D01*
X32552Y117285D01*
X32650Y116600D01*
X32552Y115911D01*
X32354Y115319D01*
X32061Y114732D01*
X31573Y114342D01*
X30979Y114045D01*
X30283Y113746D01*
X29589Y113548D01*
X28992Y113449D01*
X28985Y113441D01*
X28978Y113444D01*
X28378Y113144D01*
X28366Y113120D01*
X28353Y113116D01*
X28153Y112516D01*
X28163Y112487D01*
X28158Y112475D01*
X28458Y111975D01*
X28476Y111967D01*
X28478Y111956D01*
X29078Y111656D01*
X29098Y111660D01*
X29107Y111651D01*
X29807Y111751D01*
X29818Y111762D01*
X29827Y111759D01*
X30427Y112159D01*
X30429Y112163D01*
X30432Y112162D01*
X31026Y112657D01*
X31506Y112849D01*
X32174Y112754D01*
X32654Y112178D01*
X32749Y111705D01*
X32458Y111028D01*
X32167Y110737D01*
X31573Y110242D01*
X30981Y109946D01*
X30389Y109748D01*
X29697Y109649D01*
X29004Y109649D01*
G37*
%LPD*%
%LPC*%
G36*
X223260Y200434D02*
X223260Y200434D01*
X222567Y200608D01*
X222063Y201028D01*
X221719Y201457D01*
X221443Y202102D01*
X221162Y202852D01*
X221070Y203584D01*
X221070Y205236D01*
X221162Y205968D01*
X221443Y206718D01*
X221718Y207359D01*
X222147Y207874D01*
X222672Y208224D01*
X223288Y208488D01*
X224087Y208577D01*
X224798Y208488D01*
X225500Y208225D01*
X225922Y207887D01*
X226362Y207359D01*
X226637Y206718D01*
X226918Y205968D01*
X227010Y205236D01*
X227010Y203607D01*
X226628Y202082D01*
X226369Y201477D01*
X225933Y201041D01*
X225408Y200604D01*
X224816Y200434D01*
X223993Y200343D01*
X223260Y200434D01*
G37*
%LPD*%
%LPC*%
G36*
X151849Y261995D02*
X151849Y261995D01*
X151818Y262046D01*
X151816Y262045D01*
X151816Y262047D01*
X150619Y262446D01*
X150025Y262743D01*
X149431Y263138D01*
X148937Y263633D01*
X148542Y264127D01*
X148244Y264722D01*
X147948Y265315D01*
X147849Y266007D01*
X147749Y266703D01*
X147749Y267297D01*
X147848Y267990D01*
X148046Y268781D01*
X148340Y269272D01*
X148733Y269762D01*
X149225Y270058D01*
X149241Y270097D01*
X149249Y270104D01*
X149248Y270120D01*
X149251Y270094D01*
X149281Y270063D01*
X149284Y270053D01*
X149876Y269856D01*
X150459Y269370D01*
X150646Y268902D01*
X150156Y267922D01*
X150157Y267917D01*
X150153Y267916D01*
X149953Y267316D01*
X149957Y267305D01*
X149951Y267300D01*
X149951Y266600D01*
X149954Y266595D01*
X149951Y266592D01*
X150051Y265992D01*
X150061Y265983D01*
X150057Y265976D01*
X150457Y265276D01*
X150463Y265273D01*
X150462Y265269D01*
X150862Y264769D01*
X150876Y264766D01*
X150878Y264756D01*
X151478Y264456D01*
X151483Y264457D01*
X151484Y264453D01*
X152084Y264253D01*
X152095Y264257D01*
X152100Y264251D01*
X152800Y264251D01*
X152804Y264254D01*
X152807Y264251D01*
X153507Y264351D01*
X153518Y264362D01*
X153527Y264359D01*
X154127Y264759D01*
X154128Y264762D01*
X154131Y264762D01*
X154631Y265162D01*
X154635Y265178D01*
X154645Y265181D01*
X154945Y265881D01*
X154945Y265882D01*
X154946Y265882D01*
X154945Y265883D01*
X154945Y265884D01*
X154947Y265884D01*
X155147Y266484D01*
X155143Y266495D01*
X155149Y266500D01*
X155149Y267200D01*
X155143Y267208D01*
X155147Y267214D01*
X154947Y267914D01*
X154940Y267919D01*
X154942Y267925D01*
X154645Y268421D01*
X154452Y268998D01*
X154641Y269470D01*
X155224Y269956D01*
X155889Y270146D01*
X156365Y269765D01*
X156758Y269273D01*
X157054Y268682D01*
X157252Y267990D01*
X157351Y267297D01*
X157351Y266703D01*
X157251Y266008D01*
X157152Y265414D01*
X156855Y264721D01*
X156558Y264127D01*
X156163Y263633D01*
X155667Y263137D01*
X155174Y262743D01*
X154482Y262446D01*
X153884Y262247D01*
X153292Y262049D01*
X151900Y262049D01*
X151853Y262013D01*
X151856Y262009D01*
X151851Y262007D01*
X151848Y261984D01*
X151849Y261995D01*
G37*
%LPD*%
%LPC*%
G36*
X145803Y47419D02*
X145803Y47419D01*
X145114Y47518D01*
X144422Y47814D01*
X143928Y48110D01*
X143442Y48499D01*
X143253Y49068D01*
X143542Y49742D01*
X144024Y50225D01*
X144492Y50318D01*
X145176Y49927D01*
X145178Y49928D01*
X145178Y49926D01*
X145578Y49726D01*
X145589Y49728D01*
X145593Y49721D01*
X146293Y49621D01*
X146298Y49624D01*
X146300Y49621D01*
X146900Y49621D01*
X146908Y49627D01*
X146914Y49623D01*
X147614Y49823D01*
X147620Y49832D01*
X147627Y49829D01*
X148227Y50229D01*
X148231Y50239D01*
X148238Y50239D01*
X148638Y50739D01*
X148639Y50747D01*
X148644Y50748D01*
X148944Y51348D01*
X148942Y51359D01*
X148944Y51361D01*
X148949Y51363D01*
X149049Y52063D01*
X149046Y52068D01*
X149049Y52070D01*
X149049Y52770D01*
X149042Y52779D01*
X149047Y52786D01*
X148847Y53386D01*
X148839Y53391D01*
X148841Y53397D01*
X148441Y53997D01*
X148431Y54001D01*
X148431Y54008D01*
X147931Y54408D01*
X147921Y54409D01*
X147919Y54415D01*
X147219Y54715D01*
X147211Y54713D01*
X147208Y54719D01*
X146608Y54819D01*
X146603Y54816D01*
X146600Y54819D01*
X145900Y54819D01*
X145891Y54812D01*
X145884Y54817D01*
X145284Y54617D01*
X145280Y54611D01*
X145276Y54613D01*
X144582Y54216D01*
X144212Y54124D01*
X143735Y54505D01*
X143249Y55088D01*
X143249Y55750D01*
X143631Y56132D01*
X144225Y56527D01*
X144815Y56822D01*
X145507Y56921D01*
X146203Y57021D01*
X146797Y57021D01*
X147489Y56922D01*
X148082Y56724D01*
X148779Y56425D01*
X149371Y56129D01*
X149863Y55637D01*
X150658Y54643D01*
X150954Y54052D01*
X151152Y53359D01*
X151251Y52766D01*
X151251Y52070D01*
X151287Y52023D01*
X151294Y52028D01*
X151300Y52021D01*
X151330Y52021D01*
X151298Y52019D01*
X151253Y51982D01*
X151252Y51981D01*
X151254Y51979D01*
X151251Y51978D01*
X151151Y51378D01*
X151152Y51377D01*
X151151Y51377D01*
X151052Y50685D01*
X150756Y50092D01*
X150458Y49497D01*
X150063Y49003D01*
X149569Y48508D01*
X148975Y48113D01*
X148381Y47816D01*
X147785Y47617D01*
X147093Y47419D01*
X145803Y47419D01*
G37*
%LPD*%
%LPC*%
G36*
X40007Y184547D02*
X40007Y184547D01*
X39727Y184920D01*
X39629Y185603D01*
X39629Y187600D01*
X39616Y187618D01*
X39619Y187630D01*
X39319Y188030D01*
X39288Y188039D01*
X39280Y188049D01*
X36496Y188049D01*
X36123Y188330D01*
X35930Y189004D01*
X36027Y189777D01*
X36404Y190154D01*
X36984Y190251D01*
X39080Y190251D01*
X39091Y190259D01*
X39098Y190254D01*
X39598Y190454D01*
X39613Y190479D01*
X39619Y190483D01*
X39617Y190485D01*
X39623Y190495D01*
X39629Y190500D01*
X39629Y191100D01*
X39622Y191109D01*
X39627Y191116D01*
X39427Y191716D01*
X39383Y191746D01*
X39380Y191749D01*
X35284Y191749D01*
X34717Y191844D01*
X34529Y192408D01*
X34529Y193191D01*
X34717Y193661D01*
X35291Y193852D01*
X36182Y193951D01*
X40975Y193851D01*
X41545Y193756D01*
X41732Y193288D01*
X41831Y192497D01*
X41831Y185703D01*
X41732Y185015D01*
X41546Y184641D01*
X40876Y184450D01*
X40007Y184547D01*
G37*
%LPD*%
%LPC*%
G36*
X84307Y224047D02*
X84307Y224047D01*
X84027Y224420D01*
X83929Y225103D01*
X83929Y226400D01*
X83897Y226443D01*
X83896Y226447D01*
X83296Y226647D01*
X83285Y226643D01*
X83280Y226649D01*
X81980Y226649D01*
X81951Y226627D01*
X81938Y226626D01*
X81438Y225826D01*
X81439Y225821D01*
X81435Y225820D01*
X80741Y224234D01*
X80270Y223952D01*
X79697Y224047D01*
X79016Y224436D01*
X78733Y224907D01*
X78742Y224939D01*
X78784Y225086D01*
X78785Y225086D01*
X78784Y225086D01*
X78827Y225234D01*
X78841Y225283D01*
X78883Y225431D01*
X78925Y225579D01*
X78926Y225580D01*
X79222Y226075D01*
X79222Y226080D01*
X79225Y226081D01*
X79725Y227281D01*
X79721Y227300D01*
X79724Y227303D01*
X79723Y227304D01*
X79728Y227310D01*
X79628Y227810D01*
X79616Y227821D01*
X79618Y227831D01*
X79222Y228327D01*
X78928Y228915D01*
X78829Y229603D01*
X78829Y230297D01*
X78928Y230985D01*
X79223Y231575D01*
X79590Y232126D01*
X81223Y230685D01*
X81033Y230116D01*
X81038Y230100D01*
X81031Y230093D01*
X81131Y229393D01*
X81150Y229375D01*
X81149Y229362D01*
X81649Y228962D01*
X81667Y228961D01*
X81672Y228951D01*
X82272Y228851D01*
X82277Y228854D01*
X82280Y228851D01*
X83680Y228851D01*
X83701Y228867D01*
X83715Y228865D01*
X83915Y229065D01*
X83916Y229076D01*
X83919Y229092D01*
X83929Y229100D01*
X83929Y231059D01*
X86131Y231481D01*
X86131Y225204D01*
X86032Y224613D01*
X85843Y224141D01*
X85176Y223950D01*
X84307Y224047D01*
G37*
%LPD*%
%LPC*%
G36*
X24895Y68249D02*
X24895Y68249D01*
X24619Y68616D01*
X24619Y69275D01*
X24986Y69551D01*
X53640Y69551D01*
X52990Y68249D01*
X24895Y68249D01*
G37*
%LPD*%
%LPC*%
G36*
X206730Y261139D02*
X206730Y261139D01*
X206723Y261137D01*
X206722Y261144D01*
X206122Y261444D01*
X199422Y264744D01*
X198837Y265037D01*
X198549Y265612D01*
X198549Y266286D01*
X198837Y266765D01*
X199425Y267157D01*
X206118Y270454D01*
X206807Y270651D01*
X207280Y270651D01*
X207758Y270172D01*
X207951Y269691D01*
X207951Y269117D01*
X207571Y268642D01*
X206984Y268447D01*
X206982Y268443D01*
X206979Y268445D01*
X201979Y266145D01*
X201973Y266134D01*
X201965Y266135D01*
X201665Y265835D01*
X201665Y265833D01*
X201664Y265833D01*
X201664Y265829D01*
X201657Y265776D01*
X201675Y265773D01*
X201678Y265756D01*
X202278Y265456D01*
X202280Y265456D01*
X202280Y265455D01*
X206879Y263456D01*
X207474Y263158D01*
X207858Y262870D01*
X208047Y262302D01*
X207758Y261628D01*
X207280Y261149D01*
X206800Y261149D01*
X206765Y261123D01*
X206755Y261120D01*
X206743Y261093D01*
X206730Y261139D01*
G37*
%LPD*%
%LPC*%
G36*
X244830Y38889D02*
X244830Y38889D01*
X244823Y38887D01*
X244822Y38894D01*
X244222Y39194D01*
X237522Y42494D01*
X236937Y42787D01*
X236649Y43362D01*
X236649Y44036D01*
X236937Y44515D01*
X237525Y44907D01*
X244218Y48204D01*
X244907Y48401D01*
X245380Y48401D01*
X245858Y47922D01*
X246051Y47441D01*
X246051Y46867D01*
X245671Y46392D01*
X245084Y46197D01*
X245082Y46193D01*
X245079Y46195D01*
X240079Y43895D01*
X240073Y43884D01*
X240065Y43885D01*
X239765Y43585D01*
X239765Y43583D01*
X239764Y43583D01*
X239764Y43579D01*
X239757Y43526D01*
X239775Y43523D01*
X239778Y43506D01*
X240378Y43206D01*
X240380Y43206D01*
X240380Y43205D01*
X244979Y41206D01*
X245574Y40908D01*
X245958Y40620D01*
X246147Y40052D01*
X245858Y39378D01*
X245380Y38899D01*
X244900Y38899D01*
X244865Y38873D01*
X244855Y38870D01*
X244843Y38843D01*
X244830Y38889D01*
G37*
%LPD*%
%LPC*%
G36*
X39784Y211249D02*
X39784Y211249D01*
X39305Y211537D01*
X38913Y212125D01*
X35616Y218818D01*
X35419Y219507D01*
X35419Y219980D01*
X35898Y220458D01*
X36379Y220651D01*
X36953Y220651D01*
X37428Y220271D01*
X37623Y219684D01*
X37627Y219682D01*
X37625Y219679D01*
X39925Y214679D01*
X39936Y214673D01*
X39935Y214665D01*
X40235Y214365D01*
X40237Y214365D01*
X40237Y214364D01*
X40241Y214364D01*
X40294Y214357D01*
X40297Y214375D01*
X40314Y214378D01*
X40614Y214978D01*
X40614Y214980D01*
X40615Y214980D01*
X42614Y219579D01*
X42912Y220174D01*
X43200Y220558D01*
X43768Y220747D01*
X44442Y220458D01*
X44921Y219980D01*
X44921Y219500D01*
X44947Y219465D01*
X44950Y219455D01*
X44977Y219443D01*
X44967Y219443D01*
X44961Y219438D01*
X44931Y219430D01*
X44933Y219423D01*
X44926Y219422D01*
X44626Y218822D01*
X41326Y212122D01*
X41033Y211537D01*
X40458Y211249D01*
X39784Y211249D01*
G37*
%LPD*%
%LPC*%
G36*
X45297Y184547D02*
X45297Y184547D01*
X44616Y184936D01*
X44332Y185410D01*
X44427Y185985D01*
X47921Y193371D01*
X48407Y193857D01*
X48980Y194048D01*
X49553Y193857D01*
X50039Y193371D01*
X52554Y188127D01*
X49815Y188544D01*
X49626Y189018D01*
X49625Y189019D01*
X49125Y190219D01*
X49122Y190221D01*
X49123Y190224D01*
X49115Y190225D01*
X49074Y190249D01*
X49064Y190232D01*
X49045Y190235D01*
X48945Y190135D01*
X48944Y190123D01*
X48936Y190122D01*
X48336Y188922D01*
X48339Y188906D01*
X48331Y188900D01*
X48331Y188500D01*
X48367Y188453D01*
X48374Y188458D01*
X48380Y188451D01*
X49650Y188451D01*
X50598Y186649D01*
X47380Y186649D01*
X47355Y186630D01*
X47342Y186631D01*
X46942Y186131D01*
X46941Y186122D01*
X46935Y186121D01*
X46340Y184831D01*
X45866Y184452D01*
X45297Y184547D01*
G37*
%LPD*%
%LPC*%
G36*
X177150Y273396D02*
X177150Y273396D01*
X178418Y273884D01*
X178431Y273906D01*
X178444Y273908D01*
X178644Y274308D01*
X178633Y274366D01*
X178624Y274365D01*
X178622Y274374D01*
X177422Y274974D01*
X177384Y274967D01*
X177373Y274971D01*
X177073Y274771D01*
X177061Y274738D01*
X177051Y274730D01*
X177051Y273463D01*
X175249Y272704D01*
X175249Y276030D01*
X175224Y276063D01*
X175222Y276074D01*
X174022Y276674D01*
X173435Y276968D01*
X173152Y277440D01*
X173247Y278013D01*
X173636Y278694D01*
X174106Y278976D01*
X174681Y278784D01*
X182051Y275299D01*
X182051Y275230D01*
X182070Y275205D01*
X182069Y275192D01*
X182554Y274804D01*
X182650Y274135D01*
X182458Y273559D01*
X181974Y273172D01*
X177194Y270889D01*
X177150Y273396D01*
G37*
%LPD*%
%LPC*%
G36*
X30487Y57449D02*
X30487Y57449D01*
X30016Y57827D01*
X29919Y58405D01*
X29819Y64501D01*
X29816Y64505D01*
X29819Y64508D01*
X29719Y65108D01*
X29675Y65149D01*
X29673Y65146D01*
X29670Y65149D01*
X26987Y65149D01*
X26519Y65524D01*
X26519Y66196D01*
X26614Y66763D01*
X27178Y66951D01*
X33967Y66951D01*
X34856Y66852D01*
X35421Y66570D01*
X35421Y65904D01*
X35326Y65337D01*
X34762Y65149D01*
X32670Y65149D01*
X32665Y65146D01*
X32662Y65149D01*
X32062Y65049D01*
X32021Y65005D01*
X32024Y65003D01*
X32021Y65000D01*
X32021Y58208D01*
X31831Y57639D01*
X31262Y57449D01*
X30487Y57449D01*
G37*
%LPD*%
%LPC*%
G36*
X30219Y84249D02*
X30219Y84249D01*
X29750Y84437D01*
X29559Y85008D01*
X29559Y91200D01*
X29556Y91205D01*
X29559Y91208D01*
X29459Y91808D01*
X29415Y91849D01*
X29413Y91846D01*
X29410Y91849D01*
X26724Y91849D01*
X26255Y92130D01*
X26160Y92799D01*
X26255Y93370D01*
X26724Y93651D01*
X34496Y93651D01*
X34969Y93367D01*
X35163Y92784D01*
X35191Y92765D01*
X35196Y92753D01*
X35218Y92746D01*
X35167Y92724D01*
X35170Y92718D01*
X35163Y92716D01*
X34969Y92133D01*
X34496Y91849D01*
X31710Y91849D01*
X31663Y91813D01*
X31668Y91806D01*
X31661Y91800D01*
X31661Y85004D01*
X31566Y84437D01*
X31002Y84249D01*
X30219Y84249D01*
G37*
%LPD*%
%LPC*%
G36*
X193735Y29880D02*
X193735Y29880D01*
X193449Y30452D01*
X193449Y33140D01*
X193413Y33187D01*
X193406Y33182D01*
X193400Y33189D01*
X186608Y33189D01*
X186037Y33380D01*
X185849Y33849D01*
X185849Y34626D01*
X186133Y35099D01*
X186708Y35291D01*
X192800Y35291D01*
X192805Y35294D01*
X192808Y35291D01*
X193408Y35391D01*
X193449Y35435D01*
X193446Y35438D01*
X193449Y35440D01*
X193449Y38126D01*
X193730Y38595D01*
X194400Y38690D01*
X195063Y38596D01*
X195251Y38032D01*
X195251Y30340D01*
X195278Y30305D01*
X195280Y30295D01*
X195307Y30283D01*
X195261Y30270D01*
X195262Y30266D01*
X195258Y30265D01*
X194970Y29785D01*
X194305Y29690D01*
X193735Y29880D01*
G37*
%LPD*%
%LPC*%
G36*
X41574Y160449D02*
X41574Y160449D01*
X41101Y160733D01*
X40909Y161308D01*
X40909Y167400D01*
X40906Y167405D01*
X40909Y167408D01*
X40809Y168008D01*
X40765Y168049D01*
X40763Y168046D01*
X40760Y168049D01*
X38074Y168049D01*
X37605Y168330D01*
X37510Y169000D01*
X37604Y169663D01*
X38168Y169851D01*
X45860Y169851D01*
X45895Y169878D01*
X45905Y169880D01*
X45917Y169907D01*
X45930Y169861D01*
X45934Y169862D01*
X45935Y169858D01*
X46415Y169570D01*
X46510Y168905D01*
X46320Y168335D01*
X45748Y168049D01*
X43060Y168049D01*
X43013Y168013D01*
X43018Y168006D01*
X43011Y168000D01*
X43011Y161208D01*
X42821Y160637D01*
X42351Y160449D01*
X41574Y160449D01*
G37*
%LPD*%
G36*
X317701Y12669D02*
X317701Y12669D01*
X317708Y12664D01*
X318208Y12864D01*
X318220Y12883D01*
X318232Y12885D01*
X318532Y13385D01*
X318530Y13403D01*
X318539Y13410D01*
X318539Y14310D01*
X318530Y14323D01*
X318534Y14332D01*
X318234Y14932D01*
X318204Y14947D01*
X318198Y14959D01*
X317598Y15059D01*
X317593Y15056D01*
X317590Y15059D01*
X310939Y15059D01*
X310939Y18410D01*
X310936Y18414D01*
X310939Y18417D01*
X310839Y19117D01*
X310820Y19135D01*
X310821Y19148D01*
X310321Y19548D01*
X310299Y19549D01*
X310294Y19556D01*
X310293Y19556D01*
X310290Y19559D01*
X309590Y19559D01*
X309585Y19556D01*
X309584Y19556D01*
X309574Y19548D01*
X309565Y19552D01*
X309065Y19252D01*
X309057Y19234D01*
X309044Y19224D01*
X309047Y19221D01*
X309041Y19218D01*
X308941Y18618D01*
X308944Y18613D01*
X308941Y18610D01*
X308941Y13810D01*
X308944Y13806D01*
X308941Y13803D01*
X309041Y13103D01*
X309060Y13084D01*
X309060Y13071D01*
X309460Y12771D01*
X309478Y12771D01*
X309483Y12761D01*
X310183Y12661D01*
X310188Y12664D01*
X310190Y12661D01*
X317690Y12661D01*
X317701Y12669D01*
G37*
%LPC*%
G36*
X149003Y272449D02*
X149003Y272449D01*
X148313Y272548D01*
X147845Y272735D01*
X147749Y273403D01*
X147749Y278197D01*
X147845Y278870D01*
X148314Y279151D01*
X148983Y279151D01*
X149454Y278774D01*
X149551Y278097D01*
X149551Y274700D01*
X149587Y274653D01*
X149594Y274658D01*
X149600Y274651D01*
X156196Y274651D01*
X156770Y274555D01*
X157052Y274084D01*
X157150Y273305D01*
X156959Y272733D01*
X156486Y272449D01*
X149003Y272449D01*
G37*
%LPD*%
%LPC*%
G36*
X154208Y51419D02*
X154208Y51419D01*
X153637Y51610D01*
X153448Y52082D01*
X153352Y52852D01*
X153723Y53224D01*
X154403Y53321D01*
X155100Y53321D01*
X155147Y53357D01*
X155142Y53364D01*
X155149Y53370D01*
X155149Y53470D01*
X155127Y53500D01*
X155125Y53512D01*
X154631Y53809D01*
X154138Y54301D01*
X153747Y54888D01*
X153649Y55573D01*
X153649Y56262D01*
X153846Y56851D01*
X154139Y57438D01*
X154627Y57828D01*
X155218Y58124D01*
X155907Y58321D01*
X156592Y58321D01*
X157178Y58125D01*
X157766Y57733D01*
X158158Y57243D01*
X158454Y56651D01*
X158650Y56065D01*
X158553Y55387D01*
X158272Y54919D01*
X157514Y54919D01*
X157041Y55203D01*
X156847Y55786D01*
X156842Y55789D01*
X156844Y55792D01*
X156544Y56392D01*
X156514Y56407D01*
X156508Y56419D01*
X155908Y56519D01*
X155878Y56503D01*
X155865Y56505D01*
X155365Y56005D01*
X155361Y55972D01*
X155359Y55971D01*
X155360Y55969D01*
X155358Y55952D01*
X155356Y55948D01*
X155656Y55348D01*
X155663Y55345D01*
X155662Y55339D01*
X156062Y54839D01*
X156072Y54837D01*
X156073Y54829D01*
X156673Y54429D01*
X156677Y54429D01*
X156678Y54426D01*
X157275Y54127D01*
X157871Y53730D01*
X158361Y53338D01*
X158649Y52762D01*
X158553Y52090D01*
X158171Y51612D01*
X157592Y51419D01*
X154208Y51419D01*
G37*
%LPD*%
%LPC*%
G36*
X109698Y249349D02*
X109698Y249349D01*
X109127Y249540D01*
X108938Y250013D01*
X108839Y250703D01*
X108839Y251400D01*
X108835Y251406D01*
X108838Y251410D01*
X108738Y251910D01*
X108694Y251949D01*
X108692Y251947D01*
X108690Y251949D01*
X106697Y251949D01*
X106008Y252146D01*
X105463Y252419D01*
X106711Y254244D01*
X107078Y254152D01*
X107086Y254156D01*
X107090Y254151D01*
X108390Y254151D01*
X108408Y254164D01*
X108420Y254161D01*
X108820Y254461D01*
X108829Y254492D01*
X108839Y254500D01*
X108839Y256485D01*
X110330Y258695D01*
X110671Y258653D01*
X111041Y258375D01*
X111041Y250204D01*
X110945Y249628D01*
X110574Y249349D01*
X109698Y249349D01*
G37*
%LPD*%
%LPC*%
G36*
X50008Y109649D02*
X50008Y109649D01*
X49437Y109840D01*
X49249Y110311D01*
X49149Y111704D01*
X49146Y111707D01*
X49148Y111710D01*
X49048Y112210D01*
X49004Y112249D01*
X49002Y112247D01*
X49000Y112249D01*
X47007Y112249D01*
X46318Y112446D01*
X45773Y112719D01*
X47021Y114544D01*
X47388Y114452D01*
X47396Y114456D01*
X47400Y114451D01*
X48700Y114451D01*
X48718Y114464D01*
X48730Y114461D01*
X49130Y114761D01*
X49139Y114792D01*
X49149Y114800D01*
X49149Y116785D01*
X50640Y118995D01*
X50977Y118953D01*
X51351Y118580D01*
X51351Y110504D01*
X51255Y109928D01*
X50884Y109649D01*
X50008Y109649D01*
G37*
%LPD*%
%LPC*%
G36*
X152316Y148847D02*
X152316Y148847D01*
X152314Y148846D01*
X152314Y148847D01*
X151630Y149043D01*
X151144Y149723D01*
X150848Y150612D01*
X150649Y151904D01*
X150649Y153398D01*
X150746Y154661D01*
X150790Y154652D01*
X150844Y154677D01*
X150841Y154683D01*
X150847Y154686D01*
X151144Y155676D01*
X151630Y156259D01*
X152310Y156551D01*
X152987Y156551D01*
X153664Y156164D01*
X154054Y155481D01*
X154351Y154392D01*
X154451Y152998D01*
X154451Y151504D01*
X154252Y150314D01*
X153860Y149431D01*
X153276Y148944D01*
X152601Y148752D01*
X152316Y148847D01*
G37*
%LPD*%
%LPC*%
G36*
X108688Y223949D02*
X108688Y223949D01*
X108119Y224139D01*
X107929Y224708D01*
X107929Y226100D01*
X107920Y226113D01*
X107924Y226122D01*
X107724Y226522D01*
X107687Y226541D01*
X107680Y226549D01*
X106284Y226549D01*
X105688Y226649D01*
X105144Y226739D01*
X105813Y228841D01*
X106168Y228752D01*
X106176Y228756D01*
X106180Y228751D01*
X107580Y228751D01*
X107601Y228767D01*
X107615Y228765D01*
X107915Y229065D01*
X107916Y229076D01*
X107919Y229092D01*
X107929Y229100D01*
X107929Y231085D01*
X109420Y233295D01*
X109757Y233253D01*
X110131Y232880D01*
X110131Y224804D01*
X110035Y224231D01*
X109566Y223949D01*
X108688Y223949D01*
G37*
%LPD*%
%LPC*%
G36*
X36225Y112843D02*
X36225Y112843D01*
X35634Y113237D01*
X35242Y113727D01*
X34946Y114318D01*
X34748Y115010D01*
X34649Y115703D01*
X34649Y116300D01*
X34613Y116347D01*
X34610Y116345D01*
X34608Y116349D01*
X34416Y116379D01*
X34695Y116351D01*
X34746Y116382D01*
X34744Y116385D01*
X34747Y116386D01*
X34751Y116401D01*
X34752Y116401D01*
X34751Y116401D01*
X34794Y116549D01*
X34808Y116598D01*
X34850Y116746D01*
X34892Y116893D01*
X34906Y116943D01*
X34945Y117079D01*
X35338Y117669D01*
X35733Y118063D01*
X36327Y118559D01*
X36918Y118854D01*
X37607Y119051D01*
X40897Y119051D01*
X41670Y118954D01*
X41951Y118486D01*
X41951Y116298D01*
X39741Y116348D01*
X39648Y116810D01*
X39604Y116849D01*
X39602Y116847D01*
X39600Y116849D01*
X38200Y116849D01*
X38195Y116846D01*
X38192Y116849D01*
X37592Y116749D01*
X37577Y116733D01*
X37565Y116735D01*
X37065Y116235D01*
X37063Y116219D01*
X37053Y116216D01*
X36853Y115616D01*
X36861Y115592D01*
X36855Y115581D01*
X37155Y114881D01*
X37170Y114872D01*
X37169Y114862D01*
X37639Y114485D01*
X36776Y112567D01*
X36225Y112843D01*
G37*
%LPD*%
%LPC*%
G36*
X95915Y252543D02*
X95915Y252543D01*
X95324Y252937D01*
X94932Y253427D01*
X94636Y254018D01*
X94438Y254710D01*
X94339Y255403D01*
X94339Y255958D01*
X94383Y255951D01*
X94435Y255980D01*
X94432Y255985D01*
X94437Y255986D01*
X94456Y256052D01*
X94498Y256199D01*
X94512Y256249D01*
X94554Y256396D01*
X94555Y256396D01*
X94554Y256396D01*
X94597Y256544D01*
X94611Y256593D01*
X94635Y256679D01*
X95030Y257271D01*
X95425Y257765D01*
X96017Y258259D01*
X96608Y258554D01*
X97297Y258751D01*
X100587Y258751D01*
X101360Y258654D01*
X101641Y258186D01*
X101641Y255998D01*
X99431Y256048D01*
X99338Y256510D01*
X99294Y256549D01*
X99292Y256547D01*
X99290Y256549D01*
X97890Y256549D01*
X97885Y256546D01*
X97882Y256549D01*
X97282Y256449D01*
X97267Y256433D01*
X97255Y256435D01*
X96755Y255935D01*
X96753Y255919D01*
X96743Y255916D01*
X96543Y255316D01*
X96551Y255292D01*
X96545Y255281D01*
X96845Y254581D01*
X96860Y254572D01*
X96859Y254562D01*
X97329Y254185D01*
X96466Y252267D01*
X95915Y252543D01*
G37*
%LPD*%
G36*
X212217Y176264D02*
X212217Y176264D01*
X212229Y176260D01*
X212929Y176760D01*
X212934Y176777D01*
X212937Y176779D01*
X212935Y176781D01*
X212937Y176788D01*
X212949Y176795D01*
X213049Y177795D01*
X213045Y177801D01*
X213049Y177805D01*
X212949Y178805D01*
X212927Y178828D01*
X212926Y178842D01*
X212126Y179342D01*
X212107Y179340D01*
X212100Y179349D01*
X207000Y179349D01*
X206994Y179345D01*
X206990Y179348D01*
X205990Y179148D01*
X205969Y179125D01*
X205956Y179122D01*
X205556Y178322D01*
X205559Y178306D01*
X205551Y178300D01*
X205551Y177200D01*
X205560Y177187D01*
X205556Y177178D01*
X205956Y176378D01*
X205988Y176362D01*
X205995Y176351D01*
X206995Y176251D01*
X206998Y176253D01*
X207000Y176251D01*
X212200Y176251D01*
X212217Y176264D01*
G37*
G36*
X195917Y150864D02*
X195917Y150864D01*
X195929Y150860D01*
X196629Y151360D01*
X196634Y151377D01*
X196637Y151379D01*
X196635Y151381D01*
X196637Y151388D01*
X196649Y151395D01*
X196749Y152395D01*
X196743Y152404D01*
X196748Y152410D01*
X196548Y153410D01*
X196529Y153427D01*
X196529Y153440D01*
X195829Y153940D01*
X195807Y153939D01*
X195800Y153949D01*
X190700Y153949D01*
X190694Y153945D01*
X190690Y153948D01*
X189690Y153748D01*
X189669Y153725D01*
X189656Y153722D01*
X189256Y152922D01*
X189259Y152906D01*
X189251Y152900D01*
X189251Y151800D01*
X189260Y151787D01*
X189256Y151778D01*
X189656Y150978D01*
X189688Y150962D01*
X189695Y150951D01*
X190695Y150851D01*
X190698Y150853D01*
X190700Y150851D01*
X195900Y150851D01*
X195917Y150864D01*
G37*
%LPC*%
G36*
X47919Y84249D02*
X47919Y84249D01*
X47450Y84437D01*
X47259Y85008D01*
X47259Y92497D01*
X47357Y93181D01*
X47637Y93554D01*
X48410Y93650D01*
X49180Y93554D01*
X49461Y93086D01*
X49461Y85005D01*
X49366Y84533D01*
X48798Y84249D01*
X47919Y84249D01*
G37*
%LPD*%
%LPC*%
G36*
X161214Y47419D02*
X161214Y47419D01*
X160741Y47703D01*
X160549Y48278D01*
X160549Y55766D01*
X160646Y56346D01*
X161023Y56723D01*
X161895Y56820D01*
X162484Y56623D01*
X162541Y56642D01*
X162538Y56649D01*
X162546Y56651D01*
X162556Y56678D01*
X162561Y56663D01*
X162554Y56652D01*
X162751Y56161D01*
X162751Y48079D01*
X162563Y47610D01*
X161992Y47419D01*
X161214Y47419D01*
G37*
%LPD*%
%LPC*%
G36*
X40414Y109649D02*
X40414Y109649D01*
X39941Y109933D01*
X39749Y110508D01*
X39749Y111800D01*
X39736Y111818D01*
X39739Y111830D01*
X39439Y112230D01*
X39408Y112239D01*
X39400Y112249D01*
X38103Y112249D01*
X37411Y112348D01*
X36867Y112529D01*
X37732Y114451D01*
X39500Y114451D01*
X39533Y114476D01*
X39544Y114478D01*
X39744Y114878D01*
X39741Y114894D01*
X39749Y114900D01*
X39749Y116250D01*
X41951Y116200D01*
X41951Y110404D01*
X41856Y109837D01*
X41292Y109649D01*
X40414Y109649D01*
G37*
%LPD*%
%LPC*%
G36*
X100099Y249349D02*
X100099Y249349D01*
X99631Y249537D01*
X99439Y250207D01*
X99439Y251500D01*
X99426Y251518D01*
X99429Y251530D01*
X99129Y251930D01*
X99098Y251939D01*
X99090Y251949D01*
X97793Y251949D01*
X97101Y252048D01*
X96557Y252229D01*
X97422Y254151D01*
X99190Y254151D01*
X99223Y254176D01*
X99234Y254178D01*
X99434Y254578D01*
X99431Y254594D01*
X99439Y254600D01*
X99439Y255851D01*
X101641Y255851D01*
X101641Y250105D01*
X101546Y249633D01*
X100978Y249349D01*
X100099Y249349D01*
G37*
%LPD*%
%LPC*%
G36*
X104407Y227142D02*
X104407Y227142D01*
X103913Y227537D01*
X103421Y228029D01*
X103126Y228619D01*
X102928Y229211D01*
X102829Y229903D01*
X102829Y230590D01*
X103125Y231279D01*
X103421Y231871D01*
X103911Y232362D01*
X104507Y232759D01*
X105098Y233153D01*
X105688Y233251D01*
X106284Y233351D01*
X108977Y233351D01*
X109265Y233315D01*
X107754Y231149D01*
X106480Y231149D01*
X106475Y231146D01*
X106472Y231149D01*
X105872Y231049D01*
X105862Y231038D01*
X105853Y231041D01*
X105253Y230641D01*
X105245Y230618D01*
X105233Y230614D01*
X105033Y229914D01*
X105040Y229894D01*
X105033Y229884D01*
X105233Y229284D01*
X105250Y229273D01*
X105249Y229262D01*
X105721Y228884D01*
X104953Y226868D01*
X104407Y227142D01*
G37*
%LPD*%
%LPC*%
G36*
X45134Y113137D02*
X45134Y113137D01*
X44740Y113629D01*
X44345Y114222D01*
X44149Y114808D01*
X44149Y116193D01*
X44180Y116302D01*
X44181Y116302D01*
X44180Y116302D01*
X44223Y116450D01*
X44237Y116499D01*
X44279Y116647D01*
X44321Y116795D01*
X44335Y116844D01*
X44346Y116882D01*
X44642Y117473D01*
X45135Y118065D01*
X45627Y118458D01*
X46218Y118754D01*
X46911Y118952D01*
X47504Y119051D01*
X50197Y119051D01*
X50530Y119009D01*
X49074Y116849D01*
X47800Y116849D01*
X47796Y116846D01*
X47793Y116849D01*
X47093Y116749D01*
X47080Y116736D01*
X47069Y116738D01*
X46569Y116338D01*
X46564Y116319D01*
X46553Y116316D01*
X46353Y115716D01*
X46358Y115700D01*
X46351Y115693D01*
X46451Y114993D01*
X46470Y114975D01*
X46469Y114962D01*
X46934Y114590D01*
X45687Y112768D01*
X45134Y113137D01*
G37*
%LPD*%
%LPC*%
G36*
X104824Y252837D02*
X104824Y252837D01*
X104430Y253329D01*
X104035Y253922D01*
X103839Y254508D01*
X103839Y255893D01*
X103870Y256002D01*
X103871Y256002D01*
X103870Y256002D01*
X103913Y256150D01*
X103927Y256199D01*
X103969Y256347D01*
X104011Y256495D01*
X104025Y256544D01*
X104036Y256582D01*
X104331Y257171D01*
X105319Y258159D01*
X105909Y258454D01*
X106501Y258652D01*
X107193Y258751D01*
X109887Y258751D01*
X110220Y258709D01*
X108764Y256549D01*
X107490Y256549D01*
X107486Y256546D01*
X107483Y256549D01*
X106783Y256449D01*
X106773Y256439D01*
X106765Y256442D01*
X106265Y256142D01*
X106255Y256118D01*
X106243Y256114D01*
X106043Y255414D01*
X106048Y255400D01*
X106041Y255393D01*
X106141Y254693D01*
X106160Y254675D01*
X106159Y254662D01*
X106624Y254290D01*
X105377Y252468D01*
X104824Y252837D01*
G37*
%LPD*%
%LPC*%
G36*
X209428Y199940D02*
X209428Y199940D01*
X208965Y200033D01*
X208933Y200032D01*
X208890Y200040D01*
X208480Y200040D01*
X208160Y200200D01*
X208127Y200208D01*
X208082Y200229D01*
X207746Y200313D01*
X207532Y200456D01*
X207386Y200602D01*
X207206Y200871D01*
X207184Y200892D01*
X207159Y200929D01*
X207022Y201065D01*
X206851Y201580D01*
X206838Y201600D01*
X206830Y201630D01*
X206742Y201806D01*
X206670Y202022D01*
X206670Y203645D01*
X206920Y203520D01*
X206935Y203516D01*
X206948Y203507D01*
X207082Y203481D01*
X207089Y203480D01*
X207090Y203480D01*
X207200Y203480D01*
X207320Y203420D01*
X207335Y203416D01*
X207348Y203407D01*
X207482Y203381D01*
X207489Y203380D01*
X207490Y203380D01*
X207800Y203380D01*
X207920Y203320D01*
X207935Y203316D01*
X207948Y203307D01*
X208082Y203281D01*
X208089Y203280D01*
X208090Y203280D01*
X208228Y203280D01*
X208470Y203199D01*
X208507Y203196D01*
X208590Y203180D01*
X208928Y203180D01*
X209170Y203099D01*
X209207Y203096D01*
X209290Y203080D01*
X209600Y203080D01*
X209720Y203020D01*
X209735Y203016D01*
X209748Y203007D01*
X209882Y202981D01*
X209889Y202980D01*
X209890Y202980D01*
X210028Y202980D01*
X210244Y202908D01*
X210365Y202848D01*
X210421Y202791D01*
X210453Y202771D01*
X210520Y202720D01*
X210865Y202548D01*
X210921Y202491D01*
X210953Y202471D01*
X211020Y202420D01*
X211107Y202377D01*
X211310Y201970D01*
X211310Y201860D01*
X211313Y201845D01*
X211311Y201830D01*
X211348Y201698D01*
X211349Y201691D01*
X211350Y201691D01*
X211350Y201690D01*
X211410Y201570D01*
X211410Y201222D01*
X211329Y200980D01*
X211326Y200943D01*
X211310Y200860D01*
X211310Y200750D01*
X211278Y200685D01*
X211221Y200629D01*
X211213Y200615D01*
X211210Y200613D01*
X211207Y200605D01*
X211201Y200597D01*
X211150Y200530D01*
X211107Y200443D01*
X211020Y200400D01*
X210991Y200376D01*
X210921Y200329D01*
X210865Y200273D01*
X210600Y200140D01*
X210490Y200140D01*
X210475Y200137D01*
X210460Y200139D01*
X210328Y200102D01*
X210321Y200101D01*
X210321Y200100D01*
X210320Y200100D01*
X210200Y200040D01*
X210090Y200040D01*
X210075Y200037D01*
X210060Y200039D01*
X209928Y200002D01*
X209921Y200001D01*
X209921Y200000D01*
X209920Y200000D01*
X209845Y199963D01*
X209800Y199940D01*
X209428Y199940D01*
G37*
%LPD*%
%LPC*%
G36*
X79660Y232201D02*
X79660Y232201D01*
X80109Y232560D01*
X80705Y232957D01*
X81299Y233254D01*
X81888Y233451D01*
X85372Y233451D01*
X85941Y233261D01*
X86131Y232692D01*
X86131Y231629D01*
X83878Y231150D01*
X83187Y231249D01*
X83182Y231246D01*
X83180Y231249D01*
X82580Y231249D01*
X82576Y231246D01*
X82573Y231249D01*
X81873Y231149D01*
X81863Y231139D01*
X81855Y231142D01*
X81384Y230860D01*
X79660Y232201D01*
G37*
%LPD*%
%LPC*%
G36*
X175410Y174248D02*
X175410Y174248D01*
X174430Y174543D01*
X173848Y175318D01*
X173750Y176392D01*
X174140Y177268D01*
X174919Y177852D01*
X175890Y177949D01*
X176766Y177462D01*
X177252Y176782D01*
X177350Y175610D01*
X176961Y174832D01*
X176170Y174239D01*
X176164Y174217D01*
X176155Y174210D01*
X176160Y174203D01*
X176154Y174182D01*
X176160Y174181D01*
X176158Y174175D01*
X176170Y174153D01*
X175410Y174248D01*
G37*
%LPD*%
%LPC*%
G36*
X173809Y259579D02*
X173809Y259579D01*
X173340Y259767D01*
X173149Y260338D01*
X173149Y263774D01*
X175351Y263487D01*
X175351Y262230D01*
X175360Y262217D01*
X175356Y262208D01*
X175551Y261818D01*
X175600Y259579D01*
X173809Y259579D01*
G37*
%LPD*%
%LPC*%
G36*
X173538Y269863D02*
X173538Y269863D01*
X173149Y270543D01*
X173149Y271113D01*
X173531Y271590D01*
X174821Y272185D01*
X174827Y272196D01*
X174835Y272195D01*
X175228Y272588D01*
X177052Y273356D01*
X177096Y270842D01*
X175279Y269974D01*
X175278Y269972D01*
X175276Y269973D01*
X174583Y269577D01*
X174014Y269482D01*
X173538Y269863D01*
G37*
%LPD*%
%LPC*%
G36*
X311894Y5559D02*
X311894Y5559D01*
X311339Y5652D01*
X311339Y7602D01*
X311529Y8171D01*
X312098Y8361D01*
X312490Y8361D01*
X312512Y8378D01*
X312526Y8376D01*
X312550Y8402D01*
X312549Y8383D01*
X312552Y8383D01*
X312552Y8379D01*
X312941Y7893D01*
X312941Y7210D01*
X312948Y7201D01*
X312943Y7194D01*
X313143Y6594D01*
X313172Y6575D01*
X313176Y6563D01*
X313876Y6363D01*
X313883Y6365D01*
X313886Y6362D01*
X313894Y6362D01*
X313899Y6366D01*
X313904Y6363D01*
X314604Y6563D01*
X314623Y6588D01*
X314636Y6592D01*
X314836Y7092D01*
X314833Y7101D01*
X314839Y7104D01*
X314935Y7875D01*
X315396Y8059D01*
X316046Y7966D01*
X316141Y7307D01*
X316141Y5922D01*
X315960Y5559D01*
X311894Y5559D01*
G37*
%LPD*%
%LPC*%
G36*
X51719Y184832D02*
X51719Y184832D01*
X51124Y186022D01*
X51120Y186024D01*
X51121Y186027D01*
X50723Y186624D01*
X49864Y188437D01*
X52605Y188019D01*
X53534Y186082D01*
X53726Y185506D01*
X53443Y185034D01*
X52761Y184547D01*
X52194Y184452D01*
X51719Y184832D01*
G37*
%LPD*%
%LPC*%
G36*
X197505Y174149D02*
X197505Y174149D01*
X196523Y174346D01*
X195742Y175028D01*
X195452Y175898D01*
X195840Y176867D01*
X196614Y177351D01*
X197584Y177351D01*
X198360Y176768D01*
X198748Y175897D01*
X198456Y174924D01*
X197863Y174232D01*
X197862Y174216D01*
X197854Y174210D01*
X197861Y174201D01*
X197861Y174197D01*
X197853Y174186D01*
X197863Y174149D01*
X197505Y174149D01*
G37*
%LPD*%
%LPC*%
G36*
X48238Y66579D02*
X48238Y66579D01*
X48785Y66852D01*
X49473Y66951D01*
X52340Y66951D01*
X51240Y64749D01*
X49870Y64749D01*
X49865Y64746D01*
X49862Y64749D01*
X49296Y64654D01*
X48238Y66579D01*
G37*
%LPD*%
%LPC*%
G36*
X145129Y15929D02*
X145129Y15929D01*
X145129Y17672D01*
X145322Y18251D01*
X145797Y18631D01*
X146465Y18631D01*
X147042Y18246D01*
X147331Y17668D01*
X147331Y16394D01*
X147052Y15929D01*
X145129Y15929D01*
G37*
%LPD*%
%LPC*%
G36*
X222776Y151449D02*
X222776Y151449D01*
X223144Y152279D01*
X224006Y154002D01*
X224156Y153777D01*
X224947Y151900D01*
X224767Y151449D01*
X222776Y151449D01*
G37*
%LPD*%
%LPC*%
G36*
X174676Y126049D02*
X174676Y126049D01*
X175044Y126879D01*
X175891Y128572D01*
X175953Y128384D01*
X175957Y128382D01*
X175956Y128379D01*
X176844Y126503D01*
X176572Y126049D01*
X174676Y126049D01*
G37*
%LPD*%
%LPC*%
G36*
X61771Y195249D02*
X61771Y195249D01*
X62575Y196551D01*
X62831Y196551D01*
X62831Y195525D01*
X62464Y195249D01*
X61771Y195249D01*
G37*
%LPD*%
%LPC*%
G36*
X53163Y68249D02*
X53163Y68249D01*
X53837Y69551D01*
X54121Y69551D01*
X54121Y68808D01*
X53935Y68249D01*
X53163Y68249D01*
G37*
%LPD*%
D10*
X152400Y0D02*
X152400Y25400D01*
X304800Y25400D01*
X304800Y0D01*
D11*
X162560Y63500D02*
X162560Y88900D01*
X142240Y63500D02*
X142242Y63400D01*
X142248Y63301D01*
X142258Y63201D01*
X142271Y63103D01*
X142289Y63004D01*
X142310Y62907D01*
X142335Y62811D01*
X142364Y62715D01*
X142397Y62621D01*
X142433Y62528D01*
X142473Y62437D01*
X142517Y62347D01*
X142564Y62259D01*
X142614Y62173D01*
X142668Y62089D01*
X142725Y62007D01*
X142785Y61928D01*
X142849Y61850D01*
X142915Y61776D01*
X142984Y61704D01*
X143056Y61635D01*
X143130Y61569D01*
X143208Y61505D01*
X143287Y61445D01*
X143369Y61388D01*
X143453Y61334D01*
X143539Y61284D01*
X143627Y61237D01*
X143717Y61193D01*
X143808Y61153D01*
X143901Y61117D01*
X143995Y61084D01*
X144091Y61055D01*
X144187Y61030D01*
X144284Y61009D01*
X144383Y60991D01*
X144481Y60978D01*
X144581Y60968D01*
X144680Y60962D01*
X144780Y60960D01*
X142240Y88900D02*
X142242Y89000D01*
X142248Y89099D01*
X142258Y89199D01*
X142271Y89297D01*
X142289Y89396D01*
X142310Y89493D01*
X142335Y89589D01*
X142364Y89685D01*
X142397Y89779D01*
X142433Y89872D01*
X142473Y89963D01*
X142517Y90053D01*
X142564Y90141D01*
X142614Y90227D01*
X142668Y90311D01*
X142725Y90393D01*
X142785Y90472D01*
X142849Y90550D01*
X142915Y90624D01*
X142984Y90696D01*
X143056Y90765D01*
X143130Y90831D01*
X143208Y90895D01*
X143287Y90955D01*
X143369Y91012D01*
X143453Y91066D01*
X143539Y91116D01*
X143627Y91163D01*
X143717Y91207D01*
X143808Y91247D01*
X143901Y91283D01*
X143995Y91316D01*
X144091Y91345D01*
X144187Y91370D01*
X144284Y91391D01*
X144383Y91409D01*
X144481Y91422D01*
X144581Y91432D01*
X144680Y91438D01*
X144780Y91440D01*
X160020Y91440D02*
X160120Y91438D01*
X160219Y91432D01*
X160319Y91422D01*
X160417Y91409D01*
X160516Y91391D01*
X160613Y91370D01*
X160709Y91345D01*
X160805Y91316D01*
X160899Y91283D01*
X160992Y91247D01*
X161083Y91207D01*
X161173Y91163D01*
X161261Y91116D01*
X161347Y91066D01*
X161431Y91012D01*
X161513Y90955D01*
X161592Y90895D01*
X161670Y90831D01*
X161744Y90765D01*
X161816Y90696D01*
X161885Y90624D01*
X161951Y90550D01*
X162015Y90472D01*
X162075Y90393D01*
X162132Y90311D01*
X162186Y90227D01*
X162236Y90141D01*
X162283Y90053D01*
X162327Y89963D01*
X162367Y89872D01*
X162403Y89779D01*
X162436Y89685D01*
X162465Y89589D01*
X162490Y89493D01*
X162511Y89396D01*
X162529Y89297D01*
X162542Y89199D01*
X162552Y89099D01*
X162558Y89000D01*
X162560Y88900D01*
X162560Y63500D02*
X162558Y63400D01*
X162552Y63301D01*
X162542Y63201D01*
X162529Y63103D01*
X162511Y63004D01*
X162490Y62907D01*
X162465Y62811D01*
X162436Y62715D01*
X162403Y62621D01*
X162367Y62528D01*
X162327Y62437D01*
X162283Y62347D01*
X162236Y62259D01*
X162186Y62173D01*
X162132Y62089D01*
X162075Y62007D01*
X162015Y61928D01*
X161951Y61850D01*
X161885Y61776D01*
X161816Y61704D01*
X161744Y61635D01*
X161670Y61569D01*
X161592Y61505D01*
X161513Y61445D01*
X161431Y61388D01*
X161347Y61334D01*
X161261Y61284D01*
X161173Y61237D01*
X161083Y61193D01*
X160992Y61153D01*
X160899Y61117D01*
X160805Y61084D01*
X160709Y61055D01*
X160613Y61030D01*
X160516Y61009D01*
X160417Y60991D01*
X160319Y60978D01*
X160219Y60968D01*
X160120Y60962D01*
X160020Y60960D01*
X144780Y60960D01*
X144780Y91440D02*
X160020Y91440D01*
X142240Y88900D02*
X142240Y63500D01*
D10*
X134620Y243840D02*
X119380Y243840D01*
X114808Y259588D02*
X114810Y259721D01*
X114816Y259854D01*
X114825Y259986D01*
X114839Y260119D01*
X114856Y260251D01*
X114877Y260382D01*
X114902Y260513D01*
X114931Y260642D01*
X114964Y260771D01*
X115000Y260899D01*
X115040Y261026D01*
X115084Y261152D01*
X115131Y261276D01*
X115182Y261399D01*
X115236Y261520D01*
X115294Y261640D01*
X115356Y261758D01*
X115421Y261874D01*
X115489Y261988D01*
X115560Y262100D01*
X115635Y262210D01*
X115713Y262318D01*
X115794Y262424D01*
X115878Y262527D01*
X115965Y262627D01*
X116054Y262725D01*
X116147Y262821D01*
X116243Y262914D01*
X116341Y263003D01*
X116441Y263090D01*
X116544Y263174D01*
X116650Y263255D01*
X116758Y263333D01*
X116868Y263408D01*
X116980Y263479D01*
X117094Y263547D01*
X117210Y263612D01*
X117328Y263674D01*
X117448Y263732D01*
X117569Y263786D01*
X117692Y263837D01*
X117816Y263884D01*
X117942Y263928D01*
X118069Y263968D01*
X118197Y264004D01*
X118326Y264037D01*
X118455Y264066D01*
X118586Y264091D01*
X118717Y264112D01*
X118849Y264129D01*
X118982Y264143D01*
X119114Y264152D01*
X119247Y264158D01*
X119380Y264160D01*
X134620Y264160D02*
X134753Y264158D01*
X134886Y264152D01*
X135018Y264143D01*
X135151Y264129D01*
X135283Y264112D01*
X135414Y264091D01*
X135545Y264066D01*
X135674Y264037D01*
X135803Y264004D01*
X135931Y263968D01*
X136058Y263928D01*
X136184Y263884D01*
X136308Y263837D01*
X136431Y263786D01*
X136552Y263732D01*
X136672Y263674D01*
X136790Y263612D01*
X136906Y263547D01*
X137020Y263479D01*
X137132Y263408D01*
X137242Y263333D01*
X137350Y263255D01*
X137456Y263174D01*
X137559Y263090D01*
X137659Y263003D01*
X137757Y262914D01*
X137853Y262821D01*
X137946Y262725D01*
X138035Y262627D01*
X138122Y262527D01*
X138206Y262424D01*
X138287Y262318D01*
X138365Y262210D01*
X138440Y262100D01*
X138511Y261988D01*
X138579Y261874D01*
X138644Y261758D01*
X138706Y261640D01*
X138764Y261520D01*
X138818Y261399D01*
X138869Y261276D01*
X138916Y261152D01*
X138960Y261026D01*
X139000Y260899D01*
X139036Y260771D01*
X139069Y260642D01*
X139098Y260513D01*
X139123Y260382D01*
X139144Y260251D01*
X139161Y260119D01*
X139175Y259986D01*
X139184Y259854D01*
X139190Y259721D01*
X139192Y259588D01*
X139192Y248412D02*
X139190Y248279D01*
X139184Y248146D01*
X139175Y248014D01*
X139161Y247881D01*
X139144Y247749D01*
X139123Y247618D01*
X139098Y247487D01*
X139069Y247358D01*
X139036Y247229D01*
X139000Y247101D01*
X138960Y246974D01*
X138916Y246848D01*
X138869Y246724D01*
X138818Y246601D01*
X138764Y246480D01*
X138706Y246360D01*
X138644Y246242D01*
X138579Y246126D01*
X138511Y246012D01*
X138440Y245900D01*
X138365Y245790D01*
X138287Y245682D01*
X138206Y245576D01*
X138122Y245473D01*
X138035Y245373D01*
X137946Y245275D01*
X137853Y245179D01*
X137757Y245086D01*
X137659Y244997D01*
X137559Y244910D01*
X137456Y244826D01*
X137350Y244745D01*
X137242Y244667D01*
X137132Y244592D01*
X137020Y244521D01*
X136906Y244453D01*
X136790Y244388D01*
X136672Y244326D01*
X136552Y244268D01*
X136431Y244214D01*
X136308Y244163D01*
X136184Y244116D01*
X136058Y244072D01*
X135931Y244032D01*
X135803Y243996D01*
X135674Y243963D01*
X135545Y243934D01*
X135414Y243909D01*
X135283Y243888D01*
X135151Y243871D01*
X135018Y243857D01*
X134886Y243848D01*
X134753Y243842D01*
X134620Y243840D01*
X119380Y243840D02*
X119247Y243842D01*
X119114Y243848D01*
X118982Y243857D01*
X118849Y243871D01*
X118717Y243888D01*
X118586Y243909D01*
X118455Y243934D01*
X118326Y243963D01*
X118197Y243996D01*
X118069Y244032D01*
X117942Y244072D01*
X117816Y244116D01*
X117692Y244163D01*
X117569Y244214D01*
X117448Y244268D01*
X117328Y244326D01*
X117210Y244388D01*
X117094Y244453D01*
X116980Y244521D01*
X116868Y244592D01*
X116758Y244667D01*
X116650Y244745D01*
X116544Y244826D01*
X116441Y244910D01*
X116341Y244997D01*
X116243Y245086D01*
X116147Y245179D01*
X116054Y245275D01*
X115965Y245373D01*
X115878Y245473D01*
X115794Y245576D01*
X115713Y245682D01*
X115635Y245790D01*
X115560Y245900D01*
X115489Y246012D01*
X115421Y246126D01*
X115356Y246242D01*
X115294Y246360D01*
X115236Y246480D01*
X115182Y246601D01*
X115131Y246724D01*
X115084Y246848D01*
X115040Y246974D01*
X115000Y247101D01*
X114964Y247229D01*
X114931Y247358D01*
X114902Y247487D01*
X114877Y247618D01*
X114856Y247749D01*
X114839Y247881D01*
X114825Y248014D01*
X114816Y248146D01*
X114810Y248279D01*
X114808Y248412D01*
X114808Y259588D01*
X139192Y259588D02*
X139192Y248412D01*
X134620Y264160D02*
X119380Y264160D01*
X119380Y218440D02*
X134620Y218440D01*
X114808Y234188D02*
X114810Y234321D01*
X114816Y234454D01*
X114825Y234586D01*
X114839Y234719D01*
X114856Y234851D01*
X114877Y234982D01*
X114902Y235113D01*
X114931Y235242D01*
X114964Y235371D01*
X115000Y235499D01*
X115040Y235626D01*
X115084Y235752D01*
X115131Y235876D01*
X115182Y235999D01*
X115236Y236120D01*
X115294Y236240D01*
X115356Y236358D01*
X115421Y236474D01*
X115489Y236588D01*
X115560Y236700D01*
X115635Y236810D01*
X115713Y236918D01*
X115794Y237024D01*
X115878Y237127D01*
X115965Y237227D01*
X116054Y237325D01*
X116147Y237421D01*
X116243Y237514D01*
X116341Y237603D01*
X116441Y237690D01*
X116544Y237774D01*
X116650Y237855D01*
X116758Y237933D01*
X116868Y238008D01*
X116980Y238079D01*
X117094Y238147D01*
X117210Y238212D01*
X117328Y238274D01*
X117448Y238332D01*
X117569Y238386D01*
X117692Y238437D01*
X117816Y238484D01*
X117942Y238528D01*
X118069Y238568D01*
X118197Y238604D01*
X118326Y238637D01*
X118455Y238666D01*
X118586Y238691D01*
X118717Y238712D01*
X118849Y238729D01*
X118982Y238743D01*
X119114Y238752D01*
X119247Y238758D01*
X119380Y238760D01*
X134620Y238760D02*
X134753Y238758D01*
X134886Y238752D01*
X135018Y238743D01*
X135151Y238729D01*
X135283Y238712D01*
X135414Y238691D01*
X135545Y238666D01*
X135674Y238637D01*
X135803Y238604D01*
X135931Y238568D01*
X136058Y238528D01*
X136184Y238484D01*
X136308Y238437D01*
X136431Y238386D01*
X136552Y238332D01*
X136672Y238274D01*
X136790Y238212D01*
X136906Y238147D01*
X137020Y238079D01*
X137132Y238008D01*
X137242Y237933D01*
X137350Y237855D01*
X137456Y237774D01*
X137559Y237690D01*
X137659Y237603D01*
X137757Y237514D01*
X137853Y237421D01*
X137946Y237325D01*
X138035Y237227D01*
X138122Y237127D01*
X138206Y237024D01*
X138287Y236918D01*
X138365Y236810D01*
X138440Y236700D01*
X138511Y236588D01*
X138579Y236474D01*
X138644Y236358D01*
X138706Y236240D01*
X138764Y236120D01*
X138818Y235999D01*
X138869Y235876D01*
X138916Y235752D01*
X138960Y235626D01*
X139000Y235499D01*
X139036Y235371D01*
X139069Y235242D01*
X139098Y235113D01*
X139123Y234982D01*
X139144Y234851D01*
X139161Y234719D01*
X139175Y234586D01*
X139184Y234454D01*
X139190Y234321D01*
X139192Y234188D01*
X139192Y223012D02*
X139190Y222879D01*
X139184Y222746D01*
X139175Y222614D01*
X139161Y222481D01*
X139144Y222349D01*
X139123Y222218D01*
X139098Y222087D01*
X139069Y221958D01*
X139036Y221829D01*
X139000Y221701D01*
X138960Y221574D01*
X138916Y221448D01*
X138869Y221324D01*
X138818Y221201D01*
X138764Y221080D01*
X138706Y220960D01*
X138644Y220842D01*
X138579Y220726D01*
X138511Y220612D01*
X138440Y220500D01*
X138365Y220390D01*
X138287Y220282D01*
X138206Y220176D01*
X138122Y220073D01*
X138035Y219973D01*
X137946Y219875D01*
X137853Y219779D01*
X137757Y219686D01*
X137659Y219597D01*
X137559Y219510D01*
X137456Y219426D01*
X137350Y219345D01*
X137242Y219267D01*
X137132Y219192D01*
X137020Y219121D01*
X136906Y219053D01*
X136790Y218988D01*
X136672Y218926D01*
X136552Y218868D01*
X136431Y218814D01*
X136308Y218763D01*
X136184Y218716D01*
X136058Y218672D01*
X135931Y218632D01*
X135803Y218596D01*
X135674Y218563D01*
X135545Y218534D01*
X135414Y218509D01*
X135283Y218488D01*
X135151Y218471D01*
X135018Y218457D01*
X134886Y218448D01*
X134753Y218442D01*
X134620Y218440D01*
X119380Y218440D02*
X119247Y218442D01*
X119114Y218448D01*
X118982Y218457D01*
X118849Y218471D01*
X118717Y218488D01*
X118586Y218509D01*
X118455Y218534D01*
X118326Y218563D01*
X118197Y218596D01*
X118069Y218632D01*
X117942Y218672D01*
X117816Y218716D01*
X117692Y218763D01*
X117569Y218814D01*
X117448Y218868D01*
X117328Y218926D01*
X117210Y218988D01*
X117094Y219053D01*
X116980Y219121D01*
X116868Y219192D01*
X116758Y219267D01*
X116650Y219345D01*
X116544Y219426D01*
X116441Y219510D01*
X116341Y219597D01*
X116243Y219686D01*
X116147Y219779D01*
X116054Y219875D01*
X115965Y219973D01*
X115878Y220073D01*
X115794Y220176D01*
X115713Y220282D01*
X115635Y220390D01*
X115560Y220500D01*
X115489Y220612D01*
X115421Y220726D01*
X115356Y220842D01*
X115294Y220960D01*
X115236Y221080D01*
X115182Y221201D01*
X115131Y221324D01*
X115084Y221448D01*
X115040Y221574D01*
X115000Y221701D01*
X114964Y221829D01*
X114931Y221958D01*
X114902Y222087D01*
X114877Y222218D01*
X114856Y222349D01*
X114839Y222481D01*
X114825Y222614D01*
X114816Y222746D01*
X114810Y222879D01*
X114808Y223012D01*
X114808Y234188D01*
X139192Y234188D02*
X139192Y223012D01*
X134620Y238760D02*
X119380Y238760D01*
M02*
