G04 EAGLE Gerber RS-274X export*
G75*
%MOMM*%
%FSLAX34Y34*%
%LPD*%
%INSolderpaste Top*%
%IPPOS*%
%AMOC8*
5,1,8,0,0,1.08239X$1,22.5*%
G01*
%ADD10R,1.200000X2.000000*%
%ADD11R,0.600000X1.350000*%
%ADD12R,1.100000X1.000000*%
%ADD13R,4.200000X1.700000*%
%ADD14C,0.300000*%
%ADD15R,0.630000X0.830000*%
%ADD16R,0.850000X0.900000*%
%ADD17R,1.300000X0.800000*%
%ADD18R,1.300000X0.900000*%
%ADD19R,0.600000X0.600000*%
%ADD20R,2.400000X1.100000*%
%ADD21R,7.000000X1.250000*%

G36*
X60742Y188863D02*
X60742Y188863D01*
X60786Y188866D01*
X60808Y188882D01*
X60834Y188890D01*
X60863Y188923D01*
X60898Y188949D01*
X60908Y188975D01*
X60926Y188995D01*
X60933Y189039D01*
X60948Y189079D01*
X60943Y189106D01*
X60947Y189133D01*
X60929Y189174D01*
X60920Y189216D01*
X60894Y189252D01*
X60890Y189261D01*
X60885Y189265D01*
X60876Y189276D01*
X36876Y213276D01*
X36838Y213297D01*
X36805Y213326D01*
X36778Y213330D01*
X36754Y213343D01*
X36710Y213340D01*
X36667Y213347D01*
X36642Y213336D01*
X36614Y213334D01*
X36579Y213308D01*
X36539Y213290D01*
X36524Y213267D01*
X36502Y213251D01*
X36486Y213210D01*
X36462Y213174D01*
X36455Y213130D01*
X36452Y213121D01*
X36453Y213114D01*
X36451Y213100D01*
X36451Y189100D01*
X36456Y189084D01*
X36453Y189067D01*
X36475Y189017D01*
X36490Y188966D01*
X36503Y188955D01*
X36510Y188939D01*
X36555Y188909D01*
X36595Y188874D01*
X36612Y188871D01*
X36627Y188862D01*
X36700Y188851D01*
X60700Y188851D01*
X60742Y188863D01*
G37*
D10*
X73600Y14050D03*
X129600Y14050D03*
D11*
X86600Y50800D03*
X96600Y50800D03*
X106600Y50800D03*
X116600Y50800D03*
D10*
X129600Y290750D03*
X73600Y290750D03*
D11*
X116600Y254000D03*
X106600Y254000D03*
X96600Y254000D03*
X86600Y254000D03*
D12*
X122800Y196850D03*
X105800Y196850D03*
X122800Y177800D03*
X105800Y177800D03*
X55000Y139700D03*
X72000Y139700D03*
D13*
X57500Y234400D03*
D12*
X105800Y82550D03*
X122800Y82550D03*
X105800Y101600D03*
X122800Y101600D03*
D14*
X208470Y250500D02*
X208470Y257500D01*
X215470Y257500D01*
X215470Y250500D01*
X208470Y250500D01*
X208470Y253350D02*
X215470Y253350D01*
X215470Y256200D02*
X208470Y256200D01*
X190930Y257500D02*
X190930Y250500D01*
X190930Y257500D02*
X197930Y257500D01*
X197930Y250500D01*
X190930Y250500D01*
X190930Y253350D02*
X197930Y253350D01*
X197930Y256200D02*
X190930Y256200D01*
D15*
X52000Y177800D03*
X75000Y177800D03*
D12*
X55000Y158750D03*
X72000Y158750D03*
X173600Y254000D03*
X156600Y254000D03*
X258200Y177800D03*
X275200Y177800D03*
X258200Y196850D03*
X275200Y196850D03*
D14*
X208470Y225100D02*
X208470Y232100D01*
X215470Y232100D01*
X215470Y225100D01*
X208470Y225100D01*
X208470Y227950D02*
X215470Y227950D01*
X215470Y230800D02*
X208470Y230800D01*
X190930Y232100D02*
X190930Y225100D01*
X190930Y232100D02*
X197930Y232100D01*
X197930Y225100D01*
X190930Y225100D01*
X190930Y227950D02*
X197930Y227950D01*
X197930Y230800D02*
X190930Y230800D01*
D12*
X173600Y228600D03*
X156600Y228600D03*
D16*
X272500Y142240D03*
X260900Y142240D03*
D12*
X275200Y158750D03*
X258200Y158750D03*
X122800Y139700D03*
X105800Y139700D03*
X122800Y120650D03*
X105800Y120650D03*
X258200Y215900D03*
X275200Y215900D03*
X122800Y157480D03*
X105800Y157480D03*
D17*
X146000Y196400D03*
D18*
X146000Y185400D03*
X146000Y174400D03*
X146000Y163400D03*
X146000Y152400D03*
X146000Y141400D03*
X146000Y130400D03*
X146000Y119400D03*
D17*
X146000Y108400D03*
X235000Y108400D03*
D18*
X235000Y119400D03*
X235000Y130400D03*
X235000Y141400D03*
X235000Y152400D03*
X235000Y163400D03*
X235000Y174400D03*
X235000Y185400D03*
D17*
X235000Y196400D03*
D19*
X271780Y119460D03*
X271780Y129460D03*
D20*
X299100Y152400D03*
D21*
X346000Y195450D03*
X346000Y109350D03*
M02*
