M48
;GenerationSoftware,Autodesk,EAGLE,9.6.2*%
;CreationDate,2021-03-05T22:12:11Z*%
FMAT,2
ICI,OFF
METRIC,TZ,000.000
T3C0.305
T2C1.016
T1C3.302
%
G90
M71
T1
X35560Y2540
X2540Y2540
X2540Y27940
X35560Y27940
T2
X1270Y6350
X19050Y1270
X22860Y29210
X20320Y29210
X17780Y29210
X15240Y29210
X16510Y1270
X21590Y1270
X24130Y1270
X26670Y1270
X29210Y1270
X1270Y24130
X1270Y21590
X1270Y19050
X1270Y16510
X1270Y13970
X1270Y11430
X1270Y8890
T3
X14605Y20955
X29591Y12065
X29464Y17526
X29718Y13716
X28702Y16383
X30607Y14224
X30226Y16383
X24892Y13208
X26162Y13081
X33401Y9525
X34544Y9525
X35687Y9525
X36830Y9525
X32258Y20955
X31750Y22225
X32893Y22225
X34036Y22225
X33401Y20955
X34544Y20955
X35687Y20955
X36830Y20955
X35179Y22225
X36322Y22225
X37465Y22225
X21209Y24130
X29718Y18669
X30353Y19558
X29972Y9525
X30480Y22225
X29845Y20955
X28702Y27051
X11684Y6731
X3137Y20447
X7620Y8890
X8763Y27051
X29845Y27813
X2299Y20320
X6350Y7620
X10660Y6739
X9398Y12065
X13462Y14097
X6384Y14922
X9398Y13970
X9398Y15748
X11430Y23876
X13716Y9525
X13843Y6858
X14478Y25400
X27940Y22860
X9398Y17780
X3556Y7493
X10660Y22725
X6350Y6350
X14478Y22860
X24892Y10795
X26035Y10795
X27178Y10795
X28321Y10795
X24257Y9525
X25400Y9525
X26543Y9525
X27686Y9525
X23114Y9525
X31115Y20955
X24892Y14224
X28829Y9525
X31115Y9525
X32258Y9525
X29464Y10795
X30480Y10795
X8636Y23495
X14478Y24130
X8636Y3429
X7493Y10287
X13462Y19558
X9398Y19685
M30