G04 EAGLE Gerber RS-274X export*
G75*
%MOMM*%
%FSLAX34Y34*%
%LPD*%
%IN*%
%IPPOS*%
%AMOC8*
5,1,8,0,0,1.08239X$1,22.5*%
G01*
%ADD10C,0.203200*%
%ADD11C,0.000000*%
%ADD12C,0.152400*%
%ADD13C,0.076200*%
%ADD14C,0.254000*%


D10*
X381000Y0D02*
X0Y0D01*
X0Y304800D01*
X381000Y304800D01*
X381000Y0D01*
D11*
X339090Y25400D02*
X339095Y25805D01*
X339110Y26210D01*
X339135Y26615D01*
X339170Y27018D01*
X339214Y27421D01*
X339269Y27823D01*
X339333Y28223D01*
X339407Y28621D01*
X339491Y29017D01*
X339585Y29412D01*
X339688Y29803D01*
X339801Y30193D01*
X339923Y30579D01*
X340055Y30962D01*
X340196Y31342D01*
X340347Y31718D01*
X340506Y32091D01*
X340675Y32459D01*
X340853Y32823D01*
X341039Y33183D01*
X341235Y33538D01*
X341439Y33888D01*
X341651Y34233D01*
X341872Y34572D01*
X342102Y34907D01*
X342339Y35235D01*
X342584Y35557D01*
X342838Y35874D01*
X343098Y36184D01*
X343367Y36487D01*
X343643Y36784D01*
X343926Y37074D01*
X344216Y37357D01*
X344513Y37633D01*
X344816Y37902D01*
X345126Y38162D01*
X345443Y38416D01*
X345765Y38661D01*
X346093Y38898D01*
X346428Y39128D01*
X346767Y39349D01*
X347112Y39561D01*
X347462Y39765D01*
X347817Y39961D01*
X348177Y40147D01*
X348541Y40325D01*
X348909Y40494D01*
X349282Y40653D01*
X349658Y40804D01*
X350038Y40945D01*
X350421Y41077D01*
X350807Y41199D01*
X351197Y41312D01*
X351588Y41415D01*
X351983Y41509D01*
X352379Y41593D01*
X352777Y41667D01*
X353177Y41731D01*
X353579Y41786D01*
X353982Y41830D01*
X354385Y41865D01*
X354790Y41890D01*
X355195Y41905D01*
X355600Y41910D01*
X356005Y41905D01*
X356410Y41890D01*
X356815Y41865D01*
X357218Y41830D01*
X357621Y41786D01*
X358023Y41731D01*
X358423Y41667D01*
X358821Y41593D01*
X359217Y41509D01*
X359612Y41415D01*
X360003Y41312D01*
X360393Y41199D01*
X360779Y41077D01*
X361162Y40945D01*
X361542Y40804D01*
X361918Y40653D01*
X362291Y40494D01*
X362659Y40325D01*
X363023Y40147D01*
X363383Y39961D01*
X363738Y39765D01*
X364088Y39561D01*
X364433Y39349D01*
X364772Y39128D01*
X365107Y38898D01*
X365435Y38661D01*
X365757Y38416D01*
X366074Y38162D01*
X366384Y37902D01*
X366687Y37633D01*
X366984Y37357D01*
X367274Y37074D01*
X367557Y36784D01*
X367833Y36487D01*
X368102Y36184D01*
X368362Y35874D01*
X368616Y35557D01*
X368861Y35235D01*
X369098Y34907D01*
X369328Y34572D01*
X369549Y34233D01*
X369761Y33888D01*
X369965Y33538D01*
X370161Y33183D01*
X370347Y32823D01*
X370525Y32459D01*
X370694Y32091D01*
X370853Y31718D01*
X371004Y31342D01*
X371145Y30962D01*
X371277Y30579D01*
X371399Y30193D01*
X371512Y29803D01*
X371615Y29412D01*
X371709Y29017D01*
X371793Y28621D01*
X371867Y28223D01*
X371931Y27823D01*
X371986Y27421D01*
X372030Y27018D01*
X372065Y26615D01*
X372090Y26210D01*
X372105Y25805D01*
X372110Y25400D01*
X372105Y24995D01*
X372090Y24590D01*
X372065Y24185D01*
X372030Y23782D01*
X371986Y23379D01*
X371931Y22977D01*
X371867Y22577D01*
X371793Y22179D01*
X371709Y21783D01*
X371615Y21388D01*
X371512Y20997D01*
X371399Y20607D01*
X371277Y20221D01*
X371145Y19838D01*
X371004Y19458D01*
X370853Y19082D01*
X370694Y18709D01*
X370525Y18341D01*
X370347Y17977D01*
X370161Y17617D01*
X369965Y17262D01*
X369761Y16912D01*
X369549Y16567D01*
X369328Y16228D01*
X369098Y15893D01*
X368861Y15565D01*
X368616Y15243D01*
X368362Y14926D01*
X368102Y14616D01*
X367833Y14313D01*
X367557Y14016D01*
X367274Y13726D01*
X366984Y13443D01*
X366687Y13167D01*
X366384Y12898D01*
X366074Y12638D01*
X365757Y12384D01*
X365435Y12139D01*
X365107Y11902D01*
X364772Y11672D01*
X364433Y11451D01*
X364088Y11239D01*
X363738Y11035D01*
X363383Y10839D01*
X363023Y10653D01*
X362659Y10475D01*
X362291Y10306D01*
X361918Y10147D01*
X361542Y9996D01*
X361162Y9855D01*
X360779Y9723D01*
X360393Y9601D01*
X360003Y9488D01*
X359612Y9385D01*
X359217Y9291D01*
X358821Y9207D01*
X358423Y9133D01*
X358023Y9069D01*
X357621Y9014D01*
X357218Y8970D01*
X356815Y8935D01*
X356410Y8910D01*
X356005Y8895D01*
X355600Y8890D01*
X355195Y8895D01*
X354790Y8910D01*
X354385Y8935D01*
X353982Y8970D01*
X353579Y9014D01*
X353177Y9069D01*
X352777Y9133D01*
X352379Y9207D01*
X351983Y9291D01*
X351588Y9385D01*
X351197Y9488D01*
X350807Y9601D01*
X350421Y9723D01*
X350038Y9855D01*
X349658Y9996D01*
X349282Y10147D01*
X348909Y10306D01*
X348541Y10475D01*
X348177Y10653D01*
X347817Y10839D01*
X347462Y11035D01*
X347112Y11239D01*
X346767Y11451D01*
X346428Y11672D01*
X346093Y11902D01*
X345765Y12139D01*
X345443Y12384D01*
X345126Y12638D01*
X344816Y12898D01*
X344513Y13167D01*
X344216Y13443D01*
X343926Y13726D01*
X343643Y14016D01*
X343367Y14313D01*
X343098Y14616D01*
X342838Y14926D01*
X342584Y15243D01*
X342339Y15565D01*
X342102Y15893D01*
X341872Y16228D01*
X341651Y16567D01*
X341439Y16912D01*
X341235Y17262D01*
X341039Y17617D01*
X340853Y17977D01*
X340675Y18341D01*
X340506Y18709D01*
X340347Y19082D01*
X340196Y19458D01*
X340055Y19838D01*
X339923Y20221D01*
X339801Y20607D01*
X339688Y20997D01*
X339585Y21388D01*
X339491Y21783D01*
X339407Y22179D01*
X339333Y22577D01*
X339269Y22977D01*
X339214Y23379D01*
X339170Y23782D01*
X339135Y24185D01*
X339110Y24590D01*
X339095Y24995D01*
X339090Y25400D01*
X8890Y25400D02*
X8895Y25805D01*
X8910Y26210D01*
X8935Y26615D01*
X8970Y27018D01*
X9014Y27421D01*
X9069Y27823D01*
X9133Y28223D01*
X9207Y28621D01*
X9291Y29017D01*
X9385Y29412D01*
X9488Y29803D01*
X9601Y30193D01*
X9723Y30579D01*
X9855Y30962D01*
X9996Y31342D01*
X10147Y31718D01*
X10306Y32091D01*
X10475Y32459D01*
X10653Y32823D01*
X10839Y33183D01*
X11035Y33538D01*
X11239Y33888D01*
X11451Y34233D01*
X11672Y34572D01*
X11902Y34907D01*
X12139Y35235D01*
X12384Y35557D01*
X12638Y35874D01*
X12898Y36184D01*
X13167Y36487D01*
X13443Y36784D01*
X13726Y37074D01*
X14016Y37357D01*
X14313Y37633D01*
X14616Y37902D01*
X14926Y38162D01*
X15243Y38416D01*
X15565Y38661D01*
X15893Y38898D01*
X16228Y39128D01*
X16567Y39349D01*
X16912Y39561D01*
X17262Y39765D01*
X17617Y39961D01*
X17977Y40147D01*
X18341Y40325D01*
X18709Y40494D01*
X19082Y40653D01*
X19458Y40804D01*
X19838Y40945D01*
X20221Y41077D01*
X20607Y41199D01*
X20997Y41312D01*
X21388Y41415D01*
X21783Y41509D01*
X22179Y41593D01*
X22577Y41667D01*
X22977Y41731D01*
X23379Y41786D01*
X23782Y41830D01*
X24185Y41865D01*
X24590Y41890D01*
X24995Y41905D01*
X25400Y41910D01*
X25805Y41905D01*
X26210Y41890D01*
X26615Y41865D01*
X27018Y41830D01*
X27421Y41786D01*
X27823Y41731D01*
X28223Y41667D01*
X28621Y41593D01*
X29017Y41509D01*
X29412Y41415D01*
X29803Y41312D01*
X30193Y41199D01*
X30579Y41077D01*
X30962Y40945D01*
X31342Y40804D01*
X31718Y40653D01*
X32091Y40494D01*
X32459Y40325D01*
X32823Y40147D01*
X33183Y39961D01*
X33538Y39765D01*
X33888Y39561D01*
X34233Y39349D01*
X34572Y39128D01*
X34907Y38898D01*
X35235Y38661D01*
X35557Y38416D01*
X35874Y38162D01*
X36184Y37902D01*
X36487Y37633D01*
X36784Y37357D01*
X37074Y37074D01*
X37357Y36784D01*
X37633Y36487D01*
X37902Y36184D01*
X38162Y35874D01*
X38416Y35557D01*
X38661Y35235D01*
X38898Y34907D01*
X39128Y34572D01*
X39349Y34233D01*
X39561Y33888D01*
X39765Y33538D01*
X39961Y33183D01*
X40147Y32823D01*
X40325Y32459D01*
X40494Y32091D01*
X40653Y31718D01*
X40804Y31342D01*
X40945Y30962D01*
X41077Y30579D01*
X41199Y30193D01*
X41312Y29803D01*
X41415Y29412D01*
X41509Y29017D01*
X41593Y28621D01*
X41667Y28223D01*
X41731Y27823D01*
X41786Y27421D01*
X41830Y27018D01*
X41865Y26615D01*
X41890Y26210D01*
X41905Y25805D01*
X41910Y25400D01*
X41905Y24995D01*
X41890Y24590D01*
X41865Y24185D01*
X41830Y23782D01*
X41786Y23379D01*
X41731Y22977D01*
X41667Y22577D01*
X41593Y22179D01*
X41509Y21783D01*
X41415Y21388D01*
X41312Y20997D01*
X41199Y20607D01*
X41077Y20221D01*
X40945Y19838D01*
X40804Y19458D01*
X40653Y19082D01*
X40494Y18709D01*
X40325Y18341D01*
X40147Y17977D01*
X39961Y17617D01*
X39765Y17262D01*
X39561Y16912D01*
X39349Y16567D01*
X39128Y16228D01*
X38898Y15893D01*
X38661Y15565D01*
X38416Y15243D01*
X38162Y14926D01*
X37902Y14616D01*
X37633Y14313D01*
X37357Y14016D01*
X37074Y13726D01*
X36784Y13443D01*
X36487Y13167D01*
X36184Y12898D01*
X35874Y12638D01*
X35557Y12384D01*
X35235Y12139D01*
X34907Y11902D01*
X34572Y11672D01*
X34233Y11451D01*
X33888Y11239D01*
X33538Y11035D01*
X33183Y10839D01*
X32823Y10653D01*
X32459Y10475D01*
X32091Y10306D01*
X31718Y10147D01*
X31342Y9996D01*
X30962Y9855D01*
X30579Y9723D01*
X30193Y9601D01*
X29803Y9488D01*
X29412Y9385D01*
X29017Y9291D01*
X28621Y9207D01*
X28223Y9133D01*
X27823Y9069D01*
X27421Y9014D01*
X27018Y8970D01*
X26615Y8935D01*
X26210Y8910D01*
X25805Y8895D01*
X25400Y8890D01*
X24995Y8895D01*
X24590Y8910D01*
X24185Y8935D01*
X23782Y8970D01*
X23379Y9014D01*
X22977Y9069D01*
X22577Y9133D01*
X22179Y9207D01*
X21783Y9291D01*
X21388Y9385D01*
X20997Y9488D01*
X20607Y9601D01*
X20221Y9723D01*
X19838Y9855D01*
X19458Y9996D01*
X19082Y10147D01*
X18709Y10306D01*
X18341Y10475D01*
X17977Y10653D01*
X17617Y10839D01*
X17262Y11035D01*
X16912Y11239D01*
X16567Y11451D01*
X16228Y11672D01*
X15893Y11902D01*
X15565Y12139D01*
X15243Y12384D01*
X14926Y12638D01*
X14616Y12898D01*
X14313Y13167D01*
X14016Y13443D01*
X13726Y13726D01*
X13443Y14016D01*
X13167Y14313D01*
X12898Y14616D01*
X12638Y14926D01*
X12384Y15243D01*
X12139Y15565D01*
X11902Y15893D01*
X11672Y16228D01*
X11451Y16567D01*
X11239Y16912D01*
X11035Y17262D01*
X10839Y17617D01*
X10653Y17977D01*
X10475Y18341D01*
X10306Y18709D01*
X10147Y19082D01*
X9996Y19458D01*
X9855Y19838D01*
X9723Y20221D01*
X9601Y20607D01*
X9488Y20997D01*
X9385Y21388D01*
X9291Y21783D01*
X9207Y22179D01*
X9133Y22577D01*
X9069Y22977D01*
X9014Y23379D01*
X8970Y23782D01*
X8935Y24185D01*
X8910Y24590D01*
X8895Y24995D01*
X8890Y25400D01*
X8890Y279400D02*
X8895Y279805D01*
X8910Y280210D01*
X8935Y280615D01*
X8970Y281018D01*
X9014Y281421D01*
X9069Y281823D01*
X9133Y282223D01*
X9207Y282621D01*
X9291Y283017D01*
X9385Y283412D01*
X9488Y283803D01*
X9601Y284193D01*
X9723Y284579D01*
X9855Y284962D01*
X9996Y285342D01*
X10147Y285718D01*
X10306Y286091D01*
X10475Y286459D01*
X10653Y286823D01*
X10839Y287183D01*
X11035Y287538D01*
X11239Y287888D01*
X11451Y288233D01*
X11672Y288572D01*
X11902Y288907D01*
X12139Y289235D01*
X12384Y289557D01*
X12638Y289874D01*
X12898Y290184D01*
X13167Y290487D01*
X13443Y290784D01*
X13726Y291074D01*
X14016Y291357D01*
X14313Y291633D01*
X14616Y291902D01*
X14926Y292162D01*
X15243Y292416D01*
X15565Y292661D01*
X15893Y292898D01*
X16228Y293128D01*
X16567Y293349D01*
X16912Y293561D01*
X17262Y293765D01*
X17617Y293961D01*
X17977Y294147D01*
X18341Y294325D01*
X18709Y294494D01*
X19082Y294653D01*
X19458Y294804D01*
X19838Y294945D01*
X20221Y295077D01*
X20607Y295199D01*
X20997Y295312D01*
X21388Y295415D01*
X21783Y295509D01*
X22179Y295593D01*
X22577Y295667D01*
X22977Y295731D01*
X23379Y295786D01*
X23782Y295830D01*
X24185Y295865D01*
X24590Y295890D01*
X24995Y295905D01*
X25400Y295910D01*
X25805Y295905D01*
X26210Y295890D01*
X26615Y295865D01*
X27018Y295830D01*
X27421Y295786D01*
X27823Y295731D01*
X28223Y295667D01*
X28621Y295593D01*
X29017Y295509D01*
X29412Y295415D01*
X29803Y295312D01*
X30193Y295199D01*
X30579Y295077D01*
X30962Y294945D01*
X31342Y294804D01*
X31718Y294653D01*
X32091Y294494D01*
X32459Y294325D01*
X32823Y294147D01*
X33183Y293961D01*
X33538Y293765D01*
X33888Y293561D01*
X34233Y293349D01*
X34572Y293128D01*
X34907Y292898D01*
X35235Y292661D01*
X35557Y292416D01*
X35874Y292162D01*
X36184Y291902D01*
X36487Y291633D01*
X36784Y291357D01*
X37074Y291074D01*
X37357Y290784D01*
X37633Y290487D01*
X37902Y290184D01*
X38162Y289874D01*
X38416Y289557D01*
X38661Y289235D01*
X38898Y288907D01*
X39128Y288572D01*
X39349Y288233D01*
X39561Y287888D01*
X39765Y287538D01*
X39961Y287183D01*
X40147Y286823D01*
X40325Y286459D01*
X40494Y286091D01*
X40653Y285718D01*
X40804Y285342D01*
X40945Y284962D01*
X41077Y284579D01*
X41199Y284193D01*
X41312Y283803D01*
X41415Y283412D01*
X41509Y283017D01*
X41593Y282621D01*
X41667Y282223D01*
X41731Y281823D01*
X41786Y281421D01*
X41830Y281018D01*
X41865Y280615D01*
X41890Y280210D01*
X41905Y279805D01*
X41910Y279400D01*
X41905Y278995D01*
X41890Y278590D01*
X41865Y278185D01*
X41830Y277782D01*
X41786Y277379D01*
X41731Y276977D01*
X41667Y276577D01*
X41593Y276179D01*
X41509Y275783D01*
X41415Y275388D01*
X41312Y274997D01*
X41199Y274607D01*
X41077Y274221D01*
X40945Y273838D01*
X40804Y273458D01*
X40653Y273082D01*
X40494Y272709D01*
X40325Y272341D01*
X40147Y271977D01*
X39961Y271617D01*
X39765Y271262D01*
X39561Y270912D01*
X39349Y270567D01*
X39128Y270228D01*
X38898Y269893D01*
X38661Y269565D01*
X38416Y269243D01*
X38162Y268926D01*
X37902Y268616D01*
X37633Y268313D01*
X37357Y268016D01*
X37074Y267726D01*
X36784Y267443D01*
X36487Y267167D01*
X36184Y266898D01*
X35874Y266638D01*
X35557Y266384D01*
X35235Y266139D01*
X34907Y265902D01*
X34572Y265672D01*
X34233Y265451D01*
X33888Y265239D01*
X33538Y265035D01*
X33183Y264839D01*
X32823Y264653D01*
X32459Y264475D01*
X32091Y264306D01*
X31718Y264147D01*
X31342Y263996D01*
X30962Y263855D01*
X30579Y263723D01*
X30193Y263601D01*
X29803Y263488D01*
X29412Y263385D01*
X29017Y263291D01*
X28621Y263207D01*
X28223Y263133D01*
X27823Y263069D01*
X27421Y263014D01*
X27018Y262970D01*
X26615Y262935D01*
X26210Y262910D01*
X25805Y262895D01*
X25400Y262890D01*
X24995Y262895D01*
X24590Y262910D01*
X24185Y262935D01*
X23782Y262970D01*
X23379Y263014D01*
X22977Y263069D01*
X22577Y263133D01*
X22179Y263207D01*
X21783Y263291D01*
X21388Y263385D01*
X20997Y263488D01*
X20607Y263601D01*
X20221Y263723D01*
X19838Y263855D01*
X19458Y263996D01*
X19082Y264147D01*
X18709Y264306D01*
X18341Y264475D01*
X17977Y264653D01*
X17617Y264839D01*
X17262Y265035D01*
X16912Y265239D01*
X16567Y265451D01*
X16228Y265672D01*
X15893Y265902D01*
X15565Y266139D01*
X15243Y266384D01*
X14926Y266638D01*
X14616Y266898D01*
X14313Y267167D01*
X14016Y267443D01*
X13726Y267726D01*
X13443Y268016D01*
X13167Y268313D01*
X12898Y268616D01*
X12638Y268926D01*
X12384Y269243D01*
X12139Y269565D01*
X11902Y269893D01*
X11672Y270228D01*
X11451Y270567D01*
X11239Y270912D01*
X11035Y271262D01*
X10839Y271617D01*
X10653Y271977D01*
X10475Y272341D01*
X10306Y272709D01*
X10147Y273082D01*
X9996Y273458D01*
X9855Y273838D01*
X9723Y274221D01*
X9601Y274607D01*
X9488Y274997D01*
X9385Y275388D01*
X9291Y275783D01*
X9207Y276179D01*
X9133Y276577D01*
X9069Y276977D01*
X9014Y277379D01*
X8970Y277782D01*
X8935Y278185D01*
X8910Y278590D01*
X8895Y278995D01*
X8890Y279400D01*
X339090Y279400D02*
X339095Y279805D01*
X339110Y280210D01*
X339135Y280615D01*
X339170Y281018D01*
X339214Y281421D01*
X339269Y281823D01*
X339333Y282223D01*
X339407Y282621D01*
X339491Y283017D01*
X339585Y283412D01*
X339688Y283803D01*
X339801Y284193D01*
X339923Y284579D01*
X340055Y284962D01*
X340196Y285342D01*
X340347Y285718D01*
X340506Y286091D01*
X340675Y286459D01*
X340853Y286823D01*
X341039Y287183D01*
X341235Y287538D01*
X341439Y287888D01*
X341651Y288233D01*
X341872Y288572D01*
X342102Y288907D01*
X342339Y289235D01*
X342584Y289557D01*
X342838Y289874D01*
X343098Y290184D01*
X343367Y290487D01*
X343643Y290784D01*
X343926Y291074D01*
X344216Y291357D01*
X344513Y291633D01*
X344816Y291902D01*
X345126Y292162D01*
X345443Y292416D01*
X345765Y292661D01*
X346093Y292898D01*
X346428Y293128D01*
X346767Y293349D01*
X347112Y293561D01*
X347462Y293765D01*
X347817Y293961D01*
X348177Y294147D01*
X348541Y294325D01*
X348909Y294494D01*
X349282Y294653D01*
X349658Y294804D01*
X350038Y294945D01*
X350421Y295077D01*
X350807Y295199D01*
X351197Y295312D01*
X351588Y295415D01*
X351983Y295509D01*
X352379Y295593D01*
X352777Y295667D01*
X353177Y295731D01*
X353579Y295786D01*
X353982Y295830D01*
X354385Y295865D01*
X354790Y295890D01*
X355195Y295905D01*
X355600Y295910D01*
X356005Y295905D01*
X356410Y295890D01*
X356815Y295865D01*
X357218Y295830D01*
X357621Y295786D01*
X358023Y295731D01*
X358423Y295667D01*
X358821Y295593D01*
X359217Y295509D01*
X359612Y295415D01*
X360003Y295312D01*
X360393Y295199D01*
X360779Y295077D01*
X361162Y294945D01*
X361542Y294804D01*
X361918Y294653D01*
X362291Y294494D01*
X362659Y294325D01*
X363023Y294147D01*
X363383Y293961D01*
X363738Y293765D01*
X364088Y293561D01*
X364433Y293349D01*
X364772Y293128D01*
X365107Y292898D01*
X365435Y292661D01*
X365757Y292416D01*
X366074Y292162D01*
X366384Y291902D01*
X366687Y291633D01*
X366984Y291357D01*
X367274Y291074D01*
X367557Y290784D01*
X367833Y290487D01*
X368102Y290184D01*
X368362Y289874D01*
X368616Y289557D01*
X368861Y289235D01*
X369098Y288907D01*
X369328Y288572D01*
X369549Y288233D01*
X369761Y287888D01*
X369965Y287538D01*
X370161Y287183D01*
X370347Y286823D01*
X370525Y286459D01*
X370694Y286091D01*
X370853Y285718D01*
X371004Y285342D01*
X371145Y284962D01*
X371277Y284579D01*
X371399Y284193D01*
X371512Y283803D01*
X371615Y283412D01*
X371709Y283017D01*
X371793Y282621D01*
X371867Y282223D01*
X371931Y281823D01*
X371986Y281421D01*
X372030Y281018D01*
X372065Y280615D01*
X372090Y280210D01*
X372105Y279805D01*
X372110Y279400D01*
X372105Y278995D01*
X372090Y278590D01*
X372065Y278185D01*
X372030Y277782D01*
X371986Y277379D01*
X371931Y276977D01*
X371867Y276577D01*
X371793Y276179D01*
X371709Y275783D01*
X371615Y275388D01*
X371512Y274997D01*
X371399Y274607D01*
X371277Y274221D01*
X371145Y273838D01*
X371004Y273458D01*
X370853Y273082D01*
X370694Y272709D01*
X370525Y272341D01*
X370347Y271977D01*
X370161Y271617D01*
X369965Y271262D01*
X369761Y270912D01*
X369549Y270567D01*
X369328Y270228D01*
X369098Y269893D01*
X368861Y269565D01*
X368616Y269243D01*
X368362Y268926D01*
X368102Y268616D01*
X367833Y268313D01*
X367557Y268016D01*
X367274Y267726D01*
X366984Y267443D01*
X366687Y267167D01*
X366384Y266898D01*
X366074Y266638D01*
X365757Y266384D01*
X365435Y266139D01*
X365107Y265902D01*
X364772Y265672D01*
X364433Y265451D01*
X364088Y265239D01*
X363738Y265035D01*
X363383Y264839D01*
X363023Y264653D01*
X362659Y264475D01*
X362291Y264306D01*
X361918Y264147D01*
X361542Y263996D01*
X361162Y263855D01*
X360779Y263723D01*
X360393Y263601D01*
X360003Y263488D01*
X359612Y263385D01*
X359217Y263291D01*
X358821Y263207D01*
X358423Y263133D01*
X358023Y263069D01*
X357621Y263014D01*
X357218Y262970D01*
X356815Y262935D01*
X356410Y262910D01*
X356005Y262895D01*
X355600Y262890D01*
X355195Y262895D01*
X354790Y262910D01*
X354385Y262935D01*
X353982Y262970D01*
X353579Y263014D01*
X353177Y263069D01*
X352777Y263133D01*
X352379Y263207D01*
X351983Y263291D01*
X351588Y263385D01*
X351197Y263488D01*
X350807Y263601D01*
X350421Y263723D01*
X350038Y263855D01*
X349658Y263996D01*
X349282Y264147D01*
X348909Y264306D01*
X348541Y264475D01*
X348177Y264653D01*
X347817Y264839D01*
X347462Y265035D01*
X347112Y265239D01*
X346767Y265451D01*
X346428Y265672D01*
X346093Y265902D01*
X345765Y266139D01*
X345443Y266384D01*
X345126Y266638D01*
X344816Y266898D01*
X344513Y267167D01*
X344216Y267443D01*
X343926Y267726D01*
X343643Y268016D01*
X343367Y268313D01*
X343098Y268616D01*
X342838Y268926D01*
X342584Y269243D01*
X342339Y269565D01*
X342102Y269893D01*
X341872Y270228D01*
X341651Y270567D01*
X341439Y270912D01*
X341235Y271262D01*
X341039Y271617D01*
X340853Y271977D01*
X340675Y272341D01*
X340506Y272709D01*
X340347Y273082D01*
X340196Y273458D01*
X340055Y273838D01*
X339923Y274221D01*
X339801Y274607D01*
X339688Y274997D01*
X339585Y275388D01*
X339491Y275783D01*
X339407Y276179D01*
X339333Y276577D01*
X339269Y276977D01*
X339214Y277379D01*
X339170Y277782D01*
X339135Y278185D01*
X339110Y278590D01*
X339095Y278995D01*
X339090Y279400D01*
D12*
X311000Y188400D02*
X381000Y188400D01*
X311000Y188400D02*
X310758Y188397D01*
X310517Y188388D01*
X310276Y188374D01*
X310035Y188353D01*
X309795Y188327D01*
X309555Y188295D01*
X309316Y188257D01*
X309079Y188214D01*
X308842Y188164D01*
X308607Y188109D01*
X308373Y188049D01*
X308141Y187982D01*
X307910Y187911D01*
X307681Y187833D01*
X307454Y187750D01*
X307229Y187662D01*
X307006Y187568D01*
X306786Y187469D01*
X306568Y187364D01*
X306353Y187255D01*
X306140Y187140D01*
X305930Y187020D01*
X305724Y186895D01*
X305520Y186765D01*
X305319Y186630D01*
X305122Y186490D01*
X304928Y186346D01*
X304738Y186197D01*
X304552Y186043D01*
X304369Y185885D01*
X304190Y185723D01*
X304015Y185556D01*
X303844Y185385D01*
X303677Y185210D01*
X303515Y185031D01*
X303357Y184848D01*
X303203Y184662D01*
X303054Y184472D01*
X302910Y184278D01*
X302770Y184081D01*
X302635Y183880D01*
X302505Y183676D01*
X302380Y183470D01*
X302260Y183260D01*
X302145Y183047D01*
X302036Y182832D01*
X301931Y182614D01*
X301832Y182394D01*
X301738Y182171D01*
X301650Y181946D01*
X301567Y181719D01*
X301489Y181490D01*
X301418Y181259D01*
X301351Y181027D01*
X301291Y180793D01*
X301236Y180558D01*
X301186Y180321D01*
X301143Y180084D01*
X301105Y179845D01*
X301073Y179605D01*
X301047Y179365D01*
X301026Y179124D01*
X301012Y178883D01*
X301003Y178642D01*
X301000Y178400D01*
X301000Y177400D01*
X301003Y177158D01*
X301012Y176917D01*
X301026Y176676D01*
X301047Y176435D01*
X301073Y176195D01*
X301105Y175955D01*
X301143Y175716D01*
X301186Y175479D01*
X301236Y175242D01*
X301291Y175007D01*
X301351Y174773D01*
X301418Y174541D01*
X301489Y174310D01*
X301567Y174081D01*
X301650Y173854D01*
X301738Y173629D01*
X301832Y173406D01*
X301931Y173186D01*
X302036Y172968D01*
X302145Y172753D01*
X302260Y172540D01*
X302380Y172330D01*
X302505Y172124D01*
X302635Y171920D01*
X302770Y171719D01*
X302910Y171522D01*
X303054Y171328D01*
X303203Y171138D01*
X303357Y170952D01*
X303515Y170769D01*
X303677Y170590D01*
X303844Y170415D01*
X304015Y170244D01*
X304190Y170077D01*
X304369Y169915D01*
X304552Y169757D01*
X304738Y169603D01*
X304928Y169454D01*
X305122Y169310D01*
X305319Y169170D01*
X305520Y169035D01*
X305724Y168905D01*
X305930Y168780D01*
X306140Y168660D01*
X306353Y168545D01*
X306568Y168436D01*
X306786Y168331D01*
X307006Y168232D01*
X307229Y168138D01*
X307454Y168050D01*
X307681Y167967D01*
X307910Y167889D01*
X308141Y167818D01*
X308373Y167751D01*
X308607Y167691D01*
X308842Y167636D01*
X309079Y167586D01*
X309316Y167543D01*
X309555Y167505D01*
X309795Y167473D01*
X310035Y167447D01*
X310276Y167426D01*
X310517Y167412D01*
X310758Y167403D01*
X311000Y167400D01*
X311000Y137400D01*
X311000Y116400D02*
X381000Y116400D01*
D13*
X354449Y142039D02*
X350207Y142039D01*
X350207Y144159D01*
X350914Y144866D01*
X352328Y144866D01*
X353035Y144159D01*
X353035Y142039D01*
X353035Y143452D02*
X354449Y144866D01*
X354449Y147349D02*
X354449Y148763D01*
X353742Y149470D01*
X352328Y149470D01*
X351621Y148763D01*
X351621Y147349D01*
X352328Y146642D01*
X353742Y146642D01*
X354449Y147349D01*
X353742Y151246D02*
X351621Y151246D01*
X353742Y151246D02*
X354449Y151953D01*
X354449Y154074D01*
X351621Y154074D01*
X350914Y156557D02*
X353742Y156557D01*
X354449Y157264D01*
X351621Y157264D02*
X351621Y155850D01*
X354449Y159626D02*
X354449Y161040D01*
X354449Y159626D02*
X353742Y158920D01*
X352328Y158920D01*
X351621Y159626D01*
X351621Y161040D01*
X352328Y161747D01*
X353035Y161747D01*
X353035Y158920D01*
X357707Y148763D02*
X357707Y147349D01*
X358414Y146642D01*
X361242Y146642D01*
X361949Y147349D01*
X361949Y148763D01*
X361242Y149470D01*
X358414Y149470D01*
X357707Y148763D01*
X359121Y151246D02*
X361242Y151246D01*
X361949Y151953D01*
X361949Y154074D01*
X359121Y154074D01*
X358414Y156557D02*
X361242Y156557D01*
X361949Y157264D01*
X359121Y157264D02*
X359121Y155850D01*
D12*
X310800Y116400D02*
X310563Y116403D01*
X310327Y116411D01*
X310090Y116426D01*
X309854Y116446D01*
X309619Y116471D01*
X309384Y116503D01*
X309150Y116540D01*
X308917Y116583D01*
X308685Y116631D01*
X308455Y116685D01*
X308225Y116744D01*
X307998Y116809D01*
X307772Y116880D01*
X307547Y116956D01*
X307325Y117037D01*
X307104Y117123D01*
X306886Y117215D01*
X306670Y117313D01*
X306457Y117415D01*
X306246Y117523D01*
X306037Y117635D01*
X305832Y117753D01*
X305629Y117875D01*
X305429Y118003D01*
X305233Y118135D01*
X305040Y118272D01*
X304850Y118413D01*
X304663Y118559D01*
X304481Y118710D01*
X304301Y118865D01*
X304126Y119024D01*
X303955Y119187D01*
X303787Y119355D01*
X303624Y119526D01*
X303465Y119701D01*
X303310Y119881D01*
X303159Y120063D01*
X303013Y120250D01*
X302872Y120440D01*
X302735Y120633D01*
X302603Y120829D01*
X302475Y121029D01*
X302353Y121232D01*
X302235Y121437D01*
X302123Y121646D01*
X302015Y121857D01*
X301913Y122070D01*
X301815Y122286D01*
X301723Y122504D01*
X301637Y122725D01*
X301556Y122947D01*
X301480Y123172D01*
X301409Y123398D01*
X301344Y123625D01*
X301285Y123855D01*
X301231Y124085D01*
X301183Y124317D01*
X301140Y124550D01*
X301103Y124784D01*
X301071Y125019D01*
X301046Y125254D01*
X301026Y125490D01*
X301011Y125727D01*
X301003Y125963D01*
X301000Y126200D01*
X301000Y127400D01*
X301003Y127642D01*
X301012Y127883D01*
X301026Y128124D01*
X301047Y128365D01*
X301073Y128605D01*
X301105Y128845D01*
X301143Y129084D01*
X301186Y129321D01*
X301236Y129558D01*
X301291Y129793D01*
X301351Y130027D01*
X301418Y130259D01*
X301489Y130490D01*
X301567Y130719D01*
X301650Y130946D01*
X301738Y131171D01*
X301832Y131394D01*
X301931Y131614D01*
X302036Y131832D01*
X302145Y132047D01*
X302260Y132260D01*
X302380Y132470D01*
X302505Y132676D01*
X302635Y132880D01*
X302770Y133081D01*
X302910Y133278D01*
X303054Y133472D01*
X303203Y133662D01*
X303357Y133848D01*
X303515Y134031D01*
X303677Y134210D01*
X303844Y134385D01*
X304015Y134556D01*
X304190Y134723D01*
X304369Y134885D01*
X304552Y135043D01*
X304738Y135197D01*
X304928Y135346D01*
X305122Y135490D01*
X305319Y135630D01*
X305520Y135765D01*
X305724Y135895D01*
X305930Y136020D01*
X306140Y136140D01*
X306353Y136255D01*
X306568Y136364D01*
X306786Y136469D01*
X307006Y136568D01*
X307229Y136662D01*
X307454Y136750D01*
X307681Y136833D01*
X307910Y136911D01*
X308141Y136982D01*
X308373Y137049D01*
X308607Y137109D01*
X308842Y137164D01*
X309079Y137214D01*
X309316Y137257D01*
X309555Y137295D01*
X309795Y137327D01*
X310035Y137353D01*
X310276Y137374D01*
X310517Y137388D01*
X310758Y137397D01*
X311000Y137400D01*
D14*
X0Y0D02*
X381000Y0D01*
X381000Y304800D01*
X0Y304800D01*
X0Y0D01*
X372110Y24860D02*
X372039Y23781D01*
X371898Y22709D01*
X371687Y21649D01*
X371408Y20605D01*
X371060Y19581D01*
X370646Y18583D01*
X370168Y17613D01*
X369628Y16677D01*
X369027Y15778D01*
X368369Y14921D01*
X367657Y14108D01*
X366892Y13344D01*
X366079Y12631D01*
X365222Y11973D01*
X364323Y11372D01*
X363387Y10832D01*
X362417Y10354D01*
X361419Y9940D01*
X360395Y9592D01*
X359351Y9313D01*
X358291Y9102D01*
X357219Y8961D01*
X356140Y8890D01*
X355060Y8890D01*
X353981Y8961D01*
X352909Y9102D01*
X351849Y9313D01*
X350805Y9592D01*
X349781Y9940D01*
X348783Y10354D01*
X347813Y10832D01*
X346877Y11372D01*
X345978Y11973D01*
X345121Y12631D01*
X344308Y13344D01*
X343544Y14108D01*
X342831Y14921D01*
X342173Y15778D01*
X341572Y16677D01*
X341032Y17613D01*
X340554Y18583D01*
X340140Y19581D01*
X339792Y20605D01*
X339513Y21649D01*
X339302Y22709D01*
X339161Y23781D01*
X339090Y24860D01*
X339090Y25940D01*
X339161Y27019D01*
X339302Y28091D01*
X339513Y29151D01*
X339792Y30195D01*
X340140Y31219D01*
X340554Y32217D01*
X341032Y33187D01*
X341572Y34123D01*
X342173Y35022D01*
X342831Y35879D01*
X343544Y36692D01*
X344308Y37457D01*
X345121Y38169D01*
X345978Y38827D01*
X346877Y39428D01*
X347813Y39968D01*
X348783Y40446D01*
X349781Y40860D01*
X350805Y41208D01*
X351849Y41487D01*
X352909Y41698D01*
X353981Y41839D01*
X355060Y41910D01*
X356140Y41910D01*
X357219Y41839D01*
X358291Y41698D01*
X359351Y41487D01*
X360395Y41208D01*
X361419Y40860D01*
X362417Y40446D01*
X363387Y39968D01*
X364323Y39428D01*
X365222Y38827D01*
X366079Y38169D01*
X366892Y37457D01*
X367657Y36692D01*
X368369Y35879D01*
X369027Y35022D01*
X369628Y34123D01*
X370168Y33187D01*
X370646Y32217D01*
X371060Y31219D01*
X371408Y30195D01*
X371687Y29151D01*
X371898Y28091D01*
X372039Y27019D01*
X372110Y25940D01*
X372110Y24860D01*
X41910Y24860D02*
X41839Y23781D01*
X41698Y22709D01*
X41487Y21649D01*
X41208Y20605D01*
X40860Y19581D01*
X40446Y18583D01*
X39968Y17613D01*
X39428Y16677D01*
X38827Y15778D01*
X38169Y14921D01*
X37457Y14108D01*
X36692Y13344D01*
X35879Y12631D01*
X35022Y11973D01*
X34123Y11372D01*
X33187Y10832D01*
X32217Y10354D01*
X31219Y9940D01*
X30195Y9592D01*
X29151Y9313D01*
X28091Y9102D01*
X27019Y8961D01*
X25940Y8890D01*
X24860Y8890D01*
X23781Y8961D01*
X22709Y9102D01*
X21649Y9313D01*
X20605Y9592D01*
X19581Y9940D01*
X18583Y10354D01*
X17613Y10832D01*
X16677Y11372D01*
X15778Y11973D01*
X14921Y12631D01*
X14108Y13344D01*
X13344Y14108D01*
X12631Y14921D01*
X11973Y15778D01*
X11372Y16677D01*
X10832Y17613D01*
X10354Y18583D01*
X9940Y19581D01*
X9592Y20605D01*
X9313Y21649D01*
X9102Y22709D01*
X8961Y23781D01*
X8890Y24860D01*
X8890Y25940D01*
X8961Y27019D01*
X9102Y28091D01*
X9313Y29151D01*
X9592Y30195D01*
X9940Y31219D01*
X10354Y32217D01*
X10832Y33187D01*
X11372Y34123D01*
X11973Y35022D01*
X12631Y35879D01*
X13344Y36692D01*
X14108Y37457D01*
X14921Y38169D01*
X15778Y38827D01*
X16677Y39428D01*
X17613Y39968D01*
X18583Y40446D01*
X19581Y40860D01*
X20605Y41208D01*
X21649Y41487D01*
X22709Y41698D01*
X23781Y41839D01*
X24860Y41910D01*
X25940Y41910D01*
X27019Y41839D01*
X28091Y41698D01*
X29151Y41487D01*
X30195Y41208D01*
X31219Y40860D01*
X32217Y40446D01*
X33187Y39968D01*
X34123Y39428D01*
X35022Y38827D01*
X35879Y38169D01*
X36692Y37457D01*
X37457Y36692D01*
X38169Y35879D01*
X38827Y35022D01*
X39428Y34123D01*
X39968Y33187D01*
X40446Y32217D01*
X40860Y31219D01*
X41208Y30195D01*
X41487Y29151D01*
X41698Y28091D01*
X41839Y27019D01*
X41910Y25940D01*
X41910Y24860D01*
X41910Y278860D02*
X41839Y277781D01*
X41698Y276709D01*
X41487Y275649D01*
X41208Y274605D01*
X40860Y273581D01*
X40446Y272583D01*
X39968Y271613D01*
X39428Y270677D01*
X38827Y269778D01*
X38169Y268921D01*
X37457Y268108D01*
X36692Y267344D01*
X35879Y266631D01*
X35022Y265973D01*
X34123Y265372D01*
X33187Y264832D01*
X32217Y264354D01*
X31219Y263940D01*
X30195Y263592D01*
X29151Y263313D01*
X28091Y263102D01*
X27019Y262961D01*
X25940Y262890D01*
X24860Y262890D01*
X23781Y262961D01*
X22709Y263102D01*
X21649Y263313D01*
X20605Y263592D01*
X19581Y263940D01*
X18583Y264354D01*
X17613Y264832D01*
X16677Y265372D01*
X15778Y265973D01*
X14921Y266631D01*
X14108Y267344D01*
X13344Y268108D01*
X12631Y268921D01*
X11973Y269778D01*
X11372Y270677D01*
X10832Y271613D01*
X10354Y272583D01*
X9940Y273581D01*
X9592Y274605D01*
X9313Y275649D01*
X9102Y276709D01*
X8961Y277781D01*
X8890Y278860D01*
X8890Y279940D01*
X8961Y281019D01*
X9102Y282091D01*
X9313Y283151D01*
X9592Y284195D01*
X9940Y285219D01*
X10354Y286217D01*
X10832Y287187D01*
X11372Y288123D01*
X11973Y289022D01*
X12631Y289879D01*
X13344Y290692D01*
X14108Y291457D01*
X14921Y292169D01*
X15778Y292827D01*
X16677Y293428D01*
X17613Y293968D01*
X18583Y294446D01*
X19581Y294860D01*
X20605Y295208D01*
X21649Y295487D01*
X22709Y295698D01*
X23781Y295839D01*
X24860Y295910D01*
X25940Y295910D01*
X27019Y295839D01*
X28091Y295698D01*
X29151Y295487D01*
X30195Y295208D01*
X31219Y294860D01*
X32217Y294446D01*
X33187Y293968D01*
X34123Y293428D01*
X35022Y292827D01*
X35879Y292169D01*
X36692Y291457D01*
X37457Y290692D01*
X38169Y289879D01*
X38827Y289022D01*
X39428Y288123D01*
X39968Y287187D01*
X40446Y286217D01*
X40860Y285219D01*
X41208Y284195D01*
X41487Y283151D01*
X41698Y282091D01*
X41839Y281019D01*
X41910Y279940D01*
X41910Y278860D01*
X372110Y278860D02*
X372039Y277781D01*
X371898Y276709D01*
X371687Y275649D01*
X371408Y274605D01*
X371060Y273581D01*
X370646Y272583D01*
X370168Y271613D01*
X369628Y270677D01*
X369027Y269778D01*
X368369Y268921D01*
X367657Y268108D01*
X366892Y267344D01*
X366079Y266631D01*
X365222Y265973D01*
X364323Y265372D01*
X363387Y264832D01*
X362417Y264354D01*
X361419Y263940D01*
X360395Y263592D01*
X359351Y263313D01*
X358291Y263102D01*
X357219Y262961D01*
X356140Y262890D01*
X355060Y262890D01*
X353981Y262961D01*
X352909Y263102D01*
X351849Y263313D01*
X350805Y263592D01*
X349781Y263940D01*
X348783Y264354D01*
X347813Y264832D01*
X346877Y265372D01*
X345978Y265973D01*
X345121Y266631D01*
X344308Y267344D01*
X343544Y268108D01*
X342831Y268921D01*
X342173Y269778D01*
X341572Y270677D01*
X341032Y271613D01*
X340554Y272583D01*
X340140Y273581D01*
X339792Y274605D01*
X339513Y275649D01*
X339302Y276709D01*
X339161Y277781D01*
X339090Y278860D01*
X339090Y279940D01*
X339161Y281019D01*
X339302Y282091D01*
X339513Y283151D01*
X339792Y284195D01*
X340140Y285219D01*
X340554Y286217D01*
X341032Y287187D01*
X341572Y288123D01*
X342173Y289022D01*
X342831Y289879D01*
X343544Y290692D01*
X344308Y291457D01*
X345121Y292169D01*
X345978Y292827D01*
X346877Y293428D01*
X347813Y293968D01*
X348783Y294446D01*
X349781Y294860D01*
X350805Y295208D01*
X351849Y295487D01*
X352909Y295698D01*
X353981Y295839D01*
X355060Y295910D01*
X356140Y295910D01*
X357219Y295839D01*
X358291Y295698D01*
X359351Y295487D01*
X360395Y295208D01*
X361419Y294860D01*
X362417Y294446D01*
X363387Y293968D01*
X364323Y293428D01*
X365222Y292827D01*
X366079Y292169D01*
X366892Y291457D01*
X367657Y290692D01*
X368369Y289879D01*
X369027Y289022D01*
X369628Y288123D01*
X370168Y287187D01*
X370646Y286217D01*
X371060Y285219D01*
X371408Y284195D01*
X371687Y283151D01*
X371898Y282091D01*
X372039Y281019D01*
X372110Y279940D01*
X372110Y278860D01*
M02*
