G04 EAGLE Gerber RS-274X export*
G75*
%MOMM*%
%FSLAX34Y34*%
%LPD*%
%INSoldermask Bottom*%
%IPPOS*%
%AMOC8*
5,1,8,0,0,1.08239X$1,22.5*%
G01*
%ADD10C,2.082800*%
%ADD11R,1.473200X0.838200*%
%ADD12R,0.863600X1.473200*%
%ADD13C,0.838200*%
%ADD14C,3.505200*%

G36*
X128970Y252107D02*
X128970Y252107D01*
X129036Y252109D01*
X129079Y252127D01*
X129126Y252135D01*
X129183Y252169D01*
X129243Y252194D01*
X129278Y252225D01*
X129319Y252250D01*
X129361Y252301D01*
X129409Y252345D01*
X129431Y252387D01*
X129460Y252424D01*
X129481Y252486D01*
X129512Y252545D01*
X129520Y252599D01*
X129532Y252636D01*
X129531Y252676D01*
X129539Y252730D01*
X129539Y255270D01*
X129528Y255335D01*
X129526Y255401D01*
X129508Y255444D01*
X129500Y255491D01*
X129466Y255548D01*
X129441Y255608D01*
X129410Y255643D01*
X129385Y255684D01*
X129334Y255726D01*
X129290Y255774D01*
X129248Y255796D01*
X129211Y255825D01*
X129149Y255846D01*
X129090Y255877D01*
X129036Y255885D01*
X128999Y255897D01*
X128959Y255896D01*
X128905Y255904D01*
X125095Y255904D01*
X125030Y255893D01*
X124964Y255891D01*
X124921Y255873D01*
X124874Y255865D01*
X124817Y255831D01*
X124757Y255806D01*
X124722Y255775D01*
X124681Y255750D01*
X124640Y255699D01*
X124591Y255655D01*
X124569Y255613D01*
X124540Y255576D01*
X124519Y255514D01*
X124488Y255455D01*
X124480Y255401D01*
X124468Y255364D01*
X124468Y255361D01*
X124469Y255324D01*
X124461Y255270D01*
X124461Y252730D01*
X124472Y252665D01*
X124474Y252599D01*
X124492Y252556D01*
X124500Y252509D01*
X124534Y252452D01*
X124559Y252392D01*
X124590Y252357D01*
X124615Y252316D01*
X124666Y252275D01*
X124710Y252226D01*
X124752Y252204D01*
X124789Y252175D01*
X124851Y252154D01*
X124910Y252123D01*
X124964Y252115D01*
X125001Y252103D01*
X125041Y252104D01*
X125095Y252096D01*
X128905Y252096D01*
X128970Y252107D01*
G37*
G36*
X128970Y226707D02*
X128970Y226707D01*
X129036Y226709D01*
X129079Y226727D01*
X129126Y226735D01*
X129183Y226769D01*
X129243Y226794D01*
X129278Y226825D01*
X129319Y226850D01*
X129361Y226901D01*
X129409Y226945D01*
X129431Y226987D01*
X129460Y227024D01*
X129481Y227086D01*
X129512Y227145D01*
X129520Y227199D01*
X129532Y227236D01*
X129531Y227276D01*
X129539Y227330D01*
X129539Y229870D01*
X129528Y229935D01*
X129526Y230001D01*
X129508Y230044D01*
X129500Y230091D01*
X129466Y230148D01*
X129441Y230208D01*
X129410Y230243D01*
X129385Y230284D01*
X129334Y230326D01*
X129290Y230374D01*
X129248Y230396D01*
X129211Y230425D01*
X129149Y230446D01*
X129090Y230477D01*
X129036Y230485D01*
X128999Y230497D01*
X128959Y230496D01*
X128905Y230504D01*
X125095Y230504D01*
X125030Y230493D01*
X124964Y230491D01*
X124921Y230473D01*
X124874Y230465D01*
X124817Y230431D01*
X124757Y230406D01*
X124722Y230375D01*
X124681Y230350D01*
X124640Y230299D01*
X124591Y230255D01*
X124569Y230213D01*
X124540Y230176D01*
X124519Y230114D01*
X124488Y230055D01*
X124480Y230001D01*
X124468Y229964D01*
X124468Y229961D01*
X124469Y229924D01*
X124461Y229870D01*
X124461Y227330D01*
X124472Y227265D01*
X124474Y227199D01*
X124492Y227156D01*
X124500Y227109D01*
X124534Y227052D01*
X124559Y226992D01*
X124590Y226957D01*
X124615Y226916D01*
X124666Y226875D01*
X124710Y226826D01*
X124752Y226804D01*
X124789Y226775D01*
X124851Y226754D01*
X124910Y226723D01*
X124964Y226715D01*
X125001Y226703D01*
X125041Y226704D01*
X125095Y226696D01*
X128905Y226696D01*
X128970Y226707D01*
G37*
D10*
X228600Y292100D03*
X203200Y292100D03*
X177800Y292100D03*
X152400Y292100D03*
D11*
X152400Y84328D03*
X152400Y76200D03*
X152400Y68072D03*
D12*
X132207Y254000D03*
X121793Y254000D03*
D10*
X165100Y12700D03*
X190500Y12700D03*
X215900Y12700D03*
X241300Y12700D03*
X266700Y12700D03*
X292100Y12700D03*
D12*
X132207Y228600D03*
X121793Y228600D03*
D13*
X7620Y7620D03*
X373380Y297180D03*
D14*
X355600Y25400D03*
X25400Y25400D03*
X25400Y279400D03*
X355600Y279400D03*
D10*
X12700Y241300D03*
X12700Y215900D03*
X12700Y190500D03*
X12700Y165100D03*
X12700Y139700D03*
X12700Y114300D03*
X12700Y88900D03*
X12700Y63500D03*
M02*
