G04 EAGLE Gerber RS-274X export*
G75*
%MOMM*%
%FSLAX34Y34*%
%LPD*%
%INSoldermask Top*%
%IPPOS*%
%AMOC8*
5,1,8,0,0,1.08239X$1,22.5*%
G01*
%ADD10R,1.403200X2.203200*%
%ADD11R,0.803200X1.553200*%
%ADD12C,2.082800*%
%ADD13R,1.303200X1.203200*%
%ADD14R,4.200000X1.700000*%
%ADD15C,0.505344*%
%ADD16R,0.833200X1.033200*%
%ADD17R,1.053200X1.103200*%
%ADD18R,1.503200X1.003200*%
%ADD19R,1.503200X1.103200*%
%ADD20R,0.803200X0.803200*%
%ADD21C,0.838200*%
%ADD22C,3.505200*%
%ADD23R,7.203200X1.353200*%
%ADD24R,2.403200X1.103200*%

G36*
X60742Y188863D02*
X60742Y188863D01*
X60786Y188866D01*
X60808Y188882D01*
X60834Y188890D01*
X60863Y188923D01*
X60898Y188949D01*
X60908Y188975D01*
X60926Y188995D01*
X60933Y189039D01*
X60948Y189079D01*
X60943Y189106D01*
X60947Y189133D01*
X60929Y189174D01*
X60920Y189216D01*
X60894Y189252D01*
X60890Y189261D01*
X60885Y189265D01*
X60876Y189276D01*
X36876Y213276D01*
X36838Y213297D01*
X36805Y213326D01*
X36778Y213330D01*
X36754Y213343D01*
X36710Y213340D01*
X36667Y213347D01*
X36642Y213336D01*
X36614Y213334D01*
X36579Y213308D01*
X36539Y213290D01*
X36524Y213267D01*
X36502Y213251D01*
X36486Y213210D01*
X36462Y213174D01*
X36455Y213130D01*
X36452Y213121D01*
X36453Y213114D01*
X36451Y213100D01*
X36451Y189100D01*
X36456Y189084D01*
X36453Y189067D01*
X36475Y189017D01*
X36490Y188966D01*
X36503Y188955D01*
X36510Y188939D01*
X36555Y188909D01*
X36595Y188874D01*
X36612Y188871D01*
X36627Y188862D01*
X36700Y188851D01*
X60700Y188851D01*
X60742Y188863D01*
G37*
D10*
X73600Y14050D03*
X129600Y14050D03*
D11*
X86600Y50800D03*
X96600Y50800D03*
X106600Y50800D03*
X116600Y50800D03*
D12*
X228600Y292100D03*
X203200Y292100D03*
X177800Y292100D03*
X152400Y292100D03*
D10*
X129600Y290750D03*
X73600Y290750D03*
D11*
X116600Y254000D03*
X106600Y254000D03*
X96600Y254000D03*
X86600Y254000D03*
D13*
X122800Y196850D03*
X105800Y196850D03*
X122800Y177800D03*
X105800Y177800D03*
X55000Y139700D03*
X72000Y139700D03*
D14*
X57500Y234400D03*
D13*
X105800Y82550D03*
X122800Y82550D03*
X105800Y101600D03*
X122800Y101600D03*
D15*
X208480Y250510D02*
X208480Y257490D01*
X215460Y257490D01*
X215460Y250510D01*
X208480Y250510D01*
X208480Y255310D02*
X215460Y255310D01*
X190940Y257490D02*
X190940Y250510D01*
X190940Y257490D02*
X197920Y257490D01*
X197920Y250510D01*
X190940Y250510D01*
X190940Y255310D02*
X197920Y255310D01*
D16*
X52000Y177800D03*
X75000Y177800D03*
D13*
X55000Y158750D03*
X72000Y158750D03*
X173600Y254000D03*
X156600Y254000D03*
X258200Y177800D03*
X275200Y177800D03*
X258200Y196850D03*
X275200Y196850D03*
D15*
X208480Y225110D02*
X208480Y232090D01*
X215460Y232090D01*
X215460Y225110D01*
X208480Y225110D01*
X208480Y229910D02*
X215460Y229910D01*
X190940Y232090D02*
X190940Y225110D01*
X190940Y232090D02*
X197920Y232090D01*
X197920Y225110D01*
X190940Y225110D01*
X190940Y229910D02*
X197920Y229910D01*
D13*
X173600Y228600D03*
X156600Y228600D03*
D17*
X272500Y142240D03*
X260900Y142240D03*
D13*
X275200Y158750D03*
X258200Y158750D03*
D12*
X165100Y12700D03*
X190500Y12700D03*
X215900Y12700D03*
X241300Y12700D03*
X266700Y12700D03*
X292100Y12700D03*
D13*
X122800Y139700D03*
X105800Y139700D03*
X122800Y120650D03*
X105800Y120650D03*
X258200Y215900D03*
X275200Y215900D03*
X122800Y157480D03*
X105800Y157480D03*
D18*
X146000Y196400D03*
D19*
X146000Y185400D03*
X146000Y174400D03*
X146000Y163400D03*
X146000Y152400D03*
X146000Y141400D03*
X146000Y130400D03*
X146000Y119400D03*
D18*
X146000Y108400D03*
X235000Y108400D03*
D19*
X235000Y119400D03*
X235000Y130400D03*
X235000Y141400D03*
X235000Y152400D03*
X235000Y163400D03*
X235000Y174400D03*
X235000Y185400D03*
D18*
X235000Y196400D03*
D20*
X271780Y119460D03*
X271780Y129460D03*
D21*
X7620Y7620D03*
X373380Y297180D03*
D22*
X355600Y25400D03*
X25400Y25400D03*
X25400Y279400D03*
X355600Y279400D03*
D23*
X346000Y194900D03*
D24*
X300000Y152400D03*
D23*
X346000Y109900D03*
D12*
X12700Y241300D03*
X12700Y215900D03*
X12700Y190500D03*
X12700Y165100D03*
X12700Y139700D03*
X12700Y114300D03*
X12700Y88900D03*
X12700Y63500D03*
M02*
