G04 EAGLE Gerber RS-274X export*
G75*
%MOMM*%
%FSLAX34Y34*%
%LPD*%
%INSoldermask Top*%
%IPPOS*%
%AMOC8*
5,1,8,0,0,1.08239X$1,22.5*%
G01*
%ADD10R,1.403200X2.203200*%
%ADD11R,0.803200X1.553200*%
%ADD12C,2.082800*%
%ADD13R,1.303200X1.203200*%
%ADD14R,4.200000X1.700000*%
%ADD15C,0.505344*%
%ADD16R,0.833200X1.033200*%
%ADD17R,1.203200X1.303200*%
%ADD18R,0.803200X0.803200*%
%ADD19R,1.503200X1.003200*%
%ADD20R,1.503200X1.103200*%
%ADD21C,0.838200*%
%ADD22C,3.505200*%
%ADD23R,4.203200X1.703200*%
%ADD24C,1.203200*%
%ADD25C,1.270000*%
%ADD26C,1.703200*%

G36*
X1218982Y1118503D02*
X1218982Y1118503D01*
X1219026Y1118506D01*
X1219048Y1118522D01*
X1219074Y1118530D01*
X1219103Y1118563D01*
X1219138Y1118589D01*
X1219148Y1118615D01*
X1219166Y1118635D01*
X1219173Y1118679D01*
X1219188Y1118719D01*
X1219183Y1118746D01*
X1219187Y1118773D01*
X1219169Y1118814D01*
X1219160Y1118856D01*
X1219134Y1118892D01*
X1219130Y1118901D01*
X1219125Y1118905D01*
X1219116Y1118916D01*
X1195116Y1142916D01*
X1195078Y1142937D01*
X1195045Y1142966D01*
X1195018Y1142970D01*
X1194994Y1142983D01*
X1194950Y1142980D01*
X1194907Y1142987D01*
X1194882Y1142976D01*
X1194854Y1142974D01*
X1194819Y1142948D01*
X1194779Y1142930D01*
X1194764Y1142907D01*
X1194742Y1142891D01*
X1194726Y1142850D01*
X1194702Y1142814D01*
X1194695Y1142770D01*
X1194692Y1142761D01*
X1194693Y1142754D01*
X1194691Y1142740D01*
X1194691Y1118740D01*
X1194696Y1118724D01*
X1194693Y1118707D01*
X1194715Y1118657D01*
X1194730Y1118606D01*
X1194743Y1118595D01*
X1194750Y1118579D01*
X1194795Y1118549D01*
X1194835Y1118514D01*
X1194852Y1118511D01*
X1194867Y1118502D01*
X1194940Y1118491D01*
X1218940Y1118491D01*
X1218982Y1118503D01*
G37*
G36*
X832902Y1118503D02*
X832902Y1118503D01*
X832946Y1118506D01*
X832968Y1118522D01*
X832994Y1118530D01*
X833023Y1118563D01*
X833058Y1118589D01*
X833068Y1118615D01*
X833086Y1118635D01*
X833093Y1118679D01*
X833108Y1118719D01*
X833103Y1118746D01*
X833107Y1118773D01*
X833089Y1118814D01*
X833080Y1118856D01*
X833054Y1118892D01*
X833050Y1118901D01*
X833045Y1118905D01*
X833036Y1118916D01*
X809036Y1142916D01*
X808998Y1142937D01*
X808965Y1142966D01*
X808938Y1142970D01*
X808914Y1142983D01*
X808870Y1142980D01*
X808827Y1142987D01*
X808802Y1142976D01*
X808774Y1142974D01*
X808739Y1142948D01*
X808699Y1142930D01*
X808684Y1142907D01*
X808662Y1142891D01*
X808646Y1142850D01*
X808622Y1142814D01*
X808615Y1142770D01*
X808612Y1142761D01*
X808613Y1142754D01*
X808611Y1142740D01*
X808611Y1118740D01*
X808616Y1118724D01*
X808613Y1118707D01*
X808635Y1118657D01*
X808650Y1118606D01*
X808663Y1118595D01*
X808670Y1118579D01*
X808715Y1118549D01*
X808755Y1118514D01*
X808772Y1118511D01*
X808787Y1118502D01*
X808860Y1118491D01*
X832860Y1118491D01*
X832902Y1118503D01*
G37*
G36*
X446822Y1118503D02*
X446822Y1118503D01*
X446866Y1118506D01*
X446888Y1118522D01*
X446914Y1118530D01*
X446943Y1118563D01*
X446978Y1118589D01*
X446988Y1118615D01*
X447006Y1118635D01*
X447013Y1118679D01*
X447028Y1118719D01*
X447023Y1118746D01*
X447027Y1118773D01*
X447009Y1118814D01*
X447000Y1118856D01*
X446974Y1118892D01*
X446970Y1118901D01*
X446965Y1118905D01*
X446956Y1118916D01*
X422956Y1142916D01*
X422918Y1142937D01*
X422885Y1142966D01*
X422858Y1142970D01*
X422834Y1142983D01*
X422790Y1142980D01*
X422747Y1142987D01*
X422722Y1142976D01*
X422694Y1142974D01*
X422659Y1142948D01*
X422619Y1142930D01*
X422604Y1142907D01*
X422582Y1142891D01*
X422566Y1142850D01*
X422542Y1142814D01*
X422535Y1142770D01*
X422532Y1142761D01*
X422533Y1142754D01*
X422531Y1142740D01*
X422531Y1118740D01*
X422536Y1118724D01*
X422533Y1118707D01*
X422555Y1118657D01*
X422570Y1118606D01*
X422583Y1118595D01*
X422590Y1118579D01*
X422635Y1118549D01*
X422675Y1118514D01*
X422692Y1118511D01*
X422707Y1118502D01*
X422780Y1118491D01*
X446780Y1118491D01*
X446822Y1118503D01*
G37*
G36*
X60742Y1118503D02*
X60742Y1118503D01*
X60786Y1118506D01*
X60808Y1118522D01*
X60834Y1118530D01*
X60863Y1118563D01*
X60898Y1118589D01*
X60908Y1118615D01*
X60926Y1118635D01*
X60933Y1118679D01*
X60948Y1118719D01*
X60943Y1118746D01*
X60947Y1118773D01*
X60929Y1118814D01*
X60920Y1118856D01*
X60894Y1118892D01*
X60890Y1118901D01*
X60885Y1118905D01*
X60876Y1118916D01*
X36876Y1142916D01*
X36838Y1142937D01*
X36805Y1142966D01*
X36778Y1142970D01*
X36754Y1142983D01*
X36710Y1142980D01*
X36667Y1142987D01*
X36642Y1142976D01*
X36614Y1142974D01*
X36579Y1142948D01*
X36539Y1142930D01*
X36524Y1142907D01*
X36502Y1142891D01*
X36486Y1142850D01*
X36462Y1142814D01*
X36455Y1142770D01*
X36452Y1142761D01*
X36453Y1142754D01*
X36451Y1142740D01*
X36451Y1118740D01*
X36456Y1118724D01*
X36453Y1118707D01*
X36475Y1118657D01*
X36490Y1118606D01*
X36503Y1118595D01*
X36510Y1118579D01*
X36555Y1118549D01*
X36595Y1118514D01*
X36612Y1118511D01*
X36627Y1118502D01*
X36700Y1118491D01*
X60700Y1118491D01*
X60742Y1118503D01*
G37*
G36*
X1218982Y808623D02*
X1218982Y808623D01*
X1219026Y808626D01*
X1219048Y808642D01*
X1219074Y808650D01*
X1219103Y808683D01*
X1219138Y808709D01*
X1219148Y808735D01*
X1219166Y808755D01*
X1219173Y808799D01*
X1219188Y808839D01*
X1219183Y808866D01*
X1219187Y808893D01*
X1219169Y808934D01*
X1219160Y808976D01*
X1219134Y809012D01*
X1219130Y809021D01*
X1219125Y809025D01*
X1219116Y809036D01*
X1195116Y833036D01*
X1195078Y833057D01*
X1195045Y833086D01*
X1195018Y833090D01*
X1194994Y833103D01*
X1194950Y833100D01*
X1194907Y833107D01*
X1194882Y833096D01*
X1194854Y833094D01*
X1194819Y833068D01*
X1194779Y833050D01*
X1194764Y833027D01*
X1194742Y833011D01*
X1194726Y832970D01*
X1194702Y832934D01*
X1194695Y832890D01*
X1194692Y832881D01*
X1194693Y832874D01*
X1194691Y832860D01*
X1194691Y808860D01*
X1194696Y808844D01*
X1194693Y808827D01*
X1194715Y808777D01*
X1194730Y808726D01*
X1194743Y808715D01*
X1194750Y808699D01*
X1194795Y808669D01*
X1194835Y808634D01*
X1194852Y808631D01*
X1194867Y808622D01*
X1194940Y808611D01*
X1218940Y808611D01*
X1218982Y808623D01*
G37*
G36*
X832902Y808623D02*
X832902Y808623D01*
X832946Y808626D01*
X832968Y808642D01*
X832994Y808650D01*
X833023Y808683D01*
X833058Y808709D01*
X833068Y808735D01*
X833086Y808755D01*
X833093Y808799D01*
X833108Y808839D01*
X833103Y808866D01*
X833107Y808893D01*
X833089Y808934D01*
X833080Y808976D01*
X833054Y809012D01*
X833050Y809021D01*
X833045Y809025D01*
X833036Y809036D01*
X809036Y833036D01*
X808998Y833057D01*
X808965Y833086D01*
X808938Y833090D01*
X808914Y833103D01*
X808870Y833100D01*
X808827Y833107D01*
X808802Y833096D01*
X808774Y833094D01*
X808739Y833068D01*
X808699Y833050D01*
X808684Y833027D01*
X808662Y833011D01*
X808646Y832970D01*
X808622Y832934D01*
X808615Y832890D01*
X808612Y832881D01*
X808613Y832874D01*
X808611Y832860D01*
X808611Y808860D01*
X808616Y808844D01*
X808613Y808827D01*
X808635Y808777D01*
X808650Y808726D01*
X808663Y808715D01*
X808670Y808699D01*
X808715Y808669D01*
X808755Y808634D01*
X808772Y808631D01*
X808787Y808622D01*
X808860Y808611D01*
X832860Y808611D01*
X832902Y808623D01*
G37*
G36*
X446822Y808623D02*
X446822Y808623D01*
X446866Y808626D01*
X446888Y808642D01*
X446914Y808650D01*
X446943Y808683D01*
X446978Y808709D01*
X446988Y808735D01*
X447006Y808755D01*
X447013Y808799D01*
X447028Y808839D01*
X447023Y808866D01*
X447027Y808893D01*
X447009Y808934D01*
X447000Y808976D01*
X446974Y809012D01*
X446970Y809021D01*
X446965Y809025D01*
X446956Y809036D01*
X422956Y833036D01*
X422918Y833057D01*
X422885Y833086D01*
X422858Y833090D01*
X422834Y833103D01*
X422790Y833100D01*
X422747Y833107D01*
X422722Y833096D01*
X422694Y833094D01*
X422659Y833068D01*
X422619Y833050D01*
X422604Y833027D01*
X422582Y833011D01*
X422566Y832970D01*
X422542Y832934D01*
X422535Y832890D01*
X422532Y832881D01*
X422533Y832874D01*
X422531Y832860D01*
X422531Y808860D01*
X422536Y808844D01*
X422533Y808827D01*
X422555Y808777D01*
X422570Y808726D01*
X422583Y808715D01*
X422590Y808699D01*
X422635Y808669D01*
X422675Y808634D01*
X422692Y808631D01*
X422707Y808622D01*
X422780Y808611D01*
X446780Y808611D01*
X446822Y808623D01*
G37*
G36*
X60742Y808623D02*
X60742Y808623D01*
X60786Y808626D01*
X60808Y808642D01*
X60834Y808650D01*
X60863Y808683D01*
X60898Y808709D01*
X60908Y808735D01*
X60926Y808755D01*
X60933Y808799D01*
X60948Y808839D01*
X60943Y808866D01*
X60947Y808893D01*
X60929Y808934D01*
X60920Y808976D01*
X60894Y809012D01*
X60890Y809021D01*
X60885Y809025D01*
X60876Y809036D01*
X36876Y833036D01*
X36838Y833057D01*
X36805Y833086D01*
X36778Y833090D01*
X36754Y833103D01*
X36710Y833100D01*
X36667Y833107D01*
X36642Y833096D01*
X36614Y833094D01*
X36579Y833068D01*
X36539Y833050D01*
X36524Y833027D01*
X36502Y833011D01*
X36486Y832970D01*
X36462Y832934D01*
X36455Y832890D01*
X36452Y832881D01*
X36453Y832874D01*
X36451Y832860D01*
X36451Y808860D01*
X36456Y808844D01*
X36453Y808827D01*
X36475Y808777D01*
X36490Y808726D01*
X36503Y808715D01*
X36510Y808699D01*
X36555Y808669D01*
X36595Y808634D01*
X36612Y808631D01*
X36627Y808622D01*
X36700Y808611D01*
X60700Y808611D01*
X60742Y808623D01*
G37*
G36*
X1218982Y498743D02*
X1218982Y498743D01*
X1219026Y498746D01*
X1219048Y498762D01*
X1219074Y498770D01*
X1219103Y498803D01*
X1219138Y498829D01*
X1219148Y498855D01*
X1219166Y498875D01*
X1219173Y498919D01*
X1219188Y498959D01*
X1219183Y498986D01*
X1219187Y499013D01*
X1219169Y499054D01*
X1219160Y499096D01*
X1219134Y499132D01*
X1219130Y499141D01*
X1219125Y499145D01*
X1219116Y499156D01*
X1195116Y523156D01*
X1195078Y523177D01*
X1195045Y523206D01*
X1195018Y523210D01*
X1194994Y523223D01*
X1194950Y523220D01*
X1194907Y523227D01*
X1194882Y523216D01*
X1194854Y523214D01*
X1194819Y523188D01*
X1194779Y523170D01*
X1194764Y523147D01*
X1194742Y523131D01*
X1194726Y523090D01*
X1194702Y523054D01*
X1194695Y523010D01*
X1194692Y523001D01*
X1194693Y522994D01*
X1194691Y522980D01*
X1194691Y498980D01*
X1194696Y498964D01*
X1194693Y498947D01*
X1194715Y498897D01*
X1194730Y498846D01*
X1194743Y498835D01*
X1194750Y498819D01*
X1194795Y498789D01*
X1194835Y498754D01*
X1194852Y498751D01*
X1194867Y498742D01*
X1194940Y498731D01*
X1218940Y498731D01*
X1218982Y498743D01*
G37*
G36*
X832902Y498743D02*
X832902Y498743D01*
X832946Y498746D01*
X832968Y498762D01*
X832994Y498770D01*
X833023Y498803D01*
X833058Y498829D01*
X833068Y498855D01*
X833086Y498875D01*
X833093Y498919D01*
X833108Y498959D01*
X833103Y498986D01*
X833107Y499013D01*
X833089Y499054D01*
X833080Y499096D01*
X833054Y499132D01*
X833050Y499141D01*
X833045Y499145D01*
X833036Y499156D01*
X809036Y523156D01*
X808998Y523177D01*
X808965Y523206D01*
X808938Y523210D01*
X808914Y523223D01*
X808870Y523220D01*
X808827Y523227D01*
X808802Y523216D01*
X808774Y523214D01*
X808739Y523188D01*
X808699Y523170D01*
X808684Y523147D01*
X808662Y523131D01*
X808646Y523090D01*
X808622Y523054D01*
X808615Y523010D01*
X808612Y523001D01*
X808613Y522994D01*
X808611Y522980D01*
X808611Y498980D01*
X808616Y498964D01*
X808613Y498947D01*
X808635Y498897D01*
X808650Y498846D01*
X808663Y498835D01*
X808670Y498819D01*
X808715Y498789D01*
X808755Y498754D01*
X808772Y498751D01*
X808787Y498742D01*
X808860Y498731D01*
X832860Y498731D01*
X832902Y498743D01*
G37*
G36*
X446822Y498743D02*
X446822Y498743D01*
X446866Y498746D01*
X446888Y498762D01*
X446914Y498770D01*
X446943Y498803D01*
X446978Y498829D01*
X446988Y498855D01*
X447006Y498875D01*
X447013Y498919D01*
X447028Y498959D01*
X447023Y498986D01*
X447027Y499013D01*
X447009Y499054D01*
X447000Y499096D01*
X446974Y499132D01*
X446970Y499141D01*
X446965Y499145D01*
X446956Y499156D01*
X422956Y523156D01*
X422918Y523177D01*
X422885Y523206D01*
X422858Y523210D01*
X422834Y523223D01*
X422790Y523220D01*
X422747Y523227D01*
X422722Y523216D01*
X422694Y523214D01*
X422659Y523188D01*
X422619Y523170D01*
X422604Y523147D01*
X422582Y523131D01*
X422566Y523090D01*
X422542Y523054D01*
X422535Y523010D01*
X422532Y523001D01*
X422533Y522994D01*
X422531Y522980D01*
X422531Y498980D01*
X422536Y498964D01*
X422533Y498947D01*
X422555Y498897D01*
X422570Y498846D01*
X422583Y498835D01*
X422590Y498819D01*
X422635Y498789D01*
X422675Y498754D01*
X422692Y498751D01*
X422707Y498742D01*
X422780Y498731D01*
X446780Y498731D01*
X446822Y498743D01*
G37*
G36*
X60742Y498743D02*
X60742Y498743D01*
X60786Y498746D01*
X60808Y498762D01*
X60834Y498770D01*
X60863Y498803D01*
X60898Y498829D01*
X60908Y498855D01*
X60926Y498875D01*
X60933Y498919D01*
X60948Y498959D01*
X60943Y498986D01*
X60947Y499013D01*
X60929Y499054D01*
X60920Y499096D01*
X60894Y499132D01*
X60890Y499141D01*
X60885Y499145D01*
X60876Y499156D01*
X36876Y523156D01*
X36838Y523177D01*
X36805Y523206D01*
X36778Y523210D01*
X36754Y523223D01*
X36710Y523220D01*
X36667Y523227D01*
X36642Y523216D01*
X36614Y523214D01*
X36579Y523188D01*
X36539Y523170D01*
X36524Y523147D01*
X36502Y523131D01*
X36486Y523090D01*
X36462Y523054D01*
X36455Y523010D01*
X36452Y523001D01*
X36453Y522994D01*
X36451Y522980D01*
X36451Y498980D01*
X36456Y498964D01*
X36453Y498947D01*
X36475Y498897D01*
X36490Y498846D01*
X36503Y498835D01*
X36510Y498819D01*
X36555Y498789D01*
X36595Y498754D01*
X36612Y498751D01*
X36627Y498742D01*
X36700Y498731D01*
X60700Y498731D01*
X60742Y498743D01*
G37*
G36*
X1218982Y188863D02*
X1218982Y188863D01*
X1219026Y188866D01*
X1219048Y188882D01*
X1219074Y188890D01*
X1219103Y188923D01*
X1219138Y188949D01*
X1219148Y188975D01*
X1219166Y188995D01*
X1219173Y189039D01*
X1219188Y189079D01*
X1219183Y189106D01*
X1219187Y189133D01*
X1219169Y189174D01*
X1219160Y189216D01*
X1219134Y189252D01*
X1219130Y189261D01*
X1219125Y189265D01*
X1219116Y189276D01*
X1195116Y213276D01*
X1195078Y213297D01*
X1195045Y213326D01*
X1195018Y213330D01*
X1194994Y213343D01*
X1194950Y213340D01*
X1194907Y213347D01*
X1194882Y213336D01*
X1194854Y213334D01*
X1194819Y213308D01*
X1194779Y213290D01*
X1194764Y213267D01*
X1194742Y213251D01*
X1194726Y213210D01*
X1194702Y213174D01*
X1194695Y213130D01*
X1194692Y213121D01*
X1194693Y213114D01*
X1194691Y213100D01*
X1194691Y189100D01*
X1194696Y189084D01*
X1194693Y189067D01*
X1194715Y189017D01*
X1194730Y188966D01*
X1194743Y188955D01*
X1194750Y188939D01*
X1194795Y188909D01*
X1194835Y188874D01*
X1194852Y188871D01*
X1194867Y188862D01*
X1194940Y188851D01*
X1218940Y188851D01*
X1218982Y188863D01*
G37*
G36*
X832902Y188863D02*
X832902Y188863D01*
X832946Y188866D01*
X832968Y188882D01*
X832994Y188890D01*
X833023Y188923D01*
X833058Y188949D01*
X833068Y188975D01*
X833086Y188995D01*
X833093Y189039D01*
X833108Y189079D01*
X833103Y189106D01*
X833107Y189133D01*
X833089Y189174D01*
X833080Y189216D01*
X833054Y189252D01*
X833050Y189261D01*
X833045Y189265D01*
X833036Y189276D01*
X809036Y213276D01*
X808998Y213297D01*
X808965Y213326D01*
X808938Y213330D01*
X808914Y213343D01*
X808870Y213340D01*
X808827Y213347D01*
X808802Y213336D01*
X808774Y213334D01*
X808739Y213308D01*
X808699Y213290D01*
X808684Y213267D01*
X808662Y213251D01*
X808646Y213210D01*
X808622Y213174D01*
X808615Y213130D01*
X808612Y213121D01*
X808613Y213114D01*
X808611Y213100D01*
X808611Y189100D01*
X808616Y189084D01*
X808613Y189067D01*
X808635Y189017D01*
X808650Y188966D01*
X808663Y188955D01*
X808670Y188939D01*
X808715Y188909D01*
X808755Y188874D01*
X808772Y188871D01*
X808787Y188862D01*
X808860Y188851D01*
X832860Y188851D01*
X832902Y188863D01*
G37*
G36*
X446822Y188863D02*
X446822Y188863D01*
X446866Y188866D01*
X446888Y188882D01*
X446914Y188890D01*
X446943Y188923D01*
X446978Y188949D01*
X446988Y188975D01*
X447006Y188995D01*
X447013Y189039D01*
X447028Y189079D01*
X447023Y189106D01*
X447027Y189133D01*
X447009Y189174D01*
X447000Y189216D01*
X446974Y189252D01*
X446970Y189261D01*
X446965Y189265D01*
X446956Y189276D01*
X422956Y213276D01*
X422918Y213297D01*
X422885Y213326D01*
X422858Y213330D01*
X422834Y213343D01*
X422790Y213340D01*
X422747Y213347D01*
X422722Y213336D01*
X422694Y213334D01*
X422659Y213308D01*
X422619Y213290D01*
X422604Y213267D01*
X422582Y213251D01*
X422566Y213210D01*
X422542Y213174D01*
X422535Y213130D01*
X422532Y213121D01*
X422533Y213114D01*
X422531Y213100D01*
X422531Y189100D01*
X422536Y189084D01*
X422533Y189067D01*
X422555Y189017D01*
X422570Y188966D01*
X422583Y188955D01*
X422590Y188939D01*
X422635Y188909D01*
X422675Y188874D01*
X422692Y188871D01*
X422707Y188862D01*
X422780Y188851D01*
X446780Y188851D01*
X446822Y188863D01*
G37*
G36*
X60742Y188863D02*
X60742Y188863D01*
X60786Y188866D01*
X60808Y188882D01*
X60834Y188890D01*
X60863Y188923D01*
X60898Y188949D01*
X60908Y188975D01*
X60926Y188995D01*
X60933Y189039D01*
X60948Y189079D01*
X60943Y189106D01*
X60947Y189133D01*
X60929Y189174D01*
X60920Y189216D01*
X60894Y189252D01*
X60890Y189261D01*
X60885Y189265D01*
X60876Y189276D01*
X36876Y213276D01*
X36838Y213297D01*
X36805Y213326D01*
X36778Y213330D01*
X36754Y213343D01*
X36710Y213340D01*
X36667Y213347D01*
X36642Y213336D01*
X36614Y213334D01*
X36579Y213308D01*
X36539Y213290D01*
X36524Y213267D01*
X36502Y213251D01*
X36486Y213210D01*
X36462Y213174D01*
X36455Y213130D01*
X36452Y213121D01*
X36453Y213114D01*
X36451Y213100D01*
X36451Y189100D01*
X36456Y189084D01*
X36453Y189067D01*
X36475Y189017D01*
X36490Y188966D01*
X36503Y188955D01*
X36510Y188939D01*
X36555Y188909D01*
X36595Y188874D01*
X36612Y188871D01*
X36627Y188862D01*
X36700Y188851D01*
X60700Y188851D01*
X60742Y188863D01*
G37*
D10*
X73600Y14050D03*
X129600Y14050D03*
D11*
X86600Y50800D03*
X96600Y50800D03*
X106600Y50800D03*
X116600Y50800D03*
D12*
X228600Y292100D03*
X203200Y292100D03*
X177800Y292100D03*
X152400Y292100D03*
D10*
X129600Y290750D03*
X73600Y290750D03*
D11*
X116600Y254000D03*
X106600Y254000D03*
X96600Y254000D03*
X86600Y254000D03*
D13*
X122800Y196850D03*
X105800Y196850D03*
X122800Y177800D03*
X105800Y177800D03*
X55000Y139700D03*
X72000Y139700D03*
D14*
X57500Y234400D03*
D13*
X105800Y82550D03*
X122800Y82550D03*
X105800Y101600D03*
X122800Y101600D03*
D15*
X208480Y250510D02*
X208480Y257490D01*
X215460Y257490D01*
X215460Y250510D01*
X208480Y250510D01*
X208480Y255310D02*
X215460Y255310D01*
X190940Y257490D02*
X190940Y250510D01*
X190940Y257490D02*
X197920Y257490D01*
X197920Y250510D01*
X190940Y250510D01*
X190940Y255310D02*
X197920Y255310D01*
D16*
X52000Y177800D03*
X75000Y177800D03*
D13*
X55000Y158750D03*
X72000Y158750D03*
X173600Y254000D03*
X156600Y254000D03*
D17*
X304800Y232800D03*
X304800Y249800D03*
X285750Y232800D03*
X285750Y249800D03*
D15*
X208480Y232090D02*
X208480Y225110D01*
X208480Y232090D02*
X215460Y232090D01*
X215460Y225110D01*
X208480Y225110D01*
X208480Y229910D02*
X215460Y229910D01*
X190940Y232090D02*
X190940Y225110D01*
X190940Y232090D02*
X197920Y232090D01*
X197920Y225110D01*
X190940Y225110D01*
X190940Y229910D02*
X197920Y229910D01*
D13*
X173600Y228600D03*
X156600Y228600D03*
D18*
X249000Y140970D03*
X259000Y140970D03*
X259000Y152400D03*
X249000Y152400D03*
D12*
X165100Y12700D03*
X190500Y12700D03*
X215900Y12700D03*
X241300Y12700D03*
X266700Y12700D03*
X292100Y12700D03*
D13*
X122800Y139700D03*
X105800Y139700D03*
X122800Y120650D03*
X105800Y120650D03*
D17*
X266700Y232800D03*
X266700Y249800D03*
D13*
X122800Y157480D03*
X105800Y157480D03*
D19*
X146000Y196400D03*
D20*
X146000Y185400D03*
X146000Y174400D03*
X146000Y163400D03*
X146000Y152400D03*
X146000Y141400D03*
X146000Y130400D03*
X146000Y119400D03*
D19*
X146000Y108400D03*
X235000Y108400D03*
D20*
X235000Y119400D03*
X235000Y130400D03*
X235000Y141400D03*
X235000Y152400D03*
X235000Y163400D03*
X235000Y174400D03*
X235000Y185400D03*
D19*
X235000Y196400D03*
D18*
X249000Y120000D03*
X249000Y130000D03*
D21*
X7620Y7620D03*
X373380Y297180D03*
D22*
X355600Y25400D03*
X25400Y25400D03*
X25400Y279400D03*
X355600Y279400D03*
D23*
X344170Y177800D03*
X344170Y152400D03*
X344170Y127000D03*
D12*
X12700Y241300D03*
X12700Y215900D03*
X12700Y190500D03*
X12700Y165100D03*
X12700Y139700D03*
X12700Y114300D03*
X12700Y88900D03*
X12700Y63500D03*
X266700Y38100D03*
X266700Y63500D03*
D18*
X260000Y120000D03*
X260000Y130000D03*
D10*
X459680Y14050D03*
X515680Y14050D03*
D11*
X472680Y50800D03*
X482680Y50800D03*
X492680Y50800D03*
X502680Y50800D03*
D12*
X614680Y292100D03*
X589280Y292100D03*
X563880Y292100D03*
X538480Y292100D03*
D10*
X515680Y290750D03*
X459680Y290750D03*
D11*
X502680Y254000D03*
X492680Y254000D03*
X482680Y254000D03*
X472680Y254000D03*
D13*
X508880Y196850D03*
X491880Y196850D03*
X508880Y177800D03*
X491880Y177800D03*
X441080Y139700D03*
X458080Y139700D03*
D14*
X443580Y234400D03*
D13*
X491880Y82550D03*
X508880Y82550D03*
X491880Y101600D03*
X508880Y101600D03*
D15*
X594560Y250510D02*
X594560Y257490D01*
X601540Y257490D01*
X601540Y250510D01*
X594560Y250510D01*
X594560Y255310D02*
X601540Y255310D01*
X577020Y257490D02*
X577020Y250510D01*
X577020Y257490D02*
X584000Y257490D01*
X584000Y250510D01*
X577020Y250510D01*
X577020Y255310D02*
X584000Y255310D01*
D16*
X438080Y177800D03*
X461080Y177800D03*
D13*
X441080Y158750D03*
X458080Y158750D03*
X559680Y254000D03*
X542680Y254000D03*
D17*
X690880Y232800D03*
X690880Y249800D03*
X671830Y232800D03*
X671830Y249800D03*
D15*
X594560Y232090D02*
X594560Y225110D01*
X594560Y232090D02*
X601540Y232090D01*
X601540Y225110D01*
X594560Y225110D01*
X594560Y229910D02*
X601540Y229910D01*
X577020Y232090D02*
X577020Y225110D01*
X577020Y232090D02*
X584000Y232090D01*
X584000Y225110D01*
X577020Y225110D01*
X577020Y229910D02*
X584000Y229910D01*
D13*
X559680Y228600D03*
X542680Y228600D03*
D18*
X635080Y140970D03*
X645080Y140970D03*
X645080Y152400D03*
X635080Y152400D03*
D12*
X551180Y12700D03*
X576580Y12700D03*
X601980Y12700D03*
X627380Y12700D03*
X652780Y12700D03*
X678180Y12700D03*
D13*
X508880Y139700D03*
X491880Y139700D03*
X508880Y120650D03*
X491880Y120650D03*
D17*
X652780Y232800D03*
X652780Y249800D03*
D13*
X508880Y157480D03*
X491880Y157480D03*
D19*
X532080Y196400D03*
D20*
X532080Y185400D03*
X532080Y174400D03*
X532080Y163400D03*
X532080Y152400D03*
X532080Y141400D03*
X532080Y130400D03*
X532080Y119400D03*
D19*
X532080Y108400D03*
X621080Y108400D03*
D20*
X621080Y119400D03*
X621080Y130400D03*
X621080Y141400D03*
X621080Y152400D03*
X621080Y163400D03*
X621080Y174400D03*
X621080Y185400D03*
D19*
X621080Y196400D03*
D18*
X635080Y120000D03*
X635080Y130000D03*
D21*
X393700Y7620D03*
X759460Y297180D03*
D22*
X741680Y25400D03*
X411480Y25400D03*
X411480Y279400D03*
X741680Y279400D03*
D23*
X730250Y177800D03*
X730250Y152400D03*
X730250Y127000D03*
D12*
X398780Y241300D03*
X398780Y215900D03*
X398780Y190500D03*
X398780Y165100D03*
X398780Y139700D03*
X398780Y114300D03*
X398780Y88900D03*
X398780Y63500D03*
X652780Y38100D03*
X652780Y63500D03*
D18*
X646080Y120000D03*
X646080Y130000D03*
D10*
X845760Y14050D03*
X901760Y14050D03*
D11*
X858760Y50800D03*
X868760Y50800D03*
X878760Y50800D03*
X888760Y50800D03*
D12*
X1000760Y292100D03*
X975360Y292100D03*
X949960Y292100D03*
X924560Y292100D03*
D10*
X901760Y290750D03*
X845760Y290750D03*
D11*
X888760Y254000D03*
X878760Y254000D03*
X868760Y254000D03*
X858760Y254000D03*
D13*
X894960Y196850D03*
X877960Y196850D03*
X894960Y177800D03*
X877960Y177800D03*
X827160Y139700D03*
X844160Y139700D03*
D14*
X829660Y234400D03*
D13*
X877960Y82550D03*
X894960Y82550D03*
X877960Y101600D03*
X894960Y101600D03*
D15*
X980640Y250510D02*
X980640Y257490D01*
X987620Y257490D01*
X987620Y250510D01*
X980640Y250510D01*
X980640Y255310D02*
X987620Y255310D01*
X963100Y257490D02*
X963100Y250510D01*
X963100Y257490D02*
X970080Y257490D01*
X970080Y250510D01*
X963100Y250510D01*
X963100Y255310D02*
X970080Y255310D01*
D16*
X824160Y177800D03*
X847160Y177800D03*
D13*
X827160Y158750D03*
X844160Y158750D03*
X945760Y254000D03*
X928760Y254000D03*
D17*
X1076960Y232800D03*
X1076960Y249800D03*
X1057910Y232800D03*
X1057910Y249800D03*
D15*
X980640Y232090D02*
X980640Y225110D01*
X980640Y232090D02*
X987620Y232090D01*
X987620Y225110D01*
X980640Y225110D01*
X980640Y229910D02*
X987620Y229910D01*
X963100Y232090D02*
X963100Y225110D01*
X963100Y232090D02*
X970080Y232090D01*
X970080Y225110D01*
X963100Y225110D01*
X963100Y229910D02*
X970080Y229910D01*
D13*
X945760Y228600D03*
X928760Y228600D03*
D18*
X1021160Y140970D03*
X1031160Y140970D03*
X1031160Y152400D03*
X1021160Y152400D03*
D12*
X937260Y12700D03*
X962660Y12700D03*
X988060Y12700D03*
X1013460Y12700D03*
X1038860Y12700D03*
X1064260Y12700D03*
D13*
X894960Y139700D03*
X877960Y139700D03*
X894960Y120650D03*
X877960Y120650D03*
D17*
X1038860Y232800D03*
X1038860Y249800D03*
D13*
X894960Y157480D03*
X877960Y157480D03*
D19*
X918160Y196400D03*
D20*
X918160Y185400D03*
X918160Y174400D03*
X918160Y163400D03*
X918160Y152400D03*
X918160Y141400D03*
X918160Y130400D03*
X918160Y119400D03*
D19*
X918160Y108400D03*
X1007160Y108400D03*
D20*
X1007160Y119400D03*
X1007160Y130400D03*
X1007160Y141400D03*
X1007160Y152400D03*
X1007160Y163400D03*
X1007160Y174400D03*
X1007160Y185400D03*
D19*
X1007160Y196400D03*
D18*
X1021160Y120000D03*
X1021160Y130000D03*
D21*
X779780Y7620D03*
X1145540Y297180D03*
D22*
X1127760Y25400D03*
X797560Y25400D03*
X797560Y279400D03*
X1127760Y279400D03*
D23*
X1116330Y177800D03*
X1116330Y152400D03*
X1116330Y127000D03*
D12*
X784860Y241300D03*
X784860Y215900D03*
X784860Y190500D03*
X784860Y165100D03*
X784860Y139700D03*
X784860Y114300D03*
X784860Y88900D03*
X784860Y63500D03*
X1038860Y38100D03*
X1038860Y63500D03*
D18*
X1032160Y120000D03*
X1032160Y130000D03*
D10*
X1231840Y14050D03*
X1287840Y14050D03*
D11*
X1244840Y50800D03*
X1254840Y50800D03*
X1264840Y50800D03*
X1274840Y50800D03*
D12*
X1386840Y292100D03*
X1361440Y292100D03*
X1336040Y292100D03*
X1310640Y292100D03*
D10*
X1287840Y290750D03*
X1231840Y290750D03*
D11*
X1274840Y254000D03*
X1264840Y254000D03*
X1254840Y254000D03*
X1244840Y254000D03*
D13*
X1281040Y196850D03*
X1264040Y196850D03*
X1281040Y177800D03*
X1264040Y177800D03*
X1213240Y139700D03*
X1230240Y139700D03*
D14*
X1215740Y234400D03*
D13*
X1264040Y82550D03*
X1281040Y82550D03*
X1264040Y101600D03*
X1281040Y101600D03*
D15*
X1366720Y250510D02*
X1366720Y257490D01*
X1373700Y257490D01*
X1373700Y250510D01*
X1366720Y250510D01*
X1366720Y255310D02*
X1373700Y255310D01*
X1349180Y257490D02*
X1349180Y250510D01*
X1349180Y257490D02*
X1356160Y257490D01*
X1356160Y250510D01*
X1349180Y250510D01*
X1349180Y255310D02*
X1356160Y255310D01*
D16*
X1210240Y177800D03*
X1233240Y177800D03*
D13*
X1213240Y158750D03*
X1230240Y158750D03*
X1331840Y254000D03*
X1314840Y254000D03*
D17*
X1463040Y232800D03*
X1463040Y249800D03*
X1443990Y232800D03*
X1443990Y249800D03*
D15*
X1366720Y232090D02*
X1366720Y225110D01*
X1366720Y232090D02*
X1373700Y232090D01*
X1373700Y225110D01*
X1366720Y225110D01*
X1366720Y229910D02*
X1373700Y229910D01*
X1349180Y232090D02*
X1349180Y225110D01*
X1349180Y232090D02*
X1356160Y232090D01*
X1356160Y225110D01*
X1349180Y225110D01*
X1349180Y229910D02*
X1356160Y229910D01*
D13*
X1331840Y228600D03*
X1314840Y228600D03*
D18*
X1407240Y140970D03*
X1417240Y140970D03*
X1417240Y152400D03*
X1407240Y152400D03*
D12*
X1323340Y12700D03*
X1348740Y12700D03*
X1374140Y12700D03*
X1399540Y12700D03*
X1424940Y12700D03*
X1450340Y12700D03*
D13*
X1281040Y139700D03*
X1264040Y139700D03*
X1281040Y120650D03*
X1264040Y120650D03*
D17*
X1424940Y232800D03*
X1424940Y249800D03*
D13*
X1281040Y157480D03*
X1264040Y157480D03*
D19*
X1304240Y196400D03*
D20*
X1304240Y185400D03*
X1304240Y174400D03*
X1304240Y163400D03*
X1304240Y152400D03*
X1304240Y141400D03*
X1304240Y130400D03*
X1304240Y119400D03*
D19*
X1304240Y108400D03*
X1393240Y108400D03*
D20*
X1393240Y119400D03*
X1393240Y130400D03*
X1393240Y141400D03*
X1393240Y152400D03*
X1393240Y163400D03*
X1393240Y174400D03*
X1393240Y185400D03*
D19*
X1393240Y196400D03*
D18*
X1407240Y120000D03*
X1407240Y130000D03*
D21*
X1165860Y7620D03*
X1531620Y297180D03*
D22*
X1513840Y25400D03*
X1183640Y25400D03*
X1183640Y279400D03*
X1513840Y279400D03*
D23*
X1502410Y177800D03*
X1502410Y152400D03*
X1502410Y127000D03*
D12*
X1170940Y241300D03*
X1170940Y215900D03*
X1170940Y190500D03*
X1170940Y165100D03*
X1170940Y139700D03*
X1170940Y114300D03*
X1170940Y88900D03*
X1170940Y63500D03*
X1424940Y38100D03*
X1424940Y63500D03*
D18*
X1418240Y120000D03*
X1418240Y130000D03*
D10*
X73600Y323930D03*
X129600Y323930D03*
D11*
X86600Y360680D03*
X96600Y360680D03*
X106600Y360680D03*
X116600Y360680D03*
D12*
X228600Y601980D03*
X203200Y601980D03*
X177800Y601980D03*
X152400Y601980D03*
D10*
X129600Y600630D03*
X73600Y600630D03*
D11*
X116600Y563880D03*
X106600Y563880D03*
X96600Y563880D03*
X86600Y563880D03*
D13*
X122800Y506730D03*
X105800Y506730D03*
X122800Y487680D03*
X105800Y487680D03*
X55000Y449580D03*
X72000Y449580D03*
D14*
X57500Y544280D03*
D13*
X105800Y392430D03*
X122800Y392430D03*
X105800Y411480D03*
X122800Y411480D03*
D15*
X208480Y560390D02*
X208480Y567370D01*
X215460Y567370D01*
X215460Y560390D01*
X208480Y560390D01*
X208480Y565190D02*
X215460Y565190D01*
X190940Y567370D02*
X190940Y560390D01*
X190940Y567370D02*
X197920Y567370D01*
X197920Y560390D01*
X190940Y560390D01*
X190940Y565190D02*
X197920Y565190D01*
D16*
X52000Y487680D03*
X75000Y487680D03*
D13*
X55000Y468630D03*
X72000Y468630D03*
X173600Y563880D03*
X156600Y563880D03*
D17*
X304800Y542680D03*
X304800Y559680D03*
X285750Y542680D03*
X285750Y559680D03*
D15*
X208480Y541970D02*
X208480Y534990D01*
X208480Y541970D02*
X215460Y541970D01*
X215460Y534990D01*
X208480Y534990D01*
X208480Y539790D02*
X215460Y539790D01*
X190940Y541970D02*
X190940Y534990D01*
X190940Y541970D02*
X197920Y541970D01*
X197920Y534990D01*
X190940Y534990D01*
X190940Y539790D02*
X197920Y539790D01*
D13*
X173600Y538480D03*
X156600Y538480D03*
D18*
X249000Y450850D03*
X259000Y450850D03*
X259000Y462280D03*
X249000Y462280D03*
D12*
X165100Y322580D03*
X190500Y322580D03*
X215900Y322580D03*
X241300Y322580D03*
X266700Y322580D03*
X292100Y322580D03*
D13*
X122800Y449580D03*
X105800Y449580D03*
X122800Y430530D03*
X105800Y430530D03*
D17*
X266700Y542680D03*
X266700Y559680D03*
D13*
X122800Y467360D03*
X105800Y467360D03*
D19*
X146000Y506280D03*
D20*
X146000Y495280D03*
X146000Y484280D03*
X146000Y473280D03*
X146000Y462280D03*
X146000Y451280D03*
X146000Y440280D03*
X146000Y429280D03*
D19*
X146000Y418280D03*
X235000Y418280D03*
D20*
X235000Y429280D03*
X235000Y440280D03*
X235000Y451280D03*
X235000Y462280D03*
X235000Y473280D03*
X235000Y484280D03*
X235000Y495280D03*
D19*
X235000Y506280D03*
D18*
X249000Y429880D03*
X249000Y439880D03*
D21*
X7620Y317500D03*
X373380Y607060D03*
D22*
X355600Y335280D03*
X25400Y335280D03*
X25400Y589280D03*
X355600Y589280D03*
D23*
X344170Y487680D03*
X344170Y462280D03*
X344170Y436880D03*
D12*
X12700Y551180D03*
X12700Y525780D03*
X12700Y500380D03*
X12700Y474980D03*
X12700Y449580D03*
X12700Y424180D03*
X12700Y398780D03*
X12700Y373380D03*
X266700Y347980D03*
X266700Y373380D03*
D18*
X260000Y429880D03*
X260000Y439880D03*
D10*
X459680Y323930D03*
X515680Y323930D03*
D11*
X472680Y360680D03*
X482680Y360680D03*
X492680Y360680D03*
X502680Y360680D03*
D12*
X614680Y601980D03*
X589280Y601980D03*
X563880Y601980D03*
X538480Y601980D03*
D10*
X515680Y600630D03*
X459680Y600630D03*
D11*
X502680Y563880D03*
X492680Y563880D03*
X482680Y563880D03*
X472680Y563880D03*
D13*
X508880Y506730D03*
X491880Y506730D03*
X508880Y487680D03*
X491880Y487680D03*
X441080Y449580D03*
X458080Y449580D03*
D14*
X443580Y544280D03*
D13*
X491880Y392430D03*
X508880Y392430D03*
X491880Y411480D03*
X508880Y411480D03*
D15*
X594560Y560390D02*
X594560Y567370D01*
X601540Y567370D01*
X601540Y560390D01*
X594560Y560390D01*
X594560Y565190D02*
X601540Y565190D01*
X577020Y567370D02*
X577020Y560390D01*
X577020Y567370D02*
X584000Y567370D01*
X584000Y560390D01*
X577020Y560390D01*
X577020Y565190D02*
X584000Y565190D01*
D16*
X438080Y487680D03*
X461080Y487680D03*
D13*
X441080Y468630D03*
X458080Y468630D03*
X559680Y563880D03*
X542680Y563880D03*
D17*
X690880Y542680D03*
X690880Y559680D03*
X671830Y542680D03*
X671830Y559680D03*
D15*
X594560Y541970D02*
X594560Y534990D01*
X594560Y541970D02*
X601540Y541970D01*
X601540Y534990D01*
X594560Y534990D01*
X594560Y539790D02*
X601540Y539790D01*
X577020Y541970D02*
X577020Y534990D01*
X577020Y541970D02*
X584000Y541970D01*
X584000Y534990D01*
X577020Y534990D01*
X577020Y539790D02*
X584000Y539790D01*
D13*
X559680Y538480D03*
X542680Y538480D03*
D18*
X635080Y450850D03*
X645080Y450850D03*
X645080Y462280D03*
X635080Y462280D03*
D12*
X551180Y322580D03*
X576580Y322580D03*
X601980Y322580D03*
X627380Y322580D03*
X652780Y322580D03*
X678180Y322580D03*
D13*
X508880Y449580D03*
X491880Y449580D03*
X508880Y430530D03*
X491880Y430530D03*
D17*
X652780Y542680D03*
X652780Y559680D03*
D13*
X508880Y467360D03*
X491880Y467360D03*
D19*
X532080Y506280D03*
D20*
X532080Y495280D03*
X532080Y484280D03*
X532080Y473280D03*
X532080Y462280D03*
X532080Y451280D03*
X532080Y440280D03*
X532080Y429280D03*
D19*
X532080Y418280D03*
X621080Y418280D03*
D20*
X621080Y429280D03*
X621080Y440280D03*
X621080Y451280D03*
X621080Y462280D03*
X621080Y473280D03*
X621080Y484280D03*
X621080Y495280D03*
D19*
X621080Y506280D03*
D18*
X635080Y429880D03*
X635080Y439880D03*
D21*
X393700Y317500D03*
X759460Y607060D03*
D22*
X741680Y335280D03*
X411480Y335280D03*
X411480Y589280D03*
X741680Y589280D03*
D23*
X730250Y487680D03*
X730250Y462280D03*
X730250Y436880D03*
D12*
X398780Y551180D03*
X398780Y525780D03*
X398780Y500380D03*
X398780Y474980D03*
X398780Y449580D03*
X398780Y424180D03*
X398780Y398780D03*
X398780Y373380D03*
X652780Y347980D03*
X652780Y373380D03*
D18*
X646080Y429880D03*
X646080Y439880D03*
D10*
X845760Y323930D03*
X901760Y323930D03*
D11*
X858760Y360680D03*
X868760Y360680D03*
X878760Y360680D03*
X888760Y360680D03*
D12*
X1000760Y601980D03*
X975360Y601980D03*
X949960Y601980D03*
X924560Y601980D03*
D10*
X901760Y600630D03*
X845760Y600630D03*
D11*
X888760Y563880D03*
X878760Y563880D03*
X868760Y563880D03*
X858760Y563880D03*
D13*
X894960Y506730D03*
X877960Y506730D03*
X894960Y487680D03*
X877960Y487680D03*
X827160Y449580D03*
X844160Y449580D03*
D14*
X829660Y544280D03*
D13*
X877960Y392430D03*
X894960Y392430D03*
X877960Y411480D03*
X894960Y411480D03*
D15*
X980640Y560390D02*
X980640Y567370D01*
X987620Y567370D01*
X987620Y560390D01*
X980640Y560390D01*
X980640Y565190D02*
X987620Y565190D01*
X963100Y567370D02*
X963100Y560390D01*
X963100Y567370D02*
X970080Y567370D01*
X970080Y560390D01*
X963100Y560390D01*
X963100Y565190D02*
X970080Y565190D01*
D16*
X824160Y487680D03*
X847160Y487680D03*
D13*
X827160Y468630D03*
X844160Y468630D03*
X945760Y563880D03*
X928760Y563880D03*
D17*
X1076960Y542680D03*
X1076960Y559680D03*
X1057910Y542680D03*
X1057910Y559680D03*
D15*
X980640Y541970D02*
X980640Y534990D01*
X980640Y541970D02*
X987620Y541970D01*
X987620Y534990D01*
X980640Y534990D01*
X980640Y539790D02*
X987620Y539790D01*
X963100Y541970D02*
X963100Y534990D01*
X963100Y541970D02*
X970080Y541970D01*
X970080Y534990D01*
X963100Y534990D01*
X963100Y539790D02*
X970080Y539790D01*
D13*
X945760Y538480D03*
X928760Y538480D03*
D18*
X1021160Y450850D03*
X1031160Y450850D03*
X1031160Y462280D03*
X1021160Y462280D03*
D12*
X937260Y322580D03*
X962660Y322580D03*
X988060Y322580D03*
X1013460Y322580D03*
X1038860Y322580D03*
X1064260Y322580D03*
D13*
X894960Y449580D03*
X877960Y449580D03*
X894960Y430530D03*
X877960Y430530D03*
D17*
X1038860Y542680D03*
X1038860Y559680D03*
D13*
X894960Y467360D03*
X877960Y467360D03*
D19*
X918160Y506280D03*
D20*
X918160Y495280D03*
X918160Y484280D03*
X918160Y473280D03*
X918160Y462280D03*
X918160Y451280D03*
X918160Y440280D03*
X918160Y429280D03*
D19*
X918160Y418280D03*
X1007160Y418280D03*
D20*
X1007160Y429280D03*
X1007160Y440280D03*
X1007160Y451280D03*
X1007160Y462280D03*
X1007160Y473280D03*
X1007160Y484280D03*
X1007160Y495280D03*
D19*
X1007160Y506280D03*
D18*
X1021160Y429880D03*
X1021160Y439880D03*
D21*
X779780Y317500D03*
X1145540Y607060D03*
D22*
X1127760Y335280D03*
X797560Y335280D03*
X797560Y589280D03*
X1127760Y589280D03*
D23*
X1116330Y487680D03*
X1116330Y462280D03*
X1116330Y436880D03*
D12*
X784860Y551180D03*
X784860Y525780D03*
X784860Y500380D03*
X784860Y474980D03*
X784860Y449580D03*
X784860Y424180D03*
X784860Y398780D03*
X784860Y373380D03*
X1038860Y347980D03*
X1038860Y373380D03*
D18*
X1032160Y429880D03*
X1032160Y439880D03*
D10*
X1231840Y323930D03*
X1287840Y323930D03*
D11*
X1244840Y360680D03*
X1254840Y360680D03*
X1264840Y360680D03*
X1274840Y360680D03*
D12*
X1386840Y601980D03*
X1361440Y601980D03*
X1336040Y601980D03*
X1310640Y601980D03*
D10*
X1287840Y600630D03*
X1231840Y600630D03*
D11*
X1274840Y563880D03*
X1264840Y563880D03*
X1254840Y563880D03*
X1244840Y563880D03*
D13*
X1281040Y506730D03*
X1264040Y506730D03*
X1281040Y487680D03*
X1264040Y487680D03*
X1213240Y449580D03*
X1230240Y449580D03*
D14*
X1215740Y544280D03*
D13*
X1264040Y392430D03*
X1281040Y392430D03*
X1264040Y411480D03*
X1281040Y411480D03*
D15*
X1366720Y560390D02*
X1366720Y567370D01*
X1373700Y567370D01*
X1373700Y560390D01*
X1366720Y560390D01*
X1366720Y565190D02*
X1373700Y565190D01*
X1349180Y567370D02*
X1349180Y560390D01*
X1349180Y567370D02*
X1356160Y567370D01*
X1356160Y560390D01*
X1349180Y560390D01*
X1349180Y565190D02*
X1356160Y565190D01*
D16*
X1210240Y487680D03*
X1233240Y487680D03*
D13*
X1213240Y468630D03*
X1230240Y468630D03*
X1331840Y563880D03*
X1314840Y563880D03*
D17*
X1463040Y542680D03*
X1463040Y559680D03*
X1443990Y542680D03*
X1443990Y559680D03*
D15*
X1366720Y541970D02*
X1366720Y534990D01*
X1366720Y541970D02*
X1373700Y541970D01*
X1373700Y534990D01*
X1366720Y534990D01*
X1366720Y539790D02*
X1373700Y539790D01*
X1349180Y541970D02*
X1349180Y534990D01*
X1349180Y541970D02*
X1356160Y541970D01*
X1356160Y534990D01*
X1349180Y534990D01*
X1349180Y539790D02*
X1356160Y539790D01*
D13*
X1331840Y538480D03*
X1314840Y538480D03*
D18*
X1407240Y450850D03*
X1417240Y450850D03*
X1417240Y462280D03*
X1407240Y462280D03*
D12*
X1323340Y322580D03*
X1348740Y322580D03*
X1374140Y322580D03*
X1399540Y322580D03*
X1424940Y322580D03*
X1450340Y322580D03*
D13*
X1281040Y449580D03*
X1264040Y449580D03*
X1281040Y430530D03*
X1264040Y430530D03*
D17*
X1424940Y542680D03*
X1424940Y559680D03*
D13*
X1281040Y467360D03*
X1264040Y467360D03*
D19*
X1304240Y506280D03*
D20*
X1304240Y495280D03*
X1304240Y484280D03*
X1304240Y473280D03*
X1304240Y462280D03*
X1304240Y451280D03*
X1304240Y440280D03*
X1304240Y429280D03*
D19*
X1304240Y418280D03*
X1393240Y418280D03*
D20*
X1393240Y429280D03*
X1393240Y440280D03*
X1393240Y451280D03*
X1393240Y462280D03*
X1393240Y473280D03*
X1393240Y484280D03*
X1393240Y495280D03*
D19*
X1393240Y506280D03*
D18*
X1407240Y429880D03*
X1407240Y439880D03*
D21*
X1165860Y317500D03*
X1531620Y607060D03*
D22*
X1513840Y335280D03*
X1183640Y335280D03*
X1183640Y589280D03*
X1513840Y589280D03*
D23*
X1502410Y487680D03*
X1502410Y462280D03*
X1502410Y436880D03*
D12*
X1170940Y551180D03*
X1170940Y525780D03*
X1170940Y500380D03*
X1170940Y474980D03*
X1170940Y449580D03*
X1170940Y424180D03*
X1170940Y398780D03*
X1170940Y373380D03*
X1424940Y347980D03*
X1424940Y373380D03*
D18*
X1418240Y429880D03*
X1418240Y439880D03*
D10*
X73600Y633810D03*
X129600Y633810D03*
D11*
X86600Y670560D03*
X96600Y670560D03*
X106600Y670560D03*
X116600Y670560D03*
D12*
X228600Y911860D03*
X203200Y911860D03*
X177800Y911860D03*
X152400Y911860D03*
D10*
X129600Y910510D03*
X73600Y910510D03*
D11*
X116600Y873760D03*
X106600Y873760D03*
X96600Y873760D03*
X86600Y873760D03*
D13*
X122800Y816610D03*
X105800Y816610D03*
X122800Y797560D03*
X105800Y797560D03*
X55000Y759460D03*
X72000Y759460D03*
D14*
X57500Y854160D03*
D13*
X105800Y702310D03*
X122800Y702310D03*
X105800Y721360D03*
X122800Y721360D03*
D15*
X208480Y870270D02*
X208480Y877250D01*
X215460Y877250D01*
X215460Y870270D01*
X208480Y870270D01*
X208480Y875070D02*
X215460Y875070D01*
X190940Y877250D02*
X190940Y870270D01*
X190940Y877250D02*
X197920Y877250D01*
X197920Y870270D01*
X190940Y870270D01*
X190940Y875070D02*
X197920Y875070D01*
D16*
X52000Y797560D03*
X75000Y797560D03*
D13*
X55000Y778510D03*
X72000Y778510D03*
X173600Y873760D03*
X156600Y873760D03*
D17*
X304800Y852560D03*
X304800Y869560D03*
X285750Y852560D03*
X285750Y869560D03*
D15*
X208480Y851850D02*
X208480Y844870D01*
X208480Y851850D02*
X215460Y851850D01*
X215460Y844870D01*
X208480Y844870D01*
X208480Y849670D02*
X215460Y849670D01*
X190940Y851850D02*
X190940Y844870D01*
X190940Y851850D02*
X197920Y851850D01*
X197920Y844870D01*
X190940Y844870D01*
X190940Y849670D02*
X197920Y849670D01*
D13*
X173600Y848360D03*
X156600Y848360D03*
D18*
X249000Y760730D03*
X259000Y760730D03*
X259000Y772160D03*
X249000Y772160D03*
D12*
X165100Y632460D03*
X190500Y632460D03*
X215900Y632460D03*
X241300Y632460D03*
X266700Y632460D03*
X292100Y632460D03*
D13*
X122800Y759460D03*
X105800Y759460D03*
X122800Y740410D03*
X105800Y740410D03*
D17*
X266700Y852560D03*
X266700Y869560D03*
D13*
X122800Y777240D03*
X105800Y777240D03*
D19*
X146000Y816160D03*
D20*
X146000Y805160D03*
X146000Y794160D03*
X146000Y783160D03*
X146000Y772160D03*
X146000Y761160D03*
X146000Y750160D03*
X146000Y739160D03*
D19*
X146000Y728160D03*
X235000Y728160D03*
D20*
X235000Y739160D03*
X235000Y750160D03*
X235000Y761160D03*
X235000Y772160D03*
X235000Y783160D03*
X235000Y794160D03*
X235000Y805160D03*
D19*
X235000Y816160D03*
D18*
X249000Y739760D03*
X249000Y749760D03*
D21*
X7620Y627380D03*
X373380Y916940D03*
D22*
X355600Y645160D03*
X25400Y645160D03*
X25400Y899160D03*
X355600Y899160D03*
D23*
X344170Y797560D03*
X344170Y772160D03*
X344170Y746760D03*
D12*
X12700Y861060D03*
X12700Y835660D03*
X12700Y810260D03*
X12700Y784860D03*
X12700Y759460D03*
X12700Y734060D03*
X12700Y708660D03*
X12700Y683260D03*
X266700Y657860D03*
X266700Y683260D03*
D18*
X260000Y739760D03*
X260000Y749760D03*
D10*
X459680Y633810D03*
X515680Y633810D03*
D11*
X472680Y670560D03*
X482680Y670560D03*
X492680Y670560D03*
X502680Y670560D03*
D12*
X614680Y911860D03*
X589280Y911860D03*
X563880Y911860D03*
X538480Y911860D03*
D10*
X515680Y910510D03*
X459680Y910510D03*
D11*
X502680Y873760D03*
X492680Y873760D03*
X482680Y873760D03*
X472680Y873760D03*
D13*
X508880Y816610D03*
X491880Y816610D03*
X508880Y797560D03*
X491880Y797560D03*
X441080Y759460D03*
X458080Y759460D03*
D14*
X443580Y854160D03*
D13*
X491880Y702310D03*
X508880Y702310D03*
X491880Y721360D03*
X508880Y721360D03*
D15*
X594560Y870270D02*
X594560Y877250D01*
X601540Y877250D01*
X601540Y870270D01*
X594560Y870270D01*
X594560Y875070D02*
X601540Y875070D01*
X577020Y877250D02*
X577020Y870270D01*
X577020Y877250D02*
X584000Y877250D01*
X584000Y870270D01*
X577020Y870270D01*
X577020Y875070D02*
X584000Y875070D01*
D16*
X438080Y797560D03*
X461080Y797560D03*
D13*
X441080Y778510D03*
X458080Y778510D03*
X559680Y873760D03*
X542680Y873760D03*
D17*
X690880Y852560D03*
X690880Y869560D03*
X671830Y852560D03*
X671830Y869560D03*
D15*
X594560Y851850D02*
X594560Y844870D01*
X594560Y851850D02*
X601540Y851850D01*
X601540Y844870D01*
X594560Y844870D01*
X594560Y849670D02*
X601540Y849670D01*
X577020Y851850D02*
X577020Y844870D01*
X577020Y851850D02*
X584000Y851850D01*
X584000Y844870D01*
X577020Y844870D01*
X577020Y849670D02*
X584000Y849670D01*
D13*
X559680Y848360D03*
X542680Y848360D03*
D18*
X635080Y760730D03*
X645080Y760730D03*
X645080Y772160D03*
X635080Y772160D03*
D12*
X551180Y632460D03*
X576580Y632460D03*
X601980Y632460D03*
X627380Y632460D03*
X652780Y632460D03*
X678180Y632460D03*
D13*
X508880Y759460D03*
X491880Y759460D03*
X508880Y740410D03*
X491880Y740410D03*
D17*
X652780Y852560D03*
X652780Y869560D03*
D13*
X508880Y777240D03*
X491880Y777240D03*
D19*
X532080Y816160D03*
D20*
X532080Y805160D03*
X532080Y794160D03*
X532080Y783160D03*
X532080Y772160D03*
X532080Y761160D03*
X532080Y750160D03*
X532080Y739160D03*
D19*
X532080Y728160D03*
X621080Y728160D03*
D20*
X621080Y739160D03*
X621080Y750160D03*
X621080Y761160D03*
X621080Y772160D03*
X621080Y783160D03*
X621080Y794160D03*
X621080Y805160D03*
D19*
X621080Y816160D03*
D18*
X635080Y739760D03*
X635080Y749760D03*
D21*
X393700Y627380D03*
X759460Y916940D03*
D22*
X741680Y645160D03*
X411480Y645160D03*
X411480Y899160D03*
X741680Y899160D03*
D23*
X730250Y797560D03*
X730250Y772160D03*
X730250Y746760D03*
D12*
X398780Y861060D03*
X398780Y835660D03*
X398780Y810260D03*
X398780Y784860D03*
X398780Y759460D03*
X398780Y734060D03*
X398780Y708660D03*
X398780Y683260D03*
X652780Y657860D03*
X652780Y683260D03*
D18*
X646080Y739760D03*
X646080Y749760D03*
D10*
X845760Y633810D03*
X901760Y633810D03*
D11*
X858760Y670560D03*
X868760Y670560D03*
X878760Y670560D03*
X888760Y670560D03*
D12*
X1000760Y911860D03*
X975360Y911860D03*
X949960Y911860D03*
X924560Y911860D03*
D10*
X901760Y910510D03*
X845760Y910510D03*
D11*
X888760Y873760D03*
X878760Y873760D03*
X868760Y873760D03*
X858760Y873760D03*
D13*
X894960Y816610D03*
X877960Y816610D03*
X894960Y797560D03*
X877960Y797560D03*
X827160Y759460D03*
X844160Y759460D03*
D14*
X829660Y854160D03*
D13*
X877960Y702310D03*
X894960Y702310D03*
X877960Y721360D03*
X894960Y721360D03*
D15*
X980640Y870270D02*
X980640Y877250D01*
X987620Y877250D01*
X987620Y870270D01*
X980640Y870270D01*
X980640Y875070D02*
X987620Y875070D01*
X963100Y877250D02*
X963100Y870270D01*
X963100Y877250D02*
X970080Y877250D01*
X970080Y870270D01*
X963100Y870270D01*
X963100Y875070D02*
X970080Y875070D01*
D16*
X824160Y797560D03*
X847160Y797560D03*
D13*
X827160Y778510D03*
X844160Y778510D03*
X945760Y873760D03*
X928760Y873760D03*
D17*
X1076960Y852560D03*
X1076960Y869560D03*
X1057910Y852560D03*
X1057910Y869560D03*
D15*
X980640Y851850D02*
X980640Y844870D01*
X980640Y851850D02*
X987620Y851850D01*
X987620Y844870D01*
X980640Y844870D01*
X980640Y849670D02*
X987620Y849670D01*
X963100Y851850D02*
X963100Y844870D01*
X963100Y851850D02*
X970080Y851850D01*
X970080Y844870D01*
X963100Y844870D01*
X963100Y849670D02*
X970080Y849670D01*
D13*
X945760Y848360D03*
X928760Y848360D03*
D18*
X1021160Y760730D03*
X1031160Y760730D03*
X1031160Y772160D03*
X1021160Y772160D03*
D12*
X937260Y632460D03*
X962660Y632460D03*
X988060Y632460D03*
X1013460Y632460D03*
X1038860Y632460D03*
X1064260Y632460D03*
D13*
X894960Y759460D03*
X877960Y759460D03*
X894960Y740410D03*
X877960Y740410D03*
D17*
X1038860Y852560D03*
X1038860Y869560D03*
D13*
X894960Y777240D03*
X877960Y777240D03*
D19*
X918160Y816160D03*
D20*
X918160Y805160D03*
X918160Y794160D03*
X918160Y783160D03*
X918160Y772160D03*
X918160Y761160D03*
X918160Y750160D03*
X918160Y739160D03*
D19*
X918160Y728160D03*
X1007160Y728160D03*
D20*
X1007160Y739160D03*
X1007160Y750160D03*
X1007160Y761160D03*
X1007160Y772160D03*
X1007160Y783160D03*
X1007160Y794160D03*
X1007160Y805160D03*
D19*
X1007160Y816160D03*
D18*
X1021160Y739760D03*
X1021160Y749760D03*
D21*
X779780Y627380D03*
X1145540Y916940D03*
D22*
X1127760Y645160D03*
X797560Y645160D03*
X797560Y899160D03*
X1127760Y899160D03*
D23*
X1116330Y797560D03*
X1116330Y772160D03*
X1116330Y746760D03*
D12*
X784860Y861060D03*
X784860Y835660D03*
X784860Y810260D03*
X784860Y784860D03*
X784860Y759460D03*
X784860Y734060D03*
X784860Y708660D03*
X784860Y683260D03*
X1038860Y657860D03*
X1038860Y683260D03*
D18*
X1032160Y739760D03*
X1032160Y749760D03*
D10*
X1231840Y633810D03*
X1287840Y633810D03*
D11*
X1244840Y670560D03*
X1254840Y670560D03*
X1264840Y670560D03*
X1274840Y670560D03*
D12*
X1386840Y911860D03*
X1361440Y911860D03*
X1336040Y911860D03*
X1310640Y911860D03*
D10*
X1287840Y910510D03*
X1231840Y910510D03*
D11*
X1274840Y873760D03*
X1264840Y873760D03*
X1254840Y873760D03*
X1244840Y873760D03*
D13*
X1281040Y816610D03*
X1264040Y816610D03*
X1281040Y797560D03*
X1264040Y797560D03*
X1213240Y759460D03*
X1230240Y759460D03*
D14*
X1215740Y854160D03*
D13*
X1264040Y702310D03*
X1281040Y702310D03*
X1264040Y721360D03*
X1281040Y721360D03*
D15*
X1366720Y870270D02*
X1366720Y877250D01*
X1373700Y877250D01*
X1373700Y870270D01*
X1366720Y870270D01*
X1366720Y875070D02*
X1373700Y875070D01*
X1349180Y877250D02*
X1349180Y870270D01*
X1349180Y877250D02*
X1356160Y877250D01*
X1356160Y870270D01*
X1349180Y870270D01*
X1349180Y875070D02*
X1356160Y875070D01*
D16*
X1210240Y797560D03*
X1233240Y797560D03*
D13*
X1213240Y778510D03*
X1230240Y778510D03*
X1331840Y873760D03*
X1314840Y873760D03*
D17*
X1463040Y852560D03*
X1463040Y869560D03*
X1443990Y852560D03*
X1443990Y869560D03*
D15*
X1366720Y851850D02*
X1366720Y844870D01*
X1366720Y851850D02*
X1373700Y851850D01*
X1373700Y844870D01*
X1366720Y844870D01*
X1366720Y849670D02*
X1373700Y849670D01*
X1349180Y851850D02*
X1349180Y844870D01*
X1349180Y851850D02*
X1356160Y851850D01*
X1356160Y844870D01*
X1349180Y844870D01*
X1349180Y849670D02*
X1356160Y849670D01*
D13*
X1331840Y848360D03*
X1314840Y848360D03*
D18*
X1407240Y760730D03*
X1417240Y760730D03*
X1417240Y772160D03*
X1407240Y772160D03*
D12*
X1323340Y632460D03*
X1348740Y632460D03*
X1374140Y632460D03*
X1399540Y632460D03*
X1424940Y632460D03*
X1450340Y632460D03*
D13*
X1281040Y759460D03*
X1264040Y759460D03*
X1281040Y740410D03*
X1264040Y740410D03*
D17*
X1424940Y852560D03*
X1424940Y869560D03*
D13*
X1281040Y777240D03*
X1264040Y777240D03*
D19*
X1304240Y816160D03*
D20*
X1304240Y805160D03*
X1304240Y794160D03*
X1304240Y783160D03*
X1304240Y772160D03*
X1304240Y761160D03*
X1304240Y750160D03*
X1304240Y739160D03*
D19*
X1304240Y728160D03*
X1393240Y728160D03*
D20*
X1393240Y739160D03*
X1393240Y750160D03*
X1393240Y761160D03*
X1393240Y772160D03*
X1393240Y783160D03*
X1393240Y794160D03*
X1393240Y805160D03*
D19*
X1393240Y816160D03*
D18*
X1407240Y739760D03*
X1407240Y749760D03*
D21*
X1165860Y627380D03*
X1531620Y916940D03*
D22*
X1513840Y645160D03*
X1183640Y645160D03*
X1183640Y899160D03*
X1513840Y899160D03*
D23*
X1502410Y797560D03*
X1502410Y772160D03*
X1502410Y746760D03*
D12*
X1170940Y861060D03*
X1170940Y835660D03*
X1170940Y810260D03*
X1170940Y784860D03*
X1170940Y759460D03*
X1170940Y734060D03*
X1170940Y708660D03*
X1170940Y683260D03*
X1424940Y657860D03*
X1424940Y683260D03*
D18*
X1418240Y739760D03*
X1418240Y749760D03*
D10*
X73600Y943690D03*
X129600Y943690D03*
D11*
X86600Y980440D03*
X96600Y980440D03*
X106600Y980440D03*
X116600Y980440D03*
D12*
X228600Y1221740D03*
X203200Y1221740D03*
X177800Y1221740D03*
X152400Y1221740D03*
D10*
X129600Y1220390D03*
X73600Y1220390D03*
D11*
X116600Y1183640D03*
X106600Y1183640D03*
X96600Y1183640D03*
X86600Y1183640D03*
D13*
X122800Y1126490D03*
X105800Y1126490D03*
X122800Y1107440D03*
X105800Y1107440D03*
X55000Y1069340D03*
X72000Y1069340D03*
D14*
X57500Y1164040D03*
D13*
X105800Y1012190D03*
X122800Y1012190D03*
X105800Y1031240D03*
X122800Y1031240D03*
D15*
X208480Y1180150D02*
X208480Y1187130D01*
X215460Y1187130D01*
X215460Y1180150D01*
X208480Y1180150D01*
X208480Y1184950D02*
X215460Y1184950D01*
X190940Y1187130D02*
X190940Y1180150D01*
X190940Y1187130D02*
X197920Y1187130D01*
X197920Y1180150D01*
X190940Y1180150D01*
X190940Y1184950D02*
X197920Y1184950D01*
D16*
X52000Y1107440D03*
X75000Y1107440D03*
D13*
X55000Y1088390D03*
X72000Y1088390D03*
X173600Y1183640D03*
X156600Y1183640D03*
D17*
X304800Y1162440D03*
X304800Y1179440D03*
X285750Y1162440D03*
X285750Y1179440D03*
D15*
X208480Y1161730D02*
X208480Y1154750D01*
X208480Y1161730D02*
X215460Y1161730D01*
X215460Y1154750D01*
X208480Y1154750D01*
X208480Y1159550D02*
X215460Y1159550D01*
X190940Y1161730D02*
X190940Y1154750D01*
X190940Y1161730D02*
X197920Y1161730D01*
X197920Y1154750D01*
X190940Y1154750D01*
X190940Y1159550D02*
X197920Y1159550D01*
D13*
X173600Y1158240D03*
X156600Y1158240D03*
D18*
X249000Y1070610D03*
X259000Y1070610D03*
X259000Y1082040D03*
X249000Y1082040D03*
D12*
X165100Y942340D03*
X190500Y942340D03*
X215900Y942340D03*
X241300Y942340D03*
X266700Y942340D03*
X292100Y942340D03*
D13*
X122800Y1069340D03*
X105800Y1069340D03*
X122800Y1050290D03*
X105800Y1050290D03*
D17*
X266700Y1162440D03*
X266700Y1179440D03*
D13*
X122800Y1087120D03*
X105800Y1087120D03*
D19*
X146000Y1126040D03*
D20*
X146000Y1115040D03*
X146000Y1104040D03*
X146000Y1093040D03*
X146000Y1082040D03*
X146000Y1071040D03*
X146000Y1060040D03*
X146000Y1049040D03*
D19*
X146000Y1038040D03*
X235000Y1038040D03*
D20*
X235000Y1049040D03*
X235000Y1060040D03*
X235000Y1071040D03*
X235000Y1082040D03*
X235000Y1093040D03*
X235000Y1104040D03*
X235000Y1115040D03*
D19*
X235000Y1126040D03*
D18*
X249000Y1049640D03*
X249000Y1059640D03*
D21*
X7620Y937260D03*
X373380Y1226820D03*
D22*
X355600Y955040D03*
X25400Y955040D03*
X25400Y1209040D03*
X355600Y1209040D03*
D23*
X344170Y1107440D03*
X344170Y1082040D03*
X344170Y1056640D03*
D12*
X12700Y1170940D03*
X12700Y1145540D03*
X12700Y1120140D03*
X12700Y1094740D03*
X12700Y1069340D03*
X12700Y1043940D03*
X12700Y1018540D03*
X12700Y993140D03*
X266700Y967740D03*
X266700Y993140D03*
D18*
X260000Y1049640D03*
X260000Y1059640D03*
D10*
X459680Y943690D03*
X515680Y943690D03*
D11*
X472680Y980440D03*
X482680Y980440D03*
X492680Y980440D03*
X502680Y980440D03*
D12*
X614680Y1221740D03*
X589280Y1221740D03*
X563880Y1221740D03*
X538480Y1221740D03*
D10*
X515680Y1220390D03*
X459680Y1220390D03*
D11*
X502680Y1183640D03*
X492680Y1183640D03*
X482680Y1183640D03*
X472680Y1183640D03*
D13*
X508880Y1126490D03*
X491880Y1126490D03*
X508880Y1107440D03*
X491880Y1107440D03*
X441080Y1069340D03*
X458080Y1069340D03*
D14*
X443580Y1164040D03*
D13*
X491880Y1012190D03*
X508880Y1012190D03*
X491880Y1031240D03*
X508880Y1031240D03*
D15*
X594560Y1180150D02*
X594560Y1187130D01*
X601540Y1187130D01*
X601540Y1180150D01*
X594560Y1180150D01*
X594560Y1184950D02*
X601540Y1184950D01*
X577020Y1187130D02*
X577020Y1180150D01*
X577020Y1187130D02*
X584000Y1187130D01*
X584000Y1180150D01*
X577020Y1180150D01*
X577020Y1184950D02*
X584000Y1184950D01*
D16*
X438080Y1107440D03*
X461080Y1107440D03*
D13*
X441080Y1088390D03*
X458080Y1088390D03*
X559680Y1183640D03*
X542680Y1183640D03*
D17*
X690880Y1162440D03*
X690880Y1179440D03*
X671830Y1162440D03*
X671830Y1179440D03*
D15*
X594560Y1161730D02*
X594560Y1154750D01*
X594560Y1161730D02*
X601540Y1161730D01*
X601540Y1154750D01*
X594560Y1154750D01*
X594560Y1159550D02*
X601540Y1159550D01*
X577020Y1161730D02*
X577020Y1154750D01*
X577020Y1161730D02*
X584000Y1161730D01*
X584000Y1154750D01*
X577020Y1154750D01*
X577020Y1159550D02*
X584000Y1159550D01*
D13*
X559680Y1158240D03*
X542680Y1158240D03*
D18*
X635080Y1070610D03*
X645080Y1070610D03*
X645080Y1082040D03*
X635080Y1082040D03*
D12*
X551180Y942340D03*
X576580Y942340D03*
X601980Y942340D03*
X627380Y942340D03*
X652780Y942340D03*
X678180Y942340D03*
D13*
X508880Y1069340D03*
X491880Y1069340D03*
X508880Y1050290D03*
X491880Y1050290D03*
D17*
X652780Y1162440D03*
X652780Y1179440D03*
D13*
X508880Y1087120D03*
X491880Y1087120D03*
D19*
X532080Y1126040D03*
D20*
X532080Y1115040D03*
X532080Y1104040D03*
X532080Y1093040D03*
X532080Y1082040D03*
X532080Y1071040D03*
X532080Y1060040D03*
X532080Y1049040D03*
D19*
X532080Y1038040D03*
X621080Y1038040D03*
D20*
X621080Y1049040D03*
X621080Y1060040D03*
X621080Y1071040D03*
X621080Y1082040D03*
X621080Y1093040D03*
X621080Y1104040D03*
X621080Y1115040D03*
D19*
X621080Y1126040D03*
D18*
X635080Y1049640D03*
X635080Y1059640D03*
D21*
X393700Y937260D03*
X759460Y1226820D03*
D22*
X741680Y955040D03*
X411480Y955040D03*
X411480Y1209040D03*
X741680Y1209040D03*
D23*
X730250Y1107440D03*
X730250Y1082040D03*
X730250Y1056640D03*
D12*
X398780Y1170940D03*
X398780Y1145540D03*
X398780Y1120140D03*
X398780Y1094740D03*
X398780Y1069340D03*
X398780Y1043940D03*
X398780Y1018540D03*
X398780Y993140D03*
X652780Y967740D03*
X652780Y993140D03*
D18*
X646080Y1049640D03*
X646080Y1059640D03*
D10*
X845760Y943690D03*
X901760Y943690D03*
D11*
X858760Y980440D03*
X868760Y980440D03*
X878760Y980440D03*
X888760Y980440D03*
D12*
X1000760Y1221740D03*
X975360Y1221740D03*
X949960Y1221740D03*
X924560Y1221740D03*
D10*
X901760Y1220390D03*
X845760Y1220390D03*
D11*
X888760Y1183640D03*
X878760Y1183640D03*
X868760Y1183640D03*
X858760Y1183640D03*
D13*
X894960Y1126490D03*
X877960Y1126490D03*
X894960Y1107440D03*
X877960Y1107440D03*
X827160Y1069340D03*
X844160Y1069340D03*
D14*
X829660Y1164040D03*
D13*
X877960Y1012190D03*
X894960Y1012190D03*
X877960Y1031240D03*
X894960Y1031240D03*
D15*
X980640Y1180150D02*
X980640Y1187130D01*
X987620Y1187130D01*
X987620Y1180150D01*
X980640Y1180150D01*
X980640Y1184950D02*
X987620Y1184950D01*
X963100Y1187130D02*
X963100Y1180150D01*
X963100Y1187130D02*
X970080Y1187130D01*
X970080Y1180150D01*
X963100Y1180150D01*
X963100Y1184950D02*
X970080Y1184950D01*
D16*
X824160Y1107440D03*
X847160Y1107440D03*
D13*
X827160Y1088390D03*
X844160Y1088390D03*
X945760Y1183640D03*
X928760Y1183640D03*
D17*
X1076960Y1162440D03*
X1076960Y1179440D03*
X1057910Y1162440D03*
X1057910Y1179440D03*
D15*
X980640Y1161730D02*
X980640Y1154750D01*
X980640Y1161730D02*
X987620Y1161730D01*
X987620Y1154750D01*
X980640Y1154750D01*
X980640Y1159550D02*
X987620Y1159550D01*
X963100Y1161730D02*
X963100Y1154750D01*
X963100Y1161730D02*
X970080Y1161730D01*
X970080Y1154750D01*
X963100Y1154750D01*
X963100Y1159550D02*
X970080Y1159550D01*
D13*
X945760Y1158240D03*
X928760Y1158240D03*
D18*
X1021160Y1070610D03*
X1031160Y1070610D03*
X1031160Y1082040D03*
X1021160Y1082040D03*
D12*
X937260Y942340D03*
X962660Y942340D03*
X988060Y942340D03*
X1013460Y942340D03*
X1038860Y942340D03*
X1064260Y942340D03*
D13*
X894960Y1069340D03*
X877960Y1069340D03*
X894960Y1050290D03*
X877960Y1050290D03*
D17*
X1038860Y1162440D03*
X1038860Y1179440D03*
D13*
X894960Y1087120D03*
X877960Y1087120D03*
D19*
X918160Y1126040D03*
D20*
X918160Y1115040D03*
X918160Y1104040D03*
X918160Y1093040D03*
X918160Y1082040D03*
X918160Y1071040D03*
X918160Y1060040D03*
X918160Y1049040D03*
D19*
X918160Y1038040D03*
X1007160Y1038040D03*
D20*
X1007160Y1049040D03*
X1007160Y1060040D03*
X1007160Y1071040D03*
X1007160Y1082040D03*
X1007160Y1093040D03*
X1007160Y1104040D03*
X1007160Y1115040D03*
D19*
X1007160Y1126040D03*
D18*
X1021160Y1049640D03*
X1021160Y1059640D03*
D21*
X779780Y937260D03*
X1145540Y1226820D03*
D22*
X1127760Y955040D03*
X797560Y955040D03*
X797560Y1209040D03*
X1127760Y1209040D03*
D23*
X1116330Y1107440D03*
X1116330Y1082040D03*
X1116330Y1056640D03*
D12*
X784860Y1170940D03*
X784860Y1145540D03*
X784860Y1120140D03*
X784860Y1094740D03*
X784860Y1069340D03*
X784860Y1043940D03*
X784860Y1018540D03*
X784860Y993140D03*
X1038860Y967740D03*
X1038860Y993140D03*
D18*
X1032160Y1049640D03*
X1032160Y1059640D03*
D10*
X1231840Y943690D03*
X1287840Y943690D03*
D11*
X1244840Y980440D03*
X1254840Y980440D03*
X1264840Y980440D03*
X1274840Y980440D03*
D12*
X1386840Y1221740D03*
X1361440Y1221740D03*
X1336040Y1221740D03*
X1310640Y1221740D03*
D10*
X1287840Y1220390D03*
X1231840Y1220390D03*
D11*
X1274840Y1183640D03*
X1264840Y1183640D03*
X1254840Y1183640D03*
X1244840Y1183640D03*
D13*
X1281040Y1126490D03*
X1264040Y1126490D03*
X1281040Y1107440D03*
X1264040Y1107440D03*
X1213240Y1069340D03*
X1230240Y1069340D03*
D14*
X1215740Y1164040D03*
D13*
X1264040Y1012190D03*
X1281040Y1012190D03*
X1264040Y1031240D03*
X1281040Y1031240D03*
D15*
X1366720Y1180150D02*
X1366720Y1187130D01*
X1373700Y1187130D01*
X1373700Y1180150D01*
X1366720Y1180150D01*
X1366720Y1184950D02*
X1373700Y1184950D01*
X1349180Y1187130D02*
X1349180Y1180150D01*
X1349180Y1187130D02*
X1356160Y1187130D01*
X1356160Y1180150D01*
X1349180Y1180150D01*
X1349180Y1184950D02*
X1356160Y1184950D01*
D16*
X1210240Y1107440D03*
X1233240Y1107440D03*
D13*
X1213240Y1088390D03*
X1230240Y1088390D03*
X1331840Y1183640D03*
X1314840Y1183640D03*
D17*
X1463040Y1162440D03*
X1463040Y1179440D03*
X1443990Y1162440D03*
X1443990Y1179440D03*
D15*
X1366720Y1161730D02*
X1366720Y1154750D01*
X1366720Y1161730D02*
X1373700Y1161730D01*
X1373700Y1154750D01*
X1366720Y1154750D01*
X1366720Y1159550D02*
X1373700Y1159550D01*
X1349180Y1161730D02*
X1349180Y1154750D01*
X1349180Y1161730D02*
X1356160Y1161730D01*
X1356160Y1154750D01*
X1349180Y1154750D01*
X1349180Y1159550D02*
X1356160Y1159550D01*
D13*
X1331840Y1158240D03*
X1314840Y1158240D03*
D18*
X1407240Y1070610D03*
X1417240Y1070610D03*
X1417240Y1082040D03*
X1407240Y1082040D03*
D12*
X1323340Y942340D03*
X1348740Y942340D03*
X1374140Y942340D03*
X1399540Y942340D03*
X1424940Y942340D03*
X1450340Y942340D03*
D13*
X1281040Y1069340D03*
X1264040Y1069340D03*
X1281040Y1050290D03*
X1264040Y1050290D03*
D17*
X1424940Y1162440D03*
X1424940Y1179440D03*
D13*
X1281040Y1087120D03*
X1264040Y1087120D03*
D19*
X1304240Y1126040D03*
D20*
X1304240Y1115040D03*
X1304240Y1104040D03*
X1304240Y1093040D03*
X1304240Y1082040D03*
X1304240Y1071040D03*
X1304240Y1060040D03*
X1304240Y1049040D03*
D19*
X1304240Y1038040D03*
X1393240Y1038040D03*
D20*
X1393240Y1049040D03*
X1393240Y1060040D03*
X1393240Y1071040D03*
X1393240Y1082040D03*
X1393240Y1093040D03*
X1393240Y1104040D03*
X1393240Y1115040D03*
D19*
X1393240Y1126040D03*
D18*
X1407240Y1049640D03*
X1407240Y1059640D03*
D21*
X1165860Y937260D03*
X1531620Y1226820D03*
D22*
X1513840Y955040D03*
X1183640Y955040D03*
X1183640Y1209040D03*
X1513840Y1209040D03*
D23*
X1502410Y1107440D03*
X1502410Y1082040D03*
X1502410Y1056640D03*
D12*
X1170940Y1170940D03*
X1170940Y1145540D03*
X1170940Y1120140D03*
X1170940Y1094740D03*
X1170940Y1069340D03*
X1170940Y1043940D03*
X1170940Y1018540D03*
X1170940Y993140D03*
X1424940Y967740D03*
X1424940Y993140D03*
D18*
X1418240Y1049640D03*
X1418240Y1059640D03*
D24*
X-26238Y1207770D03*
X1565478Y1207770D03*
D25*
X-35293Y63500D02*
X-35290Y63722D01*
X-35282Y63944D01*
X-35268Y64166D01*
X-35249Y64388D01*
X-35225Y64608D01*
X-35195Y64829D01*
X-35160Y65048D01*
X-35119Y65267D01*
X-35073Y65484D01*
X-35022Y65700D01*
X-34965Y65915D01*
X-34903Y66129D01*
X-34836Y66340D01*
X-34764Y66551D01*
X-34686Y66759D01*
X-34604Y66965D01*
X-34516Y67169D01*
X-34424Y67372D01*
X-34326Y67571D01*
X-34224Y67768D01*
X-34117Y67963D01*
X-34005Y68155D01*
X-33888Y68344D01*
X-33767Y68531D01*
X-33641Y68714D01*
X-33511Y68894D01*
X-33376Y69071D01*
X-33238Y69244D01*
X-33095Y69414D01*
X-32947Y69581D01*
X-32796Y69744D01*
X-32641Y69903D01*
X-32482Y70058D01*
X-32319Y70209D01*
X-32152Y70357D01*
X-31982Y70500D01*
X-31809Y70638D01*
X-31632Y70773D01*
X-31452Y70903D01*
X-31269Y71029D01*
X-31082Y71150D01*
X-30893Y71267D01*
X-30701Y71379D01*
X-30506Y71486D01*
X-30309Y71588D01*
X-30110Y71686D01*
X-29907Y71778D01*
X-29703Y71866D01*
X-29497Y71948D01*
X-29289Y72026D01*
X-29078Y72098D01*
X-28867Y72165D01*
X-28653Y72227D01*
X-28438Y72284D01*
X-28222Y72335D01*
X-28005Y72381D01*
X-27786Y72422D01*
X-27567Y72457D01*
X-27346Y72487D01*
X-27126Y72511D01*
X-26904Y72530D01*
X-26682Y72544D01*
X-26460Y72552D01*
X-26238Y72555D01*
X-26016Y72552D01*
X-25794Y72544D01*
X-25572Y72530D01*
X-25350Y72511D01*
X-25130Y72487D01*
X-24909Y72457D01*
X-24690Y72422D01*
X-24471Y72381D01*
X-24254Y72335D01*
X-24038Y72284D01*
X-23823Y72227D01*
X-23609Y72165D01*
X-23398Y72098D01*
X-23187Y72026D01*
X-22979Y71948D01*
X-22773Y71866D01*
X-22569Y71778D01*
X-22366Y71686D01*
X-22167Y71588D01*
X-21970Y71486D01*
X-21775Y71379D01*
X-21583Y71267D01*
X-21394Y71150D01*
X-21207Y71029D01*
X-21024Y70903D01*
X-20844Y70773D01*
X-20667Y70638D01*
X-20494Y70500D01*
X-20324Y70357D01*
X-20157Y70209D01*
X-19994Y70058D01*
X-19835Y69903D01*
X-19680Y69744D01*
X-19529Y69581D01*
X-19381Y69414D01*
X-19238Y69244D01*
X-19100Y69071D01*
X-18965Y68894D01*
X-18835Y68714D01*
X-18709Y68531D01*
X-18588Y68344D01*
X-18471Y68155D01*
X-18359Y67963D01*
X-18252Y67768D01*
X-18150Y67571D01*
X-18052Y67372D01*
X-17960Y67169D01*
X-17872Y66965D01*
X-17790Y66759D01*
X-17712Y66551D01*
X-17640Y66340D01*
X-17573Y66129D01*
X-17511Y65915D01*
X-17454Y65700D01*
X-17403Y65484D01*
X-17357Y65267D01*
X-17316Y65048D01*
X-17281Y64829D01*
X-17251Y64608D01*
X-17227Y64388D01*
X-17208Y64166D01*
X-17194Y63944D01*
X-17186Y63722D01*
X-17183Y63500D01*
X-17186Y63278D01*
X-17194Y63056D01*
X-17208Y62834D01*
X-17227Y62612D01*
X-17251Y62392D01*
X-17281Y62171D01*
X-17316Y61952D01*
X-17357Y61733D01*
X-17403Y61516D01*
X-17454Y61300D01*
X-17511Y61085D01*
X-17573Y60871D01*
X-17640Y60660D01*
X-17712Y60449D01*
X-17790Y60241D01*
X-17872Y60035D01*
X-17960Y59831D01*
X-18052Y59628D01*
X-18150Y59429D01*
X-18252Y59232D01*
X-18359Y59037D01*
X-18471Y58845D01*
X-18588Y58656D01*
X-18709Y58469D01*
X-18835Y58286D01*
X-18965Y58106D01*
X-19100Y57929D01*
X-19238Y57756D01*
X-19381Y57586D01*
X-19529Y57419D01*
X-19680Y57256D01*
X-19835Y57097D01*
X-19994Y56942D01*
X-20157Y56791D01*
X-20324Y56643D01*
X-20494Y56500D01*
X-20667Y56362D01*
X-20844Y56227D01*
X-21024Y56097D01*
X-21207Y55971D01*
X-21394Y55850D01*
X-21583Y55733D01*
X-21775Y55621D01*
X-21970Y55514D01*
X-22167Y55412D01*
X-22366Y55314D01*
X-22569Y55222D01*
X-22773Y55134D01*
X-22979Y55052D01*
X-23187Y54974D01*
X-23398Y54902D01*
X-23609Y54835D01*
X-23823Y54773D01*
X-24038Y54716D01*
X-24254Y54665D01*
X-24471Y54619D01*
X-24690Y54578D01*
X-24909Y54543D01*
X-25130Y54513D01*
X-25350Y54489D01*
X-25572Y54470D01*
X-25794Y54456D01*
X-26016Y54448D01*
X-26238Y54445D01*
X-26460Y54448D01*
X-26682Y54456D01*
X-26904Y54470D01*
X-27126Y54489D01*
X-27346Y54513D01*
X-27567Y54543D01*
X-27786Y54578D01*
X-28005Y54619D01*
X-28222Y54665D01*
X-28438Y54716D01*
X-28653Y54773D01*
X-28867Y54835D01*
X-29078Y54902D01*
X-29289Y54974D01*
X-29497Y55052D01*
X-29703Y55134D01*
X-29907Y55222D01*
X-30110Y55314D01*
X-30309Y55412D01*
X-30506Y55514D01*
X-30701Y55621D01*
X-30893Y55733D01*
X-31082Y55850D01*
X-31269Y55971D01*
X-31452Y56097D01*
X-31632Y56227D01*
X-31809Y56362D01*
X-31982Y56500D01*
X-32152Y56643D01*
X-32319Y56791D01*
X-32482Y56942D01*
X-32641Y57097D01*
X-32796Y57256D01*
X-32947Y57419D01*
X-33095Y57586D01*
X-33238Y57756D01*
X-33376Y57929D01*
X-33511Y58106D01*
X-33641Y58286D01*
X-33767Y58469D01*
X-33888Y58656D01*
X-34005Y58845D01*
X-34117Y59037D01*
X-34224Y59232D01*
X-34326Y59429D01*
X-34424Y59628D01*
X-34516Y59831D01*
X-34604Y60035D01*
X-34686Y60241D01*
X-34764Y60449D01*
X-34836Y60660D01*
X-34903Y60871D01*
X-34965Y61085D01*
X-35022Y61300D01*
X-35073Y61516D01*
X-35119Y61733D01*
X-35160Y61952D01*
X-35195Y62171D01*
X-35225Y62392D01*
X-35249Y62612D01*
X-35268Y62834D01*
X-35282Y63056D01*
X-35290Y63278D01*
X-35293Y63500D01*
D26*
X-26238Y63500D03*
M02*
