M48
;GenerationSoftware,Autodesk,EAGLE,9.6.2*%
;CreationDate,2021-11-15T16:46:54Z*%
FMAT,2
ICI,OFF
METRIC,TZ,000.000
T3C0.305
T2C1.016
T1C3.302
%
G90
M71
T1
X151384Y89916
X35560Y2540
X2540Y2540
X2540Y27940
X35560Y27940
X74168Y2540
X41148Y2540
X41148Y27940
X74168Y27940
X112776Y2540
X79756Y2540
X79756Y27940
X112776Y27940
X151384Y2540
X118364Y2540
X118364Y27940
X151384Y27940
X35560Y33528
X2540Y33528
X2540Y58928
X35560Y58928
X74168Y33528
X41148Y33528
X41148Y58928
X74168Y58928
X112776Y33528
X79756Y33528
X79756Y58928
X112776Y58928
X151384Y33528
X118364Y33528
X118364Y58928
X151384Y58928
X35560Y64516
X2540Y64516
X2540Y89916
X35560Y89916
X74168Y64516
X41148Y64516
X41148Y89916
X74168Y89916
X112776Y64516
X79756Y64516
X79756Y89916
X112776Y89916
X151384Y64516
X118364Y64516
X118364Y89916
X151384Y120904
X35560Y95504
X2540Y95504
X2540Y120904
X35560Y120904
X74168Y95504
X41148Y95504
X41148Y120904
X74168Y120904
X112776Y95504
X79756Y95504
X79756Y120904
X112776Y120904
X151384Y95504
X118364Y95504
X118364Y120904
T2
X78486Y37338
X22860Y29210
X20320Y29210
X17780Y29210
X15240Y29210
X16510Y1270
X19050Y1270
X21590Y1270
X24130Y1270
X26670Y1270
X29210Y1270
X1270Y24130
X1270Y21590
X1270Y19050
X1270Y16510
X1270Y13970
X1270Y11430
X1270Y8890
X1270Y6350
X26670Y3810
X26670Y6350
X61468Y29210
X58928Y29210
X56388Y29210
X53848Y29210
X55118Y1270
X57658Y1270
X60198Y1270
X62738Y1270
X65278Y1270
X67818Y1270
X39878Y24130
X39878Y21590
X39878Y19050
X39878Y16510
X39878Y13970
X39878Y11430
X39878Y8890
X39878Y6350
X65278Y3810
X65278Y6350
X100076Y29210
X97536Y29210
X94996Y29210
X92456Y29210
X93726Y1270
X96266Y1270
X98806Y1270
X101346Y1270
X103886Y1270
X106426Y1270
X78486Y24130
X78486Y21590
X78486Y19050
X78486Y16510
X78486Y13970
X78486Y11430
X78486Y8890
X78486Y6350
X103886Y3810
X103886Y6350
X138684Y29210
X136144Y29210
X133604Y29210
X131064Y29210
X132334Y1270
X134874Y1270
X137414Y1270
X139954Y1270
X142494Y1270
X145034Y1270
X117094Y24130
X117094Y21590
X117094Y19050
X117094Y16510
X117094Y13970
X117094Y11430
X117094Y8890
X117094Y6350
X142494Y3810
X142494Y6350
X22860Y60198
X20320Y60198
X17780Y60198
X15240Y60198
X16510Y32258
X19050Y32258
X21590Y32258
X24130Y32258
X26670Y32258
X29210Y32258
X1270Y55118
X1270Y52578
X1270Y50038
X1270Y47498
X1270Y44958
X1270Y42418
X1270Y39878
X1270Y37338
X26670Y34798
X26670Y37338
X61468Y60198
X58928Y60198
X56388Y60198
X53848Y60198
X55118Y32258
X57658Y32258
X60198Y32258
X62738Y32258
X65278Y32258
X67818Y32258
X39878Y55118
X39878Y52578
X39878Y50038
X39878Y47498
X39878Y44958
X39878Y42418
X39878Y39878
X39878Y37338
X65278Y34798
X65278Y37338
X100076Y60198
X97536Y60198
X94996Y60198
X92456Y60198
X93726Y32258
X96266Y32258
X98806Y32258
X101346Y32258
X103886Y32258
X106426Y32258
X78486Y55118
X78486Y52578
X78486Y50038
X78486Y47498
X78486Y44958
X78486Y42418
X78486Y39878
X103886Y34798
X103886Y37338
X138684Y60198
X136144Y60198
X133604Y60198
X131064Y60198
X132334Y32258
X134874Y32258
X137414Y32258
X139954Y32258
X142494Y32258
X145034Y32258
X117094Y55118
X117094Y52578
X117094Y50038
X117094Y47498
X117094Y44958
X117094Y42418
X117094Y39878
X117094Y37338
X142494Y34798
X142494Y37338
X22860Y91186
X20320Y91186
X17780Y91186
X15240Y91186
X16510Y63246
X19050Y63246
X21590Y63246
X24130Y63246
X26670Y63246
X29210Y63246
X1270Y86106
X1270Y83566
X1270Y81026
X1270Y78486
X1270Y75946
X1270Y73406
X1270Y70866
X1270Y68326
X26670Y65786
X26670Y68326
X61468Y91186
X58928Y91186
X56388Y91186
X53848Y91186
X55118Y63246
X57658Y63246
X60198Y63246
X62738Y63246
X65278Y63246
X67818Y63246
X39878Y86106
X39878Y83566
X39878Y81026
X39878Y78486
X39878Y75946
X39878Y73406
X39878Y70866
X39878Y68326
X65278Y65786
X65278Y68326
X100076Y91186
X97536Y91186
X94996Y91186
X92456Y91186
X93726Y63246
X96266Y63246
X98806Y63246
X101346Y63246
X103886Y63246
X106426Y63246
X78486Y86106
X78486Y83566
X78486Y81026
X78486Y78486
X78486Y75946
X78486Y73406
X78486Y70866
X78486Y68326
X103886Y65786
X103886Y68326
X138684Y91186
X136144Y91186
X133604Y91186
X131064Y91186
X132334Y63246
X134874Y63246
X137414Y63246
X139954Y63246
X142494Y63246
X145034Y63246
X117094Y86106
X117094Y83566
X117094Y81026
X117094Y78486
X117094Y75946
X117094Y73406
X117094Y70866
X117094Y68326
X142494Y65786
X142494Y68326
X22860Y122174
X20320Y122174
X17780Y122174
X15240Y122174
X16510Y94234
X19050Y94234
X21590Y94234
X24130Y94234
X26670Y94234
X29210Y94234
X1270Y117094
X1270Y114554
X1270Y112014
X1270Y109474
X1270Y106934
X1270Y104394
X1270Y101854
X1270Y99314
X26670Y96774
X26670Y99314
X61468Y122174
X58928Y122174
X56388Y122174
X53848Y122174
X55118Y94234
X57658Y94234
X60198Y94234
X62738Y94234
X65278Y94234
X67818Y94234
X39878Y117094
X39878Y114554
X39878Y112014
X39878Y109474
X39878Y106934
X39878Y104394
X39878Y101854
X39878Y99314
X65278Y96774
X65278Y99314
X100076Y122174
X97536Y122174
X94996Y122174
X92456Y122174
X93726Y94234
X96266Y94234
X98806Y94234
X101346Y94234
X103886Y94234
X106426Y94234
X78486Y117094
X78486Y114554
X78486Y112014
X78486Y109474
X78486Y106934
X78486Y104394
X78486Y101854
X78486Y99314
X103886Y96774
X103886Y99314
X138684Y122174
X136144Y122174
X133604Y122174
X131064Y122174
X132334Y94234
X134874Y94234
X137414Y94234
X139954Y94234
X142494Y94234
X145034Y94234
X117094Y117094
X117094Y114554
X117094Y112014
X117094Y109474
X117094Y106934
X117094Y104394
X117094Y101854
X117094Y99314
X142494Y96774
X142494Y99314
T3
X47371Y58039
X68453Y58801
X40907Y51308
X44958Y43688
X52070Y45085
X44992Y45910
X48006Y44958
X48006Y46736
X50038Y54864
X52324Y40513
X52451Y37846
X53086Y56388
X62738Y55118
X48006Y48768
X42164Y38481
X48006Y50673
X44958Y36068
X53086Y53848
X87876Y53713
X85895Y44026
X85852Y38608
X102216Y41788
X103216Y41788
X106716Y42888
X104816Y46888
X101716Y40388
X105516Y42888
X100216Y40488
X107616Y43988
X109516Y42388
X108716Y42988
X108816Y47388
X106716Y48188
X85852Y54483
X91694Y55118
X85852Y34417
X90678Y50546
X91821Y51943
X108716Y44988
X108816Y48488
X107616Y44988
X105918Y46571
X108716Y43988
X107442Y47371
X110716Y42388
X111916Y42388
X113016Y42388
X114216Y40988
X109616Y50088
X110816Y50088
X111916Y50088
X113016Y50088
X114216Y51288
X98425Y55118
X108816Y49588
X102216Y47388
X107716Y48888
X93218Y50673
X99187Y41783
X99314Y44069
X104902Y45636
X104113Y44847
X104321Y41953
X106464Y43869
X83566Y51689
X105918Y58039
X80353Y51435
X85979Y58039
X107061Y58801
X79515Y51308
X83566Y43688
X90678Y45085
X83600Y45910
X86614Y44958
X86614Y46736
X88646Y54864
X90932Y40513
X91059Y37846
X91694Y56388
X101346Y55118
X86614Y48768
X80772Y38481
X86614Y50673
X83566Y36068
X91694Y53848
X126484Y53713
X124503Y44026
X124460Y38608
X140824Y41788
X141824Y41788
X145324Y42888
X143424Y46888
X140324Y40388
X144124Y42888
X138824Y40488
X146224Y43988
X148124Y42388
X147324Y42988
X147424Y47388
X145324Y48188
X124460Y54483
X130302Y55118
X124460Y34417
X129286Y50546
X130429Y51943
X147324Y44988
X147424Y48488
X146224Y44988
X144526Y46571
X147324Y43988
X146050Y47371
X149324Y42388
X150524Y42388
X151624Y42388
X152824Y40988
X148224Y50088
X149424Y50088
X150524Y50088
X151624Y50088
X152824Y51288
X137033Y55118
X147424Y49588
X140824Y47388
X146324Y48888
X131826Y50673
X137795Y41783
X137922Y44069
X143510Y45636
X142721Y44847
X142929Y41953
X145072Y43869
X122174Y51689
X144526Y58039
X118961Y51435
X124587Y58039
X145669Y58801
X118123Y51308
X122174Y43688
X129286Y45085
X122208Y45910
X125222Y44958
X125222Y46736
X127254Y54864
X129540Y40513
X129667Y37846
X130302Y56388
X139954Y55118
X125222Y48768
X119380Y38481
X125222Y50673
X122174Y36068
X130302Y53848
X10660Y84701
X8679Y75014
X8636Y69596
X25000Y72776
X26000Y72776
X29500Y73876
X27600Y77876
X24500Y71376
X28300Y73876
X23000Y71476
X30400Y74976
X32300Y73376
X31500Y73976
X31600Y78376
X29500Y79176
X8636Y85471
X14478Y86106
X8636Y65405
X13462Y81534
X14605Y82931
X31500Y75976
X31600Y79476
X30400Y75976
X28702Y77559
X31500Y74976
X30226Y78359
X33500Y73376
X34700Y73376
X35800Y73376
X37000Y71976
X32400Y81076
X33600Y81076
X34700Y81076
X35800Y81076
X37000Y82276
X21209Y86106
X31600Y80576
X25000Y78376
X30500Y79876
X16002Y81661
X21971Y72771
X22098Y75057
X27686Y76624
X26897Y75835
X27105Y72941
X29248Y74857
X6350Y82677
X28702Y89027
X3137Y82423
X8763Y89027
X29845Y89789
X2299Y82296
X6350Y74676
X13462Y76073
X6384Y76899
X9398Y75946
X9398Y77724
X11430Y85852
X13716Y71501
X13843Y68834
X14478Y87376
X24130Y86106
X9398Y79756
X3556Y69469
X9398Y81661
X6350Y67056
X14478Y84836
X49268Y84701
X47287Y75014
X47244Y69596
X63608Y72776
X64608Y72776
X68108Y73876
X66208Y77876
X63108Y71376
X66908Y73876
X61608Y71476
X69008Y74976
X70908Y73376
X70108Y73976
X70208Y78376
X68108Y79176
X47244Y85471
X53086Y86106
X47244Y65405
X52070Y81534
X53213Y82931
X70108Y75976
X70208Y79476
X69008Y75976
X67310Y77559
X70108Y74976
X68834Y78359
X72108Y73376
X73308Y73376
X74408Y73376
X75608Y71976
X71008Y81076
X72208Y81076
X73308Y81076
X74408Y81076
X75608Y82276
X59817Y86106
X70208Y80576
X63608Y78376
X69108Y79876
X54610Y81661
X60579Y72771
X60706Y75057
X66294Y76624
X65505Y75835
X65713Y72941
X67856Y74857
X44958Y82677
X67310Y89027
X41745Y82423
X47371Y89027
X68453Y89789
X40907Y82296
X44958Y74676
X52070Y76073
X44992Y76899
X48006Y75946
X48006Y77724
X50038Y85852
X52324Y71501
X52451Y68834
X53086Y87376
X62738Y86106
X48006Y79756
X42164Y69469
X48006Y81661
X44958Y67056
X53086Y84836
X87876Y84701
X85895Y75014
X85852Y69596
X102216Y72776
X103216Y72776
X106716Y73876
X104816Y77876
X101716Y71376
X105516Y73876
X100216Y71476
X107616Y74976
X109516Y73376
X108716Y73976
X108816Y78376
X106716Y79176
X85852Y85471
X91694Y86106
X85852Y65405
X90678Y81534
X91821Y82931
X108716Y75976
X108816Y79476
X107616Y75976
X105918Y77559
X108716Y74976
X107442Y78359
X110716Y73376
X111916Y73376
X113016Y73376
X114216Y71976
X109616Y81076
X110816Y81076
X111916Y81076
X113016Y81076
X114216Y82276
X98425Y86106
X108816Y80576
X102216Y78376
X107716Y79876
X93218Y81661
X99187Y72771
X99314Y75057
X104902Y76624
X104113Y75835
X104321Y72941
X106464Y74857
X83566Y82677
X105918Y89027
X80353Y82423
X85979Y89027
X107061Y89789
X79515Y82296
X83566Y74676
X90678Y76073
X83600Y76899
X86614Y75946
X86614Y77724
X88646Y85852
X80353Y20447
X91059Y68834
X91694Y87376
X101346Y86106
X86614Y79756
X80772Y69469
X86614Y81661
X83566Y67056
X91694Y84836
X126484Y84701
X124503Y75014
X124460Y69596
X140824Y72776
X141824Y72776
X145324Y73876
X143424Y77876
X140324Y71376
X144124Y73876
X138824Y71476
X146224Y74976
X148124Y73376
X147324Y73976
X147424Y78376
X145324Y79176
X124460Y85471
X130302Y86106
X124460Y65405
X129286Y81534
X130429Y82931
X147324Y75976
X147424Y79476
X146224Y75976
X144526Y77559
X147324Y74976
X146050Y78359
X149324Y73376
X150524Y73376
X151624Y73376
X152824Y71976
X148224Y81076
X149424Y81076
X150524Y81076
X151624Y81076
X152824Y82276
X137033Y86106
X147424Y80576
X140824Y78376
X146324Y79876
X131826Y81661
X137795Y72771
X137922Y75057
X143510Y76624
X142721Y75835
X142929Y72941
X145072Y74857
X122174Y82677
X144526Y89027
X118961Y82423
X124587Y89027
X145669Y89789
X118123Y82296
X122174Y74676
X129286Y76073
X122208Y76899
X125222Y75946
X125222Y77724
X127254Y85852
X129540Y71501
X129667Y68834
X130302Y87376
X139954Y86106
X125222Y79756
X119380Y69469
X125222Y81661
X122174Y67056
X130302Y84836
X10660Y115689
X8679Y106002
X8636Y100584
X25000Y103764
X26000Y103764
X29500Y104864
X27600Y108864
X24500Y102364
X28300Y104864
X23000Y102464
X30400Y105964
X32300Y104364
X31500Y104964
X31600Y109364
X29500Y110164
X8636Y116459
X14478Y117094
X8636Y96393
X13462Y112522
X14605Y113919
X31500Y106964
X31600Y110464
X30400Y106964
X28702Y108547
X31500Y105964
X30226Y109347
X33500Y104364
X34700Y104364
X35800Y104364
X37000Y102964
X32400Y112064
X33600Y112064
X34700Y112064
X35800Y112064
X37000Y113264
X21209Y117094
X31600Y111564
X25000Y109364
X30500Y110864
X16002Y112649
X21971Y103759
X22098Y106045
X27686Y107612
X26897Y106823
X27105Y103929
X29248Y105845
X6350Y113665
X28702Y120015
X3137Y113411
X8763Y120015
X29845Y120777
X2299Y113284
X6350Y105664
X13462Y107061
X6384Y107886
X9398Y106934
X9398Y108712
X11430Y116840
X13716Y102489
X13843Y99822
X14478Y118364
X24130Y117094
X9398Y110744
X3556Y100457
X9398Y112649
X6350Y98044
X14478Y115824
X49268Y115689
X47287Y106002
X47244Y100584
X63608Y103764
X64608Y103764
X68108Y104864
X66208Y108864
X63108Y102364
X66908Y104864
X61608Y102464
X69008Y105964
X70908Y104364
X70108Y104964
X70208Y109364
X68108Y110164
X47244Y116459
X53086Y117094
X47244Y96393
X52070Y112522
X53213Y113919
X70108Y106964
X70208Y110464
X69008Y106964
X67310Y108547
X70108Y105964
X68834Y109347
X72108Y104364
X73308Y104364
X74408Y104364
X75608Y102964
X71008Y112064
X72208Y112064
X73308Y112064
X74408Y112064
X75608Y113264
X59817Y117094
X70208Y111564
X63608Y109364
X69108Y110864
X54610Y112649
X60579Y103759
X60706Y106045
X66294Y107612
X65505Y106823
X65713Y103929
X67856Y105845
X44958Y113665
X67310Y120015
X41745Y113411
X47371Y120015
X68453Y120777
X40907Y113284
X44958Y105664
X52070Y107061
X44992Y107886
X48006Y106934
X48006Y108712
X50038Y116840
X52324Y102489
X52451Y99822
X53086Y118364
X62738Y117094
X48006Y110744
X42164Y100457
X48006Y112649
X44958Y98044
X53086Y115824
X87876Y115689
X85895Y106002
X85852Y100584
X102216Y103764
X103216Y103764
X106716Y104864
X104816Y108864
X101716Y102364
X105516Y104864
X100216Y102464
X107616Y105964
X109516Y104364
X108716Y104964
X108816Y109364
X106716Y110164
X85852Y116459
X91694Y117094
X85852Y96393
X90678Y112522
X91821Y113919
X108716Y106964
X108816Y110464
X107616Y106964
X105918Y108547
X108716Y105964
X107442Y109347
X110716Y104364
X111916Y104364
X113016Y104364
X114216Y102964
X109616Y112064
X110816Y112064
X111916Y112064
X113016Y112064
X114216Y113264
X98425Y117094
X108816Y111564
X102216Y109364
X107716Y110864
X93218Y112649
X99187Y103759
X99314Y106045
X104902Y107612
X104113Y106823
X104321Y103929
X106464Y105845
X83566Y113665
X105918Y120015
X80353Y113411
X85979Y120015
X107061Y120777
X79515Y113284
X83566Y105664
X90678Y107061
X83600Y107886
X86614Y106934
X86614Y108712
X88646Y116840
X90932Y102489
X91059Y99822
X91694Y118364
X101346Y117094
X86614Y110744
X80772Y100457
X86614Y112649
X83566Y98044
X91694Y115824
X126484Y115689
X124503Y106002
X124460Y100584
X140824Y103764
X141824Y103764
X145324Y104864
X143424Y108864
X140324Y102364
X144124Y104864
X138824Y102464
X146224Y105964
X148124Y104364
X147324Y104964
X147424Y109364
X145324Y110164
X124460Y116459
X130302Y117094
X124460Y96393
X129286Y112522
X130429Y113919
X147324Y106964
X147424Y110464
X146224Y106964
X144526Y108547
X147324Y105964
X146050Y109347
X149324Y104364
X150524Y104364
X151624Y104364
X152824Y102964
X148224Y112064
X149424Y112064
X150524Y112064
X151624Y112064
X152824Y113264
X137033Y117094
X147424Y111564
X140824Y109364
X146324Y110864
X131826Y112649
X137795Y103759
X137922Y106045
X143510Y107612
X142721Y106823
X142929Y103929
X145072Y105845
X122174Y113665
X144526Y120015
X118961Y113411
X124587Y120015
X145669Y120777
X118123Y113284
X122174Y105664
X129286Y107061
X122208Y107886
X125222Y106934
X125222Y108712
X127254Y116840
X129540Y102489
X129667Y99822
X130302Y118364
X139954Y117094
X125222Y110744
X119380Y100457
X125222Y112649
X122174Y98044
X130302Y115824
X10660Y22725
X8679Y13038
X8636Y7620
X25000Y10800
X26000Y10800
X29500Y11900
X27600Y15900
X24500Y9400
X28300Y11900
X23000Y9500
X30400Y13000
X32300Y11400
X31500Y12000
X31600Y16400
X29500Y17200
X8636Y23495
X14478Y24130
X8636Y3429
X13462Y19558
X14605Y20955
X31500Y14000
X31600Y17500
X30400Y14000
X28702Y15583
X31500Y13000
X30226Y16383
X33500Y11400
X34700Y11400
X35800Y11400
X37000Y10000
X32400Y19100
X33600Y19100
X34700Y19100
X35800Y19100
X37000Y20300
X21209Y24130
X31600Y18600
X25000Y16400
X30500Y17900
X16002Y19685
X21971Y10795
X22098Y13081
X27686Y14648
X26897Y13859
X27105Y10965
X29248Y12881
X6350Y20701
X28702Y27051
X3137Y20447
X8763Y27051
X29845Y27813
X2299Y20320
X6350Y12700
X13462Y14097
X6384Y14922
X9398Y13970
X9398Y15748
X11430Y23876
X13716Y9525
X13843Y6858
X14478Y25400
X24130Y24130
X9398Y17780
X3556Y7493
X9398Y19685
X6350Y5080
X14478Y22860
X49268Y22725
X47287Y13038
X47244Y7620
X63608Y10800
X64608Y10800
X68108Y11900
X66208Y15900
X63108Y9400
X66908Y11900
X61608Y9500
X69008Y13000
X70908Y11400
X70108Y12000
X70208Y16400
X68108Y17200
X47244Y23495
X53086Y24130
X47244Y3429
X52070Y19558
X53213Y20955
X70108Y14000
X70208Y17500
X69008Y14000
X67310Y15583
X70108Y13000
X68834Y16383
X72108Y11400
X73308Y11400
X74408Y11400
X75608Y10000
X71008Y19100
X72208Y19100
X73308Y19100
X74408Y19100
X75608Y20300
X59817Y24130
X70208Y18600
X63608Y16400
X69108Y17900
X54610Y19685
X60579Y10795
X60706Y13081
X66294Y14648
X65505Y13859
X65713Y10965
X67856Y12881
X44958Y20701
X67310Y27051
X41745Y20447
X47371Y27051
X68453Y27813
X40907Y20320
X44958Y12700
X52070Y14097
X44992Y14922
X48006Y13970
X48006Y15748
X50038Y23876
X52324Y9525
X52451Y6858
X53086Y25400
X62738Y24130
X48006Y17780
X42164Y7493
X48006Y19685
X44958Y5080
X53086Y22860
X87876Y22725
X85895Y13038
X85852Y7620
X102216Y10800
X103216Y10800
X106716Y11900
X104816Y15900
X101716Y9400
X105516Y11900
X100216Y9500
X107616Y13000
X109516Y11400
X108716Y12000
X108816Y16400
X106716Y17200
X85852Y23495
X91694Y24130
X85852Y3429
X90678Y19558
X91821Y20955
X108716Y14000
X108816Y17500
X107616Y14000
X105918Y15583
X108716Y13000
X107442Y16383
X110716Y11400
X111916Y11400
X113016Y11400
X114216Y10000
X109616Y19100
X110816Y19100
X111916Y19100
X113016Y19100
X114216Y20300
X98425Y24130
X108816Y18600
X102216Y16400
X107716Y17900
X93218Y19685
X99187Y10795
X99314Y13081
X104902Y14648
X104113Y13859
X104321Y10965
X106464Y12881
X83566Y20701
X105918Y27051
X85979Y27051
X107061Y27813
X79515Y20320
X83566Y12700
X90678Y14097
X83600Y14922
X86614Y13970
X86614Y15748
X88646Y23876
X90932Y9525
X91059Y6858
X91694Y25400
X101346Y24130
X86614Y17780
X80772Y7493
X86614Y19685
X83566Y5080
X91694Y22860
X126484Y22725
X90932Y71501
X124503Y13038
X124460Y7620
X140824Y10800
X141824Y10800
X145324Y11900
X143424Y15900
X140324Y9400
X144124Y11900
X138824Y9500
X146224Y13000
X148124Y11400
X147324Y12000
X147424Y16400
X145324Y17200
X124460Y23495
X130302Y24130
X124460Y3429
X129286Y19558
X130429Y20955
X147324Y14000
X147424Y17500
X146224Y14000
X144526Y15583
X147324Y13000
X146050Y16383
X149324Y11400
X150524Y11400
X151624Y11400
X152824Y10000
X148224Y19100
X149424Y19100
X150524Y19100
X151624Y19100
X152824Y20300
X137033Y24130
X147424Y18600
X140824Y16400
X146324Y17900
X131826Y19685
X137795Y10795
X137922Y13081
X143510Y14648
X142721Y13859
X142929Y10965
X145072Y12881
X122174Y20701
X144526Y27051
X118961Y20447
X124587Y27051
X145669Y27813
X118123Y20320
X122174Y12700
X129286Y14097
X122208Y14922
X125222Y13970
X125222Y15748
X127254Y23876
X129540Y9525
X129667Y6858
X130302Y25400
X139954Y24130
X125222Y17780
X119380Y7493
X125222Y19685
X122174Y5080
X130302Y22860
X10660Y53713
X8679Y44026
X8636Y38608
X25000Y41788
X26000Y41788
X29500Y42888
X27600Y46888
X24500Y40388
X28300Y42888
X23000Y40488
X30400Y43988
X32300Y42388
X31500Y42988
X31600Y47388
X29500Y48188
X8636Y54483
X14478Y55118
X8636Y34417
X13462Y50546
X14605Y51943
X31500Y44988
X31600Y48488
X30400Y44988
X28702Y46571
X31500Y43988
X30226Y47371
X33500Y42388
X34700Y42388
X35800Y42388
X37000Y40988
X32400Y50088
X33600Y50088
X34700Y50088
X35800Y50088
X37000Y51288
X21209Y55118
X31600Y49588
X25000Y47388
X30500Y48888
X16002Y50673
X21971Y41783
X22098Y44069
X27686Y45636
X26897Y44847
X27105Y41953
X29248Y43869
X6350Y51689
X28702Y58039
X3137Y51435
X8763Y58039
X29845Y58801
X2299Y51308
X6350Y43688
X13462Y45085
X6384Y45910
X9398Y44958
X9398Y46736
X11430Y54864
X13716Y40513
X13843Y37846
X14478Y56388
X24130Y55118
X9398Y48768
X3556Y38481
X9398Y50673
X6350Y36068
X14478Y53848
X49268Y53713
X47287Y44026
X47244Y38608
X63608Y41788
X64608Y41788
X68108Y42888
X66208Y46888
X63108Y40388
X66908Y42888
X61608Y40488
X69008Y43988
X70908Y42388
X70108Y42988
X70208Y47388
X68108Y48188
X47244Y54483
X53086Y55118
X47244Y34417
X52070Y50546
X53213Y51943
X70108Y44988
X70208Y48488
X69008Y44988
X67310Y46571
X70108Y43988
X68834Y47371
X72108Y42388
X73308Y42388
X74408Y42388
X75608Y40988
X71008Y50088
X72208Y50088
X73308Y50088
X74408Y50088
X75608Y51288
X59817Y55118
X70208Y49588
X63608Y47388
X69108Y48888
X54610Y50673
X60579Y41783
X60706Y44069
X66294Y45636
X65505Y44847
X65713Y41953
X67856Y43869
X44958Y51689
X67310Y58039
X41745Y51435
M30