G04 EAGLE Gerber RS-274X export*
G75*
%MOMM*%
%FSLAX34Y34*%
%LPD*%
%INSoldermask Bottom*%
%IPPOS*%
%AMOC8*
5,1,8,0,0,1.08239X$1,22.5*%
G01*
%ADD10C,2.082800*%
%ADD11R,1.473200X0.838200*%
%ADD12R,0.863600X1.473200*%
%ADD13C,0.838200*%
%ADD14C,3.505200*%
%ADD15R,4.203200X1.703200*%
%ADD16C,1.203200*%
%ADD17C,1.270000*%
%ADD18C,1.703200*%

G36*
X1045529Y977912D02*
X1045529Y977912D01*
X1045595Y977914D01*
X1045638Y977932D01*
X1045685Y977940D01*
X1045742Y977974D01*
X1045802Y977999D01*
X1045837Y978030D01*
X1045878Y978055D01*
X1045920Y978106D01*
X1045968Y978150D01*
X1045990Y978192D01*
X1046019Y978229D01*
X1046040Y978291D01*
X1046071Y978350D01*
X1046079Y978404D01*
X1046091Y978441D01*
X1046090Y978481D01*
X1046098Y978535D01*
X1046098Y982345D01*
X1046087Y982410D01*
X1046085Y982476D01*
X1046067Y982519D01*
X1046059Y982566D01*
X1046025Y982623D01*
X1046000Y982683D01*
X1045969Y982718D01*
X1045944Y982759D01*
X1045893Y982801D01*
X1045849Y982849D01*
X1045807Y982871D01*
X1045770Y982900D01*
X1045708Y982921D01*
X1045649Y982952D01*
X1045595Y982960D01*
X1045558Y982972D01*
X1045518Y982971D01*
X1045464Y982979D01*
X1032256Y982979D01*
X1032191Y982968D01*
X1032125Y982966D01*
X1032082Y982948D01*
X1032035Y982940D01*
X1031978Y982906D01*
X1031918Y982881D01*
X1031883Y982850D01*
X1031842Y982825D01*
X1031801Y982774D01*
X1031752Y982730D01*
X1031730Y982688D01*
X1031701Y982651D01*
X1031680Y982589D01*
X1031649Y982530D01*
X1031641Y982476D01*
X1031629Y982439D01*
X1031629Y982435D01*
X1031629Y982434D01*
X1031630Y982399D01*
X1031622Y982345D01*
X1031622Y978535D01*
X1031633Y978470D01*
X1031635Y978404D01*
X1031653Y978361D01*
X1031661Y978314D01*
X1031695Y978257D01*
X1031720Y978197D01*
X1031751Y978162D01*
X1031776Y978121D01*
X1031827Y978080D01*
X1031871Y978031D01*
X1031913Y978009D01*
X1031950Y977980D01*
X1032012Y977959D01*
X1032071Y977928D01*
X1032125Y977920D01*
X1032162Y977908D01*
X1032202Y977909D01*
X1032256Y977901D01*
X1045464Y977901D01*
X1045529Y977912D01*
G37*
G36*
X659449Y977912D02*
X659449Y977912D01*
X659515Y977914D01*
X659558Y977932D01*
X659605Y977940D01*
X659662Y977974D01*
X659722Y977999D01*
X659757Y978030D01*
X659798Y978055D01*
X659840Y978106D01*
X659888Y978150D01*
X659910Y978192D01*
X659939Y978229D01*
X659960Y978291D01*
X659991Y978350D01*
X659999Y978404D01*
X660011Y978441D01*
X660010Y978481D01*
X660018Y978535D01*
X660018Y982345D01*
X660007Y982410D01*
X660005Y982476D01*
X659987Y982519D01*
X659979Y982566D01*
X659945Y982623D01*
X659920Y982683D01*
X659889Y982718D01*
X659864Y982759D01*
X659813Y982801D01*
X659769Y982849D01*
X659727Y982871D01*
X659690Y982900D01*
X659628Y982921D01*
X659569Y982952D01*
X659515Y982960D01*
X659478Y982972D01*
X659438Y982971D01*
X659384Y982979D01*
X646176Y982979D01*
X646111Y982968D01*
X646045Y982966D01*
X646002Y982948D01*
X645955Y982940D01*
X645898Y982906D01*
X645838Y982881D01*
X645803Y982850D01*
X645762Y982825D01*
X645721Y982774D01*
X645672Y982730D01*
X645650Y982688D01*
X645621Y982651D01*
X645600Y982589D01*
X645569Y982530D01*
X645561Y982476D01*
X645549Y982439D01*
X645549Y982435D01*
X645549Y982434D01*
X645550Y982399D01*
X645542Y982345D01*
X645542Y978535D01*
X645553Y978470D01*
X645555Y978404D01*
X645573Y978361D01*
X645581Y978314D01*
X645615Y978257D01*
X645640Y978197D01*
X645671Y978162D01*
X645696Y978121D01*
X645747Y978080D01*
X645791Y978031D01*
X645833Y978009D01*
X645870Y977980D01*
X645932Y977959D01*
X645991Y977928D01*
X646045Y977920D01*
X646082Y977908D01*
X646122Y977909D01*
X646176Y977901D01*
X659384Y977901D01*
X659449Y977912D01*
G37*
G36*
X273369Y977912D02*
X273369Y977912D01*
X273435Y977914D01*
X273478Y977932D01*
X273525Y977940D01*
X273582Y977974D01*
X273642Y977999D01*
X273677Y978030D01*
X273718Y978055D01*
X273760Y978106D01*
X273808Y978150D01*
X273830Y978192D01*
X273859Y978229D01*
X273880Y978291D01*
X273911Y978350D01*
X273919Y978404D01*
X273931Y978441D01*
X273930Y978481D01*
X273938Y978535D01*
X273938Y982345D01*
X273927Y982410D01*
X273925Y982476D01*
X273907Y982519D01*
X273899Y982566D01*
X273865Y982623D01*
X273840Y982683D01*
X273809Y982718D01*
X273784Y982759D01*
X273733Y982801D01*
X273689Y982849D01*
X273647Y982871D01*
X273610Y982900D01*
X273548Y982921D01*
X273489Y982952D01*
X273435Y982960D01*
X273398Y982972D01*
X273358Y982971D01*
X273304Y982979D01*
X260096Y982979D01*
X260031Y982968D01*
X259965Y982966D01*
X259922Y982948D01*
X259875Y982940D01*
X259818Y982906D01*
X259758Y982881D01*
X259723Y982850D01*
X259682Y982825D01*
X259641Y982774D01*
X259592Y982730D01*
X259570Y982688D01*
X259541Y982651D01*
X259520Y982589D01*
X259489Y982530D01*
X259481Y982476D01*
X259469Y982439D01*
X259469Y982435D01*
X259469Y982434D01*
X259470Y982399D01*
X259462Y982345D01*
X259462Y978535D01*
X259473Y978470D01*
X259475Y978404D01*
X259493Y978361D01*
X259501Y978314D01*
X259535Y978257D01*
X259560Y978197D01*
X259591Y978162D01*
X259616Y978121D01*
X259667Y978080D01*
X259711Y978031D01*
X259753Y978009D01*
X259790Y977980D01*
X259852Y977959D01*
X259911Y977928D01*
X259965Y977920D01*
X260002Y977908D01*
X260042Y977909D01*
X260096Y977901D01*
X273304Y977901D01*
X273369Y977912D01*
G37*
G36*
X273369Y668032D02*
X273369Y668032D01*
X273435Y668034D01*
X273478Y668052D01*
X273525Y668060D01*
X273582Y668094D01*
X273642Y668119D01*
X273677Y668150D01*
X273718Y668175D01*
X273760Y668226D01*
X273808Y668270D01*
X273830Y668312D01*
X273859Y668349D01*
X273880Y668411D01*
X273911Y668470D01*
X273919Y668524D01*
X273931Y668561D01*
X273930Y668601D01*
X273938Y668655D01*
X273938Y672465D01*
X273927Y672530D01*
X273925Y672596D01*
X273907Y672639D01*
X273899Y672686D01*
X273865Y672743D01*
X273840Y672803D01*
X273809Y672838D01*
X273784Y672879D01*
X273733Y672921D01*
X273689Y672969D01*
X273647Y672991D01*
X273610Y673020D01*
X273548Y673041D01*
X273489Y673072D01*
X273435Y673080D01*
X273398Y673092D01*
X273358Y673091D01*
X273304Y673099D01*
X260096Y673099D01*
X260031Y673088D01*
X259965Y673086D01*
X259922Y673068D01*
X259875Y673060D01*
X259818Y673026D01*
X259758Y673001D01*
X259723Y672970D01*
X259682Y672945D01*
X259641Y672894D01*
X259592Y672850D01*
X259570Y672808D01*
X259541Y672771D01*
X259520Y672709D01*
X259489Y672650D01*
X259481Y672596D01*
X259469Y672559D01*
X259469Y672555D01*
X259469Y672554D01*
X259470Y672519D01*
X259462Y672465D01*
X259462Y668655D01*
X259473Y668590D01*
X259475Y668524D01*
X259493Y668481D01*
X259501Y668434D01*
X259535Y668377D01*
X259560Y668317D01*
X259591Y668282D01*
X259616Y668241D01*
X259667Y668200D01*
X259711Y668151D01*
X259753Y668129D01*
X259790Y668100D01*
X259852Y668079D01*
X259911Y668048D01*
X259965Y668040D01*
X260002Y668028D01*
X260042Y668029D01*
X260096Y668021D01*
X273304Y668021D01*
X273369Y668032D01*
G37*
G36*
X659449Y668032D02*
X659449Y668032D01*
X659515Y668034D01*
X659558Y668052D01*
X659605Y668060D01*
X659662Y668094D01*
X659722Y668119D01*
X659757Y668150D01*
X659798Y668175D01*
X659840Y668226D01*
X659888Y668270D01*
X659910Y668312D01*
X659939Y668349D01*
X659960Y668411D01*
X659991Y668470D01*
X659999Y668524D01*
X660011Y668561D01*
X660010Y668601D01*
X660018Y668655D01*
X660018Y672465D01*
X660007Y672530D01*
X660005Y672596D01*
X659987Y672639D01*
X659979Y672686D01*
X659945Y672743D01*
X659920Y672803D01*
X659889Y672838D01*
X659864Y672879D01*
X659813Y672921D01*
X659769Y672969D01*
X659727Y672991D01*
X659690Y673020D01*
X659628Y673041D01*
X659569Y673072D01*
X659515Y673080D01*
X659478Y673092D01*
X659438Y673091D01*
X659384Y673099D01*
X646176Y673099D01*
X646111Y673088D01*
X646045Y673086D01*
X646002Y673068D01*
X645955Y673060D01*
X645898Y673026D01*
X645838Y673001D01*
X645803Y672970D01*
X645762Y672945D01*
X645721Y672894D01*
X645672Y672850D01*
X645650Y672808D01*
X645621Y672771D01*
X645600Y672709D01*
X645569Y672650D01*
X645561Y672596D01*
X645549Y672559D01*
X645549Y672555D01*
X645549Y672554D01*
X645550Y672519D01*
X645542Y672465D01*
X645542Y668655D01*
X645553Y668590D01*
X645555Y668524D01*
X645573Y668481D01*
X645581Y668434D01*
X645615Y668377D01*
X645640Y668317D01*
X645671Y668282D01*
X645696Y668241D01*
X645747Y668200D01*
X645791Y668151D01*
X645833Y668129D01*
X645870Y668100D01*
X645932Y668079D01*
X645991Y668048D01*
X646045Y668040D01*
X646082Y668028D01*
X646122Y668029D01*
X646176Y668021D01*
X659384Y668021D01*
X659449Y668032D01*
G37*
G36*
X1045529Y668032D02*
X1045529Y668032D01*
X1045595Y668034D01*
X1045638Y668052D01*
X1045685Y668060D01*
X1045742Y668094D01*
X1045802Y668119D01*
X1045837Y668150D01*
X1045878Y668175D01*
X1045920Y668226D01*
X1045968Y668270D01*
X1045990Y668312D01*
X1046019Y668349D01*
X1046040Y668411D01*
X1046071Y668470D01*
X1046079Y668524D01*
X1046091Y668561D01*
X1046090Y668601D01*
X1046098Y668655D01*
X1046098Y672465D01*
X1046087Y672530D01*
X1046085Y672596D01*
X1046067Y672639D01*
X1046059Y672686D01*
X1046025Y672743D01*
X1046000Y672803D01*
X1045969Y672838D01*
X1045944Y672879D01*
X1045893Y672921D01*
X1045849Y672969D01*
X1045807Y672991D01*
X1045770Y673020D01*
X1045708Y673041D01*
X1045649Y673072D01*
X1045595Y673080D01*
X1045558Y673092D01*
X1045518Y673091D01*
X1045464Y673099D01*
X1032256Y673099D01*
X1032191Y673088D01*
X1032125Y673086D01*
X1032082Y673068D01*
X1032035Y673060D01*
X1031978Y673026D01*
X1031918Y673001D01*
X1031883Y672970D01*
X1031842Y672945D01*
X1031801Y672894D01*
X1031752Y672850D01*
X1031730Y672808D01*
X1031701Y672771D01*
X1031680Y672709D01*
X1031649Y672650D01*
X1031641Y672596D01*
X1031629Y672559D01*
X1031629Y672555D01*
X1031629Y672554D01*
X1031630Y672519D01*
X1031622Y672465D01*
X1031622Y668655D01*
X1031633Y668590D01*
X1031635Y668524D01*
X1031653Y668481D01*
X1031661Y668434D01*
X1031695Y668377D01*
X1031720Y668317D01*
X1031751Y668282D01*
X1031776Y668241D01*
X1031827Y668200D01*
X1031871Y668151D01*
X1031913Y668129D01*
X1031950Y668100D01*
X1032012Y668079D01*
X1032071Y668048D01*
X1032125Y668040D01*
X1032162Y668028D01*
X1032202Y668029D01*
X1032256Y668021D01*
X1045464Y668021D01*
X1045529Y668032D01*
G37*
G36*
X273369Y48272D02*
X273369Y48272D01*
X273435Y48274D01*
X273478Y48292D01*
X273525Y48300D01*
X273582Y48334D01*
X273642Y48359D01*
X273677Y48390D01*
X273718Y48415D01*
X273760Y48466D01*
X273808Y48510D01*
X273830Y48552D01*
X273859Y48589D01*
X273880Y48651D01*
X273911Y48710D01*
X273919Y48764D01*
X273931Y48801D01*
X273930Y48841D01*
X273938Y48895D01*
X273938Y52705D01*
X273927Y52770D01*
X273925Y52836D01*
X273907Y52879D01*
X273899Y52926D01*
X273865Y52983D01*
X273840Y53043D01*
X273809Y53078D01*
X273784Y53119D01*
X273733Y53161D01*
X273689Y53209D01*
X273647Y53231D01*
X273610Y53260D01*
X273548Y53281D01*
X273489Y53312D01*
X273435Y53320D01*
X273398Y53332D01*
X273358Y53331D01*
X273304Y53339D01*
X260096Y53339D01*
X260031Y53328D01*
X259965Y53326D01*
X259922Y53308D01*
X259875Y53300D01*
X259818Y53266D01*
X259758Y53241D01*
X259723Y53210D01*
X259682Y53185D01*
X259641Y53134D01*
X259592Y53090D01*
X259570Y53048D01*
X259541Y53011D01*
X259520Y52949D01*
X259489Y52890D01*
X259481Y52836D01*
X259469Y52799D01*
X259469Y52795D01*
X259469Y52794D01*
X259470Y52759D01*
X259462Y52705D01*
X259462Y48895D01*
X259473Y48830D01*
X259475Y48764D01*
X259493Y48721D01*
X259501Y48674D01*
X259535Y48617D01*
X259560Y48557D01*
X259591Y48522D01*
X259616Y48481D01*
X259667Y48440D01*
X259711Y48391D01*
X259753Y48369D01*
X259790Y48340D01*
X259852Y48319D01*
X259911Y48288D01*
X259965Y48280D01*
X260002Y48268D01*
X260042Y48269D01*
X260096Y48261D01*
X273304Y48261D01*
X273369Y48272D01*
G37*
G36*
X1431609Y668032D02*
X1431609Y668032D01*
X1431675Y668034D01*
X1431718Y668052D01*
X1431765Y668060D01*
X1431822Y668094D01*
X1431882Y668119D01*
X1431917Y668150D01*
X1431958Y668175D01*
X1432000Y668226D01*
X1432048Y668270D01*
X1432070Y668312D01*
X1432099Y668349D01*
X1432120Y668411D01*
X1432151Y668470D01*
X1432159Y668524D01*
X1432171Y668561D01*
X1432170Y668601D01*
X1432178Y668655D01*
X1432178Y672465D01*
X1432167Y672530D01*
X1432165Y672596D01*
X1432147Y672639D01*
X1432139Y672686D01*
X1432105Y672743D01*
X1432080Y672803D01*
X1432049Y672838D01*
X1432024Y672879D01*
X1431973Y672921D01*
X1431929Y672969D01*
X1431887Y672991D01*
X1431850Y673020D01*
X1431788Y673041D01*
X1431729Y673072D01*
X1431675Y673080D01*
X1431638Y673092D01*
X1431598Y673091D01*
X1431544Y673099D01*
X1418336Y673099D01*
X1418271Y673088D01*
X1418205Y673086D01*
X1418162Y673068D01*
X1418115Y673060D01*
X1418058Y673026D01*
X1417998Y673001D01*
X1417963Y672970D01*
X1417922Y672945D01*
X1417881Y672894D01*
X1417832Y672850D01*
X1417810Y672808D01*
X1417781Y672771D01*
X1417760Y672709D01*
X1417729Y672650D01*
X1417721Y672596D01*
X1417709Y672559D01*
X1417709Y672555D01*
X1417709Y672554D01*
X1417710Y672519D01*
X1417702Y672465D01*
X1417702Y668655D01*
X1417713Y668590D01*
X1417715Y668524D01*
X1417733Y668481D01*
X1417741Y668434D01*
X1417775Y668377D01*
X1417800Y668317D01*
X1417831Y668282D01*
X1417856Y668241D01*
X1417907Y668200D01*
X1417951Y668151D01*
X1417993Y668129D01*
X1418030Y668100D01*
X1418092Y668079D01*
X1418151Y668048D01*
X1418205Y668040D01*
X1418242Y668028D01*
X1418282Y668029D01*
X1418336Y668021D01*
X1431544Y668021D01*
X1431609Y668032D01*
G37*
G36*
X1431609Y977912D02*
X1431609Y977912D01*
X1431675Y977914D01*
X1431718Y977932D01*
X1431765Y977940D01*
X1431822Y977974D01*
X1431882Y977999D01*
X1431917Y978030D01*
X1431958Y978055D01*
X1432000Y978106D01*
X1432048Y978150D01*
X1432070Y978192D01*
X1432099Y978229D01*
X1432120Y978291D01*
X1432151Y978350D01*
X1432159Y978404D01*
X1432171Y978441D01*
X1432170Y978481D01*
X1432178Y978535D01*
X1432178Y982345D01*
X1432167Y982410D01*
X1432165Y982476D01*
X1432147Y982519D01*
X1432139Y982566D01*
X1432105Y982623D01*
X1432080Y982683D01*
X1432049Y982718D01*
X1432024Y982759D01*
X1431973Y982801D01*
X1431929Y982849D01*
X1431887Y982871D01*
X1431850Y982900D01*
X1431788Y982921D01*
X1431729Y982952D01*
X1431675Y982960D01*
X1431638Y982972D01*
X1431598Y982971D01*
X1431544Y982979D01*
X1418336Y982979D01*
X1418271Y982968D01*
X1418205Y982966D01*
X1418162Y982948D01*
X1418115Y982940D01*
X1418058Y982906D01*
X1417998Y982881D01*
X1417963Y982850D01*
X1417922Y982825D01*
X1417881Y982774D01*
X1417832Y982730D01*
X1417810Y982688D01*
X1417781Y982651D01*
X1417760Y982589D01*
X1417729Y982530D01*
X1417721Y982476D01*
X1417709Y982439D01*
X1417709Y982435D01*
X1417709Y982434D01*
X1417710Y982399D01*
X1417702Y982345D01*
X1417702Y978535D01*
X1417713Y978470D01*
X1417715Y978404D01*
X1417733Y978361D01*
X1417741Y978314D01*
X1417775Y978257D01*
X1417800Y978197D01*
X1417831Y978162D01*
X1417856Y978121D01*
X1417907Y978080D01*
X1417951Y978031D01*
X1417993Y978009D01*
X1418030Y977980D01*
X1418092Y977959D01*
X1418151Y977928D01*
X1418205Y977920D01*
X1418242Y977908D01*
X1418282Y977909D01*
X1418336Y977901D01*
X1431544Y977901D01*
X1431609Y977912D01*
G37*
G36*
X1045529Y358152D02*
X1045529Y358152D01*
X1045595Y358154D01*
X1045638Y358172D01*
X1045685Y358180D01*
X1045742Y358214D01*
X1045802Y358239D01*
X1045837Y358270D01*
X1045878Y358295D01*
X1045920Y358346D01*
X1045968Y358390D01*
X1045990Y358432D01*
X1046019Y358469D01*
X1046040Y358531D01*
X1046071Y358590D01*
X1046079Y358644D01*
X1046091Y358681D01*
X1046090Y358721D01*
X1046098Y358775D01*
X1046098Y362585D01*
X1046087Y362650D01*
X1046085Y362716D01*
X1046067Y362759D01*
X1046059Y362806D01*
X1046025Y362863D01*
X1046000Y362923D01*
X1045969Y362958D01*
X1045944Y362999D01*
X1045893Y363041D01*
X1045849Y363089D01*
X1045807Y363111D01*
X1045770Y363140D01*
X1045708Y363161D01*
X1045649Y363192D01*
X1045595Y363200D01*
X1045558Y363212D01*
X1045518Y363211D01*
X1045464Y363219D01*
X1032256Y363219D01*
X1032191Y363208D01*
X1032125Y363206D01*
X1032082Y363188D01*
X1032035Y363180D01*
X1031978Y363146D01*
X1031918Y363121D01*
X1031883Y363090D01*
X1031842Y363065D01*
X1031801Y363014D01*
X1031752Y362970D01*
X1031730Y362928D01*
X1031701Y362891D01*
X1031680Y362829D01*
X1031649Y362770D01*
X1031641Y362716D01*
X1031629Y362679D01*
X1031629Y362675D01*
X1031629Y362674D01*
X1031630Y362639D01*
X1031622Y362585D01*
X1031622Y358775D01*
X1031633Y358710D01*
X1031635Y358644D01*
X1031653Y358601D01*
X1031661Y358554D01*
X1031695Y358497D01*
X1031720Y358437D01*
X1031751Y358402D01*
X1031776Y358361D01*
X1031827Y358320D01*
X1031871Y358271D01*
X1031913Y358249D01*
X1031950Y358220D01*
X1032012Y358199D01*
X1032071Y358168D01*
X1032125Y358160D01*
X1032162Y358148D01*
X1032202Y358149D01*
X1032256Y358141D01*
X1045464Y358141D01*
X1045529Y358152D01*
G37*
G36*
X1431609Y358152D02*
X1431609Y358152D01*
X1431675Y358154D01*
X1431718Y358172D01*
X1431765Y358180D01*
X1431822Y358214D01*
X1431882Y358239D01*
X1431917Y358270D01*
X1431958Y358295D01*
X1432000Y358346D01*
X1432048Y358390D01*
X1432070Y358432D01*
X1432099Y358469D01*
X1432120Y358531D01*
X1432151Y358590D01*
X1432159Y358644D01*
X1432171Y358681D01*
X1432170Y358721D01*
X1432178Y358775D01*
X1432178Y362585D01*
X1432167Y362650D01*
X1432165Y362716D01*
X1432147Y362759D01*
X1432139Y362806D01*
X1432105Y362863D01*
X1432080Y362923D01*
X1432049Y362958D01*
X1432024Y362999D01*
X1431973Y363041D01*
X1431929Y363089D01*
X1431887Y363111D01*
X1431850Y363140D01*
X1431788Y363161D01*
X1431729Y363192D01*
X1431675Y363200D01*
X1431638Y363212D01*
X1431598Y363211D01*
X1431544Y363219D01*
X1418336Y363219D01*
X1418271Y363208D01*
X1418205Y363206D01*
X1418162Y363188D01*
X1418115Y363180D01*
X1418058Y363146D01*
X1417998Y363121D01*
X1417963Y363090D01*
X1417922Y363065D01*
X1417881Y363014D01*
X1417832Y362970D01*
X1417810Y362928D01*
X1417781Y362891D01*
X1417760Y362829D01*
X1417729Y362770D01*
X1417721Y362716D01*
X1417709Y362679D01*
X1417709Y362675D01*
X1417709Y362674D01*
X1417710Y362639D01*
X1417702Y362585D01*
X1417702Y358775D01*
X1417713Y358710D01*
X1417715Y358644D01*
X1417733Y358601D01*
X1417741Y358554D01*
X1417775Y358497D01*
X1417800Y358437D01*
X1417831Y358402D01*
X1417856Y358361D01*
X1417907Y358320D01*
X1417951Y358271D01*
X1417993Y358249D01*
X1418030Y358220D01*
X1418092Y358199D01*
X1418151Y358168D01*
X1418205Y358160D01*
X1418242Y358148D01*
X1418282Y358149D01*
X1418336Y358141D01*
X1431544Y358141D01*
X1431609Y358152D01*
G37*
G36*
X273369Y358152D02*
X273369Y358152D01*
X273435Y358154D01*
X273478Y358172D01*
X273525Y358180D01*
X273582Y358214D01*
X273642Y358239D01*
X273677Y358270D01*
X273718Y358295D01*
X273760Y358346D01*
X273808Y358390D01*
X273830Y358432D01*
X273859Y358469D01*
X273880Y358531D01*
X273911Y358590D01*
X273919Y358644D01*
X273931Y358681D01*
X273930Y358721D01*
X273938Y358775D01*
X273938Y362585D01*
X273927Y362650D01*
X273925Y362716D01*
X273907Y362759D01*
X273899Y362806D01*
X273865Y362863D01*
X273840Y362923D01*
X273809Y362958D01*
X273784Y362999D01*
X273733Y363041D01*
X273689Y363089D01*
X273647Y363111D01*
X273610Y363140D01*
X273548Y363161D01*
X273489Y363192D01*
X273435Y363200D01*
X273398Y363212D01*
X273358Y363211D01*
X273304Y363219D01*
X260096Y363219D01*
X260031Y363208D01*
X259965Y363206D01*
X259922Y363188D01*
X259875Y363180D01*
X259818Y363146D01*
X259758Y363121D01*
X259723Y363090D01*
X259682Y363065D01*
X259641Y363014D01*
X259592Y362970D01*
X259570Y362928D01*
X259541Y362891D01*
X259520Y362829D01*
X259489Y362770D01*
X259481Y362716D01*
X259469Y362679D01*
X259469Y362675D01*
X259469Y362674D01*
X259470Y362639D01*
X259462Y362585D01*
X259462Y358775D01*
X259473Y358710D01*
X259475Y358644D01*
X259493Y358601D01*
X259501Y358554D01*
X259535Y358497D01*
X259560Y358437D01*
X259591Y358402D01*
X259616Y358361D01*
X259667Y358320D01*
X259711Y358271D01*
X259753Y358249D01*
X259790Y358220D01*
X259852Y358199D01*
X259911Y358168D01*
X259965Y358160D01*
X260002Y358148D01*
X260042Y358149D01*
X260096Y358141D01*
X273304Y358141D01*
X273369Y358152D01*
G37*
G36*
X659449Y358152D02*
X659449Y358152D01*
X659515Y358154D01*
X659558Y358172D01*
X659605Y358180D01*
X659662Y358214D01*
X659722Y358239D01*
X659757Y358270D01*
X659798Y358295D01*
X659840Y358346D01*
X659888Y358390D01*
X659910Y358432D01*
X659939Y358469D01*
X659960Y358531D01*
X659991Y358590D01*
X659999Y358644D01*
X660011Y358681D01*
X660010Y358721D01*
X660018Y358775D01*
X660018Y362585D01*
X660007Y362650D01*
X660005Y362716D01*
X659987Y362759D01*
X659979Y362806D01*
X659945Y362863D01*
X659920Y362923D01*
X659889Y362958D01*
X659864Y362999D01*
X659813Y363041D01*
X659769Y363089D01*
X659727Y363111D01*
X659690Y363140D01*
X659628Y363161D01*
X659569Y363192D01*
X659515Y363200D01*
X659478Y363212D01*
X659438Y363211D01*
X659384Y363219D01*
X646176Y363219D01*
X646111Y363208D01*
X646045Y363206D01*
X646002Y363188D01*
X645955Y363180D01*
X645898Y363146D01*
X645838Y363121D01*
X645803Y363090D01*
X645762Y363065D01*
X645721Y363014D01*
X645672Y362970D01*
X645650Y362928D01*
X645621Y362891D01*
X645600Y362829D01*
X645569Y362770D01*
X645561Y362716D01*
X645549Y362679D01*
X645549Y362675D01*
X645549Y362674D01*
X645550Y362639D01*
X645542Y362585D01*
X645542Y358775D01*
X645553Y358710D01*
X645555Y358644D01*
X645573Y358601D01*
X645581Y358554D01*
X645615Y358497D01*
X645640Y358437D01*
X645671Y358402D01*
X645696Y358361D01*
X645747Y358320D01*
X645791Y358271D01*
X645833Y358249D01*
X645870Y358220D01*
X645932Y358199D01*
X645991Y358168D01*
X646045Y358160D01*
X646082Y358148D01*
X646122Y358149D01*
X646176Y358141D01*
X659384Y358141D01*
X659449Y358152D01*
G37*
G36*
X1431609Y48272D02*
X1431609Y48272D01*
X1431675Y48274D01*
X1431718Y48292D01*
X1431765Y48300D01*
X1431822Y48334D01*
X1431882Y48359D01*
X1431917Y48390D01*
X1431958Y48415D01*
X1432000Y48466D01*
X1432048Y48510D01*
X1432070Y48552D01*
X1432099Y48589D01*
X1432120Y48651D01*
X1432151Y48710D01*
X1432159Y48764D01*
X1432171Y48801D01*
X1432170Y48841D01*
X1432178Y48895D01*
X1432178Y52705D01*
X1432167Y52770D01*
X1432165Y52836D01*
X1432147Y52879D01*
X1432139Y52926D01*
X1432105Y52983D01*
X1432080Y53043D01*
X1432049Y53078D01*
X1432024Y53119D01*
X1431973Y53161D01*
X1431929Y53209D01*
X1431887Y53231D01*
X1431850Y53260D01*
X1431788Y53281D01*
X1431729Y53312D01*
X1431675Y53320D01*
X1431638Y53332D01*
X1431598Y53331D01*
X1431544Y53339D01*
X1418336Y53339D01*
X1418271Y53328D01*
X1418205Y53326D01*
X1418162Y53308D01*
X1418115Y53300D01*
X1418058Y53266D01*
X1417998Y53241D01*
X1417963Y53210D01*
X1417922Y53185D01*
X1417881Y53134D01*
X1417832Y53090D01*
X1417810Y53048D01*
X1417781Y53011D01*
X1417760Y52949D01*
X1417729Y52890D01*
X1417721Y52836D01*
X1417709Y52799D01*
X1417709Y52795D01*
X1417709Y52794D01*
X1417710Y52759D01*
X1417702Y52705D01*
X1417702Y48895D01*
X1417713Y48830D01*
X1417715Y48764D01*
X1417733Y48721D01*
X1417741Y48674D01*
X1417775Y48617D01*
X1417800Y48557D01*
X1417831Y48522D01*
X1417856Y48481D01*
X1417907Y48440D01*
X1417951Y48391D01*
X1417993Y48369D01*
X1418030Y48340D01*
X1418092Y48319D01*
X1418151Y48288D01*
X1418205Y48280D01*
X1418242Y48268D01*
X1418282Y48269D01*
X1418336Y48261D01*
X1431544Y48261D01*
X1431609Y48272D01*
G37*
G36*
X1045529Y48272D02*
X1045529Y48272D01*
X1045595Y48274D01*
X1045638Y48292D01*
X1045685Y48300D01*
X1045742Y48334D01*
X1045802Y48359D01*
X1045837Y48390D01*
X1045878Y48415D01*
X1045920Y48466D01*
X1045968Y48510D01*
X1045990Y48552D01*
X1046019Y48589D01*
X1046040Y48651D01*
X1046071Y48710D01*
X1046079Y48764D01*
X1046091Y48801D01*
X1046090Y48841D01*
X1046098Y48895D01*
X1046098Y52705D01*
X1046087Y52770D01*
X1046085Y52836D01*
X1046067Y52879D01*
X1046059Y52926D01*
X1046025Y52983D01*
X1046000Y53043D01*
X1045969Y53078D01*
X1045944Y53119D01*
X1045893Y53161D01*
X1045849Y53209D01*
X1045807Y53231D01*
X1045770Y53260D01*
X1045708Y53281D01*
X1045649Y53312D01*
X1045595Y53320D01*
X1045558Y53332D01*
X1045518Y53331D01*
X1045464Y53339D01*
X1032256Y53339D01*
X1032191Y53328D01*
X1032125Y53326D01*
X1032082Y53308D01*
X1032035Y53300D01*
X1031978Y53266D01*
X1031918Y53241D01*
X1031883Y53210D01*
X1031842Y53185D01*
X1031801Y53134D01*
X1031752Y53090D01*
X1031730Y53048D01*
X1031701Y53011D01*
X1031680Y52949D01*
X1031649Y52890D01*
X1031641Y52836D01*
X1031629Y52799D01*
X1031629Y52795D01*
X1031629Y52794D01*
X1031630Y52759D01*
X1031622Y52705D01*
X1031622Y48895D01*
X1031633Y48830D01*
X1031635Y48764D01*
X1031653Y48721D01*
X1031661Y48674D01*
X1031695Y48617D01*
X1031720Y48557D01*
X1031751Y48522D01*
X1031776Y48481D01*
X1031827Y48440D01*
X1031871Y48391D01*
X1031913Y48369D01*
X1031950Y48340D01*
X1032012Y48319D01*
X1032071Y48288D01*
X1032125Y48280D01*
X1032162Y48268D01*
X1032202Y48269D01*
X1032256Y48261D01*
X1045464Y48261D01*
X1045529Y48272D01*
G37*
G36*
X659449Y48272D02*
X659449Y48272D01*
X659515Y48274D01*
X659558Y48292D01*
X659605Y48300D01*
X659662Y48334D01*
X659722Y48359D01*
X659757Y48390D01*
X659798Y48415D01*
X659840Y48466D01*
X659888Y48510D01*
X659910Y48552D01*
X659939Y48589D01*
X659960Y48651D01*
X659991Y48710D01*
X659999Y48764D01*
X660011Y48801D01*
X660010Y48841D01*
X660018Y48895D01*
X660018Y52705D01*
X660007Y52770D01*
X660005Y52836D01*
X659987Y52879D01*
X659979Y52926D01*
X659945Y52983D01*
X659920Y53043D01*
X659889Y53078D01*
X659864Y53119D01*
X659813Y53161D01*
X659769Y53209D01*
X659727Y53231D01*
X659690Y53260D01*
X659628Y53281D01*
X659569Y53312D01*
X659515Y53320D01*
X659478Y53332D01*
X659438Y53331D01*
X659384Y53339D01*
X646176Y53339D01*
X646111Y53328D01*
X646045Y53326D01*
X646002Y53308D01*
X645955Y53300D01*
X645898Y53266D01*
X645838Y53241D01*
X645803Y53210D01*
X645762Y53185D01*
X645721Y53134D01*
X645672Y53090D01*
X645650Y53048D01*
X645621Y53011D01*
X645600Y52949D01*
X645569Y52890D01*
X645561Y52836D01*
X645549Y52799D01*
X645549Y52795D01*
X645549Y52794D01*
X645550Y52759D01*
X645542Y52705D01*
X645542Y48895D01*
X645553Y48830D01*
X645555Y48764D01*
X645573Y48721D01*
X645581Y48674D01*
X645615Y48617D01*
X645640Y48557D01*
X645671Y48522D01*
X645696Y48481D01*
X645747Y48440D01*
X645791Y48391D01*
X645833Y48369D01*
X645870Y48340D01*
X645932Y48319D01*
X645991Y48288D01*
X646045Y48280D01*
X646082Y48268D01*
X646122Y48269D01*
X646176Y48261D01*
X659384Y48261D01*
X659449Y48272D01*
G37*
G36*
X128970Y252107D02*
X128970Y252107D01*
X129036Y252109D01*
X129079Y252127D01*
X129126Y252135D01*
X129183Y252169D01*
X129243Y252194D01*
X129278Y252225D01*
X129319Y252250D01*
X129361Y252301D01*
X129409Y252345D01*
X129431Y252387D01*
X129460Y252424D01*
X129481Y252486D01*
X129512Y252545D01*
X129520Y252599D01*
X129532Y252636D01*
X129531Y252676D01*
X129539Y252730D01*
X129539Y255270D01*
X129528Y255335D01*
X129526Y255401D01*
X129508Y255444D01*
X129500Y255491D01*
X129466Y255548D01*
X129441Y255608D01*
X129410Y255643D01*
X129385Y255684D01*
X129334Y255726D01*
X129290Y255774D01*
X129248Y255796D01*
X129211Y255825D01*
X129149Y255846D01*
X129090Y255877D01*
X129036Y255885D01*
X128999Y255897D01*
X128959Y255896D01*
X128905Y255904D01*
X125095Y255904D01*
X125030Y255893D01*
X124964Y255891D01*
X124921Y255873D01*
X124874Y255865D01*
X124817Y255831D01*
X124757Y255806D01*
X124722Y255775D01*
X124681Y255750D01*
X124640Y255699D01*
X124591Y255655D01*
X124569Y255613D01*
X124540Y255576D01*
X124519Y255514D01*
X124488Y255455D01*
X124480Y255401D01*
X124468Y255364D01*
X124468Y255361D01*
X124469Y255324D01*
X124461Y255270D01*
X124461Y252730D01*
X124472Y252665D01*
X124474Y252599D01*
X124492Y252556D01*
X124500Y252509D01*
X124534Y252452D01*
X124559Y252392D01*
X124590Y252357D01*
X124615Y252316D01*
X124666Y252275D01*
X124710Y252226D01*
X124752Y252204D01*
X124789Y252175D01*
X124851Y252154D01*
X124910Y252123D01*
X124964Y252115D01*
X125001Y252103D01*
X125041Y252104D01*
X125095Y252096D01*
X128905Y252096D01*
X128970Y252107D01*
G37*
G36*
X515050Y252107D02*
X515050Y252107D01*
X515116Y252109D01*
X515159Y252127D01*
X515206Y252135D01*
X515263Y252169D01*
X515323Y252194D01*
X515358Y252225D01*
X515399Y252250D01*
X515441Y252301D01*
X515489Y252345D01*
X515511Y252387D01*
X515540Y252424D01*
X515561Y252486D01*
X515592Y252545D01*
X515600Y252599D01*
X515612Y252636D01*
X515611Y252676D01*
X515619Y252730D01*
X515619Y255270D01*
X515608Y255335D01*
X515606Y255401D01*
X515588Y255444D01*
X515580Y255491D01*
X515546Y255548D01*
X515521Y255608D01*
X515490Y255643D01*
X515465Y255684D01*
X515414Y255726D01*
X515370Y255774D01*
X515328Y255796D01*
X515291Y255825D01*
X515229Y255846D01*
X515170Y255877D01*
X515116Y255885D01*
X515079Y255897D01*
X515039Y255896D01*
X514985Y255904D01*
X511175Y255904D01*
X511110Y255893D01*
X511044Y255891D01*
X511001Y255873D01*
X510954Y255865D01*
X510897Y255831D01*
X510837Y255806D01*
X510802Y255775D01*
X510761Y255750D01*
X510720Y255699D01*
X510671Y255655D01*
X510649Y255613D01*
X510620Y255576D01*
X510599Y255514D01*
X510568Y255455D01*
X510560Y255401D01*
X510548Y255364D01*
X510548Y255361D01*
X510549Y255324D01*
X510541Y255270D01*
X510541Y252730D01*
X510552Y252665D01*
X510554Y252599D01*
X510572Y252556D01*
X510580Y252509D01*
X510614Y252452D01*
X510639Y252392D01*
X510670Y252357D01*
X510695Y252316D01*
X510746Y252275D01*
X510790Y252226D01*
X510832Y252204D01*
X510869Y252175D01*
X510931Y252154D01*
X510990Y252123D01*
X511044Y252115D01*
X511081Y252103D01*
X511121Y252104D01*
X511175Y252096D01*
X514985Y252096D01*
X515050Y252107D01*
G37*
G36*
X901130Y252107D02*
X901130Y252107D01*
X901196Y252109D01*
X901239Y252127D01*
X901286Y252135D01*
X901343Y252169D01*
X901403Y252194D01*
X901438Y252225D01*
X901479Y252250D01*
X901521Y252301D01*
X901569Y252345D01*
X901591Y252387D01*
X901620Y252424D01*
X901641Y252486D01*
X901672Y252545D01*
X901680Y252599D01*
X901692Y252636D01*
X901691Y252676D01*
X901699Y252730D01*
X901699Y255270D01*
X901688Y255335D01*
X901686Y255401D01*
X901668Y255444D01*
X901660Y255491D01*
X901626Y255548D01*
X901601Y255608D01*
X901570Y255643D01*
X901545Y255684D01*
X901494Y255726D01*
X901450Y255774D01*
X901408Y255796D01*
X901371Y255825D01*
X901309Y255846D01*
X901250Y255877D01*
X901196Y255885D01*
X901159Y255897D01*
X901119Y255896D01*
X901065Y255904D01*
X897255Y255904D01*
X897190Y255893D01*
X897124Y255891D01*
X897081Y255873D01*
X897034Y255865D01*
X896977Y255831D01*
X896917Y255806D01*
X896882Y255775D01*
X896841Y255750D01*
X896800Y255699D01*
X896751Y255655D01*
X896729Y255613D01*
X896700Y255576D01*
X896679Y255514D01*
X896648Y255455D01*
X896640Y255401D01*
X896628Y255364D01*
X896628Y255361D01*
X896629Y255324D01*
X896621Y255270D01*
X896621Y252730D01*
X896632Y252665D01*
X896634Y252599D01*
X896652Y252556D01*
X896660Y252509D01*
X896694Y252452D01*
X896719Y252392D01*
X896750Y252357D01*
X896775Y252316D01*
X896826Y252275D01*
X896870Y252226D01*
X896912Y252204D01*
X896949Y252175D01*
X897011Y252154D01*
X897070Y252123D01*
X897124Y252115D01*
X897161Y252103D01*
X897201Y252104D01*
X897255Y252096D01*
X901065Y252096D01*
X901130Y252107D01*
G37*
G36*
X1287210Y252107D02*
X1287210Y252107D01*
X1287276Y252109D01*
X1287319Y252127D01*
X1287366Y252135D01*
X1287423Y252169D01*
X1287483Y252194D01*
X1287518Y252225D01*
X1287559Y252250D01*
X1287601Y252301D01*
X1287649Y252345D01*
X1287671Y252387D01*
X1287700Y252424D01*
X1287721Y252486D01*
X1287752Y252545D01*
X1287760Y252599D01*
X1287772Y252636D01*
X1287771Y252676D01*
X1287779Y252730D01*
X1287779Y255270D01*
X1287768Y255335D01*
X1287766Y255401D01*
X1287748Y255444D01*
X1287740Y255491D01*
X1287706Y255548D01*
X1287681Y255608D01*
X1287650Y255643D01*
X1287625Y255684D01*
X1287574Y255726D01*
X1287530Y255774D01*
X1287488Y255796D01*
X1287451Y255825D01*
X1287389Y255846D01*
X1287330Y255877D01*
X1287276Y255885D01*
X1287239Y255897D01*
X1287199Y255896D01*
X1287145Y255904D01*
X1283335Y255904D01*
X1283270Y255893D01*
X1283204Y255891D01*
X1283161Y255873D01*
X1283114Y255865D01*
X1283057Y255831D01*
X1282997Y255806D01*
X1282962Y255775D01*
X1282921Y255750D01*
X1282880Y255699D01*
X1282831Y255655D01*
X1282809Y255613D01*
X1282780Y255576D01*
X1282759Y255514D01*
X1282728Y255455D01*
X1282720Y255401D01*
X1282708Y255364D01*
X1282708Y255361D01*
X1282709Y255324D01*
X1282701Y255270D01*
X1282701Y252730D01*
X1282712Y252665D01*
X1282714Y252599D01*
X1282732Y252556D01*
X1282740Y252509D01*
X1282774Y252452D01*
X1282799Y252392D01*
X1282830Y252357D01*
X1282855Y252316D01*
X1282906Y252275D01*
X1282950Y252226D01*
X1282992Y252204D01*
X1283029Y252175D01*
X1283091Y252154D01*
X1283150Y252123D01*
X1283204Y252115D01*
X1283241Y252103D01*
X1283281Y252104D01*
X1283335Y252096D01*
X1287145Y252096D01*
X1287210Y252107D01*
G37*
G36*
X901130Y846467D02*
X901130Y846467D01*
X901196Y846469D01*
X901239Y846487D01*
X901286Y846495D01*
X901343Y846529D01*
X901403Y846554D01*
X901438Y846585D01*
X901479Y846610D01*
X901521Y846661D01*
X901569Y846705D01*
X901591Y846747D01*
X901620Y846784D01*
X901641Y846846D01*
X901672Y846905D01*
X901680Y846959D01*
X901692Y846996D01*
X901691Y847036D01*
X901699Y847090D01*
X901699Y849630D01*
X901688Y849695D01*
X901686Y849761D01*
X901668Y849804D01*
X901660Y849851D01*
X901626Y849908D01*
X901601Y849968D01*
X901570Y850003D01*
X901545Y850044D01*
X901494Y850086D01*
X901450Y850134D01*
X901408Y850156D01*
X901371Y850185D01*
X901309Y850206D01*
X901250Y850237D01*
X901196Y850245D01*
X901159Y850257D01*
X901119Y850256D01*
X901065Y850264D01*
X897255Y850264D01*
X897190Y850253D01*
X897124Y850251D01*
X897081Y850233D01*
X897034Y850225D01*
X896977Y850191D01*
X896917Y850166D01*
X896882Y850135D01*
X896841Y850110D01*
X896800Y850059D01*
X896751Y850015D01*
X896729Y849973D01*
X896700Y849936D01*
X896679Y849874D01*
X896648Y849815D01*
X896640Y849761D01*
X896628Y849724D01*
X896628Y849721D01*
X896629Y849684D01*
X896621Y849630D01*
X896621Y847090D01*
X896632Y847025D01*
X896634Y846959D01*
X896652Y846916D01*
X896660Y846869D01*
X896694Y846812D01*
X896719Y846752D01*
X896750Y846717D01*
X896775Y846676D01*
X896826Y846635D01*
X896870Y846586D01*
X896912Y846564D01*
X896949Y846535D01*
X897011Y846514D01*
X897070Y846483D01*
X897124Y846475D01*
X897161Y846463D01*
X897201Y846464D01*
X897255Y846456D01*
X901065Y846456D01*
X901130Y846467D01*
G37*
G36*
X515050Y846467D02*
X515050Y846467D01*
X515116Y846469D01*
X515159Y846487D01*
X515206Y846495D01*
X515263Y846529D01*
X515323Y846554D01*
X515358Y846585D01*
X515399Y846610D01*
X515441Y846661D01*
X515489Y846705D01*
X515511Y846747D01*
X515540Y846784D01*
X515561Y846846D01*
X515592Y846905D01*
X515600Y846959D01*
X515612Y846996D01*
X515611Y847036D01*
X515619Y847090D01*
X515619Y849630D01*
X515608Y849695D01*
X515606Y849761D01*
X515588Y849804D01*
X515580Y849851D01*
X515546Y849908D01*
X515521Y849968D01*
X515490Y850003D01*
X515465Y850044D01*
X515414Y850086D01*
X515370Y850134D01*
X515328Y850156D01*
X515291Y850185D01*
X515229Y850206D01*
X515170Y850237D01*
X515116Y850245D01*
X515079Y850257D01*
X515039Y850256D01*
X514985Y850264D01*
X511175Y850264D01*
X511110Y850253D01*
X511044Y850251D01*
X511001Y850233D01*
X510954Y850225D01*
X510897Y850191D01*
X510837Y850166D01*
X510802Y850135D01*
X510761Y850110D01*
X510720Y850059D01*
X510671Y850015D01*
X510649Y849973D01*
X510620Y849936D01*
X510599Y849874D01*
X510568Y849815D01*
X510560Y849761D01*
X510548Y849724D01*
X510548Y849721D01*
X510549Y849684D01*
X510541Y849630D01*
X510541Y847090D01*
X510552Y847025D01*
X510554Y846959D01*
X510572Y846916D01*
X510580Y846869D01*
X510614Y846812D01*
X510639Y846752D01*
X510670Y846717D01*
X510695Y846676D01*
X510746Y846635D01*
X510790Y846586D01*
X510832Y846564D01*
X510869Y846535D01*
X510931Y846514D01*
X510990Y846483D01*
X511044Y846475D01*
X511081Y846463D01*
X511121Y846464D01*
X511175Y846456D01*
X514985Y846456D01*
X515050Y846467D01*
G37*
G36*
X128970Y846467D02*
X128970Y846467D01*
X129036Y846469D01*
X129079Y846487D01*
X129126Y846495D01*
X129183Y846529D01*
X129243Y846554D01*
X129278Y846585D01*
X129319Y846610D01*
X129361Y846661D01*
X129409Y846705D01*
X129431Y846747D01*
X129460Y846784D01*
X129481Y846846D01*
X129512Y846905D01*
X129520Y846959D01*
X129532Y846996D01*
X129531Y847036D01*
X129539Y847090D01*
X129539Y849630D01*
X129528Y849695D01*
X129526Y849761D01*
X129508Y849804D01*
X129500Y849851D01*
X129466Y849908D01*
X129441Y849968D01*
X129410Y850003D01*
X129385Y850044D01*
X129334Y850086D01*
X129290Y850134D01*
X129248Y850156D01*
X129211Y850185D01*
X129149Y850206D01*
X129090Y850237D01*
X129036Y850245D01*
X128999Y850257D01*
X128959Y850256D01*
X128905Y850264D01*
X125095Y850264D01*
X125030Y850253D01*
X124964Y850251D01*
X124921Y850233D01*
X124874Y850225D01*
X124817Y850191D01*
X124757Y850166D01*
X124722Y850135D01*
X124681Y850110D01*
X124640Y850059D01*
X124591Y850015D01*
X124569Y849973D01*
X124540Y849936D01*
X124519Y849874D01*
X124488Y849815D01*
X124480Y849761D01*
X124468Y849724D01*
X124468Y849721D01*
X124469Y849684D01*
X124461Y849630D01*
X124461Y847090D01*
X124472Y847025D01*
X124474Y846959D01*
X124492Y846916D01*
X124500Y846869D01*
X124534Y846812D01*
X124559Y846752D01*
X124590Y846717D01*
X124615Y846676D01*
X124666Y846635D01*
X124710Y846586D01*
X124752Y846564D01*
X124789Y846535D01*
X124851Y846514D01*
X124910Y846483D01*
X124964Y846475D01*
X125001Y846463D01*
X125041Y846464D01*
X125095Y846456D01*
X128905Y846456D01*
X128970Y846467D01*
G37*
G36*
X1287210Y846467D02*
X1287210Y846467D01*
X1287276Y846469D01*
X1287319Y846487D01*
X1287366Y846495D01*
X1287423Y846529D01*
X1287483Y846554D01*
X1287518Y846585D01*
X1287559Y846610D01*
X1287601Y846661D01*
X1287649Y846705D01*
X1287671Y846747D01*
X1287700Y846784D01*
X1287721Y846846D01*
X1287752Y846905D01*
X1287760Y846959D01*
X1287772Y846996D01*
X1287771Y847036D01*
X1287779Y847090D01*
X1287779Y849630D01*
X1287768Y849695D01*
X1287766Y849761D01*
X1287748Y849804D01*
X1287740Y849851D01*
X1287706Y849908D01*
X1287681Y849968D01*
X1287650Y850003D01*
X1287625Y850044D01*
X1287574Y850086D01*
X1287530Y850134D01*
X1287488Y850156D01*
X1287451Y850185D01*
X1287389Y850206D01*
X1287330Y850237D01*
X1287276Y850245D01*
X1287239Y850257D01*
X1287199Y850256D01*
X1287145Y850264D01*
X1283335Y850264D01*
X1283270Y850253D01*
X1283204Y850251D01*
X1283161Y850233D01*
X1283114Y850225D01*
X1283057Y850191D01*
X1282997Y850166D01*
X1282962Y850135D01*
X1282921Y850110D01*
X1282880Y850059D01*
X1282831Y850015D01*
X1282809Y849973D01*
X1282780Y849936D01*
X1282759Y849874D01*
X1282728Y849815D01*
X1282720Y849761D01*
X1282708Y849724D01*
X1282708Y849721D01*
X1282709Y849684D01*
X1282701Y849630D01*
X1282701Y847090D01*
X1282712Y847025D01*
X1282714Y846959D01*
X1282732Y846916D01*
X1282740Y846869D01*
X1282774Y846812D01*
X1282799Y846752D01*
X1282830Y846717D01*
X1282855Y846676D01*
X1282906Y846635D01*
X1282950Y846586D01*
X1282992Y846564D01*
X1283029Y846535D01*
X1283091Y846514D01*
X1283150Y846483D01*
X1283204Y846475D01*
X1283241Y846463D01*
X1283281Y846464D01*
X1283335Y846456D01*
X1287145Y846456D01*
X1287210Y846467D01*
G37*
G36*
X515050Y1156347D02*
X515050Y1156347D01*
X515116Y1156349D01*
X515159Y1156367D01*
X515206Y1156375D01*
X515263Y1156409D01*
X515323Y1156434D01*
X515358Y1156465D01*
X515399Y1156490D01*
X515441Y1156541D01*
X515489Y1156585D01*
X515511Y1156627D01*
X515540Y1156664D01*
X515561Y1156726D01*
X515592Y1156785D01*
X515600Y1156839D01*
X515612Y1156876D01*
X515611Y1156916D01*
X515619Y1156970D01*
X515619Y1159510D01*
X515608Y1159575D01*
X515606Y1159641D01*
X515588Y1159684D01*
X515580Y1159731D01*
X515546Y1159788D01*
X515521Y1159848D01*
X515490Y1159883D01*
X515465Y1159924D01*
X515414Y1159966D01*
X515370Y1160014D01*
X515328Y1160036D01*
X515291Y1160065D01*
X515229Y1160086D01*
X515170Y1160117D01*
X515116Y1160125D01*
X515079Y1160137D01*
X515039Y1160136D01*
X514985Y1160144D01*
X511175Y1160144D01*
X511110Y1160133D01*
X511044Y1160131D01*
X511001Y1160113D01*
X510954Y1160105D01*
X510897Y1160071D01*
X510837Y1160046D01*
X510802Y1160015D01*
X510761Y1159990D01*
X510720Y1159939D01*
X510671Y1159895D01*
X510649Y1159853D01*
X510620Y1159816D01*
X510599Y1159754D01*
X510568Y1159695D01*
X510560Y1159641D01*
X510548Y1159604D01*
X510548Y1159601D01*
X510549Y1159564D01*
X510541Y1159510D01*
X510541Y1156970D01*
X510552Y1156905D01*
X510554Y1156839D01*
X510572Y1156796D01*
X510580Y1156749D01*
X510614Y1156692D01*
X510639Y1156632D01*
X510670Y1156597D01*
X510695Y1156556D01*
X510746Y1156515D01*
X510790Y1156466D01*
X510832Y1156444D01*
X510869Y1156415D01*
X510931Y1156394D01*
X510990Y1156363D01*
X511044Y1156355D01*
X511081Y1156343D01*
X511121Y1156344D01*
X511175Y1156336D01*
X514985Y1156336D01*
X515050Y1156347D01*
G37*
G36*
X515050Y561987D02*
X515050Y561987D01*
X515116Y561989D01*
X515159Y562007D01*
X515206Y562015D01*
X515263Y562049D01*
X515323Y562074D01*
X515358Y562105D01*
X515399Y562130D01*
X515441Y562181D01*
X515489Y562225D01*
X515511Y562267D01*
X515540Y562304D01*
X515561Y562366D01*
X515592Y562425D01*
X515600Y562479D01*
X515612Y562516D01*
X515611Y562556D01*
X515619Y562610D01*
X515619Y565150D01*
X515608Y565215D01*
X515606Y565281D01*
X515588Y565324D01*
X515580Y565371D01*
X515546Y565428D01*
X515521Y565488D01*
X515490Y565523D01*
X515465Y565564D01*
X515414Y565606D01*
X515370Y565654D01*
X515328Y565676D01*
X515291Y565705D01*
X515229Y565726D01*
X515170Y565757D01*
X515116Y565765D01*
X515079Y565777D01*
X515039Y565776D01*
X514985Y565784D01*
X511175Y565784D01*
X511110Y565773D01*
X511044Y565771D01*
X511001Y565753D01*
X510954Y565745D01*
X510897Y565711D01*
X510837Y565686D01*
X510802Y565655D01*
X510761Y565630D01*
X510720Y565579D01*
X510671Y565535D01*
X510649Y565493D01*
X510620Y565456D01*
X510599Y565394D01*
X510568Y565335D01*
X510560Y565281D01*
X510548Y565244D01*
X510548Y565241D01*
X510549Y565204D01*
X510541Y565150D01*
X510541Y562610D01*
X510552Y562545D01*
X510554Y562479D01*
X510572Y562436D01*
X510580Y562389D01*
X510614Y562332D01*
X510639Y562272D01*
X510670Y562237D01*
X510695Y562196D01*
X510746Y562155D01*
X510790Y562106D01*
X510832Y562084D01*
X510869Y562055D01*
X510931Y562034D01*
X510990Y562003D01*
X511044Y561995D01*
X511081Y561983D01*
X511121Y561984D01*
X511175Y561976D01*
X514985Y561976D01*
X515050Y561987D01*
G37*
G36*
X1287210Y561987D02*
X1287210Y561987D01*
X1287276Y561989D01*
X1287319Y562007D01*
X1287366Y562015D01*
X1287423Y562049D01*
X1287483Y562074D01*
X1287518Y562105D01*
X1287559Y562130D01*
X1287601Y562181D01*
X1287649Y562225D01*
X1287671Y562267D01*
X1287700Y562304D01*
X1287721Y562366D01*
X1287752Y562425D01*
X1287760Y562479D01*
X1287772Y562516D01*
X1287771Y562556D01*
X1287779Y562610D01*
X1287779Y565150D01*
X1287768Y565215D01*
X1287766Y565281D01*
X1287748Y565324D01*
X1287740Y565371D01*
X1287706Y565428D01*
X1287681Y565488D01*
X1287650Y565523D01*
X1287625Y565564D01*
X1287574Y565606D01*
X1287530Y565654D01*
X1287488Y565676D01*
X1287451Y565705D01*
X1287389Y565726D01*
X1287330Y565757D01*
X1287276Y565765D01*
X1287239Y565777D01*
X1287199Y565776D01*
X1287145Y565784D01*
X1283335Y565784D01*
X1283270Y565773D01*
X1283204Y565771D01*
X1283161Y565753D01*
X1283114Y565745D01*
X1283057Y565711D01*
X1282997Y565686D01*
X1282962Y565655D01*
X1282921Y565630D01*
X1282880Y565579D01*
X1282831Y565535D01*
X1282809Y565493D01*
X1282780Y565456D01*
X1282759Y565394D01*
X1282728Y565335D01*
X1282720Y565281D01*
X1282708Y565244D01*
X1282708Y565241D01*
X1282709Y565204D01*
X1282701Y565150D01*
X1282701Y562610D01*
X1282712Y562545D01*
X1282714Y562479D01*
X1282732Y562436D01*
X1282740Y562389D01*
X1282774Y562332D01*
X1282799Y562272D01*
X1282830Y562237D01*
X1282855Y562196D01*
X1282906Y562155D01*
X1282950Y562106D01*
X1282992Y562084D01*
X1283029Y562055D01*
X1283091Y562034D01*
X1283150Y562003D01*
X1283204Y561995D01*
X1283241Y561983D01*
X1283281Y561984D01*
X1283335Y561976D01*
X1287145Y561976D01*
X1287210Y561987D01*
G37*
G36*
X128970Y561987D02*
X128970Y561987D01*
X129036Y561989D01*
X129079Y562007D01*
X129126Y562015D01*
X129183Y562049D01*
X129243Y562074D01*
X129278Y562105D01*
X129319Y562130D01*
X129361Y562181D01*
X129409Y562225D01*
X129431Y562267D01*
X129460Y562304D01*
X129481Y562366D01*
X129512Y562425D01*
X129520Y562479D01*
X129532Y562516D01*
X129531Y562556D01*
X129539Y562610D01*
X129539Y565150D01*
X129528Y565215D01*
X129526Y565281D01*
X129508Y565324D01*
X129500Y565371D01*
X129466Y565428D01*
X129441Y565488D01*
X129410Y565523D01*
X129385Y565564D01*
X129334Y565606D01*
X129290Y565654D01*
X129248Y565676D01*
X129211Y565705D01*
X129149Y565726D01*
X129090Y565757D01*
X129036Y565765D01*
X128999Y565777D01*
X128959Y565776D01*
X128905Y565784D01*
X125095Y565784D01*
X125030Y565773D01*
X124964Y565771D01*
X124921Y565753D01*
X124874Y565745D01*
X124817Y565711D01*
X124757Y565686D01*
X124722Y565655D01*
X124681Y565630D01*
X124640Y565579D01*
X124591Y565535D01*
X124569Y565493D01*
X124540Y565456D01*
X124519Y565394D01*
X124488Y565335D01*
X124480Y565281D01*
X124468Y565244D01*
X124468Y565241D01*
X124469Y565204D01*
X124461Y565150D01*
X124461Y562610D01*
X124472Y562545D01*
X124474Y562479D01*
X124492Y562436D01*
X124500Y562389D01*
X124534Y562332D01*
X124559Y562272D01*
X124590Y562237D01*
X124615Y562196D01*
X124666Y562155D01*
X124710Y562106D01*
X124752Y562084D01*
X124789Y562055D01*
X124851Y562034D01*
X124910Y562003D01*
X124964Y561995D01*
X125001Y561983D01*
X125041Y561984D01*
X125095Y561976D01*
X128905Y561976D01*
X128970Y561987D01*
G37*
G36*
X901130Y536587D02*
X901130Y536587D01*
X901196Y536589D01*
X901239Y536607D01*
X901286Y536615D01*
X901343Y536649D01*
X901403Y536674D01*
X901438Y536705D01*
X901479Y536730D01*
X901521Y536781D01*
X901569Y536825D01*
X901591Y536867D01*
X901620Y536904D01*
X901641Y536966D01*
X901672Y537025D01*
X901680Y537079D01*
X901692Y537116D01*
X901691Y537156D01*
X901699Y537210D01*
X901699Y539750D01*
X901688Y539815D01*
X901686Y539881D01*
X901668Y539924D01*
X901660Y539971D01*
X901626Y540028D01*
X901601Y540088D01*
X901570Y540123D01*
X901545Y540164D01*
X901494Y540206D01*
X901450Y540254D01*
X901408Y540276D01*
X901371Y540305D01*
X901309Y540326D01*
X901250Y540357D01*
X901196Y540365D01*
X901159Y540377D01*
X901119Y540376D01*
X901065Y540384D01*
X897255Y540384D01*
X897190Y540373D01*
X897124Y540371D01*
X897081Y540353D01*
X897034Y540345D01*
X896977Y540311D01*
X896917Y540286D01*
X896882Y540255D01*
X896841Y540230D01*
X896800Y540179D01*
X896751Y540135D01*
X896729Y540093D01*
X896700Y540056D01*
X896679Y539994D01*
X896648Y539935D01*
X896640Y539881D01*
X896628Y539844D01*
X896628Y539841D01*
X896629Y539804D01*
X896621Y539750D01*
X896621Y537210D01*
X896632Y537145D01*
X896634Y537079D01*
X896652Y537036D01*
X896660Y536989D01*
X896694Y536932D01*
X896719Y536872D01*
X896750Y536837D01*
X896775Y536796D01*
X896826Y536755D01*
X896870Y536706D01*
X896912Y536684D01*
X896949Y536655D01*
X897011Y536634D01*
X897070Y536603D01*
X897124Y536595D01*
X897161Y536583D01*
X897201Y536584D01*
X897255Y536576D01*
X901065Y536576D01*
X901130Y536587D01*
G37*
G36*
X515050Y536587D02*
X515050Y536587D01*
X515116Y536589D01*
X515159Y536607D01*
X515206Y536615D01*
X515263Y536649D01*
X515323Y536674D01*
X515358Y536705D01*
X515399Y536730D01*
X515441Y536781D01*
X515489Y536825D01*
X515511Y536867D01*
X515540Y536904D01*
X515561Y536966D01*
X515592Y537025D01*
X515600Y537079D01*
X515612Y537116D01*
X515611Y537156D01*
X515619Y537210D01*
X515619Y539750D01*
X515608Y539815D01*
X515606Y539881D01*
X515588Y539924D01*
X515580Y539971D01*
X515546Y540028D01*
X515521Y540088D01*
X515490Y540123D01*
X515465Y540164D01*
X515414Y540206D01*
X515370Y540254D01*
X515328Y540276D01*
X515291Y540305D01*
X515229Y540326D01*
X515170Y540357D01*
X515116Y540365D01*
X515079Y540377D01*
X515039Y540376D01*
X514985Y540384D01*
X511175Y540384D01*
X511110Y540373D01*
X511044Y540371D01*
X511001Y540353D01*
X510954Y540345D01*
X510897Y540311D01*
X510837Y540286D01*
X510802Y540255D01*
X510761Y540230D01*
X510720Y540179D01*
X510671Y540135D01*
X510649Y540093D01*
X510620Y540056D01*
X510599Y539994D01*
X510568Y539935D01*
X510560Y539881D01*
X510548Y539844D01*
X510548Y539841D01*
X510549Y539804D01*
X510541Y539750D01*
X510541Y537210D01*
X510552Y537145D01*
X510554Y537079D01*
X510572Y537036D01*
X510580Y536989D01*
X510614Y536932D01*
X510639Y536872D01*
X510670Y536837D01*
X510695Y536796D01*
X510746Y536755D01*
X510790Y536706D01*
X510832Y536684D01*
X510869Y536655D01*
X510931Y536634D01*
X510990Y536603D01*
X511044Y536595D01*
X511081Y536583D01*
X511121Y536584D01*
X511175Y536576D01*
X514985Y536576D01*
X515050Y536587D01*
G37*
G36*
X128970Y536587D02*
X128970Y536587D01*
X129036Y536589D01*
X129079Y536607D01*
X129126Y536615D01*
X129183Y536649D01*
X129243Y536674D01*
X129278Y536705D01*
X129319Y536730D01*
X129361Y536781D01*
X129409Y536825D01*
X129431Y536867D01*
X129460Y536904D01*
X129481Y536966D01*
X129512Y537025D01*
X129520Y537079D01*
X129532Y537116D01*
X129531Y537156D01*
X129539Y537210D01*
X129539Y539750D01*
X129528Y539815D01*
X129526Y539881D01*
X129508Y539924D01*
X129500Y539971D01*
X129466Y540028D01*
X129441Y540088D01*
X129410Y540123D01*
X129385Y540164D01*
X129334Y540206D01*
X129290Y540254D01*
X129248Y540276D01*
X129211Y540305D01*
X129149Y540326D01*
X129090Y540357D01*
X129036Y540365D01*
X128999Y540377D01*
X128959Y540376D01*
X128905Y540384D01*
X125095Y540384D01*
X125030Y540373D01*
X124964Y540371D01*
X124921Y540353D01*
X124874Y540345D01*
X124817Y540311D01*
X124757Y540286D01*
X124722Y540255D01*
X124681Y540230D01*
X124640Y540179D01*
X124591Y540135D01*
X124569Y540093D01*
X124540Y540056D01*
X124519Y539994D01*
X124488Y539935D01*
X124480Y539881D01*
X124468Y539844D01*
X124468Y539841D01*
X124469Y539804D01*
X124461Y539750D01*
X124461Y537210D01*
X124472Y537145D01*
X124474Y537079D01*
X124492Y537036D01*
X124500Y536989D01*
X124534Y536932D01*
X124559Y536872D01*
X124590Y536837D01*
X124615Y536796D01*
X124666Y536755D01*
X124710Y536706D01*
X124752Y536684D01*
X124789Y536655D01*
X124851Y536634D01*
X124910Y536603D01*
X124964Y536595D01*
X125001Y536583D01*
X125041Y536584D01*
X125095Y536576D01*
X128905Y536576D01*
X128970Y536587D01*
G37*
G36*
X1287210Y536587D02*
X1287210Y536587D01*
X1287276Y536589D01*
X1287319Y536607D01*
X1287366Y536615D01*
X1287423Y536649D01*
X1287483Y536674D01*
X1287518Y536705D01*
X1287559Y536730D01*
X1287601Y536781D01*
X1287649Y536825D01*
X1287671Y536867D01*
X1287700Y536904D01*
X1287721Y536966D01*
X1287752Y537025D01*
X1287760Y537079D01*
X1287772Y537116D01*
X1287771Y537156D01*
X1287779Y537210D01*
X1287779Y539750D01*
X1287768Y539815D01*
X1287766Y539881D01*
X1287748Y539924D01*
X1287740Y539971D01*
X1287706Y540028D01*
X1287681Y540088D01*
X1287650Y540123D01*
X1287625Y540164D01*
X1287574Y540206D01*
X1287530Y540254D01*
X1287488Y540276D01*
X1287451Y540305D01*
X1287389Y540326D01*
X1287330Y540357D01*
X1287276Y540365D01*
X1287239Y540377D01*
X1287199Y540376D01*
X1287145Y540384D01*
X1283335Y540384D01*
X1283270Y540373D01*
X1283204Y540371D01*
X1283161Y540353D01*
X1283114Y540345D01*
X1283057Y540311D01*
X1282997Y540286D01*
X1282962Y540255D01*
X1282921Y540230D01*
X1282880Y540179D01*
X1282831Y540135D01*
X1282809Y540093D01*
X1282780Y540056D01*
X1282759Y539994D01*
X1282728Y539935D01*
X1282720Y539881D01*
X1282708Y539844D01*
X1282708Y539841D01*
X1282709Y539804D01*
X1282701Y539750D01*
X1282701Y537210D01*
X1282712Y537145D01*
X1282714Y537079D01*
X1282732Y537036D01*
X1282740Y536989D01*
X1282774Y536932D01*
X1282799Y536872D01*
X1282830Y536837D01*
X1282855Y536796D01*
X1282906Y536755D01*
X1282950Y536706D01*
X1282992Y536684D01*
X1283029Y536655D01*
X1283091Y536634D01*
X1283150Y536603D01*
X1283204Y536595D01*
X1283241Y536583D01*
X1283281Y536584D01*
X1283335Y536576D01*
X1287145Y536576D01*
X1287210Y536587D01*
G37*
G36*
X1287210Y1181747D02*
X1287210Y1181747D01*
X1287276Y1181749D01*
X1287319Y1181767D01*
X1287366Y1181775D01*
X1287423Y1181809D01*
X1287483Y1181834D01*
X1287518Y1181865D01*
X1287559Y1181890D01*
X1287601Y1181941D01*
X1287649Y1181985D01*
X1287671Y1182027D01*
X1287700Y1182064D01*
X1287721Y1182126D01*
X1287752Y1182185D01*
X1287760Y1182239D01*
X1287772Y1182276D01*
X1287771Y1182316D01*
X1287779Y1182370D01*
X1287779Y1184910D01*
X1287768Y1184975D01*
X1287766Y1185041D01*
X1287748Y1185084D01*
X1287740Y1185131D01*
X1287706Y1185188D01*
X1287681Y1185248D01*
X1287650Y1185283D01*
X1287625Y1185324D01*
X1287574Y1185366D01*
X1287530Y1185414D01*
X1287488Y1185436D01*
X1287451Y1185465D01*
X1287389Y1185486D01*
X1287330Y1185517D01*
X1287276Y1185525D01*
X1287239Y1185537D01*
X1287199Y1185536D01*
X1287145Y1185544D01*
X1283335Y1185544D01*
X1283270Y1185533D01*
X1283204Y1185531D01*
X1283161Y1185513D01*
X1283114Y1185505D01*
X1283057Y1185471D01*
X1282997Y1185446D01*
X1282962Y1185415D01*
X1282921Y1185390D01*
X1282880Y1185339D01*
X1282831Y1185295D01*
X1282809Y1185253D01*
X1282780Y1185216D01*
X1282759Y1185154D01*
X1282728Y1185095D01*
X1282720Y1185041D01*
X1282708Y1185004D01*
X1282708Y1185001D01*
X1282709Y1184964D01*
X1282701Y1184910D01*
X1282701Y1182370D01*
X1282712Y1182305D01*
X1282714Y1182239D01*
X1282732Y1182196D01*
X1282740Y1182149D01*
X1282774Y1182092D01*
X1282799Y1182032D01*
X1282830Y1181997D01*
X1282855Y1181956D01*
X1282906Y1181915D01*
X1282950Y1181866D01*
X1282992Y1181844D01*
X1283029Y1181815D01*
X1283091Y1181794D01*
X1283150Y1181763D01*
X1283204Y1181755D01*
X1283241Y1181743D01*
X1283281Y1181744D01*
X1283335Y1181736D01*
X1287145Y1181736D01*
X1287210Y1181747D01*
G37*
G36*
X128970Y1181747D02*
X128970Y1181747D01*
X129036Y1181749D01*
X129079Y1181767D01*
X129126Y1181775D01*
X129183Y1181809D01*
X129243Y1181834D01*
X129278Y1181865D01*
X129319Y1181890D01*
X129361Y1181941D01*
X129409Y1181985D01*
X129431Y1182027D01*
X129460Y1182064D01*
X129481Y1182126D01*
X129512Y1182185D01*
X129520Y1182239D01*
X129532Y1182276D01*
X129531Y1182316D01*
X129539Y1182370D01*
X129539Y1184910D01*
X129528Y1184975D01*
X129526Y1185041D01*
X129508Y1185084D01*
X129500Y1185131D01*
X129466Y1185188D01*
X129441Y1185248D01*
X129410Y1185283D01*
X129385Y1185324D01*
X129334Y1185366D01*
X129290Y1185414D01*
X129248Y1185436D01*
X129211Y1185465D01*
X129149Y1185486D01*
X129090Y1185517D01*
X129036Y1185525D01*
X128999Y1185537D01*
X128959Y1185536D01*
X128905Y1185544D01*
X125095Y1185544D01*
X125030Y1185533D01*
X124964Y1185531D01*
X124921Y1185513D01*
X124874Y1185505D01*
X124817Y1185471D01*
X124757Y1185446D01*
X124722Y1185415D01*
X124681Y1185390D01*
X124640Y1185339D01*
X124591Y1185295D01*
X124569Y1185253D01*
X124540Y1185216D01*
X124519Y1185154D01*
X124488Y1185095D01*
X124480Y1185041D01*
X124468Y1185004D01*
X124468Y1185001D01*
X124469Y1184964D01*
X124461Y1184910D01*
X124461Y1182370D01*
X124472Y1182305D01*
X124474Y1182239D01*
X124492Y1182196D01*
X124500Y1182149D01*
X124534Y1182092D01*
X124559Y1182032D01*
X124590Y1181997D01*
X124615Y1181956D01*
X124666Y1181915D01*
X124710Y1181866D01*
X124752Y1181844D01*
X124789Y1181815D01*
X124851Y1181794D01*
X124910Y1181763D01*
X124964Y1181755D01*
X125001Y1181743D01*
X125041Y1181744D01*
X125095Y1181736D01*
X128905Y1181736D01*
X128970Y1181747D01*
G37*
G36*
X515050Y1181747D02*
X515050Y1181747D01*
X515116Y1181749D01*
X515159Y1181767D01*
X515206Y1181775D01*
X515263Y1181809D01*
X515323Y1181834D01*
X515358Y1181865D01*
X515399Y1181890D01*
X515441Y1181941D01*
X515489Y1181985D01*
X515511Y1182027D01*
X515540Y1182064D01*
X515561Y1182126D01*
X515592Y1182185D01*
X515600Y1182239D01*
X515612Y1182276D01*
X515611Y1182316D01*
X515619Y1182370D01*
X515619Y1184910D01*
X515608Y1184975D01*
X515606Y1185041D01*
X515588Y1185084D01*
X515580Y1185131D01*
X515546Y1185188D01*
X515521Y1185248D01*
X515490Y1185283D01*
X515465Y1185324D01*
X515414Y1185366D01*
X515370Y1185414D01*
X515328Y1185436D01*
X515291Y1185465D01*
X515229Y1185486D01*
X515170Y1185517D01*
X515116Y1185525D01*
X515079Y1185537D01*
X515039Y1185536D01*
X514985Y1185544D01*
X511175Y1185544D01*
X511110Y1185533D01*
X511044Y1185531D01*
X511001Y1185513D01*
X510954Y1185505D01*
X510897Y1185471D01*
X510837Y1185446D01*
X510802Y1185415D01*
X510761Y1185390D01*
X510720Y1185339D01*
X510671Y1185295D01*
X510649Y1185253D01*
X510620Y1185216D01*
X510599Y1185154D01*
X510568Y1185095D01*
X510560Y1185041D01*
X510548Y1185004D01*
X510548Y1185001D01*
X510549Y1184964D01*
X510541Y1184910D01*
X510541Y1182370D01*
X510552Y1182305D01*
X510554Y1182239D01*
X510572Y1182196D01*
X510580Y1182149D01*
X510614Y1182092D01*
X510639Y1182032D01*
X510670Y1181997D01*
X510695Y1181956D01*
X510746Y1181915D01*
X510790Y1181866D01*
X510832Y1181844D01*
X510869Y1181815D01*
X510931Y1181794D01*
X510990Y1181763D01*
X511044Y1181755D01*
X511081Y1181743D01*
X511121Y1181744D01*
X511175Y1181736D01*
X514985Y1181736D01*
X515050Y1181747D01*
G37*
G36*
X901130Y1181747D02*
X901130Y1181747D01*
X901196Y1181749D01*
X901239Y1181767D01*
X901286Y1181775D01*
X901343Y1181809D01*
X901403Y1181834D01*
X901438Y1181865D01*
X901479Y1181890D01*
X901521Y1181941D01*
X901569Y1181985D01*
X901591Y1182027D01*
X901620Y1182064D01*
X901641Y1182126D01*
X901672Y1182185D01*
X901680Y1182239D01*
X901692Y1182276D01*
X901691Y1182316D01*
X901699Y1182370D01*
X901699Y1184910D01*
X901688Y1184975D01*
X901686Y1185041D01*
X901668Y1185084D01*
X901660Y1185131D01*
X901626Y1185188D01*
X901601Y1185248D01*
X901570Y1185283D01*
X901545Y1185324D01*
X901494Y1185366D01*
X901450Y1185414D01*
X901408Y1185436D01*
X901371Y1185465D01*
X901309Y1185486D01*
X901250Y1185517D01*
X901196Y1185525D01*
X901159Y1185537D01*
X901119Y1185536D01*
X901065Y1185544D01*
X897255Y1185544D01*
X897190Y1185533D01*
X897124Y1185531D01*
X897081Y1185513D01*
X897034Y1185505D01*
X896977Y1185471D01*
X896917Y1185446D01*
X896882Y1185415D01*
X896841Y1185390D01*
X896800Y1185339D01*
X896751Y1185295D01*
X896729Y1185253D01*
X896700Y1185216D01*
X896679Y1185154D01*
X896648Y1185095D01*
X896640Y1185041D01*
X896628Y1185004D01*
X896628Y1185001D01*
X896629Y1184964D01*
X896621Y1184910D01*
X896621Y1182370D01*
X896632Y1182305D01*
X896634Y1182239D01*
X896652Y1182196D01*
X896660Y1182149D01*
X896694Y1182092D01*
X896719Y1182032D01*
X896750Y1181997D01*
X896775Y1181956D01*
X896826Y1181915D01*
X896870Y1181866D01*
X896912Y1181844D01*
X896949Y1181815D01*
X897011Y1181794D01*
X897070Y1181763D01*
X897124Y1181755D01*
X897161Y1181743D01*
X897201Y1181744D01*
X897255Y1181736D01*
X901065Y1181736D01*
X901130Y1181747D01*
G37*
G36*
X1287210Y1156347D02*
X1287210Y1156347D01*
X1287276Y1156349D01*
X1287319Y1156367D01*
X1287366Y1156375D01*
X1287423Y1156409D01*
X1287483Y1156434D01*
X1287518Y1156465D01*
X1287559Y1156490D01*
X1287601Y1156541D01*
X1287649Y1156585D01*
X1287671Y1156627D01*
X1287700Y1156664D01*
X1287721Y1156726D01*
X1287752Y1156785D01*
X1287760Y1156839D01*
X1287772Y1156876D01*
X1287771Y1156916D01*
X1287779Y1156970D01*
X1287779Y1159510D01*
X1287768Y1159575D01*
X1287766Y1159641D01*
X1287748Y1159684D01*
X1287740Y1159731D01*
X1287706Y1159788D01*
X1287681Y1159848D01*
X1287650Y1159883D01*
X1287625Y1159924D01*
X1287574Y1159966D01*
X1287530Y1160014D01*
X1287488Y1160036D01*
X1287451Y1160065D01*
X1287389Y1160086D01*
X1287330Y1160117D01*
X1287276Y1160125D01*
X1287239Y1160137D01*
X1287199Y1160136D01*
X1287145Y1160144D01*
X1283335Y1160144D01*
X1283270Y1160133D01*
X1283204Y1160131D01*
X1283161Y1160113D01*
X1283114Y1160105D01*
X1283057Y1160071D01*
X1282997Y1160046D01*
X1282962Y1160015D01*
X1282921Y1159990D01*
X1282880Y1159939D01*
X1282831Y1159895D01*
X1282809Y1159853D01*
X1282780Y1159816D01*
X1282759Y1159754D01*
X1282728Y1159695D01*
X1282720Y1159641D01*
X1282708Y1159604D01*
X1282708Y1159601D01*
X1282709Y1159564D01*
X1282701Y1159510D01*
X1282701Y1156970D01*
X1282712Y1156905D01*
X1282714Y1156839D01*
X1282732Y1156796D01*
X1282740Y1156749D01*
X1282774Y1156692D01*
X1282799Y1156632D01*
X1282830Y1156597D01*
X1282855Y1156556D01*
X1282906Y1156515D01*
X1282950Y1156466D01*
X1282992Y1156444D01*
X1283029Y1156415D01*
X1283091Y1156394D01*
X1283150Y1156363D01*
X1283204Y1156355D01*
X1283241Y1156343D01*
X1283281Y1156344D01*
X1283335Y1156336D01*
X1287145Y1156336D01*
X1287210Y1156347D01*
G37*
G36*
X901130Y1156347D02*
X901130Y1156347D01*
X901196Y1156349D01*
X901239Y1156367D01*
X901286Y1156375D01*
X901343Y1156409D01*
X901403Y1156434D01*
X901438Y1156465D01*
X901479Y1156490D01*
X901521Y1156541D01*
X901569Y1156585D01*
X901591Y1156627D01*
X901620Y1156664D01*
X901641Y1156726D01*
X901672Y1156785D01*
X901680Y1156839D01*
X901692Y1156876D01*
X901691Y1156916D01*
X901699Y1156970D01*
X901699Y1159510D01*
X901688Y1159575D01*
X901686Y1159641D01*
X901668Y1159684D01*
X901660Y1159731D01*
X901626Y1159788D01*
X901601Y1159848D01*
X901570Y1159883D01*
X901545Y1159924D01*
X901494Y1159966D01*
X901450Y1160014D01*
X901408Y1160036D01*
X901371Y1160065D01*
X901309Y1160086D01*
X901250Y1160117D01*
X901196Y1160125D01*
X901159Y1160137D01*
X901119Y1160136D01*
X901065Y1160144D01*
X897255Y1160144D01*
X897190Y1160133D01*
X897124Y1160131D01*
X897081Y1160113D01*
X897034Y1160105D01*
X896977Y1160071D01*
X896917Y1160046D01*
X896882Y1160015D01*
X896841Y1159990D01*
X896800Y1159939D01*
X896751Y1159895D01*
X896729Y1159853D01*
X896700Y1159816D01*
X896679Y1159754D01*
X896648Y1159695D01*
X896640Y1159641D01*
X896628Y1159604D01*
X896628Y1159601D01*
X896629Y1159564D01*
X896621Y1159510D01*
X896621Y1156970D01*
X896632Y1156905D01*
X896634Y1156839D01*
X896652Y1156796D01*
X896660Y1156749D01*
X896694Y1156692D01*
X896719Y1156632D01*
X896750Y1156597D01*
X896775Y1156556D01*
X896826Y1156515D01*
X896870Y1156466D01*
X896912Y1156444D01*
X896949Y1156415D01*
X897011Y1156394D01*
X897070Y1156363D01*
X897124Y1156355D01*
X897161Y1156343D01*
X897201Y1156344D01*
X897255Y1156336D01*
X901065Y1156336D01*
X901130Y1156347D01*
G37*
G36*
X128970Y1156347D02*
X128970Y1156347D01*
X129036Y1156349D01*
X129079Y1156367D01*
X129126Y1156375D01*
X129183Y1156409D01*
X129243Y1156434D01*
X129278Y1156465D01*
X129319Y1156490D01*
X129361Y1156541D01*
X129409Y1156585D01*
X129431Y1156627D01*
X129460Y1156664D01*
X129481Y1156726D01*
X129512Y1156785D01*
X129520Y1156839D01*
X129532Y1156876D01*
X129531Y1156916D01*
X129539Y1156970D01*
X129539Y1159510D01*
X129528Y1159575D01*
X129526Y1159641D01*
X129508Y1159684D01*
X129500Y1159731D01*
X129466Y1159788D01*
X129441Y1159848D01*
X129410Y1159883D01*
X129385Y1159924D01*
X129334Y1159966D01*
X129290Y1160014D01*
X129248Y1160036D01*
X129211Y1160065D01*
X129149Y1160086D01*
X129090Y1160117D01*
X129036Y1160125D01*
X128999Y1160137D01*
X128959Y1160136D01*
X128905Y1160144D01*
X125095Y1160144D01*
X125030Y1160133D01*
X124964Y1160131D01*
X124921Y1160113D01*
X124874Y1160105D01*
X124817Y1160071D01*
X124757Y1160046D01*
X124722Y1160015D01*
X124681Y1159990D01*
X124640Y1159939D01*
X124591Y1159895D01*
X124569Y1159853D01*
X124540Y1159816D01*
X124519Y1159754D01*
X124488Y1159695D01*
X124480Y1159641D01*
X124468Y1159604D01*
X124468Y1159601D01*
X124469Y1159564D01*
X124461Y1159510D01*
X124461Y1156970D01*
X124472Y1156905D01*
X124474Y1156839D01*
X124492Y1156796D01*
X124500Y1156749D01*
X124534Y1156692D01*
X124559Y1156632D01*
X124590Y1156597D01*
X124615Y1156556D01*
X124666Y1156515D01*
X124710Y1156466D01*
X124752Y1156444D01*
X124789Y1156415D01*
X124851Y1156394D01*
X124910Y1156363D01*
X124964Y1156355D01*
X125001Y1156343D01*
X125041Y1156344D01*
X125095Y1156336D01*
X128905Y1156336D01*
X128970Y1156347D01*
G37*
G36*
X1287210Y871867D02*
X1287210Y871867D01*
X1287276Y871869D01*
X1287319Y871887D01*
X1287366Y871895D01*
X1287423Y871929D01*
X1287483Y871954D01*
X1287518Y871985D01*
X1287559Y872010D01*
X1287601Y872061D01*
X1287649Y872105D01*
X1287671Y872147D01*
X1287700Y872184D01*
X1287721Y872246D01*
X1287752Y872305D01*
X1287760Y872359D01*
X1287772Y872396D01*
X1287771Y872436D01*
X1287779Y872490D01*
X1287779Y875030D01*
X1287768Y875095D01*
X1287766Y875161D01*
X1287748Y875204D01*
X1287740Y875251D01*
X1287706Y875308D01*
X1287681Y875368D01*
X1287650Y875403D01*
X1287625Y875444D01*
X1287574Y875486D01*
X1287530Y875534D01*
X1287488Y875556D01*
X1287451Y875585D01*
X1287389Y875606D01*
X1287330Y875637D01*
X1287276Y875645D01*
X1287239Y875657D01*
X1287199Y875656D01*
X1287145Y875664D01*
X1283335Y875664D01*
X1283270Y875653D01*
X1283204Y875651D01*
X1283161Y875633D01*
X1283114Y875625D01*
X1283057Y875591D01*
X1282997Y875566D01*
X1282962Y875535D01*
X1282921Y875510D01*
X1282880Y875459D01*
X1282831Y875415D01*
X1282809Y875373D01*
X1282780Y875336D01*
X1282759Y875274D01*
X1282728Y875215D01*
X1282720Y875161D01*
X1282708Y875124D01*
X1282708Y875121D01*
X1282709Y875084D01*
X1282701Y875030D01*
X1282701Y872490D01*
X1282712Y872425D01*
X1282714Y872359D01*
X1282732Y872316D01*
X1282740Y872269D01*
X1282774Y872212D01*
X1282799Y872152D01*
X1282830Y872117D01*
X1282855Y872076D01*
X1282906Y872035D01*
X1282950Y871986D01*
X1282992Y871964D01*
X1283029Y871935D01*
X1283091Y871914D01*
X1283150Y871883D01*
X1283204Y871875D01*
X1283241Y871863D01*
X1283281Y871864D01*
X1283335Y871856D01*
X1287145Y871856D01*
X1287210Y871867D01*
G37*
G36*
X1287210Y226707D02*
X1287210Y226707D01*
X1287276Y226709D01*
X1287319Y226727D01*
X1287366Y226735D01*
X1287423Y226769D01*
X1287483Y226794D01*
X1287518Y226825D01*
X1287559Y226850D01*
X1287601Y226901D01*
X1287649Y226945D01*
X1287671Y226987D01*
X1287700Y227024D01*
X1287721Y227086D01*
X1287752Y227145D01*
X1287760Y227199D01*
X1287772Y227236D01*
X1287771Y227276D01*
X1287779Y227330D01*
X1287779Y229870D01*
X1287768Y229935D01*
X1287766Y230001D01*
X1287748Y230044D01*
X1287740Y230091D01*
X1287706Y230148D01*
X1287681Y230208D01*
X1287650Y230243D01*
X1287625Y230284D01*
X1287574Y230326D01*
X1287530Y230374D01*
X1287488Y230396D01*
X1287451Y230425D01*
X1287389Y230446D01*
X1287330Y230477D01*
X1287276Y230485D01*
X1287239Y230497D01*
X1287199Y230496D01*
X1287145Y230504D01*
X1283335Y230504D01*
X1283270Y230493D01*
X1283204Y230491D01*
X1283161Y230473D01*
X1283114Y230465D01*
X1283057Y230431D01*
X1282997Y230406D01*
X1282962Y230375D01*
X1282921Y230350D01*
X1282880Y230299D01*
X1282831Y230255D01*
X1282809Y230213D01*
X1282780Y230176D01*
X1282759Y230114D01*
X1282728Y230055D01*
X1282720Y230001D01*
X1282708Y229964D01*
X1282708Y229961D01*
X1282709Y229924D01*
X1282701Y229870D01*
X1282701Y227330D01*
X1282712Y227265D01*
X1282714Y227199D01*
X1282732Y227156D01*
X1282740Y227109D01*
X1282774Y227052D01*
X1282799Y226992D01*
X1282830Y226957D01*
X1282855Y226916D01*
X1282906Y226875D01*
X1282950Y226826D01*
X1282992Y226804D01*
X1283029Y226775D01*
X1283091Y226754D01*
X1283150Y226723D01*
X1283204Y226715D01*
X1283241Y226703D01*
X1283281Y226704D01*
X1283335Y226696D01*
X1287145Y226696D01*
X1287210Y226707D01*
G37*
G36*
X901130Y561987D02*
X901130Y561987D01*
X901196Y561989D01*
X901239Y562007D01*
X901286Y562015D01*
X901343Y562049D01*
X901403Y562074D01*
X901438Y562105D01*
X901479Y562130D01*
X901521Y562181D01*
X901569Y562225D01*
X901591Y562267D01*
X901620Y562304D01*
X901641Y562366D01*
X901672Y562425D01*
X901680Y562479D01*
X901692Y562516D01*
X901691Y562556D01*
X901699Y562610D01*
X901699Y565150D01*
X901688Y565215D01*
X901686Y565281D01*
X901668Y565324D01*
X901660Y565371D01*
X901626Y565428D01*
X901601Y565488D01*
X901570Y565523D01*
X901545Y565564D01*
X901494Y565606D01*
X901450Y565654D01*
X901408Y565676D01*
X901371Y565705D01*
X901309Y565726D01*
X901250Y565757D01*
X901196Y565765D01*
X901159Y565777D01*
X901119Y565776D01*
X901065Y565784D01*
X897255Y565784D01*
X897190Y565773D01*
X897124Y565771D01*
X897081Y565753D01*
X897034Y565745D01*
X896977Y565711D01*
X896917Y565686D01*
X896882Y565655D01*
X896841Y565630D01*
X896800Y565579D01*
X896751Y565535D01*
X896729Y565493D01*
X896700Y565456D01*
X896679Y565394D01*
X896648Y565335D01*
X896640Y565281D01*
X896628Y565244D01*
X896628Y565241D01*
X896629Y565204D01*
X896621Y565150D01*
X896621Y562610D01*
X896632Y562545D01*
X896634Y562479D01*
X896652Y562436D01*
X896660Y562389D01*
X896694Y562332D01*
X896719Y562272D01*
X896750Y562237D01*
X896775Y562196D01*
X896826Y562155D01*
X896870Y562106D01*
X896912Y562084D01*
X896949Y562055D01*
X897011Y562034D01*
X897070Y562003D01*
X897124Y561995D01*
X897161Y561983D01*
X897201Y561984D01*
X897255Y561976D01*
X901065Y561976D01*
X901130Y561987D01*
G37*
G36*
X515050Y226707D02*
X515050Y226707D01*
X515116Y226709D01*
X515159Y226727D01*
X515206Y226735D01*
X515263Y226769D01*
X515323Y226794D01*
X515358Y226825D01*
X515399Y226850D01*
X515441Y226901D01*
X515489Y226945D01*
X515511Y226987D01*
X515540Y227024D01*
X515561Y227086D01*
X515592Y227145D01*
X515600Y227199D01*
X515612Y227236D01*
X515611Y227276D01*
X515619Y227330D01*
X515619Y229870D01*
X515608Y229935D01*
X515606Y230001D01*
X515588Y230044D01*
X515580Y230091D01*
X515546Y230148D01*
X515521Y230208D01*
X515490Y230243D01*
X515465Y230284D01*
X515414Y230326D01*
X515370Y230374D01*
X515328Y230396D01*
X515291Y230425D01*
X515229Y230446D01*
X515170Y230477D01*
X515116Y230485D01*
X515079Y230497D01*
X515039Y230496D01*
X514985Y230504D01*
X511175Y230504D01*
X511110Y230493D01*
X511044Y230491D01*
X511001Y230473D01*
X510954Y230465D01*
X510897Y230431D01*
X510837Y230406D01*
X510802Y230375D01*
X510761Y230350D01*
X510720Y230299D01*
X510671Y230255D01*
X510649Y230213D01*
X510620Y230176D01*
X510599Y230114D01*
X510568Y230055D01*
X510560Y230001D01*
X510548Y229964D01*
X510548Y229961D01*
X510549Y229924D01*
X510541Y229870D01*
X510541Y227330D01*
X510552Y227265D01*
X510554Y227199D01*
X510572Y227156D01*
X510580Y227109D01*
X510614Y227052D01*
X510639Y226992D01*
X510670Y226957D01*
X510695Y226916D01*
X510746Y226875D01*
X510790Y226826D01*
X510832Y226804D01*
X510869Y226775D01*
X510931Y226754D01*
X510990Y226723D01*
X511044Y226715D01*
X511081Y226703D01*
X511121Y226704D01*
X511175Y226696D01*
X514985Y226696D01*
X515050Y226707D01*
G37*
G36*
X128970Y226707D02*
X128970Y226707D01*
X129036Y226709D01*
X129079Y226727D01*
X129126Y226735D01*
X129183Y226769D01*
X129243Y226794D01*
X129278Y226825D01*
X129319Y226850D01*
X129361Y226901D01*
X129409Y226945D01*
X129431Y226987D01*
X129460Y227024D01*
X129481Y227086D01*
X129512Y227145D01*
X129520Y227199D01*
X129532Y227236D01*
X129531Y227276D01*
X129539Y227330D01*
X129539Y229870D01*
X129528Y229935D01*
X129526Y230001D01*
X129508Y230044D01*
X129500Y230091D01*
X129466Y230148D01*
X129441Y230208D01*
X129410Y230243D01*
X129385Y230284D01*
X129334Y230326D01*
X129290Y230374D01*
X129248Y230396D01*
X129211Y230425D01*
X129149Y230446D01*
X129090Y230477D01*
X129036Y230485D01*
X128999Y230497D01*
X128959Y230496D01*
X128905Y230504D01*
X125095Y230504D01*
X125030Y230493D01*
X124964Y230491D01*
X124921Y230473D01*
X124874Y230465D01*
X124817Y230431D01*
X124757Y230406D01*
X124722Y230375D01*
X124681Y230350D01*
X124640Y230299D01*
X124591Y230255D01*
X124569Y230213D01*
X124540Y230176D01*
X124519Y230114D01*
X124488Y230055D01*
X124480Y230001D01*
X124468Y229964D01*
X124468Y229961D01*
X124469Y229924D01*
X124461Y229870D01*
X124461Y227330D01*
X124472Y227265D01*
X124474Y227199D01*
X124492Y227156D01*
X124500Y227109D01*
X124534Y227052D01*
X124559Y226992D01*
X124590Y226957D01*
X124615Y226916D01*
X124666Y226875D01*
X124710Y226826D01*
X124752Y226804D01*
X124789Y226775D01*
X124851Y226754D01*
X124910Y226723D01*
X124964Y226715D01*
X125001Y226703D01*
X125041Y226704D01*
X125095Y226696D01*
X128905Y226696D01*
X128970Y226707D01*
G37*
G36*
X515050Y871867D02*
X515050Y871867D01*
X515116Y871869D01*
X515159Y871887D01*
X515206Y871895D01*
X515263Y871929D01*
X515323Y871954D01*
X515358Y871985D01*
X515399Y872010D01*
X515441Y872061D01*
X515489Y872105D01*
X515511Y872147D01*
X515540Y872184D01*
X515561Y872246D01*
X515592Y872305D01*
X515600Y872359D01*
X515612Y872396D01*
X515611Y872436D01*
X515619Y872490D01*
X515619Y875030D01*
X515608Y875095D01*
X515606Y875161D01*
X515588Y875204D01*
X515580Y875251D01*
X515546Y875308D01*
X515521Y875368D01*
X515490Y875403D01*
X515465Y875444D01*
X515414Y875486D01*
X515370Y875534D01*
X515328Y875556D01*
X515291Y875585D01*
X515229Y875606D01*
X515170Y875637D01*
X515116Y875645D01*
X515079Y875657D01*
X515039Y875656D01*
X514985Y875664D01*
X511175Y875664D01*
X511110Y875653D01*
X511044Y875651D01*
X511001Y875633D01*
X510954Y875625D01*
X510897Y875591D01*
X510837Y875566D01*
X510802Y875535D01*
X510761Y875510D01*
X510720Y875459D01*
X510671Y875415D01*
X510649Y875373D01*
X510620Y875336D01*
X510599Y875274D01*
X510568Y875215D01*
X510560Y875161D01*
X510548Y875124D01*
X510548Y875121D01*
X510549Y875084D01*
X510541Y875030D01*
X510541Y872490D01*
X510552Y872425D01*
X510554Y872359D01*
X510572Y872316D01*
X510580Y872269D01*
X510614Y872212D01*
X510639Y872152D01*
X510670Y872117D01*
X510695Y872076D01*
X510746Y872035D01*
X510790Y871986D01*
X510832Y871964D01*
X510869Y871935D01*
X510931Y871914D01*
X510990Y871883D01*
X511044Y871875D01*
X511081Y871863D01*
X511121Y871864D01*
X511175Y871856D01*
X514985Y871856D01*
X515050Y871867D01*
G37*
G36*
X128970Y871867D02*
X128970Y871867D01*
X129036Y871869D01*
X129079Y871887D01*
X129126Y871895D01*
X129183Y871929D01*
X129243Y871954D01*
X129278Y871985D01*
X129319Y872010D01*
X129361Y872061D01*
X129409Y872105D01*
X129431Y872147D01*
X129460Y872184D01*
X129481Y872246D01*
X129512Y872305D01*
X129520Y872359D01*
X129532Y872396D01*
X129531Y872436D01*
X129539Y872490D01*
X129539Y875030D01*
X129528Y875095D01*
X129526Y875161D01*
X129508Y875204D01*
X129500Y875251D01*
X129466Y875308D01*
X129441Y875368D01*
X129410Y875403D01*
X129385Y875444D01*
X129334Y875486D01*
X129290Y875534D01*
X129248Y875556D01*
X129211Y875585D01*
X129149Y875606D01*
X129090Y875637D01*
X129036Y875645D01*
X128999Y875657D01*
X128959Y875656D01*
X128905Y875664D01*
X125095Y875664D01*
X125030Y875653D01*
X124964Y875651D01*
X124921Y875633D01*
X124874Y875625D01*
X124817Y875591D01*
X124757Y875566D01*
X124722Y875535D01*
X124681Y875510D01*
X124640Y875459D01*
X124591Y875415D01*
X124569Y875373D01*
X124540Y875336D01*
X124519Y875274D01*
X124488Y875215D01*
X124480Y875161D01*
X124468Y875124D01*
X124468Y875121D01*
X124469Y875084D01*
X124461Y875030D01*
X124461Y872490D01*
X124472Y872425D01*
X124474Y872359D01*
X124492Y872316D01*
X124500Y872269D01*
X124534Y872212D01*
X124559Y872152D01*
X124590Y872117D01*
X124615Y872076D01*
X124666Y872035D01*
X124710Y871986D01*
X124752Y871964D01*
X124789Y871935D01*
X124851Y871914D01*
X124910Y871883D01*
X124964Y871875D01*
X125001Y871863D01*
X125041Y871864D01*
X125095Y871856D01*
X128905Y871856D01*
X128970Y871867D01*
G37*
G36*
X901130Y871867D02*
X901130Y871867D01*
X901196Y871869D01*
X901239Y871887D01*
X901286Y871895D01*
X901343Y871929D01*
X901403Y871954D01*
X901438Y871985D01*
X901479Y872010D01*
X901521Y872061D01*
X901569Y872105D01*
X901591Y872147D01*
X901620Y872184D01*
X901641Y872246D01*
X901672Y872305D01*
X901680Y872359D01*
X901692Y872396D01*
X901691Y872436D01*
X901699Y872490D01*
X901699Y875030D01*
X901688Y875095D01*
X901686Y875161D01*
X901668Y875204D01*
X901660Y875251D01*
X901626Y875308D01*
X901601Y875368D01*
X901570Y875403D01*
X901545Y875444D01*
X901494Y875486D01*
X901450Y875534D01*
X901408Y875556D01*
X901371Y875585D01*
X901309Y875606D01*
X901250Y875637D01*
X901196Y875645D01*
X901159Y875657D01*
X901119Y875656D01*
X901065Y875664D01*
X897255Y875664D01*
X897190Y875653D01*
X897124Y875651D01*
X897081Y875633D01*
X897034Y875625D01*
X896977Y875591D01*
X896917Y875566D01*
X896882Y875535D01*
X896841Y875510D01*
X896800Y875459D01*
X896751Y875415D01*
X896729Y875373D01*
X896700Y875336D01*
X896679Y875274D01*
X896648Y875215D01*
X896640Y875161D01*
X896628Y875124D01*
X896628Y875121D01*
X896629Y875084D01*
X896621Y875030D01*
X896621Y872490D01*
X896632Y872425D01*
X896634Y872359D01*
X896652Y872316D01*
X896660Y872269D01*
X896694Y872212D01*
X896719Y872152D01*
X896750Y872117D01*
X896775Y872076D01*
X896826Y872035D01*
X896870Y871986D01*
X896912Y871964D01*
X896949Y871935D01*
X897011Y871914D01*
X897070Y871883D01*
X897124Y871875D01*
X897161Y871863D01*
X897201Y871864D01*
X897255Y871856D01*
X901065Y871856D01*
X901130Y871867D01*
G37*
G36*
X901130Y226707D02*
X901130Y226707D01*
X901196Y226709D01*
X901239Y226727D01*
X901286Y226735D01*
X901343Y226769D01*
X901403Y226794D01*
X901438Y226825D01*
X901479Y226850D01*
X901521Y226901D01*
X901569Y226945D01*
X901591Y226987D01*
X901620Y227024D01*
X901641Y227086D01*
X901672Y227145D01*
X901680Y227199D01*
X901692Y227236D01*
X901691Y227276D01*
X901699Y227330D01*
X901699Y229870D01*
X901688Y229935D01*
X901686Y230001D01*
X901668Y230044D01*
X901660Y230091D01*
X901626Y230148D01*
X901601Y230208D01*
X901570Y230243D01*
X901545Y230284D01*
X901494Y230326D01*
X901450Y230374D01*
X901408Y230396D01*
X901371Y230425D01*
X901309Y230446D01*
X901250Y230477D01*
X901196Y230485D01*
X901159Y230497D01*
X901119Y230496D01*
X901065Y230504D01*
X897255Y230504D01*
X897190Y230493D01*
X897124Y230491D01*
X897081Y230473D01*
X897034Y230465D01*
X896977Y230431D01*
X896917Y230406D01*
X896882Y230375D01*
X896841Y230350D01*
X896800Y230299D01*
X896751Y230255D01*
X896729Y230213D01*
X896700Y230176D01*
X896679Y230114D01*
X896648Y230055D01*
X896640Y230001D01*
X896628Y229964D01*
X896628Y229961D01*
X896629Y229924D01*
X896621Y229870D01*
X896621Y227330D01*
X896632Y227265D01*
X896634Y227199D01*
X896652Y227156D01*
X896660Y227109D01*
X896694Y227052D01*
X896719Y226992D01*
X896750Y226957D01*
X896775Y226916D01*
X896826Y226875D01*
X896870Y226826D01*
X896912Y226804D01*
X896949Y226775D01*
X897011Y226754D01*
X897070Y226723D01*
X897124Y226715D01*
X897161Y226703D01*
X897201Y226704D01*
X897255Y226696D01*
X901065Y226696D01*
X901130Y226707D01*
G37*
D10*
X228600Y292100D03*
X203200Y292100D03*
X177800Y292100D03*
X152400Y292100D03*
D11*
X152400Y84328D03*
X152400Y76200D03*
X152400Y68072D03*
D12*
X132207Y254000D03*
X121793Y254000D03*
D10*
X165100Y12700D03*
X190500Y12700D03*
X215900Y12700D03*
X241300Y12700D03*
X266700Y12700D03*
X292100Y12700D03*
D12*
X132207Y228600D03*
X121793Y228600D03*
D13*
X7620Y7620D03*
X373380Y297180D03*
D14*
X355600Y25400D03*
X25400Y25400D03*
X25400Y279400D03*
X355600Y279400D03*
D15*
X344170Y177800D03*
X344170Y127000D03*
D10*
X12700Y241300D03*
X12700Y215900D03*
X12700Y190500D03*
X12700Y165100D03*
X12700Y139700D03*
X12700Y114300D03*
X12700Y88900D03*
X12700Y63500D03*
D11*
X266700Y45720D03*
X266700Y55880D03*
D10*
X266700Y38100D03*
X266700Y63500D03*
X614680Y292100D03*
X589280Y292100D03*
X563880Y292100D03*
X538480Y292100D03*
D11*
X538480Y84328D03*
X538480Y76200D03*
X538480Y68072D03*
D12*
X518287Y254000D03*
X507873Y254000D03*
D10*
X551180Y12700D03*
X576580Y12700D03*
X601980Y12700D03*
X627380Y12700D03*
X652780Y12700D03*
X678180Y12700D03*
D12*
X518287Y228600D03*
X507873Y228600D03*
D13*
X393700Y7620D03*
X759460Y297180D03*
D14*
X741680Y25400D03*
X411480Y25400D03*
X411480Y279400D03*
X741680Y279400D03*
D15*
X730250Y177800D03*
X730250Y127000D03*
D10*
X398780Y241300D03*
X398780Y215900D03*
X398780Y190500D03*
X398780Y165100D03*
X398780Y139700D03*
X398780Y114300D03*
X398780Y88900D03*
X398780Y63500D03*
D11*
X652780Y45720D03*
X652780Y55880D03*
D10*
X652780Y38100D03*
X652780Y63500D03*
X1000760Y292100D03*
X975360Y292100D03*
X949960Y292100D03*
X924560Y292100D03*
D11*
X924560Y84328D03*
X924560Y76200D03*
X924560Y68072D03*
D12*
X904367Y254000D03*
X893953Y254000D03*
D10*
X937260Y12700D03*
X962660Y12700D03*
X988060Y12700D03*
X1013460Y12700D03*
X1038860Y12700D03*
X1064260Y12700D03*
D12*
X904367Y228600D03*
X893953Y228600D03*
D13*
X779780Y7620D03*
X1145540Y297180D03*
D14*
X1127760Y25400D03*
X797560Y25400D03*
X797560Y279400D03*
X1127760Y279400D03*
D15*
X1116330Y177800D03*
X1116330Y127000D03*
D10*
X784860Y241300D03*
X784860Y215900D03*
X784860Y190500D03*
X784860Y165100D03*
X784860Y139700D03*
X784860Y114300D03*
X784860Y88900D03*
X784860Y63500D03*
D11*
X1038860Y45720D03*
X1038860Y55880D03*
D10*
X1038860Y38100D03*
X1038860Y63500D03*
X1386840Y292100D03*
X1361440Y292100D03*
X1336040Y292100D03*
X1310640Y292100D03*
D11*
X1310640Y84328D03*
X1310640Y76200D03*
X1310640Y68072D03*
D12*
X1290447Y254000D03*
X1280033Y254000D03*
D10*
X1323340Y12700D03*
X1348740Y12700D03*
X1374140Y12700D03*
X1399540Y12700D03*
X1424940Y12700D03*
X1450340Y12700D03*
D12*
X1290447Y228600D03*
X1280033Y228600D03*
D13*
X1165860Y7620D03*
X1531620Y297180D03*
D14*
X1513840Y25400D03*
X1183640Y25400D03*
X1183640Y279400D03*
X1513840Y279400D03*
D15*
X1502410Y177800D03*
X1502410Y127000D03*
D10*
X1170940Y241300D03*
X1170940Y215900D03*
X1170940Y190500D03*
X1170940Y165100D03*
X1170940Y139700D03*
X1170940Y114300D03*
X1170940Y88900D03*
X1170940Y63500D03*
D11*
X1424940Y45720D03*
X1424940Y55880D03*
D10*
X1424940Y38100D03*
X1424940Y63500D03*
X228600Y601980D03*
X203200Y601980D03*
X177800Y601980D03*
X152400Y601980D03*
D11*
X152400Y394208D03*
X152400Y386080D03*
X152400Y377952D03*
D12*
X132207Y563880D03*
X121793Y563880D03*
D10*
X165100Y322580D03*
X190500Y322580D03*
X215900Y322580D03*
X241300Y322580D03*
X266700Y322580D03*
X292100Y322580D03*
D12*
X132207Y538480D03*
X121793Y538480D03*
D13*
X7620Y317500D03*
X373380Y607060D03*
D14*
X355600Y335280D03*
X25400Y335280D03*
X25400Y589280D03*
X355600Y589280D03*
D15*
X344170Y487680D03*
X344170Y436880D03*
D10*
X12700Y551180D03*
X12700Y525780D03*
X12700Y500380D03*
X12700Y474980D03*
X12700Y449580D03*
X12700Y424180D03*
X12700Y398780D03*
X12700Y373380D03*
D11*
X266700Y355600D03*
X266700Y365760D03*
D10*
X266700Y347980D03*
X266700Y373380D03*
X614680Y601980D03*
X589280Y601980D03*
X563880Y601980D03*
X538480Y601980D03*
D11*
X538480Y394208D03*
X538480Y386080D03*
X538480Y377952D03*
D12*
X518287Y563880D03*
X507873Y563880D03*
D10*
X551180Y322580D03*
X576580Y322580D03*
X601980Y322580D03*
X627380Y322580D03*
X652780Y322580D03*
X678180Y322580D03*
D12*
X518287Y538480D03*
X507873Y538480D03*
D13*
X393700Y317500D03*
X759460Y607060D03*
D14*
X741680Y335280D03*
X411480Y335280D03*
X411480Y589280D03*
X741680Y589280D03*
D15*
X730250Y487680D03*
X730250Y436880D03*
D10*
X398780Y551180D03*
X398780Y525780D03*
X398780Y500380D03*
X398780Y474980D03*
X398780Y449580D03*
X398780Y424180D03*
X398780Y398780D03*
X398780Y373380D03*
D11*
X652780Y355600D03*
X652780Y365760D03*
D10*
X652780Y347980D03*
X652780Y373380D03*
X1000760Y601980D03*
X975360Y601980D03*
X949960Y601980D03*
X924560Y601980D03*
D11*
X924560Y394208D03*
X924560Y386080D03*
X924560Y377952D03*
D12*
X904367Y563880D03*
X893953Y563880D03*
D10*
X937260Y322580D03*
X962660Y322580D03*
X988060Y322580D03*
X1013460Y322580D03*
X1038860Y322580D03*
X1064260Y322580D03*
D12*
X904367Y538480D03*
X893953Y538480D03*
D13*
X779780Y317500D03*
X1145540Y607060D03*
D14*
X1127760Y335280D03*
X797560Y335280D03*
X797560Y589280D03*
X1127760Y589280D03*
D15*
X1116330Y487680D03*
X1116330Y436880D03*
D10*
X784860Y551180D03*
X784860Y525780D03*
X784860Y500380D03*
X784860Y474980D03*
X784860Y449580D03*
X784860Y424180D03*
X784860Y398780D03*
X784860Y373380D03*
D11*
X1038860Y355600D03*
X1038860Y365760D03*
D10*
X1038860Y347980D03*
X1038860Y373380D03*
X1386840Y601980D03*
X1361440Y601980D03*
X1336040Y601980D03*
X1310640Y601980D03*
D11*
X1310640Y394208D03*
X1310640Y386080D03*
X1310640Y377952D03*
D12*
X1290447Y563880D03*
X1280033Y563880D03*
D10*
X1323340Y322580D03*
X1348740Y322580D03*
X1374140Y322580D03*
X1399540Y322580D03*
X1424940Y322580D03*
X1450340Y322580D03*
D12*
X1290447Y538480D03*
X1280033Y538480D03*
D13*
X1165860Y317500D03*
X1531620Y607060D03*
D14*
X1513840Y335280D03*
X1183640Y335280D03*
X1183640Y589280D03*
X1513840Y589280D03*
D15*
X1502410Y487680D03*
X1502410Y436880D03*
D10*
X1170940Y551180D03*
X1170940Y525780D03*
X1170940Y500380D03*
X1170940Y474980D03*
X1170940Y449580D03*
X1170940Y424180D03*
X1170940Y398780D03*
X1170940Y373380D03*
D11*
X1424940Y355600D03*
X1424940Y365760D03*
D10*
X1424940Y347980D03*
X1424940Y373380D03*
X228600Y911860D03*
X203200Y911860D03*
X177800Y911860D03*
X152400Y911860D03*
D11*
X152400Y704088D03*
X152400Y695960D03*
X152400Y687832D03*
D12*
X132207Y873760D03*
X121793Y873760D03*
D10*
X165100Y632460D03*
X190500Y632460D03*
X215900Y632460D03*
X241300Y632460D03*
X266700Y632460D03*
X292100Y632460D03*
D12*
X132207Y848360D03*
X121793Y848360D03*
D13*
X7620Y627380D03*
X373380Y916940D03*
D14*
X355600Y645160D03*
X25400Y645160D03*
X25400Y899160D03*
X355600Y899160D03*
D15*
X344170Y797560D03*
X344170Y746760D03*
D10*
X12700Y861060D03*
X12700Y835660D03*
X12700Y810260D03*
X12700Y784860D03*
X12700Y759460D03*
X12700Y734060D03*
X12700Y708660D03*
X12700Y683260D03*
D11*
X266700Y665480D03*
X266700Y675640D03*
D10*
X266700Y657860D03*
X266700Y683260D03*
X614680Y911860D03*
X589280Y911860D03*
X563880Y911860D03*
X538480Y911860D03*
D11*
X538480Y704088D03*
X538480Y695960D03*
X538480Y687832D03*
D12*
X518287Y873760D03*
X507873Y873760D03*
D10*
X551180Y632460D03*
X576580Y632460D03*
X601980Y632460D03*
X627380Y632460D03*
X652780Y632460D03*
X678180Y632460D03*
D12*
X518287Y848360D03*
X507873Y848360D03*
D13*
X393700Y627380D03*
X759460Y916940D03*
D14*
X741680Y645160D03*
X411480Y645160D03*
X411480Y899160D03*
X741680Y899160D03*
D15*
X730250Y797560D03*
X730250Y746760D03*
D10*
X398780Y861060D03*
X398780Y835660D03*
X398780Y810260D03*
X398780Y784860D03*
X398780Y759460D03*
X398780Y734060D03*
X398780Y708660D03*
X398780Y683260D03*
D11*
X652780Y665480D03*
X652780Y675640D03*
D10*
X652780Y657860D03*
X652780Y683260D03*
X1000760Y911860D03*
X975360Y911860D03*
X949960Y911860D03*
X924560Y911860D03*
D11*
X924560Y704088D03*
X924560Y695960D03*
X924560Y687832D03*
D12*
X904367Y873760D03*
X893953Y873760D03*
D10*
X937260Y632460D03*
X962660Y632460D03*
X988060Y632460D03*
X1013460Y632460D03*
X1038860Y632460D03*
X1064260Y632460D03*
D12*
X904367Y848360D03*
X893953Y848360D03*
D13*
X779780Y627380D03*
X1145540Y916940D03*
D14*
X1127760Y645160D03*
X797560Y645160D03*
X797560Y899160D03*
X1127760Y899160D03*
D15*
X1116330Y797560D03*
X1116330Y746760D03*
D10*
X784860Y861060D03*
X784860Y835660D03*
X784860Y810260D03*
X784860Y784860D03*
X784860Y759460D03*
X784860Y734060D03*
X784860Y708660D03*
X784860Y683260D03*
D11*
X1038860Y665480D03*
X1038860Y675640D03*
D10*
X1038860Y657860D03*
X1038860Y683260D03*
X1386840Y911860D03*
X1361440Y911860D03*
X1336040Y911860D03*
X1310640Y911860D03*
D11*
X1310640Y704088D03*
X1310640Y695960D03*
X1310640Y687832D03*
D12*
X1290447Y873760D03*
X1280033Y873760D03*
D10*
X1323340Y632460D03*
X1348740Y632460D03*
X1374140Y632460D03*
X1399540Y632460D03*
X1424940Y632460D03*
X1450340Y632460D03*
D12*
X1290447Y848360D03*
X1280033Y848360D03*
D13*
X1165860Y627380D03*
X1531620Y916940D03*
D14*
X1513840Y645160D03*
X1183640Y645160D03*
X1183640Y899160D03*
X1513840Y899160D03*
D15*
X1502410Y797560D03*
X1502410Y746760D03*
D10*
X1170940Y861060D03*
X1170940Y835660D03*
X1170940Y810260D03*
X1170940Y784860D03*
X1170940Y759460D03*
X1170940Y734060D03*
X1170940Y708660D03*
X1170940Y683260D03*
D11*
X1424940Y665480D03*
X1424940Y675640D03*
D10*
X1424940Y657860D03*
X1424940Y683260D03*
X228600Y1221740D03*
X203200Y1221740D03*
X177800Y1221740D03*
X152400Y1221740D03*
D11*
X152400Y1013968D03*
X152400Y1005840D03*
X152400Y997712D03*
D12*
X132207Y1183640D03*
X121793Y1183640D03*
D10*
X165100Y942340D03*
X190500Y942340D03*
X215900Y942340D03*
X241300Y942340D03*
X266700Y942340D03*
X292100Y942340D03*
D12*
X132207Y1158240D03*
X121793Y1158240D03*
D13*
X7620Y937260D03*
X373380Y1226820D03*
D14*
X355600Y955040D03*
X25400Y955040D03*
X25400Y1209040D03*
X355600Y1209040D03*
D15*
X344170Y1107440D03*
X344170Y1056640D03*
D10*
X12700Y1170940D03*
X12700Y1145540D03*
X12700Y1120140D03*
X12700Y1094740D03*
X12700Y1069340D03*
X12700Y1043940D03*
X12700Y1018540D03*
X12700Y993140D03*
D11*
X266700Y975360D03*
X266700Y985520D03*
D10*
X266700Y967740D03*
X266700Y993140D03*
X614680Y1221740D03*
X589280Y1221740D03*
X563880Y1221740D03*
X538480Y1221740D03*
D11*
X538480Y1013968D03*
X538480Y1005840D03*
X538480Y997712D03*
D12*
X518287Y1183640D03*
X507873Y1183640D03*
D10*
X551180Y942340D03*
X576580Y942340D03*
X601980Y942340D03*
X627380Y942340D03*
X652780Y942340D03*
X678180Y942340D03*
D12*
X518287Y1158240D03*
X507873Y1158240D03*
D13*
X393700Y937260D03*
X759460Y1226820D03*
D14*
X741680Y955040D03*
X411480Y955040D03*
X411480Y1209040D03*
X741680Y1209040D03*
D15*
X730250Y1107440D03*
X730250Y1056640D03*
D10*
X398780Y1170940D03*
X398780Y1145540D03*
X398780Y1120140D03*
X398780Y1094740D03*
X398780Y1069340D03*
X398780Y1043940D03*
X398780Y1018540D03*
X398780Y993140D03*
D11*
X652780Y975360D03*
X652780Y985520D03*
D10*
X652780Y967740D03*
X652780Y993140D03*
X1000760Y1221740D03*
X975360Y1221740D03*
X949960Y1221740D03*
X924560Y1221740D03*
D11*
X924560Y1013968D03*
X924560Y1005840D03*
X924560Y997712D03*
D12*
X904367Y1183640D03*
X893953Y1183640D03*
D10*
X937260Y942340D03*
X962660Y942340D03*
X988060Y942340D03*
X1013460Y942340D03*
X1038860Y942340D03*
X1064260Y942340D03*
D12*
X904367Y1158240D03*
X893953Y1158240D03*
D13*
X779780Y937260D03*
X1145540Y1226820D03*
D14*
X1127760Y955040D03*
X797560Y955040D03*
X797560Y1209040D03*
X1127760Y1209040D03*
D15*
X1116330Y1107440D03*
X1116330Y1056640D03*
D10*
X784860Y1170940D03*
X784860Y1145540D03*
X784860Y1120140D03*
X784860Y1094740D03*
X784860Y1069340D03*
X784860Y1043940D03*
X784860Y1018540D03*
X784860Y993140D03*
D11*
X1038860Y975360D03*
X1038860Y985520D03*
D10*
X1038860Y967740D03*
X1038860Y993140D03*
X1386840Y1221740D03*
X1361440Y1221740D03*
X1336040Y1221740D03*
X1310640Y1221740D03*
D11*
X1310640Y1013968D03*
X1310640Y1005840D03*
X1310640Y997712D03*
D12*
X1290447Y1183640D03*
X1280033Y1183640D03*
D10*
X1323340Y942340D03*
X1348740Y942340D03*
X1374140Y942340D03*
X1399540Y942340D03*
X1424940Y942340D03*
X1450340Y942340D03*
D12*
X1290447Y1158240D03*
X1280033Y1158240D03*
D13*
X1165860Y937260D03*
X1531620Y1226820D03*
D14*
X1513840Y955040D03*
X1183640Y955040D03*
X1183640Y1209040D03*
X1513840Y1209040D03*
D15*
X1502410Y1107440D03*
X1502410Y1056640D03*
D10*
X1170940Y1170940D03*
X1170940Y1145540D03*
X1170940Y1120140D03*
X1170940Y1094740D03*
X1170940Y1069340D03*
X1170940Y1043940D03*
X1170940Y1018540D03*
X1170940Y993140D03*
D11*
X1424940Y975360D03*
X1424940Y985520D03*
D10*
X1424940Y967740D03*
X1424940Y993140D03*
D16*
X-26238Y1207770D03*
X1565478Y1207770D03*
D17*
X-35293Y63500D02*
X-35290Y63722D01*
X-35282Y63944D01*
X-35268Y64166D01*
X-35249Y64388D01*
X-35225Y64608D01*
X-35195Y64829D01*
X-35160Y65048D01*
X-35119Y65267D01*
X-35073Y65484D01*
X-35022Y65700D01*
X-34965Y65915D01*
X-34903Y66129D01*
X-34836Y66340D01*
X-34764Y66551D01*
X-34686Y66759D01*
X-34604Y66965D01*
X-34516Y67169D01*
X-34424Y67372D01*
X-34326Y67571D01*
X-34224Y67768D01*
X-34117Y67963D01*
X-34005Y68155D01*
X-33888Y68344D01*
X-33767Y68531D01*
X-33641Y68714D01*
X-33511Y68894D01*
X-33376Y69071D01*
X-33238Y69244D01*
X-33095Y69414D01*
X-32947Y69581D01*
X-32796Y69744D01*
X-32641Y69903D01*
X-32482Y70058D01*
X-32319Y70209D01*
X-32152Y70357D01*
X-31982Y70500D01*
X-31809Y70638D01*
X-31632Y70773D01*
X-31452Y70903D01*
X-31269Y71029D01*
X-31082Y71150D01*
X-30893Y71267D01*
X-30701Y71379D01*
X-30506Y71486D01*
X-30309Y71588D01*
X-30110Y71686D01*
X-29907Y71778D01*
X-29703Y71866D01*
X-29497Y71948D01*
X-29289Y72026D01*
X-29078Y72098D01*
X-28867Y72165D01*
X-28653Y72227D01*
X-28438Y72284D01*
X-28222Y72335D01*
X-28005Y72381D01*
X-27786Y72422D01*
X-27567Y72457D01*
X-27346Y72487D01*
X-27126Y72511D01*
X-26904Y72530D01*
X-26682Y72544D01*
X-26460Y72552D01*
X-26238Y72555D01*
X-26016Y72552D01*
X-25794Y72544D01*
X-25572Y72530D01*
X-25350Y72511D01*
X-25130Y72487D01*
X-24909Y72457D01*
X-24690Y72422D01*
X-24471Y72381D01*
X-24254Y72335D01*
X-24038Y72284D01*
X-23823Y72227D01*
X-23609Y72165D01*
X-23398Y72098D01*
X-23187Y72026D01*
X-22979Y71948D01*
X-22773Y71866D01*
X-22569Y71778D01*
X-22366Y71686D01*
X-22167Y71588D01*
X-21970Y71486D01*
X-21775Y71379D01*
X-21583Y71267D01*
X-21394Y71150D01*
X-21207Y71029D01*
X-21024Y70903D01*
X-20844Y70773D01*
X-20667Y70638D01*
X-20494Y70500D01*
X-20324Y70357D01*
X-20157Y70209D01*
X-19994Y70058D01*
X-19835Y69903D01*
X-19680Y69744D01*
X-19529Y69581D01*
X-19381Y69414D01*
X-19238Y69244D01*
X-19100Y69071D01*
X-18965Y68894D01*
X-18835Y68714D01*
X-18709Y68531D01*
X-18588Y68344D01*
X-18471Y68155D01*
X-18359Y67963D01*
X-18252Y67768D01*
X-18150Y67571D01*
X-18052Y67372D01*
X-17960Y67169D01*
X-17872Y66965D01*
X-17790Y66759D01*
X-17712Y66551D01*
X-17640Y66340D01*
X-17573Y66129D01*
X-17511Y65915D01*
X-17454Y65700D01*
X-17403Y65484D01*
X-17357Y65267D01*
X-17316Y65048D01*
X-17281Y64829D01*
X-17251Y64608D01*
X-17227Y64388D01*
X-17208Y64166D01*
X-17194Y63944D01*
X-17186Y63722D01*
X-17183Y63500D01*
X-17186Y63278D01*
X-17194Y63056D01*
X-17208Y62834D01*
X-17227Y62612D01*
X-17251Y62392D01*
X-17281Y62171D01*
X-17316Y61952D01*
X-17357Y61733D01*
X-17403Y61516D01*
X-17454Y61300D01*
X-17511Y61085D01*
X-17573Y60871D01*
X-17640Y60660D01*
X-17712Y60449D01*
X-17790Y60241D01*
X-17872Y60035D01*
X-17960Y59831D01*
X-18052Y59628D01*
X-18150Y59429D01*
X-18252Y59232D01*
X-18359Y59037D01*
X-18471Y58845D01*
X-18588Y58656D01*
X-18709Y58469D01*
X-18835Y58286D01*
X-18965Y58106D01*
X-19100Y57929D01*
X-19238Y57756D01*
X-19381Y57586D01*
X-19529Y57419D01*
X-19680Y57256D01*
X-19835Y57097D01*
X-19994Y56942D01*
X-20157Y56791D01*
X-20324Y56643D01*
X-20494Y56500D01*
X-20667Y56362D01*
X-20844Y56227D01*
X-21024Y56097D01*
X-21207Y55971D01*
X-21394Y55850D01*
X-21583Y55733D01*
X-21775Y55621D01*
X-21970Y55514D01*
X-22167Y55412D01*
X-22366Y55314D01*
X-22569Y55222D01*
X-22773Y55134D01*
X-22979Y55052D01*
X-23187Y54974D01*
X-23398Y54902D01*
X-23609Y54835D01*
X-23823Y54773D01*
X-24038Y54716D01*
X-24254Y54665D01*
X-24471Y54619D01*
X-24690Y54578D01*
X-24909Y54543D01*
X-25130Y54513D01*
X-25350Y54489D01*
X-25572Y54470D01*
X-25794Y54456D01*
X-26016Y54448D01*
X-26238Y54445D01*
X-26460Y54448D01*
X-26682Y54456D01*
X-26904Y54470D01*
X-27126Y54489D01*
X-27346Y54513D01*
X-27567Y54543D01*
X-27786Y54578D01*
X-28005Y54619D01*
X-28222Y54665D01*
X-28438Y54716D01*
X-28653Y54773D01*
X-28867Y54835D01*
X-29078Y54902D01*
X-29289Y54974D01*
X-29497Y55052D01*
X-29703Y55134D01*
X-29907Y55222D01*
X-30110Y55314D01*
X-30309Y55412D01*
X-30506Y55514D01*
X-30701Y55621D01*
X-30893Y55733D01*
X-31082Y55850D01*
X-31269Y55971D01*
X-31452Y56097D01*
X-31632Y56227D01*
X-31809Y56362D01*
X-31982Y56500D01*
X-32152Y56643D01*
X-32319Y56791D01*
X-32482Y56942D01*
X-32641Y57097D01*
X-32796Y57256D01*
X-32947Y57419D01*
X-33095Y57586D01*
X-33238Y57756D01*
X-33376Y57929D01*
X-33511Y58106D01*
X-33641Y58286D01*
X-33767Y58469D01*
X-33888Y58656D01*
X-34005Y58845D01*
X-34117Y59037D01*
X-34224Y59232D01*
X-34326Y59429D01*
X-34424Y59628D01*
X-34516Y59831D01*
X-34604Y60035D01*
X-34686Y60241D01*
X-34764Y60449D01*
X-34836Y60660D01*
X-34903Y60871D01*
X-34965Y61085D01*
X-35022Y61300D01*
X-35073Y61516D01*
X-35119Y61733D01*
X-35160Y61952D01*
X-35195Y62171D01*
X-35225Y62392D01*
X-35249Y62612D01*
X-35268Y62834D01*
X-35282Y63056D01*
X-35290Y63278D01*
X-35293Y63500D01*
D18*
X-26238Y63500D03*
M02*
