M48
;GenerationSoftware,Autodesk,EAGLE,9.6.2*%
;CreationDate,2021-03-10T21:35:45Z*%
FMAT,2
ICI,OFF
METRIC,TZ,000.000
T3C0.305
T2C1.016
T1C3.302
%
G90
M71
T1
X35560Y64516
X46990Y89916
X35560Y2540
X2540Y2540
X2540Y27940
X35560Y27940
X80010Y2540
X46990Y2540
X46990Y27940
X80010Y27940
X35560Y33528
X2540Y33528
X2540Y58928
X35560Y58928
X80010Y33528
X46990Y33528
X46990Y58928
X80010Y58928
X80010Y89916
X2540Y64516
X2540Y89916
X35560Y89916
X80010Y64516
X46990Y64516
T2
X15240Y60198
X71120Y68326
X22860Y29210
X20320Y29210
X17780Y29210
X15240Y29210
X16510Y1270
X19050Y1270
X21590Y1270
X24130Y1270
X26670Y1270
X29210Y1270
X1270Y24130
X1270Y21590
X1270Y19050
X1270Y16510
X1270Y13970
X1270Y11430
X1270Y8890
X1270Y6350
X26670Y3810
X26670Y6350
X67310Y29210
X64770Y29210
X62230Y29210
X59690Y29210
X60960Y1270
X63500Y1270
X66040Y1270
X68580Y1270
X71120Y1270
X73660Y1270
X45720Y24130
X45720Y21590
X45720Y19050
X45720Y16510
X45720Y13970
X45720Y11430
X45720Y8890
X45720Y6350
X71120Y3810
X71120Y6350
X22860Y60198
X20320Y60198
X17780Y60198
X16510Y32258
X19050Y32258
X21590Y32258
X24130Y32258
X26670Y32258
X29210Y32258
X1270Y55118
X1270Y52578
X1270Y50038
X1270Y47498
X1270Y44958
X1270Y42418
X1270Y39878
X1270Y37338
X26670Y34798
X26670Y37338
X67310Y60198
X64770Y60198
X62230Y60198
X59690Y60198
X60960Y32258
X63500Y32258
X66040Y32258
X68580Y32258
X71120Y32258
X73660Y32258
X45720Y55118
X45720Y52578
X45720Y50038
X45720Y47498
X45720Y44958
X45720Y42418
X45720Y39878
X45720Y37338
X71120Y34798
X71120Y37338
X22860Y91186
X20320Y91186
X17780Y91186
X15240Y91186
X16510Y63246
X19050Y63246
X21590Y63246
X24130Y63246
X26670Y63246
X29210Y63246
X1270Y86106
X1270Y83566
X1270Y81026
X1270Y78486
X1270Y75946
X1270Y73406
X1270Y70866
X1270Y68326
X26670Y65786
X26670Y68326
X67310Y91186
X64770Y91186
X62230Y91186
X59690Y91186
X60960Y63246
X63500Y63246
X66040Y63246
X68580Y63246
X71120Y63246
X73660Y63246
X45720Y86106
X45720Y83566
X45720Y81026
X45720Y78486
X45720Y75946
X45720Y73406
X45720Y70866
X45720Y68326
X71120Y65786
T3
X53848Y13970
X53848Y15748
X55880Y23876
X58166Y9525
X58293Y6858
X58928Y25400
X68580Y24130
X53848Y17780
X48006Y7493
X53848Y19685
X50800Y5080
X58928Y22860
X10660Y53713
X8679Y44026
X8636Y38608
X24892Y41783
X26035Y41783
X27178Y41783
X28321Y41783
X24257Y40513
X25400Y40513
X26543Y40513
X27686Y40513
X23114Y40513
X28829Y40513
X29972Y40513
X31115Y40513
X32258Y40513
X29464Y41783
X30480Y41783
X8636Y54483
X14478Y55118
X8636Y34417
X13462Y50546
X14605Y51943
X29591Y43053
X29464Y48514
X29718Y44704
X28702Y47371
X30607Y45212
X30226Y47371
X33401Y40513
X34544Y40513
X35687Y40513
X36830Y40513
X32258Y51943
X31750Y53213
X32893Y53213
X34036Y53213
X33401Y51943
X34544Y51943
X35687Y51943
X36830Y51943
X35179Y53213
X36322Y53213
X37465Y53213
X21209Y55118
X29718Y49657
X30353Y50546
X31115Y51943
X29083Y50673
X29845Y51943
X16002Y50673
X21971Y41783
X22098Y44069
X27686Y46736
X26797Y45847
X27305Y43053
X28448Y44069
X6350Y51689
X28702Y58039
X3137Y51435
X8763Y58039
X29845Y58801
X2299Y51308
X6350Y43688
X13462Y45085
X6384Y45910
X9398Y44958
X9398Y46736
X11430Y54864
X13716Y40513
X13843Y37846
X14478Y56388
X24130Y55118
X9398Y48768
X3556Y38481
X9398Y50673
X6350Y36068
X14478Y53848
X55110Y53713
X53129Y44026
X53086Y38608
X69342Y41783
X70485Y41783
X71628Y41783
X72771Y41783
X68707Y40513
X69850Y40513
X70993Y40513
X72136Y40513
X67564Y40513
X73279Y40513
X74422Y40513
X75565Y40513
X76708Y40513
X73914Y41783
X74930Y41783
X53086Y54483
X58928Y55118
X53086Y34417
X57912Y50546
X59055Y51943
X74041Y43053
X73914Y48514
X74168Y44704
X73152Y47371
X75057Y45212
X74676Y47371
X77851Y40513
X78994Y40513
X80137Y40513
X81280Y40513
X76708Y51943
X76200Y53213
X77343Y53213
X78486Y53213
X77851Y51943
X78994Y51943
X80137Y51943
X81280Y51943
X79629Y53213
X80772Y53213
X81915Y53213
X65659Y55118
X74168Y49657
X74803Y50546
X75565Y51943
X73533Y50673
X74295Y51943
X60452Y50673
X66421Y41783
X66548Y44069
X72136Y46736
X71247Y45847
X71755Y43053
X72898Y44069
X50800Y51689
X73152Y58039
X47587Y51435
X53213Y58039
X74295Y58801
X46749Y51308
X50800Y43688
X57912Y45085
X50834Y45910
X53848Y44958
X53848Y46736
X55880Y54864
X58166Y40513
X58293Y37846
X58928Y56388
X6350Y5080
X53848Y48768
X48006Y38481
X53848Y50673
X50800Y36068
X58928Y53848
X10660Y84701
X8679Y75014
X8636Y69596
X24892Y72771
X26035Y72771
X27178Y72771
X28321Y72771
X24257Y71501
X25400Y71501
X26543Y71501
X27686Y71501
X23114Y71501
X28829Y71501
X29972Y71501
X31115Y71501
X32258Y71501
X29464Y72771
X30480Y72771
X8636Y85471
X14478Y86106
X8636Y65405
X13462Y81534
X14605Y82931
X29591Y74041
X29464Y79502
X29718Y75692
X28702Y78359
X30607Y76200
X30226Y78359
X33401Y71501
X34544Y71501
X35687Y71501
X36830Y71501
X32258Y82931
X31750Y84201
X32893Y84201
X34036Y84201
X33401Y82931
X34544Y82931
X35687Y82931
X36830Y82931
X35179Y84201
X36322Y84201
X37465Y84201
X21209Y86106
X29718Y80645
X30353Y81534
X31115Y82931
X29083Y81661
X29845Y82931
X16002Y81661
X21971Y72771
X22098Y75057
X27686Y77724
X26797Y76835
X27305Y74041
X28448Y75057
X6350Y82677
X28702Y89027
X3137Y82423
X8763Y89027
X29845Y89789
X2299Y82296
X6350Y74676
X13462Y76073
X6384Y76899
X9398Y75946
X9398Y77724
X11430Y85852
X13716Y71501
X13843Y68834
X14478Y87376
X24130Y86106
X9398Y79756
X3556Y69469
X9398Y81661
X6350Y67056
X14478Y84836
X55110Y84701
X53129Y75014
X53086Y69596
X69342Y72771
X70485Y72771
X71628Y72771
X72771Y72771
X68707Y71501
X69850Y71501
X70993Y71501
X72136Y71501
X67564Y71501
X73279Y71501
X74422Y71501
X75565Y71501
X76708Y71501
X73914Y72771
X74930Y72771
X53086Y85471
X58928Y86106
X53086Y65405
X57912Y81534
X59055Y82931
X74041Y74041
X73914Y79502
X74168Y75692
X73152Y78359
X75057Y76200
X74676Y78359
X77851Y71501
X78994Y71501
X80137Y71501
X81280Y71501
X76708Y82931
X76200Y84201
X77343Y84201
X78486Y84201
X77851Y82931
X78994Y82931
X80137Y82931
X81280Y82931
X79629Y84201
X80772Y84201
X81915Y84201
X65659Y86106
X74168Y80645
X74803Y81534
X75565Y82931
X73533Y81661
X74295Y82931
X60452Y81661
X66421Y72771
X66548Y75057
X72136Y77724
X71247Y76835
X71755Y74041
X72898Y75057
X50800Y82677
X73152Y89027
X47587Y82423
X53213Y89027
X74295Y89789
X46749Y82296
X50800Y74676
X57912Y76073
X50834Y76899
X53848Y75946
X53848Y77724
X55880Y85852
X10660Y22725
X58293Y68834
X58928Y87376
X68580Y86106
X53848Y79756
X48006Y69469
X53848Y81661
X50800Y67056
X58928Y84836
X8679Y13038
X8636Y7620
X24892Y10795
X26035Y10795
X27178Y10795
X28321Y10795
X24257Y9525
X25400Y9525
X26543Y9525
X27686Y9525
X23114Y9525
X28829Y9525
X29972Y9525
X31115Y9525
X32258Y9525
X29464Y10795
X30480Y10795
X8636Y23495
X14478Y24130
X8636Y3429
X13462Y19558
X14605Y20955
X29591Y12065
X29464Y17526
X29718Y13716
X28702Y16383
X30607Y14224
X30226Y16383
X33401Y9525
X34544Y9525
X35687Y9525
X36830Y9525
X32258Y20955
X31750Y22225
X32893Y22225
X34036Y22225
X33401Y20955
X34544Y20955
X35687Y20955
X36830Y20955
X35179Y22225
X36322Y22225
X37465Y22225
X21209Y24130
X29718Y18669
X30353Y19558
X31115Y20955
X29083Y19685
X29845Y20955
X16002Y19685
X21971Y10795
X22098Y13081
X27686Y15748
X26797Y14859
X27305Y12065
X28448Y13081
X6350Y20701
X28702Y27051
X3137Y20447
X8763Y27051
X29845Y27813
X2299Y20320
X6350Y12700
X13462Y14097
X6384Y14922
X9398Y13970
X9398Y15748
X68580Y55118
X11430Y23876
X13716Y9525
X13843Y6858
X14478Y25400
X24130Y24130
X9398Y17780
X3556Y7493
X9398Y19685
X14478Y22860
X55110Y22725
X53129Y13038
X53086Y7620
X69342Y10795
X70485Y10795
X71628Y10795
X72771Y10795
X68707Y9525
X69850Y9525
X70993Y9525
X72136Y9525
X67564Y9525
X73279Y9525
X74422Y9525
X75565Y9525
X76708Y9525
X73914Y10795
X74930Y10795
X53086Y23495
X58928Y24130
X53086Y3429
X57912Y19558
X59055Y20955
X74041Y12065
X73914Y17526
X74168Y13716
X73152Y16383
X75057Y14224
X74676Y16383
X77851Y9525
X78994Y9525
X80137Y9525
X81280Y9525
X76708Y20955
X76200Y22225
X77343Y22225
X78486Y22225
X77851Y20955
X78994Y20955
X80137Y20955
X81280Y20955
X79629Y22225
X80772Y22225
X81915Y22225
X65659Y24130
X74168Y18669
X74803Y19558
X75565Y20955
X73533Y19685
X74295Y20955
X60452Y19685
X66421Y10795
X66548Y13081
X72136Y15748
X71247Y14859
X71755Y12065
X72898Y13081
X50800Y20701
X73152Y27051
X47587Y20447
X53213Y27051
X74295Y27813
X46749Y20320
X50800Y12700
X57912Y14097
X50834Y14922
X58166Y71501
M30