G04 EAGLE Gerber RS-274X export*
G75*
%MOMM*%
%FSLAX34Y34*%
%LPD*%
%INSolderpaste Top*%
%IPPOS*%
%AMOC8*
5,1,8,0,0,1.08239X$1,22.5*%
G01*
%ADD10R,1.200000X2.000000*%
%ADD11R,0.600000X1.350000*%
%ADD12R,1.100000X1.000000*%
%ADD13R,4.200000X1.700000*%
%ADD14C,0.300000*%
%ADD15R,0.630000X0.830000*%
%ADD16R,1.000000X1.100000*%
%ADD17R,0.600000X0.600000*%
%ADD18R,1.300000X0.800000*%
%ADD19R,1.300000X0.900000*%
%ADD20R,2.400000X1.100000*%
%ADD21R,7.000000X1.250000*%

G36*
X505242Y808623D02*
X505242Y808623D01*
X505286Y808626D01*
X505308Y808642D01*
X505334Y808650D01*
X505363Y808683D01*
X505398Y808709D01*
X505408Y808735D01*
X505426Y808755D01*
X505433Y808799D01*
X505448Y808839D01*
X505443Y808866D01*
X505447Y808893D01*
X505429Y808934D01*
X505420Y808976D01*
X505394Y809012D01*
X505390Y809021D01*
X505385Y809025D01*
X505376Y809036D01*
X481376Y833036D01*
X481338Y833057D01*
X481305Y833086D01*
X481278Y833090D01*
X481254Y833103D01*
X481210Y833100D01*
X481167Y833107D01*
X481142Y833096D01*
X481114Y833094D01*
X481079Y833068D01*
X481039Y833050D01*
X481024Y833027D01*
X481002Y833011D01*
X480986Y832970D01*
X480962Y832934D01*
X480955Y832890D01*
X480952Y832881D01*
X480953Y832874D01*
X480951Y832860D01*
X480951Y808860D01*
X480956Y808844D01*
X480953Y808827D01*
X480975Y808777D01*
X480990Y808726D01*
X481003Y808715D01*
X481010Y808699D01*
X481055Y808669D01*
X481095Y808634D01*
X481112Y808631D01*
X481127Y808622D01*
X481200Y808611D01*
X505200Y808611D01*
X505242Y808623D01*
G37*
G36*
X60742Y808623D02*
X60742Y808623D01*
X60786Y808626D01*
X60808Y808642D01*
X60834Y808650D01*
X60863Y808683D01*
X60898Y808709D01*
X60908Y808735D01*
X60926Y808755D01*
X60933Y808799D01*
X60948Y808839D01*
X60943Y808866D01*
X60947Y808893D01*
X60929Y808934D01*
X60920Y808976D01*
X60894Y809012D01*
X60890Y809021D01*
X60885Y809025D01*
X60876Y809036D01*
X36876Y833036D01*
X36838Y833057D01*
X36805Y833086D01*
X36778Y833090D01*
X36754Y833103D01*
X36710Y833100D01*
X36667Y833107D01*
X36642Y833096D01*
X36614Y833094D01*
X36579Y833068D01*
X36539Y833050D01*
X36524Y833027D01*
X36502Y833011D01*
X36486Y832970D01*
X36462Y832934D01*
X36455Y832890D01*
X36452Y832881D01*
X36453Y832874D01*
X36451Y832860D01*
X36451Y808860D01*
X36456Y808844D01*
X36453Y808827D01*
X36475Y808777D01*
X36490Y808726D01*
X36503Y808715D01*
X36510Y808699D01*
X36555Y808669D01*
X36595Y808634D01*
X36612Y808631D01*
X36627Y808622D01*
X36700Y808611D01*
X60700Y808611D01*
X60742Y808623D01*
G37*
G36*
X505242Y498743D02*
X505242Y498743D01*
X505286Y498746D01*
X505308Y498762D01*
X505334Y498770D01*
X505363Y498803D01*
X505398Y498829D01*
X505408Y498855D01*
X505426Y498875D01*
X505433Y498919D01*
X505448Y498959D01*
X505443Y498986D01*
X505447Y499013D01*
X505429Y499054D01*
X505420Y499096D01*
X505394Y499132D01*
X505390Y499141D01*
X505385Y499145D01*
X505376Y499156D01*
X481376Y523156D01*
X481338Y523177D01*
X481305Y523206D01*
X481278Y523210D01*
X481254Y523223D01*
X481210Y523220D01*
X481167Y523227D01*
X481142Y523216D01*
X481114Y523214D01*
X481079Y523188D01*
X481039Y523170D01*
X481024Y523147D01*
X481002Y523131D01*
X480986Y523090D01*
X480962Y523054D01*
X480955Y523010D01*
X480952Y523001D01*
X480953Y522994D01*
X480951Y522980D01*
X480951Y498980D01*
X480956Y498964D01*
X480953Y498947D01*
X480975Y498897D01*
X480990Y498846D01*
X481003Y498835D01*
X481010Y498819D01*
X481055Y498789D01*
X481095Y498754D01*
X481112Y498751D01*
X481127Y498742D01*
X481200Y498731D01*
X505200Y498731D01*
X505242Y498743D01*
G37*
G36*
X60742Y498743D02*
X60742Y498743D01*
X60786Y498746D01*
X60808Y498762D01*
X60834Y498770D01*
X60863Y498803D01*
X60898Y498829D01*
X60908Y498855D01*
X60926Y498875D01*
X60933Y498919D01*
X60948Y498959D01*
X60943Y498986D01*
X60947Y499013D01*
X60929Y499054D01*
X60920Y499096D01*
X60894Y499132D01*
X60890Y499141D01*
X60885Y499145D01*
X60876Y499156D01*
X36876Y523156D01*
X36838Y523177D01*
X36805Y523206D01*
X36778Y523210D01*
X36754Y523223D01*
X36710Y523220D01*
X36667Y523227D01*
X36642Y523216D01*
X36614Y523214D01*
X36579Y523188D01*
X36539Y523170D01*
X36524Y523147D01*
X36502Y523131D01*
X36486Y523090D01*
X36462Y523054D01*
X36455Y523010D01*
X36452Y523001D01*
X36453Y522994D01*
X36451Y522980D01*
X36451Y498980D01*
X36456Y498964D01*
X36453Y498947D01*
X36475Y498897D01*
X36490Y498846D01*
X36503Y498835D01*
X36510Y498819D01*
X36555Y498789D01*
X36595Y498754D01*
X36612Y498751D01*
X36627Y498742D01*
X36700Y498731D01*
X60700Y498731D01*
X60742Y498743D01*
G37*
G36*
X505242Y188863D02*
X505242Y188863D01*
X505286Y188866D01*
X505308Y188882D01*
X505334Y188890D01*
X505363Y188923D01*
X505398Y188949D01*
X505408Y188975D01*
X505426Y188995D01*
X505433Y189039D01*
X505448Y189079D01*
X505443Y189106D01*
X505447Y189133D01*
X505429Y189174D01*
X505420Y189216D01*
X505394Y189252D01*
X505390Y189261D01*
X505385Y189265D01*
X505376Y189276D01*
X481376Y213276D01*
X481338Y213297D01*
X481305Y213326D01*
X481278Y213330D01*
X481254Y213343D01*
X481210Y213340D01*
X481167Y213347D01*
X481142Y213336D01*
X481114Y213334D01*
X481079Y213308D01*
X481039Y213290D01*
X481024Y213267D01*
X481002Y213251D01*
X480986Y213210D01*
X480962Y213174D01*
X480955Y213130D01*
X480952Y213121D01*
X480953Y213114D01*
X480951Y213100D01*
X480951Y189100D01*
X480956Y189084D01*
X480953Y189067D01*
X480975Y189017D01*
X480990Y188966D01*
X481003Y188955D01*
X481010Y188939D01*
X481055Y188909D01*
X481095Y188874D01*
X481112Y188871D01*
X481127Y188862D01*
X481200Y188851D01*
X505200Y188851D01*
X505242Y188863D01*
G37*
G36*
X60742Y188863D02*
X60742Y188863D01*
X60786Y188866D01*
X60808Y188882D01*
X60834Y188890D01*
X60863Y188923D01*
X60898Y188949D01*
X60908Y188975D01*
X60926Y188995D01*
X60933Y189039D01*
X60948Y189079D01*
X60943Y189106D01*
X60947Y189133D01*
X60929Y189174D01*
X60920Y189216D01*
X60894Y189252D01*
X60890Y189261D01*
X60885Y189265D01*
X60876Y189276D01*
X36876Y213276D01*
X36838Y213297D01*
X36805Y213326D01*
X36778Y213330D01*
X36754Y213343D01*
X36710Y213340D01*
X36667Y213347D01*
X36642Y213336D01*
X36614Y213334D01*
X36579Y213308D01*
X36539Y213290D01*
X36524Y213267D01*
X36502Y213251D01*
X36486Y213210D01*
X36462Y213174D01*
X36455Y213130D01*
X36452Y213121D01*
X36453Y213114D01*
X36451Y213100D01*
X36451Y189100D01*
X36456Y189084D01*
X36453Y189067D01*
X36475Y189017D01*
X36490Y188966D01*
X36503Y188955D01*
X36510Y188939D01*
X36555Y188909D01*
X36595Y188874D01*
X36612Y188871D01*
X36627Y188862D01*
X36700Y188851D01*
X60700Y188851D01*
X60742Y188863D01*
G37*
D10*
X73600Y14050D03*
X129600Y14050D03*
D11*
X86600Y50800D03*
X96600Y50800D03*
X106600Y50800D03*
X116600Y50800D03*
D10*
X129600Y290750D03*
X73600Y290750D03*
D11*
X116600Y254000D03*
X106600Y254000D03*
X96600Y254000D03*
X86600Y254000D03*
D12*
X122800Y196850D03*
X105800Y196850D03*
X122800Y177800D03*
X105800Y177800D03*
X55000Y139700D03*
X72000Y139700D03*
D13*
X57500Y234400D03*
D12*
X105800Y82550D03*
X122800Y82550D03*
X105800Y101600D03*
X122800Y101600D03*
D14*
X208470Y250500D02*
X208470Y257500D01*
X215470Y257500D01*
X215470Y250500D01*
X208470Y250500D01*
X208470Y253350D02*
X215470Y253350D01*
X215470Y256200D02*
X208470Y256200D01*
X190930Y257500D02*
X190930Y250500D01*
X190930Y257500D02*
X197930Y257500D01*
X197930Y250500D01*
X190930Y250500D01*
X190930Y253350D02*
X197930Y253350D01*
X197930Y256200D02*
X190930Y256200D01*
D15*
X52000Y177800D03*
X75000Y177800D03*
D12*
X55000Y158750D03*
X72000Y158750D03*
X173600Y254000D03*
X156600Y254000D03*
D16*
X304800Y232800D03*
X304800Y249800D03*
X285750Y232800D03*
X285750Y249800D03*
D14*
X208470Y232100D02*
X208470Y225100D01*
X208470Y232100D02*
X215470Y232100D01*
X215470Y225100D01*
X208470Y225100D01*
X208470Y227950D02*
X215470Y227950D01*
X215470Y230800D02*
X208470Y230800D01*
X190930Y232100D02*
X190930Y225100D01*
X190930Y232100D02*
X197930Y232100D01*
X197930Y225100D01*
X190930Y225100D01*
X190930Y227950D02*
X197930Y227950D01*
X197930Y230800D02*
X190930Y230800D01*
D12*
X173600Y228600D03*
X156600Y228600D03*
D17*
X246460Y140970D03*
X256460Y140970D03*
X256460Y152400D03*
X246460Y152400D03*
D12*
X122800Y139700D03*
X105800Y139700D03*
X122800Y120650D03*
X105800Y120650D03*
D16*
X266700Y232800D03*
X266700Y249800D03*
D12*
X122800Y157480D03*
X105800Y157480D03*
D18*
X146000Y196400D03*
D19*
X146000Y185400D03*
X146000Y174400D03*
X146000Y163400D03*
X146000Y152400D03*
X146000Y141400D03*
X146000Y130400D03*
X146000Y119400D03*
D18*
X146000Y108400D03*
X235000Y108400D03*
D19*
X235000Y119400D03*
X235000Y130400D03*
X235000Y141400D03*
X235000Y152400D03*
X235000Y163400D03*
X235000Y174400D03*
X235000Y185400D03*
D18*
X235000Y196400D03*
D17*
X250190Y120730D03*
X250190Y130730D03*
D20*
X299100Y152400D03*
D21*
X346000Y195450D03*
X346000Y109350D03*
D10*
X518100Y14050D03*
X574100Y14050D03*
D11*
X531100Y50800D03*
X541100Y50800D03*
X551100Y50800D03*
X561100Y50800D03*
D10*
X574100Y290750D03*
X518100Y290750D03*
D11*
X561100Y254000D03*
X551100Y254000D03*
X541100Y254000D03*
X531100Y254000D03*
D12*
X567300Y196850D03*
X550300Y196850D03*
X567300Y177800D03*
X550300Y177800D03*
X499500Y139700D03*
X516500Y139700D03*
D13*
X502000Y234400D03*
D12*
X550300Y82550D03*
X567300Y82550D03*
X550300Y101600D03*
X567300Y101600D03*
D14*
X652970Y250500D02*
X652970Y257500D01*
X659970Y257500D01*
X659970Y250500D01*
X652970Y250500D01*
X652970Y253350D02*
X659970Y253350D01*
X659970Y256200D02*
X652970Y256200D01*
X635430Y257500D02*
X635430Y250500D01*
X635430Y257500D02*
X642430Y257500D01*
X642430Y250500D01*
X635430Y250500D01*
X635430Y253350D02*
X642430Y253350D01*
X642430Y256200D02*
X635430Y256200D01*
D15*
X496500Y177800D03*
X519500Y177800D03*
D12*
X499500Y158750D03*
X516500Y158750D03*
X618100Y254000D03*
X601100Y254000D03*
D16*
X749300Y232800D03*
X749300Y249800D03*
X730250Y232800D03*
X730250Y249800D03*
D14*
X652970Y232100D02*
X652970Y225100D01*
X652970Y232100D02*
X659970Y232100D01*
X659970Y225100D01*
X652970Y225100D01*
X652970Y227950D02*
X659970Y227950D01*
X659970Y230800D02*
X652970Y230800D01*
X635430Y232100D02*
X635430Y225100D01*
X635430Y232100D02*
X642430Y232100D01*
X642430Y225100D01*
X635430Y225100D01*
X635430Y227950D02*
X642430Y227950D01*
X642430Y230800D02*
X635430Y230800D01*
D12*
X618100Y228600D03*
X601100Y228600D03*
D17*
X690960Y140970D03*
X700960Y140970D03*
X700960Y152400D03*
X690960Y152400D03*
D12*
X567300Y139700D03*
X550300Y139700D03*
X567300Y120650D03*
X550300Y120650D03*
D16*
X711200Y232800D03*
X711200Y249800D03*
D12*
X567300Y157480D03*
X550300Y157480D03*
D18*
X590500Y196400D03*
D19*
X590500Y185400D03*
X590500Y174400D03*
X590500Y163400D03*
X590500Y152400D03*
X590500Y141400D03*
X590500Y130400D03*
X590500Y119400D03*
D18*
X590500Y108400D03*
X679500Y108400D03*
D19*
X679500Y119400D03*
X679500Y130400D03*
X679500Y141400D03*
X679500Y152400D03*
X679500Y163400D03*
X679500Y174400D03*
X679500Y185400D03*
D18*
X679500Y196400D03*
D17*
X694690Y120730D03*
X694690Y130730D03*
D20*
X743600Y152400D03*
D21*
X790500Y195450D03*
X790500Y109350D03*
D10*
X73600Y323930D03*
X129600Y323930D03*
D11*
X86600Y360680D03*
X96600Y360680D03*
X106600Y360680D03*
X116600Y360680D03*
D10*
X129600Y600630D03*
X73600Y600630D03*
D11*
X116600Y563880D03*
X106600Y563880D03*
X96600Y563880D03*
X86600Y563880D03*
D12*
X122800Y506730D03*
X105800Y506730D03*
X122800Y487680D03*
X105800Y487680D03*
X55000Y449580D03*
X72000Y449580D03*
D13*
X57500Y544280D03*
D12*
X105800Y392430D03*
X122800Y392430D03*
X105800Y411480D03*
X122800Y411480D03*
D14*
X208470Y560380D02*
X208470Y567380D01*
X215470Y567380D01*
X215470Y560380D01*
X208470Y560380D01*
X208470Y563230D02*
X215470Y563230D01*
X215470Y566080D02*
X208470Y566080D01*
X190930Y567380D02*
X190930Y560380D01*
X190930Y567380D02*
X197930Y567380D01*
X197930Y560380D01*
X190930Y560380D01*
X190930Y563230D02*
X197930Y563230D01*
X197930Y566080D02*
X190930Y566080D01*
D15*
X52000Y487680D03*
X75000Y487680D03*
D12*
X55000Y468630D03*
X72000Y468630D03*
X173600Y563880D03*
X156600Y563880D03*
D16*
X304800Y542680D03*
X304800Y559680D03*
X285750Y542680D03*
X285750Y559680D03*
D14*
X208470Y541980D02*
X208470Y534980D01*
X208470Y541980D02*
X215470Y541980D01*
X215470Y534980D01*
X208470Y534980D01*
X208470Y537830D02*
X215470Y537830D01*
X215470Y540680D02*
X208470Y540680D01*
X190930Y541980D02*
X190930Y534980D01*
X190930Y541980D02*
X197930Y541980D01*
X197930Y534980D01*
X190930Y534980D01*
X190930Y537830D02*
X197930Y537830D01*
X197930Y540680D02*
X190930Y540680D01*
D12*
X173600Y538480D03*
X156600Y538480D03*
D17*
X246460Y450850D03*
X256460Y450850D03*
X256460Y462280D03*
X246460Y462280D03*
D12*
X122800Y449580D03*
X105800Y449580D03*
X122800Y430530D03*
X105800Y430530D03*
D16*
X266700Y542680D03*
X266700Y559680D03*
D12*
X122800Y467360D03*
X105800Y467360D03*
D18*
X146000Y506280D03*
D19*
X146000Y495280D03*
X146000Y484280D03*
X146000Y473280D03*
X146000Y462280D03*
X146000Y451280D03*
X146000Y440280D03*
X146000Y429280D03*
D18*
X146000Y418280D03*
X235000Y418280D03*
D19*
X235000Y429280D03*
X235000Y440280D03*
X235000Y451280D03*
X235000Y462280D03*
X235000Y473280D03*
X235000Y484280D03*
X235000Y495280D03*
D18*
X235000Y506280D03*
D17*
X250190Y430610D03*
X250190Y440610D03*
D20*
X299100Y462280D03*
D21*
X346000Y505330D03*
X346000Y419230D03*
D10*
X518100Y323930D03*
X574100Y323930D03*
D11*
X531100Y360680D03*
X541100Y360680D03*
X551100Y360680D03*
X561100Y360680D03*
D10*
X574100Y600630D03*
X518100Y600630D03*
D11*
X561100Y563880D03*
X551100Y563880D03*
X541100Y563880D03*
X531100Y563880D03*
D12*
X567300Y506730D03*
X550300Y506730D03*
X567300Y487680D03*
X550300Y487680D03*
X499500Y449580D03*
X516500Y449580D03*
D13*
X502000Y544280D03*
D12*
X550300Y392430D03*
X567300Y392430D03*
X550300Y411480D03*
X567300Y411480D03*
D14*
X652970Y560380D02*
X652970Y567380D01*
X659970Y567380D01*
X659970Y560380D01*
X652970Y560380D01*
X652970Y563230D02*
X659970Y563230D01*
X659970Y566080D02*
X652970Y566080D01*
X635430Y567380D02*
X635430Y560380D01*
X635430Y567380D02*
X642430Y567380D01*
X642430Y560380D01*
X635430Y560380D01*
X635430Y563230D02*
X642430Y563230D01*
X642430Y566080D02*
X635430Y566080D01*
D15*
X496500Y487680D03*
X519500Y487680D03*
D12*
X499500Y468630D03*
X516500Y468630D03*
X618100Y563880D03*
X601100Y563880D03*
D16*
X749300Y542680D03*
X749300Y559680D03*
X730250Y542680D03*
X730250Y559680D03*
D14*
X652970Y541980D02*
X652970Y534980D01*
X652970Y541980D02*
X659970Y541980D01*
X659970Y534980D01*
X652970Y534980D01*
X652970Y537830D02*
X659970Y537830D01*
X659970Y540680D02*
X652970Y540680D01*
X635430Y541980D02*
X635430Y534980D01*
X635430Y541980D02*
X642430Y541980D01*
X642430Y534980D01*
X635430Y534980D01*
X635430Y537830D02*
X642430Y537830D01*
X642430Y540680D02*
X635430Y540680D01*
D12*
X618100Y538480D03*
X601100Y538480D03*
D17*
X690960Y450850D03*
X700960Y450850D03*
X700960Y462280D03*
X690960Y462280D03*
D12*
X567300Y449580D03*
X550300Y449580D03*
X567300Y430530D03*
X550300Y430530D03*
D16*
X711200Y542680D03*
X711200Y559680D03*
D12*
X567300Y467360D03*
X550300Y467360D03*
D18*
X590500Y506280D03*
D19*
X590500Y495280D03*
X590500Y484280D03*
X590500Y473280D03*
X590500Y462280D03*
X590500Y451280D03*
X590500Y440280D03*
X590500Y429280D03*
D18*
X590500Y418280D03*
X679500Y418280D03*
D19*
X679500Y429280D03*
X679500Y440280D03*
X679500Y451280D03*
X679500Y462280D03*
X679500Y473280D03*
X679500Y484280D03*
X679500Y495280D03*
D18*
X679500Y506280D03*
D17*
X694690Y430610D03*
X694690Y440610D03*
D20*
X743600Y462280D03*
D21*
X790500Y505330D03*
X790500Y419230D03*
D10*
X73600Y633810D03*
X129600Y633810D03*
D11*
X86600Y670560D03*
X96600Y670560D03*
X106600Y670560D03*
X116600Y670560D03*
D10*
X129600Y910510D03*
X73600Y910510D03*
D11*
X116600Y873760D03*
X106600Y873760D03*
X96600Y873760D03*
X86600Y873760D03*
D12*
X122800Y816610D03*
X105800Y816610D03*
X122800Y797560D03*
X105800Y797560D03*
X55000Y759460D03*
X72000Y759460D03*
D13*
X57500Y854160D03*
D12*
X105800Y702310D03*
X122800Y702310D03*
X105800Y721360D03*
X122800Y721360D03*
D14*
X208470Y870260D02*
X208470Y877260D01*
X215470Y877260D01*
X215470Y870260D01*
X208470Y870260D01*
X208470Y873110D02*
X215470Y873110D01*
X215470Y875960D02*
X208470Y875960D01*
X190930Y877260D02*
X190930Y870260D01*
X190930Y877260D02*
X197930Y877260D01*
X197930Y870260D01*
X190930Y870260D01*
X190930Y873110D02*
X197930Y873110D01*
X197930Y875960D02*
X190930Y875960D01*
D15*
X52000Y797560D03*
X75000Y797560D03*
D12*
X55000Y778510D03*
X72000Y778510D03*
X173600Y873760D03*
X156600Y873760D03*
D16*
X304800Y852560D03*
X304800Y869560D03*
X285750Y852560D03*
X285750Y869560D03*
D14*
X208470Y851860D02*
X208470Y844860D01*
X208470Y851860D02*
X215470Y851860D01*
X215470Y844860D01*
X208470Y844860D01*
X208470Y847710D02*
X215470Y847710D01*
X215470Y850560D02*
X208470Y850560D01*
X190930Y851860D02*
X190930Y844860D01*
X190930Y851860D02*
X197930Y851860D01*
X197930Y844860D01*
X190930Y844860D01*
X190930Y847710D02*
X197930Y847710D01*
X197930Y850560D02*
X190930Y850560D01*
D12*
X173600Y848360D03*
X156600Y848360D03*
D17*
X246460Y760730D03*
X256460Y760730D03*
X256460Y772160D03*
X246460Y772160D03*
D12*
X122800Y759460D03*
X105800Y759460D03*
X122800Y740410D03*
X105800Y740410D03*
D16*
X266700Y852560D03*
X266700Y869560D03*
D12*
X122800Y777240D03*
X105800Y777240D03*
D18*
X146000Y816160D03*
D19*
X146000Y805160D03*
X146000Y794160D03*
X146000Y783160D03*
X146000Y772160D03*
X146000Y761160D03*
X146000Y750160D03*
X146000Y739160D03*
D18*
X146000Y728160D03*
X235000Y728160D03*
D19*
X235000Y739160D03*
X235000Y750160D03*
X235000Y761160D03*
X235000Y772160D03*
X235000Y783160D03*
X235000Y794160D03*
X235000Y805160D03*
D18*
X235000Y816160D03*
D17*
X250190Y740490D03*
X250190Y750490D03*
D20*
X299100Y772160D03*
D21*
X346000Y815210D03*
X346000Y729110D03*
D10*
X518100Y633810D03*
X574100Y633810D03*
D11*
X531100Y670560D03*
X541100Y670560D03*
X551100Y670560D03*
X561100Y670560D03*
D10*
X574100Y910510D03*
X518100Y910510D03*
D11*
X561100Y873760D03*
X551100Y873760D03*
X541100Y873760D03*
X531100Y873760D03*
D12*
X567300Y816610D03*
X550300Y816610D03*
X567300Y797560D03*
X550300Y797560D03*
X499500Y759460D03*
X516500Y759460D03*
D13*
X502000Y854160D03*
D12*
X550300Y702310D03*
X567300Y702310D03*
X550300Y721360D03*
X567300Y721360D03*
D14*
X652970Y870260D02*
X652970Y877260D01*
X659970Y877260D01*
X659970Y870260D01*
X652970Y870260D01*
X652970Y873110D02*
X659970Y873110D01*
X659970Y875960D02*
X652970Y875960D01*
X635430Y877260D02*
X635430Y870260D01*
X635430Y877260D02*
X642430Y877260D01*
X642430Y870260D01*
X635430Y870260D01*
X635430Y873110D02*
X642430Y873110D01*
X642430Y875960D02*
X635430Y875960D01*
D15*
X496500Y797560D03*
X519500Y797560D03*
D12*
X499500Y778510D03*
X516500Y778510D03*
X618100Y873760D03*
X601100Y873760D03*
D16*
X749300Y852560D03*
X749300Y869560D03*
X730250Y852560D03*
X730250Y869560D03*
D14*
X652970Y851860D02*
X652970Y844860D01*
X652970Y851860D02*
X659970Y851860D01*
X659970Y844860D01*
X652970Y844860D01*
X652970Y847710D02*
X659970Y847710D01*
X659970Y850560D02*
X652970Y850560D01*
X635430Y851860D02*
X635430Y844860D01*
X635430Y851860D02*
X642430Y851860D01*
X642430Y844860D01*
X635430Y844860D01*
X635430Y847710D02*
X642430Y847710D01*
X642430Y850560D02*
X635430Y850560D01*
D12*
X618100Y848360D03*
X601100Y848360D03*
D17*
X690960Y760730D03*
X700960Y760730D03*
X700960Y772160D03*
X690960Y772160D03*
D12*
X567300Y759460D03*
X550300Y759460D03*
X567300Y740410D03*
X550300Y740410D03*
D16*
X711200Y852560D03*
X711200Y869560D03*
D12*
X567300Y777240D03*
X550300Y777240D03*
D18*
X590500Y816160D03*
D19*
X590500Y805160D03*
X590500Y794160D03*
X590500Y783160D03*
X590500Y772160D03*
X590500Y761160D03*
X590500Y750160D03*
X590500Y739160D03*
D18*
X590500Y728160D03*
X679500Y728160D03*
D19*
X679500Y739160D03*
X679500Y750160D03*
X679500Y761160D03*
X679500Y772160D03*
X679500Y783160D03*
X679500Y794160D03*
X679500Y805160D03*
D18*
X679500Y816160D03*
D17*
X694690Y740490D03*
X694690Y750490D03*
D20*
X743600Y772160D03*
D21*
X790500Y815210D03*
X790500Y729110D03*
M02*
